<?xml version="1.0" encoding="UTF-8" standalone="no"?>
<svg
   xmlns:dc="http://purl.org/dc/elements/1.1/"
   xmlns:cc="http://creativecommons.org/ns#"
   xmlns:rdf="http://www.w3.org/1999/02/22-rdf-syntax-ns#"
   xmlns:svg="http://www.w3.org/2000/svg"
   xmlns="http://www.w3.org/2000/svg"
   xmlns:sodipodi="http://sodipodi.sourceforge.net/DTD/sodipodi-0.dtd"
   xmlns:inkscape="http://www.inkscape.org/namespaces/inkscape"
   width="210mm"
   height="297mm"
   viewBox="0 0 210 297"
   version="1.1"
   id="svg5212"
   inkscape:version="1.0.2 (e86c870879, 2021-01-15)"
   sodipodi:docname="BasilarTuning.svg">
  <defs
     id="defs5206">
    <inkscape:path-effect
       effect="bspline"
       id="path-effect5833"
       is_visible="true"
       lpeversion="1"
       weight="33.333333"
       steps="2"
       helper_size="0"
       apply_no_weight="true"
       apply_with_weight="true"
       only_selected="false" />
    <marker
       style="overflow:visible;"
       id="Arrow1Lend"
       refX="0.0"
       refY="0.0"
       orient="auto"
       inkscape:stockid="Arrow1Lend"
       inkscape:isstock="true">
      <path
         transform="scale(0.8) rotate(180) translate(12.5,0)"
         style="fill-rule:evenodd;stroke:#000000;stroke-width:1pt;stroke-opacity:1;fill:#000000;fill-opacity:1"
         d="M 0.0,0.0 L 5.0,-5.0 L -12.5,0.0 L 5.0,5.0 L 0.0,0.0 z "
         id="path906" />
    </marker>
    <marker
       style="overflow:visible"
       id="Arrow1Lstart"
       refX="0.0"
       refY="0.0"
       orient="auto"
       inkscape:stockid="Arrow1Lstart"
       inkscape:isstock="true">
      <path
         transform="scale(0.8) translate(12.5,0)"
         style="fill-rule:evenodd;stroke:#000000;stroke-width:1pt;stroke-opacity:1;fill:#000000;fill-opacity:1"
         d="M 0.0,0.0 L 5.0,-5.0 L -12.5,0.0 L 5.0,5.0 L 0.0,0.0 z "
         id="path903" />
    </marker>
    <inkscape:path-effect
       effect="bspline"
       id="path-effect5779"
       is_visible="true"
       lpeversion="1"
       weight="33.333333"
       steps="2"
       helper_size="0"
       apply_no_weight="true"
       apply_with_weight="true"
       only_selected="false" />
  </defs>
  <sodipodi:namedview
     id="base"
     pagecolor="#ffffff"
     bordercolor="#666666"
     borderopacity="1.0"
     inkscape:pageopacity="0.0"
     inkscape:pageshadow="2"
     inkscape:zoom="1.979899"
     inkscape:cx="292.24877"
     inkscape:cy="240.25261"
     inkscape:document-units="mm"
     inkscape:current-layer="layer1"
     inkscape:document-rotation="0"
     showgrid="false"
     inkscape:window-width="1533"
     inkscape:window-height="1016"
     inkscape:window-x="50"
     inkscape:window-y="27"
     inkscape:window-maximized="0" />
  <metadata
     id="metadata5209">
    <rdf:RDF>
      <cc:Work
         rdf:about="">
        <dc:format>image/svg+xml</dc:format>
        <dc:type
           rdf:resource="http://purl.org/dc/dcmitype/StillImage" />
        <dc:title />
      </cc:Work>
    </rdf:RDF>
  </metadata>
  <g
     inkscape:label="Layer 1"
     inkscape:groupmode="layer"
     id="layer1">
    <path
       id="path5775"
       style="fill:none;fill-rule:evenodd;stroke:#000000;stroke-width:0.264583"
       d="m 42.154751,56.290466 c 0.482859,0.509774 -0.448939,0.902389 -0.847277,0.802544 -1.079472,-0.270574 -1.216338,-1.666351 -0.75781,-2.497097 0.820199,-1.486011 2.848747,-1.607699 4.146917,-0.713077 1.905117,1.312895 2.01117,4.047368 0.668343,5.796737 -1.789778,2.331634 -5.251772,2.419832 -7.446557,0.62361 -2.761913,-2.260363 -2.831185,-6.45894 -0.578876,-9.096377 2.727848,-3.194291 7.667663,-3.244097 10.746197,-0.534143 3.627946,3.193588 3.657989,8.877359 0.489409,12.396017 -3.65825,4.062431 -10.087701,4.072534 -14.045837,0.444676 -4.497486,-4.122203 -4.487535,-11.2985 -0.399942,-15.695657 4.585661,-4.932947 12.50963,-4.902869 17.345477,-0.355209 5.368708,5.048764 5.31845,13.72101 0.310475,18.995298" />
    <path
       style="fill:none;stroke:#000000;stroke-width:0.265;stroke-linecap:butt;stroke-linejoin:miter;stroke-opacity:1;stroke-miterlimit:4;stroke-dasharray:none;marker-end:url(#Arrow1Lend)"
       d="m 57.632128,55.981126 c 5.459101,-0.04069 10.917939,-0.08138 16.376515,-0.122068"
       id="path5777" />
    <g
       aria-label="Cochlea"
       id="text5829"
       style="font-size:4.9389px;line-height:1.25;font-family:sans-serif;-inkscape-font-specification:'sans-serif, Normal';stroke-width:0.264583">
      <path
         d="m 38.534806,38.323998 v 0.366903 q -0.1757,-0.163643 -0.375516,-0.244602 -0.198093,-0.08096 -0.422024,-0.08096 -0.440973,0 -0.675239,0.27044 -0.234267,0.268718 -0.234267,0.778592 0,0.508152 0.234267,0.778592 0.234266,0.268718 0.675239,0.268718 0.223931,0 0.422024,-0.08096 0.199816,-0.08096 0.375516,-0.244602 v 0.363458 q -0.18259,0.124023 -0.387574,0.186035 -0.20326,0.06201 -0.430637,0.06201 -0.583944,0 -0.919841,-0.356568 -0.335897,-0.35829 -0.335897,-0.976685 0,-0.620118 0.335897,-0.976685 0.335897,-0.35829 0.919841,-0.35829 0.230822,0 0.434083,0.06201 0.204983,0.06029 0.384128,0.182591 z"
         style="font-size:3.52778px;stroke-width:0.264583"
         id="path886" />
      <path
         d="m 39.806047,38.990624 q -0.254937,0 -0.403076,0.199816 -0.14814,0.198093 -0.14814,0.544325 0,0.346232 0.146417,0.546048 0.148139,0.198093 0.404799,0.198093 0.253215,0 0.401354,-0.199815 0.148139,-0.199816 0.148139,-0.544326 0,-0.342787 -0.148139,-0.542603 -0.148139,-0.201538 -0.401354,-0.201538 z m 0,-0.268718 q 0.413412,0 0.649401,0.268718 0.235989,0.268718 0.235989,0.744141 0,0.473701 -0.235989,0.744141 -0.235989,0.268718 -0.649401,0.268718 -0.415134,0 -0.651123,-0.268718 -0.234267,-0.27044 -0.234267,-0.744141 0,-0.475423 0.234267,-0.744141 0.235989,-0.268718 0.651123,-0.268718 z"
         style="font-size:3.52778px;stroke-width:0.264583"
         id="path888" />
      <path
         d="m 42.605189,38.842485 v 0.296278 q -0.134359,-0.07407 -0.27044,-0.110243 -0.134359,-0.0379 -0.272163,-0.0379 -0.308336,0 -0.478868,0.196371 -0.170533,0.194648 -0.170533,0.54777 0,0.353123 0.170533,0.549493 0.170532,0.194648 0.478868,0.194648 0.137804,0 0.272163,-0.03617 0.136081,-0.0379 0.27044,-0.111966 V 40.6236 q -0.132636,0.06201 -0.275608,0.09302 -0.141249,0.03101 -0.301446,0.03101 -0.435805,0 -0.692465,-0.273885 -0.256659,-0.273886 -0.256659,-0.738974 0,-0.471978 0.258382,-0.742418 0.260105,-0.270441 0.711413,-0.270441 0.146416,0 0.285943,0.03101 0.139526,0.02928 0.27044,0.08957 z"
         style="font-size:3.52778px;stroke-width:0.264583"
         id="path890" />
      <path
         d="m 44.760098,39.533227 v 1.164443 h -0.316949 v -1.154108 q 0,-0.273885 -0.106798,-0.409966 -0.106798,-0.136082 -0.320395,-0.136082 -0.256659,0 -0.404798,0.163642 -0.14814,0.163643 -0.14814,0.446141 v 1.090373 h -0.318671 v -2.680286 h 0.318671 v 1.050755 q 0.113689,-0.173978 0.266995,-0.260105 0.15503,-0.08613 0.356568,-0.08613 0.332452,0 0.502984,0.206706 0.170533,0.204984 0.170533,0.604615 z"
         style="font-size:3.52778px;stroke-width:0.264583"
         id="path892" />
      <path
         d="m 45.392273,38.017384 h 0.316949 v 2.680286 h -0.316949 z"
         style="font-size:3.52778px;stroke-width:0.264583"
         id="path894" />
      <path
         d="m 48.022605,39.653805 v 0.15503 h -1.457276 q 0.02067,0.327284 0.19637,0.499539 0.177423,0.170532 0.492649,0.170532 0.18259,0 0.353123,-0.04479 0.172255,-0.04479 0.341064,-0.134359 v 0.299724 q -0.170532,0.07235 -0.349677,0.110243 -0.179145,0.0379 -0.363458,0.0379 -0.461643,0 -0.732083,-0.268718 -0.268718,-0.268717 -0.268718,-0.726915 0,-0.473701 0.254938,-0.751032 0.256659,-0.279053 0.690742,-0.279053 0.389296,0 0.61495,0.251493 0.227376,0.249769 0.227376,0.680406 z m -0.316949,-0.09302 q -0.0034,-0.260105 -0.146417,-0.415135 -0.141249,-0.155029 -0.375515,-0.155029 -0.265273,0 -0.42547,0.149862 -0.158474,0.149862 -0.18259,0.422024 z"
         style="font-size:3.52778px;stroke-width:0.264583"
         id="path896" />
      <path
         d="m 49.419593,39.727875 q -0.384129,0 -0.532268,0.08785 -0.148139,0.08785 -0.148139,0.299723 0,0.16881 0.110243,0.268718 0.111966,0.09819 0.303169,0.09819 0.26355,0 0.422024,-0.186035 0.160197,-0.187758 0.160197,-0.497817 v -0.07062 z m 0.632175,-0.130914 v 1.100709 h -0.316949 v -0.292833 q -0.10852,0.1757 -0.27044,0.260105 -0.16192,0.08268 -0.396186,0.08268 -0.296279,0 -0.471979,-0.165365 -0.173977,-0.167087 -0.173977,-0.44614 0,-0.325562 0.217041,-0.490926 0.218764,-0.165365 0.651124,-0.165365 h 0.444417 v -0.03101 q 0,-0.218764 -0.144694,-0.33762 -0.142972,-0.120578 -0.403076,-0.120578 -0.165365,0 -0.322117,0.03962 -0.156752,0.03962 -0.301446,0.118856 v -0.292834 q 0.173977,-0.06718 0.337619,-0.09991 0.163643,-0.03445 0.318672,-0.03445 0.418579,0 0.625285,0.217042 0.206706,0.217041 0.206706,0.658013 z"
         style="font-size:3.52778px;stroke-width:0.264583"
         id="path898" />
    </g>
    <path
       style="fill:none;stroke:#000000;stroke-width:0.264583px;stroke-linecap:butt;stroke-linejoin:miter;stroke-opacity:1"
       d="M 78.797779,59.362789 C 92.970953,59.26648 107.14387,59.170172 121.31651,59.073866"
       id="path5831" />
    <g
       aria-label="Apex"
       id="text5837"
       style="font-size:4.9389px;line-height:1.25;font-family:sans-serif;-inkscape-font-specification:'sans-serif, Normal';stroke-width:0.264583">
      <path
         d="m 118.88021,60.849299 -0.47198,1.279854 h 0.94568 z m -0.19637,-0.342787 h 0.39446 l 0.98013,2.571766 h -0.36173 l -0.23427,-0.659737 h -1.15928 l -0.23426,0.659737 h -0.36691 z"
         style="font-size:3.52778px;stroke-width:0.264583"
         id="path907" />
      <path
         d="m 120.72678,62.788889 v 1.023194 h -0.31867 v -2.66306 h 0.31867 v 0.292833 q 0.0999,-0.172255 0.25149,-0.254937 0.15331,-0.08441 0.36518,-0.08441 0.3514,0 0.57017,0.279053 0.22048,0.279053 0.22048,0.733806 0,0.454753 -0.22048,0.733806 -0.21877,0.279053 -0.57017,0.279053 -0.21187,0 -0.36518,-0.08268 -0.15158,-0.08441 -0.25149,-0.25666 z m 1.07832,-0.673516 q 0,-0.349678 -0.1447,-0.547771 -0.14297,-0.199815 -0.39446,-0.199815 -0.25149,0 -0.39619,0.199815 -0.14297,0.198093 -0.14297,0.547771 0,0.349677 0.14297,0.549493 0.1447,0.198093 0.39619,0.198093 0.25149,0 0.39446,-0.198093 0.1447,-0.199816 0.1447,-0.549493 z"
         style="font-size:3.52778px;stroke-width:0.264583"
         id="path909" />
      <path
         d="m 124.30968,62.034413 v 0.155029 h -1.45727 q 0.0207,0.327285 0.19637,0.49954 0.17742,0.170532 0.49264,0.170532 0.18259,0 0.35313,-0.04479 0.17225,-0.04479 0.34106,-0.134359 v 0.299723 q -0.17053,0.07235 -0.34968,0.110243 -0.17914,0.0379 -0.36345,0.0379 -0.46165,0 -0.73209,-0.268718 -0.26871,-0.268718 -0.26871,-0.726916 0,-0.473701 0.25493,-0.751031 0.25666,-0.279053 0.69075,-0.279053 0.38929,0 0.61495,0.251492 0.22737,0.24977 0.22737,0.680407 z m -0.31695,-0.09302 q -0.003,-0.260105 -0.14641,-0.415134 -0.14125,-0.155029 -0.37552,-0.155029 -0.26527,0 -0.42547,0.149861 -0.15847,0.149862 -0.18259,0.422025 z"
         style="font-size:3.52778px;stroke-width:0.264583"
         id="path911" />
      <path
         d="m 126.37157,61.149023 -0.69763,0.938789 0.73381,0.990466 h -0.3738 l -0.56155,-0.757922 -0.56155,0.757922 h -0.37379 l 0.74931,-1.009414 -0.68558,-0.919841 h 0.3738 l 0.51159,0.687297 0.5116,-0.687297 z"
         style="font-size:3.52778px;stroke-width:0.264583"
         id="path913" />
    </g>
    <g
       aria-label="Base"
       id="text5837-3"
       style="font-size:4.9389px;line-height:1.25;font-family:sans-serif;-inkscape-font-specification:'sans-serif, Normal';stroke-width:0.264583">
      <path
         d="m 74.331959,62.649688 v 0.942234 h 0.558106 q 0.280775,0 0.415134,-0.115411 0.136081,-0.117133 0.136081,-0.356568 0,-0.241156 -0.136081,-0.354845 -0.134359,-0.11541 -0.415134,-0.11541 z m 0,-1.057645 v 0.775146 h 0.515042 q 0.254937,0 0.378961,-0.09474 0.125746,-0.09646 0.125746,-0.292833 0,-0.194648 -0.125746,-0.291111 -0.124024,-0.09646 -0.378961,-0.09646 z m -0.347955,-0.285944 h 0.888835 q 0.397909,0 0.613228,0.165365 0.215318,0.165365 0.215318,0.470256 0,0.235989 -0.110243,0.375516 -0.110243,0.139526 -0.323839,0.173977 0.25666,0.05512 0.397909,0.230822 0.142971,0.173977 0.142971,0.435804 0,0.34451 -0.234266,0.532268 -0.234267,0.187758 -0.666627,0.187758 h -0.923286 z"
         style="font-size:3.52778px;stroke-width:0.264583"
         id="path922" />
      <path
         d="m 77.267182,62.90807 q -0.384128,0 -0.532268,0.08785 -0.148139,0.08785 -0.148139,0.299723 0,0.16881 0.110243,0.268718 0.111966,0.09819 0.303169,0.09819 0.26355,0 0.422024,-0.186035 0.160197,-0.187758 0.160197,-0.497817 v -0.07062 z m 0.632175,-0.130914 v 1.100709 h -0.316949 v -0.292833 q -0.10852,0.1757 -0.27044,0.260104 -0.161919,0.08268 -0.396186,0.08268 -0.296278,0 -0.471978,-0.165365 -0.173978,-0.167087 -0.173978,-0.44614 0,-0.325562 0.217041,-0.490927 0.218764,-0.165364 0.651124,-0.165364 h 0.444417 v -0.03101 q 0,-0.218764 -0.144694,-0.33762 -0.142971,-0.120578 -0.403076,-0.120578 -0.165365,0 -0.322117,0.03962 -0.156752,0.03962 -0.301446,0.118855 V 62.03646 q 0.173978,-0.06718 0.33762,-0.09991 0.163642,-0.03445 0.318671,-0.03445 0.41858,0 0.625286,0.217041 0.206705,0.217042 0.206705,0.658014 z"
         style="font-size:3.52778px;stroke-width:0.264583"
         id="path924" />
      <path
         d="m 79.782103,62.005454 v 0.299724 q -0.134359,-0.0689 -0.279053,-0.103353 -0.144694,-0.03445 -0.299723,-0.03445 -0.235989,0 -0.354845,0.07235 -0.117134,0.07235 -0.117134,0.217041 0,0.110243 0.08441,0.173977 0.08441,0.06201 0.339342,0.118856 l 0.108521,0.02412 q 0.33762,0.07235 0.478869,0.204983 0.142971,0.130914 0.142971,0.366903 0,0.268718 -0.213596,0.42547 -0.211873,0.156752 -0.583944,0.156752 -0.155029,0 -0.323839,-0.03101 -0.167087,-0.02928 -0.353123,-0.08957 v -0.327284 q 0.1757,0.09129 0.346233,0.137804 0.170532,0.04479 0.337619,0.04479 0.223932,0 0.34451,-0.07579 0.120578,-0.07751 0.120578,-0.217041 0,-0.129191 -0.08785,-0.198093 -0.08613,-0.0689 -0.380683,-0.132636 l -0.110243,-0.02584 q -0.294556,-0.06201 -0.42547,-0.18948 -0.130913,-0.129191 -0.130913,-0.353123 0,-0.272162 0.192925,-0.420301 0.192926,-0.14814 0.547771,-0.14814 0.1757,0 0.330729,0.02584 0.155029,0.02584 0.285943,0.07751 z"
         style="font-size:3.52778px;stroke-width:0.264583"
         id="path926" />
      <path
         d="m 82.040365,62.834 v 0.15503 h -1.457276 q 0.02067,0.327284 0.19637,0.499539 0.177423,0.170532 0.492649,0.170532 0.18259,0 0.353123,-0.04479 0.172254,-0.04479 0.341064,-0.134359 v 0.299724 q -0.170532,0.07235 -0.349677,0.110243 -0.179145,0.0379 -0.363458,0.0379 -0.461643,0 -0.732083,-0.268718 -0.268718,-0.268717 -0.268718,-0.726915 0,-0.473701 0.254937,-0.751032 0.25666,-0.279053 0.690742,-0.279053 0.389297,0 0.61495,0.251492 0.227377,0.24977 0.227377,0.680407 z m -0.316949,-0.09302 q -0.0034,-0.260105 -0.146417,-0.415135 -0.141249,-0.155029 -0.375515,-0.155029 -0.265273,0 -0.42547,0.149862 -0.158474,0.149861 -0.18259,0.422024 z"
         style="font-size:3.52778px;stroke-width:0.264583"
         id="path928" />
    </g>
    <g
       aria-label="20 kHz"
       id="text5865"
       style="font-size:4.9389px;line-height:1.25;font-family:sans-serif;-inkscape-font-specification:'sans-serif, Normal';stroke-width:0.264583">
      <path
         d="m 78.012144,56.14414 h 1.214397 v 0.292834 H 77.593565 V 56.14414 q 0.198093,-0.204983 0.539157,-0.549493 0.342788,-0.346232 0.430638,-0.44614 0.167087,-0.187758 0.232544,-0.316949 0.06718,-0.130914 0.06718,-0.25666 0,-0.204983 -0.144694,-0.334174 -0.142972,-0.129191 -0.373793,-0.129191 -0.163642,0 -0.346233,0.05684 -0.180867,0.05684 -0.387573,0.172255 v -0.3514 q 0.210151,-0.08441 0.392741,-0.127469 0.18259,-0.04306 0.334175,-0.04306 0.399631,0 0.637343,0.199816 0.237711,0.199816 0.237711,0.53399 0,0.158475 -0.06029,0.301446 -0.05857,0.141249 -0.215318,0.334175 -0.04306,0.04995 -0.273886,0.289388 -0.230821,0.237712 -0.651123,0.666626 z"
         style="font-size:3.52778px;stroke-width:0.264583"
         id="path937" />
      <path
         d="m 80.701043,54.094307 q -0.268718,0 -0.404799,0.265273 -0.134359,0.26355 -0.134359,0.794095 0,0.528822 0.134359,0.794095 0.136081,0.26355 0.404799,0.26355 0.27044,0 0.404799,-0.26355 0.136081,-0.265273 0.136081,-0.794095 0,-0.530545 -0.136081,-0.794095 -0.134359,-0.265273 -0.404799,-0.265273 z m 0,-0.275608 q 0.432359,0 0.659736,0.342788 0.229099,0.341064 0.229099,0.992188 0,0.649401 -0.229099,0.992188 -0.227377,0.341064 -0.659736,0.341064 -0.43236,0 -0.661459,-0.341064 -0.227377,-0.342787 -0.227377,-0.992188 0,-0.651124 0.227377,-0.992188 0.229099,-0.342788 0.661459,-0.342788 z"
         style="font-size:3.52778px;stroke-width:0.264583"
         id="path939" />
      <path
         d="m 83.265918,53.756688 h 0.318671 v 1.583022 l 0.94568,-0.831991 h 0.404799 l -1.023194,0.902615 1.066257,1.02664 H 84.56472 l -0.980131,-0.942235 v 0.942235 h -0.318671 z"
         style="font-size:3.52778px;stroke-width:0.264583"
         id="path941" />
      <path
         d="m 85.334699,53.865208 h 0.347955 v 1.0542 h 1.264351 v -1.0542 h 0.347955 v 2.571766 h -0.347955 v -1.224733 h -1.264351 v 1.224733 h -0.347955 z"
         style="font-size:3.52778px;stroke-width:0.264583"
         id="path943" />
      <path
         d="m 87.83584,54.507719 h 1.505507 v 0.289388 l -1.192004,1.386652 h 1.192004 v 0.253215 h -1.548571 v -0.289389 l 1.192004,-1.386651 h -1.14894 z"
         style="font-size:3.52778px;stroke-width:0.264583"
         id="path945" />
    </g>
    <g
       aria-label="20 Hz"
       id="text5865-1"
       style="font-size:4.9389px;line-height:1.25;font-family:sans-serif;-inkscape-font-specification:'sans-serif, Normal';stroke-width:0.264583">
      <path
         d="m 114.70261,55.98176 h 1.2144 v 0.292833 h -1.63298 V 55.98176 q 0.1981,-0.204983 0.53916,-0.549493 0.34279,-0.346232 0.43064,-0.44614 0.16708,-0.187758 0.23254,-0.316949 0.0672,-0.130914 0.0672,-0.25666 0,-0.204983 -0.14469,-0.334174 -0.14297,-0.129192 -0.3738,-0.129192 -0.16364,0 -0.34623,0.05685 -0.18087,0.05684 -0.38757,0.172254 v -0.3514 q 0.21015,-0.0844 0.39274,-0.127468 0.18259,-0.04306 0.33417,-0.04306 0.39963,0 0.63735,0.199816 0.23771,0.199815 0.23771,0.53399 0,0.158474 -0.0603,0.301446 -0.0586,0.141249 -0.21532,0.334174 -0.0431,0.04995 -0.27388,0.289389 -0.23083,0.237711 -0.65113,0.666626 z"
         style="font-size:3.52778px;stroke-width:0.264583"
         id="path954" />
      <path
         d="m 117.39151,53.931927 q -0.26872,0 -0.4048,0.265272 -0.13436,0.26355 -0.13436,0.794095 0,0.528823 0.13436,0.794095 0.13608,0.26355 0.4048,0.26355 0.27044,0 0.4048,-0.26355 0.13608,-0.265272 0.13608,-0.794095 0,-0.530545 -0.13608,-0.794095 -0.13436,-0.265272 -0.4048,-0.265272 z m 0,-0.275608 q 0.43236,0 0.65974,0.342787 0.2291,0.341065 0.2291,0.992188 0,0.649401 -0.2291,0.992189 -0.22738,0.341064 -0.65974,0.341064 -0.43236,0 -0.66146,-0.341064 -0.22737,-0.342788 -0.22737,-0.992189 0,-0.651123 0.22737,-0.992188 0.2291,-0.342787 0.66146,-0.342787 z"
         style="font-size:3.52778px;stroke-width:0.264583"
         id="path956" />
      <path
         d="m 119.98222,53.702828 h 0.34796 v 1.0542 h 1.26435 v -1.0542 h 0.34795 v 2.571765 h -0.34795 v -1.224732 h -1.26435 v 1.224732 h -0.34796 z"
         style="font-size:3.52778px;stroke-width:0.264583"
         id="path958" />
      <path
         d="m 122.48336,54.345339 h 1.50551 v 0.289388 l -1.192,1.386652 h 1.192 v 0.253214 h -1.54857 v -0.289388 l 1.192,-1.386652 h -1.14894 z"
         style="font-size:3.52778px;stroke-width:0.264583"
         id="path960" />
    </g>
  </g>
</svg>
