<?xml version="1.0" encoding="UTF-8" standalone="no"?>
<svg
   xmlns:dc="http://purl.org/dc/elements/1.1/"
   xmlns:cc="http://creativecommons.org/ns#"
   xmlns:rdf="http://www.w3.org/1999/02/22-rdf-syntax-ns#"
   xmlns:svg="http://www.w3.org/2000/svg"
   xmlns="http://www.w3.org/2000/svg"
   xmlns:sodipodi="http://sodipodi.sourceforge.net/DTD/sodipodi-0.dtd"
   xmlns:inkscape="http://www.inkscape.org/namespaces/inkscape"
   width="210mm"
   height="297mm"
   viewBox="0 0 210 297"
   version="1.1"
   id="svg8"
   inkscape:version="1.0.2 (e86c870879, 2021-01-15)"
   sodipodi:docname="Cochlea.svg">
  <defs
     id="defs2">
    <inkscape:path-effect
       effect="bspline"
       id="path-effect2838"
       is_visible="true"
       lpeversion="1"
       weight="33.333333"
       steps="2"
       helper_size="0"
       apply_no_weight="true"
       apply_with_weight="true"
       only_selected="false" />
    <inkscape:path-effect
       effect="bspline"
       id="path-effect2650"
       is_visible="true"
       lpeversion="1"
       weight="33.333333"
       steps="2"
       helper_size="0"
       apply_no_weight="true"
       apply_with_weight="true"
       only_selected="false" />
    <inkscape:path-effect
       effect="bspline"
       id="path-effect2476"
       is_visible="true"
       lpeversion="1"
       weight="33.333333"
       steps="2"
       helper_size="0"
       apply_no_weight="true"
       apply_with_weight="true"
       only_selected="false" />
    <inkscape:path-effect
       effect="bspline"
       id="path-effect2367"
       is_visible="true"
       lpeversion="1"
       weight="33.333333"
       steps="2"
       helper_size="0"
       apply_no_weight="true"
       apply_with_weight="true"
       only_selected="false" />
    <inkscape:path-effect
       effect="bspline"
       id="path-effect2363"
       is_visible="true"
       lpeversion="1"
       weight="33.333333"
       steps="2"
       helper_size="0"
       apply_no_weight="true"
       apply_with_weight="true"
       only_selected="false" />
    <inkscape:path-effect
       effect="bspline"
       id="path-effect2359"
       is_visible="true"
       lpeversion="1"
       weight="33.333333"
       steps="2"
       helper_size="0"
       apply_no_weight="true"
       apply_with_weight="true"
       only_selected="false" />
    <marker
       style="overflow:visible;"
       id="Arrow1Send"
       refX="0.0"
       refY="0.0"
       orient="auto"
       inkscape:stockid="Arrow1Send"
       inkscape:isstock="true">
      <path
         transform="scale(0.2) rotate(180) translate(6,0)"
         style="fill-rule:evenodd;stroke:#000000;stroke-width:1pt;stroke-opacity:1;fill:#000000;fill-opacity:1"
         d="M 0.0,0.0 L 5.0,-5.0 L -12.5,0.0 L 5.0,5.0 L 0.0,0.0 z "
         id="path918" />
    </marker>
    <inkscape:path-effect
       effect="bspline"
       id="path-effect2259"
       is_visible="true"
       lpeversion="1"
       weight="33.333333"
       steps="2"
       helper_size="0"
       apply_no_weight="true"
       apply_with_weight="true"
       only_selected="false" />
    <inkscape:path-effect
       effect="bspline"
       id="path-effect2251"
       is_visible="true"
       lpeversion="1"
       weight="33.333333"
       steps="2"
       helper_size="0"
       apply_no_weight="true"
       apply_with_weight="true"
       only_selected="false" />
    <inkscape:path-effect
       effect="bspline"
       id="path-effect2235"
       is_visible="true"
       lpeversion="1"
       weight="33.333333"
       steps="2"
       helper_size="0"
       apply_no_weight="true"
       apply_with_weight="true"
       only_selected="false" />
    <marker
       style="overflow:visible"
       id="marker2131"
       refX="0.0"
       refY="0.0"
       orient="auto"
       inkscape:stockid="Arrow1Sstart"
       inkscape:isstock="true">
      <path
         transform="scale(0.2) translate(6,0)"
         style="fill-rule:evenodd;stroke:#000000;stroke-width:1pt;stroke-opacity:1;fill:#000000;fill-opacity:1"
         d="M 0.0,0.0 L 5.0,-5.0 L -12.5,0.0 L 5.0,5.0 L 0.0,0.0 z "
         id="path2129" />
    </marker>
    <inkscape:path-effect
       effect="bspline"
       id="path-effect2127"
       is_visible="true"
       lpeversion="1"
       weight="33.333333"
       steps="2"
       helper_size="0"
       apply_no_weight="true"
       apply_with_weight="true"
       only_selected="false" />
    <inkscape:path-effect
       effect="bspline"
       id="path-effect2093"
       is_visible="true"
       lpeversion="1"
       weight="33.333333"
       steps="2"
       helper_size="0"
       apply_no_weight="true"
       apply_with_weight="true"
       only_selected="false" />
    <inkscape:path-effect
       effect="bspline"
       id="path-effect2088"
       is_visible="true"
       lpeversion="1"
       weight="33.333333"
       steps="2"
       helper_size="0"
       apply_no_weight="true"
       apply_with_weight="true"
       only_selected="false" />
    <marker
       style="overflow:visible"
       id="Arrow1Sstart"
       refX="0.0"
       refY="0.0"
       orient="auto"
       inkscape:stockid="Arrow1Sstart"
       inkscape:isstock="true">
      <path
         transform="scale(0.2) translate(6,0)"
         style="fill-rule:evenodd;stroke:#000000;stroke-width:1pt;stroke-opacity:1;fill:#000000;fill-opacity:1"
         d="M 0.0,0.0 L 5.0,-5.0 L -12.5,0.0 L 5.0,5.0 L 0.0,0.0 z "
         id="path915" />
    </marker>
    <inkscape:path-effect
       effect="bspline"
       id="path-effect1991"
       is_visible="true"
       lpeversion="1"
       weight="33.333333"
       steps="2"
       helper_size="0"
       apply_no_weight="true"
       apply_with_weight="true"
       only_selected="false" />
    <inkscape:path-effect
       effect="bspline"
       id="path-effect1982"
       is_visible="true"
       lpeversion="1"
       weight="33.333333"
       steps="2"
       helper_size="0"
       apply_no_weight="true"
       apply_with_weight="true"
       only_selected="false" />
    <inkscape:path-effect
       effect="bspline"
       id="path-effect1970"
       is_visible="true"
       lpeversion="1"
       weight="33.333333"
       steps="2"
       helper_size="0"
       apply_no_weight="true"
       apply_with_weight="true"
       only_selected="false" />
    <inkscape:path-effect
       effect="bspline"
       id="path-effect1958"
       is_visible="true"
       lpeversion="1"
       weight="33.333333"
       steps="2"
       helper_size="0"
       apply_no_weight="true"
       apply_with_weight="true"
       only_selected="false" />
    <inkscape:path-effect
       effect="bspline"
       id="path-effect1946"
       is_visible="true"
       lpeversion="1"
       weight="33.333333"
       steps="2"
       helper_size="0"
       apply_no_weight="true"
       apply_with_weight="true"
       only_selected="false" />
    <inkscape:path-effect
       effect="bspline"
       id="path-effect1934"
       is_visible="true"
       lpeversion="1"
       weight="33.333333"
       steps="2"
       helper_size="0"
       apply_no_weight="true"
       apply_with_weight="true"
       only_selected="false" />
    <inkscape:path-effect
       effect="bspline"
       id="path-effect1922"
       is_visible="true"
       lpeversion="1"
       weight="33.333333"
       steps="2"
       helper_size="0"
       apply_no_weight="true"
       apply_with_weight="true"
       only_selected="false" />
    <inkscape:path-effect
       effect="bspline"
       id="path-effect1899"
       is_visible="true"
       lpeversion="1"
       weight="33.333333"
       steps="2"
       helper_size="0"
       apply_no_weight="true"
       apply_with_weight="true"
       only_selected="false" />
    <inkscape:path-effect
       effect="bspline"
       id="path-effect1828"
       is_visible="true"
       lpeversion="1"
       weight="33.333333"
       steps="2"
       helper_size="0"
       apply_no_weight="true"
       apply_with_weight="true"
       only_selected="false" />
    <inkscape:path-effect
       effect="bspline"
       id="path-effect1722"
       is_visible="true"
       lpeversion="1"
       weight="33.333333"
       steps="2"
       helper_size="0"
       apply_no_weight="true"
       apply_with_weight="true"
       only_selected="false" />
    <inkscape:path-effect
       effect="bspline"
       id="path-effect1624"
       is_visible="true"
       lpeversion="1"
       weight="33.333333"
       steps="2"
       helper_size="0"
       apply_no_weight="true"
       apply_with_weight="true"
       only_selected="false" />
    <inkscape:path-effect
       effect="bspline"
       id="path-effect1514"
       is_visible="true"
       lpeversion="1"
       weight="33.333333"
       steps="2"
       helper_size="0"
       apply_no_weight="true"
       apply_with_weight="true"
       only_selected="false" />
    <inkscape:path-effect
       effect="bspline"
       id="path-effect1432"
       is_visible="true"
       lpeversion="1"
       weight="33.333333"
       steps="2"
       helper_size="0"
       apply_no_weight="true"
       apply_with_weight="true"
       only_selected="false" />
    <inkscape:path-effect
       effect="bspline"
       id="path-effect1358"
       is_visible="true"
       lpeversion="1"
       weight="33.333333"
       steps="2"
       helper_size="0"
       apply_no_weight="true"
       apply_with_weight="true"
       only_selected="false" />
    <inkscape:path-effect
       effect="bspline"
       id="path-effect1292"
       is_visible="true"
       lpeversion="1"
       weight="33.333333"
       steps="2"
       helper_size="0"
       apply_no_weight="true"
       apply_with_weight="true"
       only_selected="false" />
    <inkscape:path-effect
       effect="bspline"
       id="path-effect1234"
       is_visible="true"
       lpeversion="1"
       weight="33.333333"
       steps="2"
       helper_size="0"
       apply_no_weight="true"
       apply_with_weight="true"
       only_selected="false" />
    <marker
       style="overflow:visible;"
       id="Arrow2Mend"
       refX="0.0"
       refY="0.0"
       orient="auto"
       inkscape:stockid="Arrow2Mend"
       inkscape:isstock="true">
      <path
         transform="scale(0.6) rotate(180) translate(0,0)"
         d="M 8.7185878,4.0337352 L -2.2072895,0.016013256 L 8.7185884,-4.0017078 C 6.9730900,-1.6296469 6.9831476,1.6157441 8.7185878,4.0337352 z "
         style="fill-rule:evenodd;stroke-width:0.625;stroke-linejoin:round;stroke:#00ffff;stroke-opacity:1;fill:#00ffff;fill-opacity:1"
         id="path930" />
    </marker>
    <inkscape:path-effect
       effect="bspline"
       id="path-effect901"
       is_visible="true"
       lpeversion="1"
       weight="33.333333"
       steps="2"
       helper_size="0"
       apply_no_weight="true"
       apply_with_weight="true"
       only_selected="false" />
    <inkscape:path-effect
       effect="bspline"
       id="path-effect863"
       is_visible="true"
       lpeversion="1"
       weight="33.333333"
       steps="2"
       helper_size="0"
       apply_no_weight="true"
       apply_with_weight="true"
       only_selected="false" />
    <inkscape:path-effect
       effect="bspline"
       id="path-effect858"
       is_visible="true"
       lpeversion="1"
       weight="33.333333"
       steps="2"
       helper_size="0"
       apply_no_weight="true"
       apply_with_weight="true"
       only_selected="false" />
    <inkscape:path-effect
       effect="bspline"
       id="path-effect835"
       is_visible="true"
       lpeversion="1"
       weight="33.333333"
       steps="2"
       helper_size="0"
       apply_no_weight="true"
       apply_with_weight="true"
       only_selected="false" />
    <marker
       style="overflow:visible"
       id="Arrow2Mend-7"
       refX="0"
       refY="0"
       orient="auto"
       inkscape:stockid="Arrow2Mend"
       inkscape:isstock="true">
      <path
         transform="scale(-0.6)"
         d="M 8.7185878,4.0337352 -2.2072895,0.01601326 8.7185884,-4.0017078 c -1.7454984,2.3720609 -1.7354408,5.6174519 -6e-7,8.035443 z"
         style="fill:#00ffff;fill-opacity:1;fill-rule:evenodd;stroke:#00ffff;stroke-width:0.625;stroke-linejoin:round;stroke-opacity:1"
         id="path930-5" />
    </marker>
    <marker
       style="overflow:visible"
       id="Arrow2Mend-5"
       refX="0"
       refY="0"
       orient="auto"
       inkscape:stockid="Arrow2Mend"
       inkscape:isstock="true">
      <path
         transform="scale(-0.6)"
         d="M 8.7185878,4.0337352 -2.2072895,0.01601326 8.7185884,-4.0017078 c -1.7454984,2.3720609 -1.7354408,5.6174519 -6e-7,8.035443 z"
         style="fill:#00ffff;fill-opacity:1;fill-rule:evenodd;stroke:#00ffff;stroke-width:0.625;stroke-linejoin:round;stroke-opacity:1"
         id="path930-6" />
    </marker>
    <marker
       style="overflow:visible"
       id="Arrow2Mend-9"
       refX="0"
       refY="0"
       orient="auto"
       inkscape:stockid="Arrow2Mend"
       inkscape:isstock="true">
      <path
         transform="scale(-0.6)"
         d="M 8.7185878,4.0337352 -2.2072895,0.01601326 8.7185884,-4.0017078 c -1.7454984,2.3720609 -1.7354408,5.6174519 -6e-7,8.035443 z"
         style="fill:#00ffff;fill-opacity:1;fill-rule:evenodd;stroke:#00ffff;stroke-width:0.625;stroke-linejoin:round;stroke-opacity:1"
         id="path930-1" />
    </marker>
    <marker
       style="overflow:visible"
       id="Arrow2Mend-0"
       refX="0"
       refY="0"
       orient="auto"
       inkscape:stockid="Arrow2Mend"
       inkscape:isstock="true">
      <path
         transform="scale(-0.6)"
         d="M 8.7185878,4.0337352 -2.2072895,0.01601326 8.7185884,-4.0017078 c -1.7454984,2.3720609 -1.7354408,5.6174519 -6e-7,8.035443 z"
         style="fill:#00ffff;fill-opacity:1;fill-rule:evenodd;stroke:#00ffff;stroke-width:0.625;stroke-linejoin:round;stroke-opacity:1"
         id="path930-9" />
    </marker>
    <marker
       style="overflow:visible"
       id="Arrow2Mend-06"
       refX="0"
       refY="0"
       orient="auto"
       inkscape:stockid="Arrow2Mend"
       inkscape:isstock="true">
      <path
         transform="scale(-0.6)"
         d="M 8.7185878,4.0337352 -2.2072895,0.01601326 8.7185884,-4.0017078 c -1.7454984,2.3720609 -1.7354408,5.6174519 -6e-7,8.035443 z"
         style="fill:#00ffff;fill-opacity:1;fill-rule:evenodd;stroke:#00ffff;stroke-width:0.625;stroke-linejoin:round;stroke-opacity:1"
         id="path930-2" />
    </marker>
    <marker
       style="overflow:visible"
       id="Arrow2Mend-06-1"
       refX="0"
       refY="0"
       orient="auto"
       inkscape:stockid="Arrow2Mend"
       inkscape:isstock="true">
      <path
         transform="scale(-0.6)"
         d="M 8.7185878,4.0337352 -2.2072895,0.01601326 8.7185884,-4.0017078 c -1.7454984,2.3720609 -1.7354408,5.6174519 -6e-7,8.035443 z"
         style="fill:#00ffff;fill-opacity:1;fill-rule:evenodd;stroke:#00ffff;stroke-width:0.625;stroke-linejoin:round;stroke-opacity:1"
         id="path930-2-8" />
    </marker>
    <marker
       style="overflow:visible"
       id="Arrow2Mend-06-9"
       refX="0"
       refY="0"
       orient="auto"
       inkscape:stockid="Arrow2Mend"
       inkscape:isstock="true">
      <path
         transform="scale(-0.6)"
         d="M 8.7185878,4.0337352 -2.2072895,0.01601326 8.7185884,-4.0017078 c -1.7454984,2.3720609 -1.7354408,5.6174519 -6e-7,8.035443 z"
         style="fill:#00ffff;fill-opacity:1;fill-rule:evenodd;stroke:#00ffff;stroke-width:0.625;stroke-linejoin:round;stroke-opacity:1"
         id="path930-2-2" />
    </marker>
    <marker
       style="overflow:visible"
       id="Arrow2Mend-06-2"
       refX="0"
       refY="0"
       orient="auto"
       inkscape:stockid="Arrow2Mend"
       inkscape:isstock="true">
      <path
         transform="scale(-0.6)"
         d="M 8.7185878,4.0337352 -2.2072895,0.01601326 8.7185884,-4.0017078 c -1.7454984,2.3720609 -1.7354408,5.6174519 -6e-7,8.035443 z"
         style="fill:#00ffff;fill-opacity:1;fill-rule:evenodd;stroke:#00ffff;stroke-width:0.625;stroke-linejoin:round;stroke-opacity:1"
         id="path930-2-3" />
    </marker>
    <marker
       style="overflow:visible"
       id="Arrow1Send-3"
       refX="0"
       refY="0"
       orient="auto"
       inkscape:stockid="Arrow1Send"
       inkscape:isstock="true">
      <path
         transform="matrix(-0.2,0,0,-0.2,-1.2,0)"
         style="fill:#000000;fill-opacity:1;fill-rule:evenodd;stroke:#000000;stroke-width:1pt;stroke-opacity:1"
         d="M 0,0 5,-5 -12.5,0 5,5 Z"
         id="path918-1" />
    </marker>
    <marker
       style="overflow:visible"
       id="Arrow1Send-3-4"
       refX="0"
       refY="0"
       orient="auto"
       inkscape:stockid="Arrow1Send"
       inkscape:isstock="true">
      <path
         transform="matrix(-0.2,0,0,-0.2,-1.2,0)"
         style="fill:#000000;fill-opacity:1;fill-rule:evenodd;stroke:#000000;stroke-width:1pt;stroke-opacity:1"
         d="M 0,0 5,-5 -12.5,0 5,5 Z"
         id="path918-1-7" />
    </marker>
    <marker
       style="overflow:visible"
       id="marker2131-4"
       refX="0"
       refY="0"
       orient="auto"
       inkscape:stockid="Arrow1Sstart"
       inkscape:isstock="true">
      <path
         transform="matrix(0.2,0,0,0.2,1.2,0)"
         style="fill:#000000;fill-opacity:1;fill-rule:evenodd;stroke:#000000;stroke-width:1pt;stroke-opacity:1"
         d="M 0,0 5,-5 -12.5,0 5,5 Z"
         id="path2129-5" />
    </marker>
  </defs>
  <sodipodi:namedview
     id="base"
     pagecolor="#ffffff"
     bordercolor="#666666"
     borderopacity="1.0"
     inkscape:pageopacity="0.0"
     inkscape:pageshadow="2"
     inkscape:zoom="1.4"
     inkscape:cx="252.33477"
     inkscape:cy="115.26751"
     inkscape:document-units="mm"
     inkscape:current-layer="layer1"
     inkscape:document-rotation="0"
     showgrid="false"
     inkscape:window-width="1533"
     inkscape:window-height="1016"
     inkscape:window-x="50"
     inkscape:window-y="27"
     inkscape:window-maximized="0" />
  <metadata
     id="metadata5">
    <rdf:RDF>
      <cc:Work
         rdf:about="">
        <dc:format>image/svg+xml</dc:format>
        <dc:type
           rdf:resource="http://purl.org/dc/dcmitype/StillImage" />
        <dc:title></dc:title>
      </cc:Work>
    </rdf:RDF>
  </metadata>
  <g
     inkscape:label="Layer 1"
     inkscape:groupmode="layer"
     id="layer1">
    <path
       style="fill:none;stroke:#000000;stroke-width:0.264583px;stroke-linecap:butt;stroke-linejoin:miter;stroke-opacity:1"
       d="m 66.065389,29.799785 c 26.075672,0.918498 52.151071,1.836987 65.066951,4.248288 12.91587,2.411302 12.67252,6.31502 -0.4128,8.148412 -13.08532,1.833393 -39.011836,1.596636 -64.939145,1.359871"
       id="path833" />
    <path
       style="fill:none;stroke:#000000;stroke-width:0.209477px;stroke-linecap:butt;stroke-linejoin:miter;stroke-opacity:1"
       d="m 65.639263,32.921237 c 23.079566,0.477718 46.158917,0.955432 58.238527,2.390368 12.07961,1.434936 13.15949,3.826709 1.6959,4.835166 -11.4636,1.008458 -35.469805,0.633811 -59.476702,0.259154"
       id="path833-3"
       sodipodi:nodetypes="cccc" />
    <path
       style="fill:none;stroke:#000000;stroke-width:0.264583px;stroke-linecap:butt;stroke-linejoin:miter;stroke-opacity:1"
       d="m 66.156953,28.045712 c 0.252038,0.196816 0.75582,0.590218 0.936693,0.928482 0.180874,0.338265 0.03919,0.621506 -0.61532,0.678975 -0.65451,0.05747 -1.822145,-0.110769 -2.527605,-0.02768 -0.705459,0.08309 -0.948377,0.417495 -1.036385,0.768021 -0.08801,0.350526 -0.02119,0.7169 0.571273,0.945528 0.592464,0.228628 1.710302,0.319782 2.225738,0.453641 0.515437,0.13386 0.428792,0.310327 0.397884,0.527872 -0.03091,0.217544 -0.0062,0.475975 -0.58437,0.581325 -0.578217,0.10535 -1.759602,0.0579 -2.606858,-0.223247 -0.847257,-0.281145 -1.360326,-0.796212 -1.938979,-1.21362 -0.578654,-0.417409 -1.222907,-0.737026 -2.152366,-0.829531 -0.929458,-0.09251 -2.14398,0.04229 -2.750719,-0.08337 -0.606738,-0.125657 -0.605438,-0.512041 0.461209,-0.727763 1.066647,-0.215722 3.198295,-0.260503 4.345274,-0.47903 1.146978,-0.218528 1.309551,-0.610924 1.982714,-0.889369 0.673162,-0.278446 1.856588,-0.442763 2.4482,-0.524907 0.591611,-0.08215 0.59158,-0.08215 0.843617,0.11467 z"
       id="path861" />
    <path
       id="path865"
       style="fill:none;stroke:#000000;stroke-width:1.062"
       d="m 70.286829,31.437422 a 2.1107199,1.6376358 0 0 1 -2.11072,1.637636 2.1107199,1.6376358 0 0 1 -2.11072,-1.637636 2.1107199,1.6376358 0 0 1 2.11072,-1.637636 2.1107199,1.6376358 0 0 1 2.11072,1.637636 z" />
    <g
       aria-label="Stapes"
       id="text869"
       style="font-size:3.52778px;line-height:1.25;font-family:sans-serif;-inkscape-font-specification:'sans-serif, Normal';stroke-width:0.264583">
      <path
         d="m 50.616456,25.519952 v 0.339342 q -0.198093,-0.09474 -0.373793,-0.141249 -0.1757,-0.04651 -0.339342,-0.04651 -0.284221,0 -0.43925,0.110243 -0.153307,0.110243 -0.153307,0.313504 0,0.170532 0.10163,0.258382 0.103353,0.08613 0.389296,0.139526 l 0.210151,0.04306 q 0.389296,0.07407 0.573609,0.261827 0.186035,0.186036 0.186035,0.49954 0,0.373793 -0.251492,0.566718 -0.249769,0.192926 -0.733806,0.192926 -0.18259,0 -0.389296,-0.04134 -0.204983,-0.04134 -0.425469,-0.122301 v -0.358291 q 0.211873,0.118856 0.415134,0.179145 0.203261,0.06029 0.399631,0.06029 0.298001,0 0.459921,-0.117134 0.161919,-0.117133 0.161919,-0.334174 0,-0.18948 -0.117133,-0.296279 -0.115411,-0.106798 -0.380683,-0.160197 l -0.211874,-0.04134 q -0.389296,-0.07751 -0.563273,-0.242879 -0.173978,-0.165365 -0.173978,-0.459921 0,-0.341064 0.239435,-0.537435 0.241157,-0.19637 0.663181,-0.19637 0.180868,0 0.368625,0.03273 0.187758,0.03273 0.384129,0.09819 z"
         style="font-size:3.52778px;stroke-width:0.264583"
         id="path3310" />
      <path
         d="m 51.613812,25.530288 v 0.54777 h 0.652846 v 0.246325 h -0.652846 v 1.047309 q 0,0.235989 0.06373,0.303169 0.06546,0.06718 0.26355,0.06718 h 0.325562 v 0.265273 h -0.325562 q -0.366903,0 -0.506429,-0.136082 -0.139527,-0.137803 -0.139527,-0.499539 v -1.047309 h -0.232544 v -0.246325 h 0.232544 v -0.54777 z"
         style="font-size:3.52778px;stroke-width:0.264583"
         id="path3312" />
      <path
         d="m 53.560292,27.037518 q -0.384128,0 -0.532268,0.08785 -0.148139,0.08785 -0.148139,0.299723 0,0.16881 0.110243,0.268718 0.111966,0.09818 0.303169,0.09818 0.26355,0 0.422024,-0.186035 0.160198,-0.187758 0.160198,-0.497817 v -0.07062 z m 0.632176,-0.130914 v 1.100709 h -0.316949 v -0.292834 q -0.108521,0.1757 -0.270441,0.260105 -0.161919,0.08268 -0.396186,0.08268 -0.296278,0 -0.471978,-0.165365 -0.173978,-0.167087 -0.173978,-0.44614 0,-0.325562 0.217041,-0.490927 0.218764,-0.165364 0.651124,-0.165364 h 0.444418 v -0.03101 q 0,-0.218764 -0.144695,-0.33762 -0.142971,-0.120578 -0.403076,-0.120578 -0.165365,0 -0.322117,0.03962 -0.156752,0.03962 -0.301446,0.118856 v -0.292833 q 0.173978,-0.06718 0.33762,-0.09991 0.163642,-0.03445 0.318671,-0.03445 0.41858,0 0.625286,0.217041 0.206706,0.217042 0.206706,0.658014 z"
         style="font-size:3.52778px;stroke-width:0.264583"
         id="path3314" />
      <path
         d="m 55.151927,27.717925 v 1.023194 h -0.318672 v -2.663061 h 0.318672 v 0.292833 q 0.09991,-0.172255 0.251492,-0.254937 0.153307,-0.08441 0.36518,-0.08441 0.3514,0 0.570164,0.279053 0.220486,0.279053 0.220486,0.733806 0,0.454753 -0.220486,0.733806 -0.218764,0.279053 -0.570164,0.279053 -0.211873,0 -0.36518,-0.08268 -0.151584,-0.08441 -0.251492,-0.256659 z m 1.078315,-0.673517 q 0,-0.349677 -0.144694,-0.547771 -0.142971,-0.199815 -0.394463,-0.199815 -0.251492,0 -0.396187,0.199815 -0.142971,0.198094 -0.142971,0.547771 0,0.349677 0.142971,0.549493 0.144695,0.198093 0.396187,0.198093 0.251492,0 0.394463,-0.198093 0.144694,-0.199816 0.144694,-0.549493 z"
         style="font-size:3.52778px;stroke-width:0.264583"
         id="path3316" />
      <path
         d="m 58.734829,26.963448 v 0.15503 h -1.457276 q 0.02067,0.327284 0.19637,0.499539 0.177423,0.170532 0.492649,0.170532 0.18259,0 0.353123,-0.04479 0.172255,-0.04479 0.341064,-0.134359 v 0.299723 q -0.170532,0.07235 -0.349677,0.110244 -0.179145,0.0379 -0.363458,0.0379 -0.461643,0 -0.732083,-0.268718 -0.268718,-0.268718 -0.268718,-0.726916 0,-0.4737 0.254938,-0.751031 0.256659,-0.279053 0.690742,-0.279053 0.389296,0 0.61495,0.251492 0.227376,0.24977 0.227376,0.680407 z m -0.316949,-0.09302 q -0.0034,-0.260105 -0.146417,-0.415135 -0.141249,-0.155029 -0.375515,-0.155029 -0.265273,0 -0.42547,0.149862 -0.158474,0.149861 -0.18259,0.422024 z"
         style="font-size:3.52778px;stroke-width:0.264583"
         id="path3318" />
      <path
         d="m 60.484938,26.134902 v 0.299724 q -0.134359,-0.0689 -0.279053,-0.103353 -0.144694,-0.03445 -0.299723,-0.03445 -0.235989,0 -0.354845,0.07235 -0.117134,0.07235 -0.117134,0.217041 0,0.110243 0.08441,0.173977 0.0844,0.06201 0.339342,0.118856 l 0.108521,0.02412 q 0.33762,0.07235 0.478869,0.204983 0.142971,0.130914 0.142971,0.366903 0,0.268718 -0.213596,0.42547 -0.211873,0.156752 -0.583944,0.156752 -0.155029,0 -0.323839,-0.03101 -0.167087,-0.02928 -0.353123,-0.08957 v -0.327284 q 0.1757,0.09129 0.346233,0.137804 0.170532,0.04479 0.337619,0.04479 0.223932,0 0.34451,-0.07579 0.120578,-0.07751 0.120578,-0.217041 0,-0.129191 -0.08785,-0.198093 -0.08613,-0.0689 -0.380683,-0.132637 l -0.110243,-0.02584 q -0.294556,-0.06201 -0.42547,-0.18948 -0.130913,-0.129191 -0.130913,-0.353123 0,-0.272162 0.192925,-0.420302 0.192926,-0.148139 0.547771,-0.148139 0.1757,0 0.330729,0.02584 0.15503,0.02584 0.285943,0.07752 z"
         style="font-size:3.52778px;stroke-width:0.264583"
         id="path3320" />
    </g>
    <g
       aria-label="Elipitical Window"
       id="text873"
       style="font-size:3.52778px;line-height:1.25;font-family:sans-serif;-inkscape-font-specification:'sans-serif, Normal';stroke-width:0.264583">
      <path
         d="m 69.831256,24.987153 h 1.626086 v 0.292833 h -1.278131 v 0.761366 h 1.224732 v 0.292834 h -1.224732 v 0.931899 h 1.309137 v 0.292833 h -1.657092 z"
         style="font-size:3.52778px;stroke-width:0.264583"
         id="path3407" />
      <path
         d="m 72.046454,24.878632 h 0.316949 v 2.680286 h -0.316949 z"
         style="font-size:3.52778px;stroke-width:0.264583"
         id="path3409" />
      <path
         d="m 73.026584,25.629663 h 0.316949 v 1.929255 h -0.316949 z m 0,-0.751031 h 0.316949 v 0.401354 h -0.316949 z"
         style="font-size:3.52778px;stroke-width:0.264583"
         id="path3411" />
      <path
         d="m 74.313328,27.26953 v 1.023194 h -0.318672 v -2.663061 h 0.318672 v 0.292834 q 0.09991,-0.172255 0.251492,-0.254938 0.153307,-0.08441 0.36518,-0.08441 0.3514,0 0.570164,0.279053 0.220486,0.279053 0.220486,0.733806 0,0.454753 -0.220486,0.733806 -0.218764,0.279053 -0.570164,0.279053 -0.211873,0 -0.36518,-0.08268 -0.151584,-0.08441 -0.251492,-0.25666 z m 1.078315,-0.673517 q 0,-0.349677 -0.144694,-0.54777 -0.142971,-0.199816 -0.394464,-0.199816 -0.251492,0 -0.396186,0.199816 -0.142971,0.198093 -0.142971,0.54777 0,0.349678 0.142971,0.549493 0.144694,0.198093 0.396186,0.198093 0.251493,0 0.394464,-0.198093 0.144694,-0.199815 0.144694,-0.549493 z"
         style="font-size:3.52778px;stroke-width:0.264583"
         id="path3413" />
      <path
         d="m 76.246028,25.629663 h 0.316949 v 1.929255 h -0.316949 z m 0,-0.751031 h 0.316949 v 0.401354 h -0.316949 z"
         style="font-size:3.52778px;stroke-width:0.264583"
         id="path3415" />
      <path
         d="m 77.539662,25.081893 v 0.54777 h 0.652846 v 0.246325 h -0.652846 v 1.047309 q 0,0.23599 0.06373,0.303169 0.06546,0.06718 0.26355,0.06718 h 0.325562 v 0.265273 h -0.325562 q -0.366902,0 -0.506429,-0.136081 -0.139526,-0.137804 -0.139526,-0.49954 v -1.047309 h -0.232544 v -0.246325 h 0.232544 v -0.54777 z"
         style="font-size:3.52778px;stroke-width:0.264583"
         id="path3417" />
      <path
         d="m 78.609365,25.629663 h 0.316949 v 1.929255 h -0.316949 z m 0,-0.751031 h 0.316949 v 0.401354 h -0.316949 z"
         style="font-size:3.52778px;stroke-width:0.264583"
         id="path3419" />
      <path
         d="m 80.977869,25.703733 v 0.296278 q -0.134359,-0.07407 -0.27044,-0.110243 -0.134359,-0.0379 -0.272163,-0.0379 -0.308336,0 -0.478868,0.196371 -0.170533,0.194648 -0.170533,0.54777 0,0.353123 0.170533,0.549493 0.170532,0.194648 0.478868,0.194648 0.137804,0 0.272163,-0.03617 0.136081,-0.0379 0.27044,-0.111966 v 0.292833 q -0.132636,0.06201 -0.275608,0.09302 -0.141249,0.03101 -0.301446,0.03101 -0.435805,0 -0.692464,-0.273885 -0.25666,-0.273886 -0.25666,-0.738974 0,-0.471978 0.258382,-0.742418 0.260105,-0.270441 0.711413,-0.270441 0.146417,0 0.285943,0.03101 0.139526,0.02928 0.27044,0.08957 z"
         style="font-size:3.52778px;stroke-width:0.264583"
         id="path3421" />
      <path
         d="m 82.405863,26.589123 q -0.384129,0 -0.532268,0.08785 -0.148139,0.08785 -0.148139,0.299723 0,0.16881 0.110243,0.268718 0.111966,0.09819 0.303169,0.09819 0.26355,0 0.422024,-0.186035 0.160197,-0.187758 0.160197,-0.497817 v -0.07062 z m 0.632175,-0.130914 v 1.100709 h -0.316949 v -0.292833 q -0.108521,0.1757 -0.27044,0.260105 -0.16192,0.08268 -0.396186,0.08268 -0.296279,0 -0.471979,-0.165365 -0.173977,-0.167087 -0.173977,-0.44614 0,-0.325562 0.217041,-0.490926 0.218764,-0.165365 0.651123,-0.165365 h 0.444418 v -0.03101 q 0,-0.218764 -0.144694,-0.337619 -0.142972,-0.120579 -0.403076,-0.120579 -0.165365,0 -0.322117,0.03962 -0.156752,0.03962 -0.301446,0.118856 v -0.292834 q 0.173977,-0.06718 0.337619,-0.09991 0.163643,-0.03445 0.318672,-0.03445 0.418579,0 0.625285,0.217042 0.206706,0.217041 0.206706,0.658013 z"
         style="font-size:3.52778px;stroke-width:0.264583"
         id="path3423" />
      <path
         d="m 83.690884,24.878632 h 0.316949 v 2.680286 h -0.316949 z"
         style="font-size:3.52778px;stroke-width:0.264583"
         id="path3425" />
      <path
         d="m 85.577075,24.987153 h 0.3514 l 0.54088,2.173856 0.539158,-2.173856 h 0.391019 l 0.54088,2.173856 0.539158,-2.173856 h 0.353123 l -0.645956,2.571765 h -0.437528 l -0.542603,-2.232423 -0.54777,2.232423 h -0.437528 z"
         style="font-size:3.52778px;stroke-width:0.264583"
         id="path3427" />
      <path
         d="m 89.20304,25.629663 h 0.316949 v 1.929255 H 89.20304 Z m 0,-0.751031 h 0.316949 v 0.401354 H 89.20304 Z"
         style="font-size:3.52778px;stroke-width:0.264583"
         id="path3429" />
      <path
         d="m 91.786862,26.394475 v 1.164443 H 91.469913 V 26.40481 q 0,-0.273885 -0.106798,-0.409966 -0.106798,-0.136082 -0.320394,-0.136082 -0.256659,0 -0.404799,0.163642 -0.148139,0.163643 -0.148139,0.446141 v 1.090373 h -0.318671 v -1.929255 h 0.318671 v 0.299724 q 0.113688,-0.173978 0.266995,-0.260105 0.15503,-0.08613 0.356568,-0.08613 0.332452,0 0.502984,0.206706 0.170532,0.204984 0.170532,0.604615 z"
         style="font-size:3.52778px;stroke-width:0.264583"
         id="path3431" />
      <path
         d="m 93.688556,25.922497 v -1.043865 h 0.316949 v 2.680286 H 93.688556 V 27.26953 q -0.09991,0.172255 -0.253214,0.25666 -0.151585,0.08268 -0.365181,0.08268 -0.349677,0 -0.570163,-0.279053 -0.218764,-0.279053 -0.218764,-0.733806 0,-0.454753 0.218764,-0.733806 0.220486,-0.279053 0.570163,-0.279053 0.213596,0 0.365181,0.08441 0.153307,0.08268 0.253214,0.254938 z m -1.080038,0.673516 q 0,0.349678 0.142972,0.549493 0.144694,0.198093 0.396186,0.198093 0.251492,0 0.396186,-0.198093 0.144694,-0.199815 0.144694,-0.549493 0,-0.349677 -0.144694,-0.54777 -0.144694,-0.199816 -0.396186,-0.199816 -0.251492,0 -0.396186,0.199816 -0.142972,0.198093 -0.142972,0.54777 z"
         style="font-size:3.52778px;stroke-width:0.264583"
         id="path3433" />
      <path
         d="m 95.405939,25.851872 q -0.254937,0 -0.403076,0.199816 -0.148139,0.198093 -0.148139,0.544325 0,0.346233 0.146416,0.546048 0.148139,0.198093 0.404799,0.198093 0.253215,0 0.401354,-0.199815 0.148139,-0.199816 0.148139,-0.544326 0,-0.342787 -0.148139,-0.542603 -0.148139,-0.201538 -0.401354,-0.201538 z m 0,-0.268718 q 0.413412,0 0.649401,0.268718 0.235989,0.268718 0.235989,0.744141 0,0.473701 -0.235989,0.744141 -0.235989,0.268718 -0.649401,0.268718 -0.415134,0 -0.651123,-0.268718 -0.234267,-0.27044 -0.234267,-0.744141 0,-0.475423 0.234267,-0.744141 0.235989,-0.268718 0.651123,-0.268718 z"
         style="font-size:3.52778px;stroke-width:0.264583"
         id="path3435" />
      <path
         d="m 96.632394,25.629663 h 0.316949 l 0.396186,1.505508 0.394464,-1.505508 h 0.373793 l 0.396186,1.505508 0.394464,-1.505508 h 0.316949 l -0.504707,1.929255 h -0.373793 l -0.415134,-1.5813 -0.416857,1.5813 h -0.373793 z"
         style="font-size:3.52778px;stroke-width:0.264583"
         id="path3437" />
    </g>
    <g
       aria-label="Circular Window"
       id="text877"
       style="font-size:3.52778px;line-height:1.25;font-family:sans-serif;-inkscape-font-specification:'sans-serif, Normal';stroke-width:0.264583">
      <path
         d="m 59.133996,45.537823 v 0.366903 q -0.1757,-0.163642 -0.375516,-0.244602 -0.198093,-0.08096 -0.422024,-0.08096 -0.440973,0 -0.67524,0.27044 -0.234266,0.268718 -0.234266,0.778592 0,0.508152 0.234266,0.778592 0.234267,0.268718 0.67524,0.268718 0.223931,0 0.422024,-0.08096 0.199816,-0.08096 0.375516,-0.244602 v 0.363458 q -0.182591,0.124024 -0.387574,0.186035 -0.203261,0.06201 -0.430637,0.06201 -0.583944,0 -0.919841,-0.356567 -0.335897,-0.358291 -0.335897,-0.976686 0,-0.620117 0.335897,-0.976685 0.335897,-0.35829 0.919841,-0.35829 0.230822,0 0.434082,0.06201 0.204984,0.06029 0.384129,0.18259 z"
         style="font-size:3.52778px;stroke-width:0.264583"
         id="path3524" />
      <path
         d="M 59.657651,45.98224 H 59.9746 v 1.929255 h -0.316949 z m 0,-0.751031 H 59.9746 v 0.401354 h -0.316949 z"
         style="font-size:3.52778px;stroke-width:0.264583"
         id="path3526" />
      <path
         d="m 61.755715,46.278519 q -0.0534,-0.03101 -0.117133,-0.04479 -0.06201,-0.0155 -0.137804,-0.0155 -0.268718,0 -0.413412,0.1757 -0.142972,0.173977 -0.142972,0.501261 v 1.016304 H 60.625723 V 45.98224 h 0.318671 v 0.299724 q 0.09991,-0.1757 0.260105,-0.260105 0.160197,-0.08613 0.389296,-0.08613 0.03273,0 0.07235,0.0052 0.03962,0.0034 0.08785,0.01206 z"
         style="font-size:3.52778px;stroke-width:0.264583"
         id="path3528" />
      <path
         d="m 63.399027,46.05631 v 0.296278 q -0.134359,-0.07407 -0.27044,-0.110243 -0.134359,-0.0379 -0.272163,-0.0379 -0.308336,0 -0.478868,0.196371 -0.170533,0.194648 -0.170533,0.54777 0,0.353123 0.170533,0.549493 0.170532,0.194649 0.478868,0.194649 0.137804,0 0.272163,-0.03617 0.136081,-0.0379 0.27044,-0.111966 v 0.292834 q -0.132636,0.06201 -0.275608,0.09302 -0.141249,0.03101 -0.301446,0.03101 -0.435805,0 -0.692464,-0.273885 -0.25666,-0.273885 -0.25666,-0.738974 0,-0.471978 0.258382,-0.742418 0.260105,-0.27044 0.711413,-0.27044 0.146416,0 0.285943,0.03101 0.139526,0.02928 0.27044,0.08957 z"
         style="font-size:3.52778px;stroke-width:0.264583"
         id="path3530" />
      <path
         d="M 63.917514,47.150129 V 45.98224 h 0.316949 v 1.155831 q 0,0.273885 0.106798,0.411689 0.106798,0.136081 0.320394,0.136081 0.25666,0 0.404799,-0.163642 0.149862,-0.163642 0.149862,-0.44614 V 45.98224 h 0.316949 v 1.929255 h -0.316949 v -0.296278 q -0.115411,0.1757 -0.268718,0.261827 -0.151584,0.08441 -0.353123,0.08441 -0.332452,0 -0.504706,-0.206706 -0.172255,-0.206706 -0.172255,-0.604614 z"
         style="font-size:3.52778px;stroke-width:0.264583"
         id="path3532" />
      <path
         d="m 66.186111,45.231209 h 0.316949 v 2.680286 h -0.316949 z"
         style="font-size:3.52778px;stroke-width:0.264583"
         id="path3534" />
      <path
         d="m 68.043018,46.9417 q -0.384128,0 -0.532267,0.08785 -0.14814,0.08785 -0.14814,0.299724 0,0.168809 0.110243,0.268717 0.111966,0.09819 0.303169,0.09819 0.26355,0 0.422025,-0.186036 0.160197,-0.187757 0.160197,-0.497816 V 46.9417 Z m 0.632176,-0.130914 v 1.100709 h -0.316949 v -0.292833 q -0.108521,0.1757 -0.270441,0.260105 -0.161919,0.08268 -0.396186,0.08268 -0.296278,0 -0.471978,-0.165365 -0.173978,-0.167087 -0.173978,-0.44614 0,-0.325561 0.217042,-0.490926 0.218763,-0.165365 0.651123,-0.165365 h 0.444418 v -0.03101 q 0,-0.218763 -0.144694,-0.337619 -0.142972,-0.120579 -0.403077,-0.120579 -0.165365,0 -0.322117,0.03962 -0.156752,0.03962 -0.301446,0.118856 V 46.07009 q 0.173978,-0.06718 0.33762,-0.09991 0.163642,-0.03445 0.318672,-0.03445 0.418579,0 0.625285,0.217041 0.206706,0.217041 0.206706,0.658013 z"
         style="font-size:3.52778px;stroke-width:0.264583"
         id="path3536" />
      <path
         d="m 70.445974,46.278519 q -0.0534,-0.03101 -0.117133,-0.04479 -0.06201,-0.0155 -0.137804,-0.0155 -0.268717,0 -0.413412,0.1757 -0.142971,0.173977 -0.142971,0.501261 v 1.016304 H 69.315982 V 45.98224 h 0.318672 v 0.299724 q 0.09991,-0.1757 0.260105,-0.260105 0.160197,-0.08613 0.389296,-0.08613 0.03273,0 0.07235,0.0052 0.03962,0.0034 0.08785,0.01206 z"
         style="font-size:3.52778px;stroke-width:0.264583"
         id="path3538" />
      <path
         d="m 71.684487,45.33973 h 0.3514 l 0.54088,2.173856 0.539158,-2.173856 h 0.391018 l 0.540881,2.173856 0.539157,-2.173856 h 0.353123 l -0.645956,2.571765 h -0.437527 l -0.542603,-2.232423 -0.547771,2.232423 H 72.32872 Z"
         style="font-size:3.52778px;stroke-width:0.264583"
         id="path3540" />
      <path
         d="m 75.310453,45.98224 h 0.316949 v 1.929255 h -0.316949 z m 0,-0.751031 h 0.316949 v 0.401354 h -0.316949 z"
         style="font-size:3.52778px;stroke-width:0.264583"
         id="path3542" />
      <path
         d="m 77.894275,46.747052 v 1.164443 h -0.316949 v -1.154108 q 0,-0.273885 -0.106798,-0.409966 -0.106798,-0.136082 -0.320394,-0.136082 -0.25666,0 -0.404799,0.163643 -0.148139,0.163642 -0.148139,0.44614 v 1.090373 H 76.278524 V 45.98224 h 0.318672 v 0.299724 q 0.113688,-0.173977 0.266995,-0.260105 0.155029,-0.08613 0.356567,-0.08613 0.332452,0 0.502984,0.206706 0.170533,0.204983 0.170533,0.604614 z"
         style="font-size:3.52778px;stroke-width:0.264583"
         id="path3544" />
      <path
         d="m 79.795969,46.275074 v -1.043865 h 0.316949 v 2.680286 h -0.316949 v -0.289388 q -0.09991,0.172255 -0.253215,0.25666 -0.151584,0.08268 -0.36518,0.08268 -0.349678,0 -0.570164,-0.279053 -0.218764,-0.279053 -0.218764,-0.733806 0,-0.454752 0.218764,-0.733805 0.220486,-0.279053 0.570164,-0.279053 0.213596,0 0.36518,0.0844 0.153307,0.08268 0.253215,0.254937 z m -1.080038,0.673516 q 0,0.349678 0.142971,0.549493 0.144694,0.198094 0.396186,0.198094 0.251493,0 0.396187,-0.198094 0.144694,-0.199815 0.144694,-0.549493 0,-0.349677 -0.144694,-0.54777 -0.144694,-0.199816 -0.396187,-0.199816 -0.251492,0 -0.396186,0.199816 -0.142971,0.198093 -0.142971,0.54777 z"
         style="font-size:3.52778px;stroke-width:0.264583"
         id="path3546" />
      <path
         d="m 81.51335,46.204449 q -0.254938,0 -0.403077,0.199816 -0.148139,0.198093 -0.148139,0.544325 0,0.346233 0.146417,0.546048 0.148139,0.198094 0.404799,0.198094 0.253214,0 0.401353,-0.199816 0.14814,-0.199816 0.14814,-0.544326 0,-0.342787 -0.14814,-0.542602 -0.148139,-0.201539 -0.401353,-0.201539 z m 0,-0.268717 q 0.413411,0 0.649401,0.268717 0.235989,0.268718 0.235989,0.744141 0,0.473701 -0.235989,0.744142 -0.23599,0.268717 -0.649401,0.268717 -0.415135,0 -0.651124,-0.268717 -0.234267,-0.270441 -0.234267,-0.744142 0,-0.475423 0.234267,-0.744141 0.235989,-0.268717 0.651124,-0.268717 z"
         style="font-size:3.52778px;stroke-width:0.264583"
         id="path3548" />
      <path
         d="m 82.739804,45.98224 h 0.316949 l 0.396187,1.505508 0.394463,-1.505508 h 0.373793 l 0.396187,1.505508 0.394463,-1.505508 h 0.316949 l -0.504706,1.929255 h -0.373794 l -0.415134,-1.5813 -0.416857,1.5813 h -0.373793 z"
         style="font-size:3.52778px;stroke-width:0.264583"
         id="path3550" />
    </g>
    <path
       id="path865-6"
       style="fill:none;stroke:#000000;stroke-width:1.062"
       d="m 69.9881,42.001926 a 2.1107199,1.6376358 0 0 1 -2.11072,1.637636 2.1107199,1.6376358 0 0 1 -2.11072,-1.637636 2.1107199,1.6376358 0 0 1 2.11072,-1.637635 2.1107199,1.6376358 0 0 1 2.11072,1.637635 z" />
    <path
       style="fill:none;stroke:#00ffff;stroke-width:0.265;stroke-linecap:butt;stroke-linejoin:miter;stroke-opacity:1;stroke-miterlimit:4;stroke-dasharray:none;marker-end:url(#Arrow2Mend)"
       d="m 73.35499,31.607648 c 2.440851,0.08957 4.881426,0.179119 7.32173,0.268664"
       id="path899" />
    <path
       style="fill:none;stroke:#00ffff;stroke-width:0.265;stroke-linecap:butt;stroke-linejoin:miter;stroke-miterlimit:4;stroke-dasharray:none;stroke-opacity:1;marker-end:url(#Arrow2Mend-7)"
       d="m 88.886254,31.943865 c 2.440851,0.08957 4.881426,0.179119 7.32173,0.268664"
       id="path899-3" />
    <path
       style="fill:none;stroke:#00ffff;stroke-width:0.265;stroke-linecap:butt;stroke-linejoin:miter;stroke-miterlimit:4;stroke-dasharray:none;stroke-opacity:1;marker-end:url(#Arrow2Mend-5)"
       d="m 105.5546,32.894119 c 3.03631,0.229014 6.07234,0.458007 9.10808,0.686978"
       id="path899-2"
       sodipodi:nodetypes="cc" />
    <path
       style="fill:none;stroke:#00ffff;stroke-width:0.265;stroke-linecap:butt;stroke-linejoin:miter;stroke-miterlimit:4;stroke-dasharray:none;stroke-opacity:1;marker-end:url(#Arrow2Mend-9)"
       d="m 121.34957,34.03131 c 1.09812,0.04036 2.19618,0.08071 3.93087,0.319964 1.73469,0.23925 4.10608,0.677402 6.47751,1.115561"
       id="path899-27"
       sodipodi:nodetypes="ccc" />
    <path
       style="fill:none;stroke:#00ffff;stroke-width:0.265;stroke-linecap:butt;stroke-linejoin:miter;stroke-miterlimit:4;stroke-dasharray:none;stroke-opacity:1;marker-end:url(#Arrow2Mend-0)"
       d="m 133.41238,36.287994 c 1.89062,0.721909 3.78081,1.443651 3.19284,2.251767 -0.58797,0.808116 -3.65402,1.702685 -6.45056,2.243228 -2.79654,0.540544 -5.32335,0.727034 -7.85001,0.913513"
       id="path899-36"
       sodipodi:nodetypes="cccc" />
    <path
       style="fill:none;stroke:#00ffff;stroke-width:0.265;stroke-linecap:butt;stroke-linejoin:miter;stroke-miterlimit:4;stroke-dasharray:none;stroke-opacity:1;marker-end:url(#Arrow2Mend-06)"
       d="m 114.87806,41.957338 c -4.16515,0.04367 -8.32967,0.08734 -12.49355,0.130992"
       id="path899-6"
       sodipodi:nodetypes="cc" />
    <path
       style="fill:none;stroke:#00ffff;stroke-width:0.265;stroke-linecap:butt;stroke-linejoin:miter;stroke-miterlimit:4;stroke-dasharray:none;stroke-opacity:1;marker-end:url(#Arrow2Mend-06-9)"
       d="m 93.422037,41.893881 c -2.440849,0.08957 -4.881429,0.179119 -7.32173,0.268664"
       id="path899-6-0" />
    <path
       style="fill:none;stroke:#00ffff;stroke-width:0.265;stroke-linecap:butt;stroke-linejoin:miter;stroke-miterlimit:4;stroke-dasharray:none;stroke-opacity:1;marker-end:url(#Arrow2Mend-06-2)"
       d="m 81.672204,42.080365 c -2.440849,0.08957 -4.881429,0.179119 -7.32173,0.268664"
       id="path899-6-75" />
    <path
       style="fill:none;stroke:#00ff00;stroke-width:0.264583px;stroke-linecap:butt;stroke-linejoin:miter;stroke-opacity:1"
       d="m 74.174337,38.264799 c -0.361728,0.571848 -0.176828,1.257716 0.317351,1.653413 0.494179,0.395697 1.297393,0.501492 1.939172,0.172958 0.641778,-0.328535 1.122422,-1.091404 1.298491,-1.965686 0.17607,-0.874281 0.04748,-1.860148 -0.465029,-2.64915 -0.512509,-0.789003 -1.409163,-1.381004 -1.825251,-1.540157 -0.416088,-0.159154 -0.351361,0.114437 -0.118908,0.660278 0.232454,0.54584 0.632535,1.363884 0.378378,2.001465 -0.254158,0.637581 -1.162475,1.095032 -1.524204,1.666879 z"
       id="path1897" />
    <path
       style="fill:none;stroke:#00ff00;stroke-width:0.264583px;stroke-linecap:butt;stroke-linejoin:miter;stroke-opacity:1"
       d="m 80.096205,38.511627 c -0.361728,0.571848 -0.176828,1.257716 0.317351,1.653413 0.494179,0.395697 1.297393,0.501492 1.939172,0.172958 0.641778,-0.328535 1.122422,-1.091404 1.298491,-1.965686 0.17607,-0.874281 0.04748,-1.860148 -0.465029,-2.64915 -0.512509,-0.789003 -1.409163,-1.381004 -1.825251,-1.540157 -0.416088,-0.159154 -0.351361,0.114437 -0.118908,0.660278 0.232454,0.54584 0.632535,1.363884 0.378378,2.001465 -0.254158,0.637581 -1.162475,1.095032 -1.524204,1.666879 z"
       id="path1897-9" />
    <path
       style="fill:none;stroke:#00ff00;stroke-width:0.264583px;stroke-linecap:butt;stroke-linejoin:miter;stroke-opacity:1"
       d="m 85.442028,38.738438 c -0.361728,0.571847 -0.176828,1.257715 0.31735,1.653412 0.494178,0.395697 1.297397,0.501493 1.939173,0.172957 0.641775,-0.328536 1.122418,-1.091403 1.298488,-1.965684 0.176069,-0.874282 0.04748,-1.860149 -0.465027,-2.64915 -0.512506,-0.789002 -1.409164,-1.381007 -1.825249,-1.540158 -0.416085,-0.159151 -0.351361,0.114435 -0.118907,0.660276 0.232453,0.545841 0.632534,1.363885 0.378377,2.001466 -0.254157,0.637582 -1.162477,1.095034 -1.524205,1.666881 z"
       id="path1897-2" />
    <path
       style="fill:none;stroke:#00ff00;stroke-width:0.264583px;stroke-linecap:butt;stroke-linejoin:miter;stroke-opacity:1"
       d="m 91.275339,38.756924 c -0.361731,0.57185 -0.176831,1.257719 0.317351,1.653415 0.494183,0.395697 1.297392,0.501491 1.939171,0.172958 0.641779,-0.328534 1.122425,-1.091405 1.298495,-1.965686 0.176069,-0.874282 0.04748,-1.860149 -0.465031,-2.649152 -0.51251,-0.789003 -1.409162,-1.381002 -1.825251,-1.540155 -0.416089,-0.159152 -0.351364,0.114437 -0.118911,0.660276 0.232453,0.54584 0.632536,1.363888 0.378378,2.001467 -0.254158,0.63758 -1.16247,1.095028 -1.524202,1.666877 z"
       id="path1897-28" />
    <path
       style="fill:none;stroke:#00ff00;stroke-width:0.264583px;stroke-linecap:butt;stroke-linejoin:miter;stroke-opacity:1"
       d="m 95.779638,38.695165 c -0.361728,0.571846 -0.176828,1.257715 0.31735,1.653413 0.494178,0.395697 1.297397,0.501492 1.939175,0.172958 0.641778,-0.328534 1.122421,-1.091407 1.298488,-1.965687 0.176067,-0.87428 0.04748,-1.860147 -0.465029,-2.649148 -0.512506,-0.789002 -1.409164,-1.381007 -1.825249,-1.540158 -0.416085,-0.159151 -0.35136,0.114438 -0.118907,0.660277 0.232453,0.54584 0.632534,1.363884 0.378377,2.001465 -0.254157,0.637582 -1.162477,1.095034 -1.524205,1.66688 z"
       id="path1897-97" />
    <path
       style="fill:none;stroke:#00ff00;stroke-width:0.264583px;stroke-linecap:butt;stroke-linejoin:miter;stroke-opacity:1"
       d="m 102.07979,38.830981 c -0.36174,0.57185 -0.17684,1.257719 0.31735,1.653415 0.49418,0.395697 1.29739,0.501491 1.93917,0.172958 0.64178,-0.328534 1.12242,-1.091405 1.29849,-1.965686 0.17607,-0.874282 0.0475,-1.860149 -0.46503,-2.649152 -0.51251,-0.789003 -1.40916,-1.381002 -1.82525,-1.540155 -0.41609,-0.159152 -0.35136,0.114437 -0.11891,0.660278 0.23246,0.545842 0.63254,1.363886 0.37838,2.001465 -0.25416,0.63758 -1.16247,1.095028 -1.5242,1.666877 z"
       id="path1897-3" />
    <path
       style="fill:none;stroke:#00ff00;stroke-width:0.264583px;stroke-linecap:butt;stroke-linejoin:miter;stroke-opacity:1"
       d="m 108.23304,38.733064 c -0.36173,0.571847 -0.17683,1.257716 0.31735,1.653414 0.49418,0.395697 1.29739,0.501492 1.93917,0.172956 0.64178,-0.328535 1.12242,-1.091402 1.29849,-1.965683 0.17607,-0.874282 0.0475,-1.860149 -0.46503,-2.649152 -0.51251,-0.789003 -1.40916,-1.381002 -1.82525,-1.540155 -0.41609,-0.159153 -0.35136,0.114435 -0.1189,0.660276 0.23245,0.545842 0.63253,1.363886 0.37837,2.001465 -0.25415,0.637579 -1.16247,1.095032 -1.5242,1.666879 z"
       id="path1897-6" />
    <g
       aria-label="Organ of Corti"
       id="text1987"
       style="font-size:3.52778px;line-height:1.25;font-family:sans-serif;-inkscape-font-specification:'sans-serif, Normal';stroke-width:0.264583">
      <path
         d="m 112.31188,24.709291 q -0.37896,0 -0.60289,0.282498 -0.22221,0.282498 -0.22221,0.769979 0,0.485759 0.22221,0.768257 0.22393,0.282498 0.60289,0.282498 0.37896,0 0.59945,-0.282498 0.22221,-0.282498 0.22221,-0.768257 0,-0.487481 -0.22221,-0.769979 -0.22049,-0.282498 -0.59945,-0.282498 z m 0,-0.282498 q 0.54088,0 0.86472,0.363457 0.32384,0.361736 0.32384,0.971518 0,0.60806 -0.32384,0.971517 -0.32384,0.361736 -0.86472,0.361736 -0.5426,0 -0.86816,-0.361736 -0.32384,-0.361735 -0.32384,-0.971517 0,-0.609782 0.32384,-0.971518 0.32556,-0.363457 0.86816,-0.363457 z"
         style="font-size:3.52778px;stroke-width:0.264583"
         id="path3722" />
      <path
         d="m 115.14892,25.412091 q -0.0534,-0.03101 -0.11714,-0.04479 -0.062,-0.0155 -0.1378,-0.0155 -0.26872,0 -0.41341,0.1757 -0.14297,0.173978 -0.14297,0.501262 v 1.016304 h -0.31867 v -1.929255 h 0.31867 v 0.299724 q 0.0999,-0.1757 0.2601,-0.260105 0.1602,-0.08613 0.3893,-0.08613 0.0327,0 0.0724,0.0052 0.0396,0.0034 0.0879,0.01206 z"
         style="font-size:3.52778px;stroke-width:0.264583"
         id="path3724" />
      <path
         d="m 116.68888,26.058046 q 0,-0.344509 -0.14297,-0.53399 -0.14125,-0.18948 -0.39791,-0.18948 -0.25494,0 -0.39791,0.18948 -0.14125,0.189481 -0.14125,0.53399 0,0.342788 0.14125,0.532268 0.14297,0.18948 0.39791,0.18948 0.25666,0 0.39791,-0.18948 0.14297,-0.18948 0.14297,-0.532268 z m 0.31695,0.747587 q 0,0.492649 -0.21877,0.732083 -0.21876,0.241157 -0.67007,0.241157 -0.16709,0 -0.31523,-0.02584 -0.14813,-0.02411 -0.28766,-0.07579 v -0.308336 q 0.13953,0.07579 0.27561,0.111966 0.13608,0.03617 0.27733,0.03617 0.31178,0 0.46681,-0.163642 0.15503,-0.16192 0.15503,-0.490926 v -0.156752 q -0.0982,0.170532 -0.2515,0.254937 -0.1533,0.08441 -0.3669,0.08441 -0.35484,0 -0.57188,-0.27044 -0.21705,-0.270441 -0.21705,-0.716581 0,-0.447862 0.21705,-0.718303 0.21704,-0.27044 0.57188,-0.27044 0.2136,0 0.3669,0.08441 0.15331,0.0844 0.2515,0.254937 v -0.292833 h 0.31695 z"
         style="font-size:3.52778px;stroke-width:0.264583"
         id="path3726" />
      <path
         d="m 118.53545,26.075272 q -0.38413,0 -0.53227,0.08785 -0.14814,0.08785 -0.14814,0.299723 0,0.16881 0.11025,0.268718 0.11196,0.09818 0.30316,0.09818 0.26355,0 0.42203,-0.186035 0.1602,-0.187758 0.1602,-0.497817 v -0.07062 z m 0.63217,-0.130914 v 1.100709 h -0.31694 v -0.292833 q -0.10852,0.1757 -0.27044,0.260104 -0.16192,0.08268 -0.39619,0.08268 -0.29628,0 -0.47198,-0.165365 -0.17398,-0.167087 -0.17398,-0.44614 0,-0.325562 0.21704,-0.490927 0.21877,-0.165364 0.65113,-0.165364 h 0.44442 v -0.03101 q 0,-0.218764 -0.1447,-0.33762 -0.14297,-0.120578 -0.40307,-0.120578 -0.16537,0 -0.32212,0.03962 -0.15675,0.03962 -0.30145,0.118855 v -0.292833 q 0.17398,-0.06718 0.33762,-0.09991 0.16364,-0.03445 0.31867,-0.03445 0.41858,0 0.62529,0.217041 0.2067,0.217042 0.2067,0.658014 z"
         style="font-size:3.52778px;stroke-width:0.264583"
         id="path3728" />
      <path
         d="m 121.42416,25.880624 v 1.164443 h -0.31695 v -1.154108 q 0,-0.273885 -0.10679,-0.409967 -0.1068,-0.136081 -0.3204,-0.136081 -0.25666,0 -0.4048,0.163642 -0.14814,0.163642 -0.14814,0.44614 v 1.090374 h -0.31867 v -1.929255 h 0.31867 v 0.299724 q 0.11369,-0.173978 0.267,-0.260105 0.15503,-0.08613 0.35657,-0.08613 0.33245,0 0.50298,0.206706 0.17053,0.204983 0.17053,0.604615 z"
         style="font-size:3.52778px;stroke-width:0.264583"
         id="path3730" />
      <path
         d="m 123.9253,25.338021 q -0.25493,0 -0.40307,0.199816 -0.14814,0.198093 -0.14814,0.544325 0,0.346232 0.14642,0.546048 0.14813,0.198093 0.40479,0.198093 0.25322,0 0.40136,-0.199816 0.14814,-0.199815 0.14814,-0.544325 0,-0.342787 -0.14814,-0.542603 -0.14814,-0.201538 -0.40136,-0.201538 z m 0,-0.268718 q 0.41342,0 0.64941,0.268718 0.23598,0.268718 0.23598,0.744141 0,0.473701 -0.23598,0.744141 -0.23599,0.268718 -0.64941,0.268718 -0.41513,0 -0.65112,-0.268718 -0.23427,-0.27044 -0.23427,-0.744141 0,-0.475423 0.23427,-0.744141 0.23599,-0.268718 0.65112,-0.268718 z"
         style="font-size:3.52778px;stroke-width:0.264583"
         id="path3732" />
      <path
         d="m 126.31276,24.364781 v 0.26355 h -0.30317 q -0.17053,0 -0.23771,0.0689 -0.0655,0.0689 -0.0655,0.248047 v 0.170532 h 0.52193 v 0.246325 h -0.52193 v 1.68293 h -0.31867 v -1.68293 h -0.30317 v -0.246325 h 0.30317 v -0.134359 q 0,-0.322116 0.14986,-0.468533 0.14986,-0.148139 0.47542,-0.148139 z"
         style="font-size:3.52778px;stroke-width:0.264583"
         id="path3734" />
      <path
         d="m 129.639,24.671395 v 0.366902 q -0.1757,-0.163642 -0.37552,-0.244602 -0.19809,-0.08096 -0.42202,-0.08096 -0.44097,0 -0.67524,0.27044 -0.23427,0.268717 -0.23427,0.778592 0,0.508152 0.23427,0.778592 0.23427,0.268718 0.67524,0.268718 0.22393,0 0.42202,-0.08096 0.19982,-0.08096 0.37552,-0.244602 v 0.363458 q -0.18259,0.124023 -0.38757,0.186035 -0.20327,0.06201 -0.43064,0.06201 -0.58395,0 -0.91984,-0.356568 -0.3359,-0.35829 -0.3359,-0.976685 0,-0.620118 0.3359,-0.976685 0.33589,-0.35829 0.91984,-0.35829 0.23082,0 0.43408,0.06201 0.20498,0.06029 0.38413,0.182591 z"
         style="font-size:3.52778px;stroke-width:0.264583"
         id="path3736" />
      <path
         d="m 130.91024,25.338021 q -0.25494,0 -0.40308,0.199816 -0.14814,0.198093 -0.14814,0.544325 0,0.346232 0.14642,0.546048 0.14814,0.198093 0.4048,0.198093 0.25321,0 0.40135,-0.199816 0.14814,-0.199815 0.14814,-0.544325 0,-0.342787 -0.14814,-0.542603 -0.14814,-0.201538 -0.40135,-0.201538 z m 0,-0.268718 q 0.41341,0 0.6494,0.268718 0.23599,0.268718 0.23599,0.744141 0,0.473701 -0.23599,0.744141 -0.23599,0.268718 -0.6494,0.268718 -0.41513,0 -0.65112,-0.268718 -0.23427,-0.27044 -0.23427,-0.744141 0,-0.475423 0.23427,-0.744141 0.23599,-0.268718 0.65112,-0.268718 z"
         style="font-size:3.52778px;stroke-width:0.264583"
         id="path3738" />
      <path
         d="m 133.43894,25.412091 q -0.0534,-0.03101 -0.11713,-0.04479 -0.062,-0.0155 -0.13781,-0.0155 -0.26871,0 -0.41341,0.1757 -0.14297,0.173978 -0.14297,0.501262 v 1.016304 h -0.31867 v -1.929255 h 0.31867 v 0.299724 q 0.0999,-0.1757 0.26011,-0.260105 0.16019,-0.08613 0.38929,-0.08613 0.0327,0 0.0724,0.0052 0.0396,0.0034 0.0879,0.01206 z"
         style="font-size:3.52778px;stroke-width:0.264583"
         id="path3740" />
      <path
         d="m 134.0849,24.568042 v 0.54777 h 0.65284 v 0.246325 h -0.65284 v 1.047309 q 0,0.235989 0.0637,0.303169 0.0655,0.06718 0.26355,0.06718 h 0.32556 v 0.265273 h -0.32556 q -0.3669,0 -0.50643,-0.136082 -0.13952,-0.137803 -0.13952,-0.499539 v -1.047309 h -0.23255 v -0.246325 h 0.23255 v -0.54777 z"
         style="font-size:3.52778px;stroke-width:0.264583"
         id="path3742" />
      <path
         d="m 135.1546,25.115812 h 0.31695 v 1.929255 h -0.31695 z m 0,-0.751031 h 0.31695 v 0.401354 h -0.31695 z"
         style="font-size:3.52778px;stroke-width:0.264583"
         id="path3744" />
    </g>
    <path
       style="fill:none;stroke:#000000;stroke-width:0.264583px;stroke-linecap:butt;stroke-linejoin:miter;stroke-opacity:1;marker-start:url(#Arrow1Sstart)"
       d="m 115.77859,37.525205 c 1.59231,-3.133565 3.18467,-6.267229 4.77708,-9.400997"
       id="path1989" />
    <path
       style="fill:none;stroke:#00ff00;stroke-width:0.709976px;stroke-linecap:butt;stroke-linejoin:miter;stroke-opacity:1"
       d="m 63.847974,66.467557 c -0.970662,1.534488 -0.474506,3.374932 0.851571,4.436735 1.326078,1.061803 3.481392,1.345688 5.203527,0.464109 1.722134,-0.881579 3.011888,-2.928648 3.484349,-5.274676 0.472462,-2.346027 0.127404,-4.991479 -1.247853,-7.108671 -1.375257,-2.117191 -3.781311,-3.705749 -4.897835,-4.132815 -1.116525,-0.427066 -0.942843,0.307076 -0.319081,1.771775 0.623763,1.464699 1.697331,3.659817 1.015328,5.370684 -0.682002,1.710866 -3.119344,2.93837 -4.090006,4.472859 z"
       id="path1897-3-1" />
    <path
       style="fill:none;stroke:#000000;stroke-width:0.264583px;stroke-linecap:butt;stroke-linejoin:miter;stroke-opacity:1"
       d="M 103.83916,38.918759 C 94.214903,43.945757 84.590551,48.972805 74.966097,53.999906"
       id="path2091"
       sodipodi:nodetypes="cc" />
    <path
       style="fill:none;stroke:#000000;stroke-width:0.264583px;stroke-linecap:butt;stroke-linejoin:miter;stroke-opacity:1;marker-start:url(#marker2131)"
       d="M 73.379716,56.781578 C 82.255244,56.47114 91.13052,56.160712 100.00554,55.850292"
       id="path2125"
       sodipodi:nodetypes="cc" />
    <g
       aria-label="Hair Bundle"
       id="text2231"
       style="font-size:3.52778px;line-height:1.25;font-family:sans-serif;-inkscape-font-specification:'sans-serif, Normal';stroke-width:0.264583">
      <path
         d="m 76.00355,57.543412 h 0.347955 v 1.0542 h 1.264351 v -1.0542 h 0.347955 v 2.571765 h -0.347955 v -1.224732 h -1.264351 v 1.224732 H 76.00355 Z"
         style="font-size:3.52778px;stroke-width:0.264583"
         id="path3831" />
      <path
         d="m 79.519273,59.145382 q -0.384129,0 -0.532268,0.08785 -0.148139,0.08785 -0.148139,0.299724 0,0.168809 0.110243,0.268717 0.111966,0.09819 0.303169,0.09819 0.26355,0 0.422024,-0.186036 0.160197,-0.187758 0.160197,-0.497816 v -0.07062 z m 0.632175,-0.130914 v 1.100709 h -0.316949 v -0.292833 q -0.108521,0.1757 -0.27044,0.260105 -0.16192,0.08268 -0.396186,0.08268 -0.296279,0 -0.471979,-0.165365 -0.173977,-0.167087 -0.173977,-0.44614 0,-0.325562 0.217041,-0.490926 0.218764,-0.165365 0.651123,-0.165365 h 0.444418 v -0.03101 q 0,-0.218763 -0.144694,-0.337619 -0.142972,-0.120579 -0.403076,-0.120579 -0.165365,0 -0.322117,0.03962 -0.156752,0.03962 -0.301446,0.118856 v -0.292834 q 0.173977,-0.06718 0.337619,-0.09991 0.163643,-0.03445 0.318672,-0.03445 0.418579,0 0.625285,0.217041 0.206706,0.217041 0.206706,0.658013 z"
         style="font-size:3.52778px;stroke-width:0.264583"
         id="path3833" />
      <path
         d="m 80.804294,58.185922 h 0.316949 v 1.929255 h -0.316949 z m 0,-0.751031 h 0.316949 v 0.401354 h -0.316949 z"
         style="font-size:3.52778px;stroke-width:0.264583"
         id="path3835" />
      <path
         d="m 82.902359,58.482201 q -0.0534,-0.03101 -0.117134,-0.04479 -0.06201,-0.0155 -0.137804,-0.0155 -0.268717,0 -0.413411,0.1757 -0.142972,0.173977 -0.142972,0.501261 v 1.016304 h -0.318671 v -1.929255 h 0.318671 v 0.299724 q 0.09991,-0.1757 0.260105,-0.260105 0.160197,-0.08613 0.389296,-0.08613 0.03273,0 0.07235,0.0052 0.03962,0.0034 0.08785,0.01206 z"
         style="font-size:3.52778px;stroke-width:0.264583"
         id="path3837" />
      <path
         d="m 84.717925,58.887 v 0.942234 h 0.558106 q 0.280775,0 0.415134,-0.115411 0.136082,-0.117133 0.136082,-0.356567 0,-0.241157 -0.136082,-0.354845 Q 85.556806,58.887 85.276031,58.887 Z m 0,-1.057645 v 0.775147 h 0.515042 q 0.254937,0 0.378961,-0.09474 0.125746,-0.09646 0.125746,-0.292834 0,-0.194648 -0.125746,-0.29111 -0.124024,-0.09646 -0.378961,-0.09646 z M 84.36997,57.543412 h 0.888835 q 0.397909,0 0.613228,0.165364 0.215318,0.165365 0.215318,0.470256 0,0.235989 -0.110243,0.375516 -0.110243,0.139526 -0.323839,0.173977 0.25666,0.05512 0.397909,0.230822 0.142971,0.173977 0.142971,0.435805 0,0.34451 -0.234266,0.532267 -0.234267,0.187758 -0.666627,0.187758 H 84.36997 Z"
         style="font-size:3.52778px;stroke-width:0.264583"
         id="path3839" />
      <path
         d="m 86.743643,59.353811 v -1.167889 h 0.316949 v 1.155831 q 0,0.273885 0.106798,0.411689 0.106798,0.136081 0.320394,0.136081 0.25666,0 0.404799,-0.163642 0.149862,-0.163642 0.149862,-0.44614 v -1.093819 h 0.316949 v 1.929255 h -0.316949 v -0.296278 q -0.115411,0.1757 -0.268718,0.261827 -0.151584,0.08441 -0.353123,0.08441 -0.332452,0 -0.504706,-0.206706 -0.172255,-0.206706 -0.172255,-0.604614 z"
         style="font-size:3.52778px;stroke-width:0.264583"
         id="path3841" />
      <path
         d="m 90.615933,58.950734 v 1.164443 h -0.316949 v -1.154108 q 0,-0.273885 -0.106798,-0.409966 -0.106798,-0.136082 -0.320395,-0.136082 -0.256659,0 -0.404799,0.163643 -0.148139,0.163642 -0.148139,0.44614 v 1.090373 h -0.318671 v -1.929255 h 0.318671 v 0.299724 q 0.113688,-0.173977 0.266995,-0.260105 0.15503,-0.08613 0.356568,-0.08613 0.332452,0 0.502984,0.206705 0.170533,0.204984 0.170533,0.604615 z"
         style="font-size:3.52778px;stroke-width:0.264583"
         id="path3843" />
      <path
         d="m 92.517627,58.478756 v -1.043865 h 0.316949 v 2.680286 h -0.316949 v -0.289388 q -0.09991,0.172255 -0.253215,0.25666 -0.151584,0.08268 -0.365181,0.08268 -0.349677,0 -0.570163,-0.279053 -0.218764,-0.279053 -0.218764,-0.733806 0,-0.454753 0.218764,-0.733805 0.220486,-0.279053 0.570163,-0.279053 0.213597,0 0.365181,0.0844 0.153307,0.08268 0.253215,0.254937 z m -1.080039,0.673516 q 0,0.349678 0.142972,0.549493 0.144694,0.198094 0.396186,0.198094 0.251492,0 0.396186,-0.198094 0.144695,-0.199815 0.144695,-0.549493 0,-0.349677 -0.144695,-0.54777 -0.144694,-0.199816 -0.396186,-0.199816 -0.251492,0 -0.396186,0.199816 -0.142972,0.198093 -0.142972,0.54777 z"
         style="font-size:3.52778px;stroke-width:0.264583"
         id="path3845" />
      <path
         d="m 93.487422,57.434891 h 0.316949 v 2.680286 h -0.316949 z"
         style="font-size:3.52778px;stroke-width:0.264583"
         id="path3847" />
      <path
         d="m 96.117753,59.071313 v 0.155029 h -1.457276 q 0.02067,0.327284 0.19637,0.499539 0.177423,0.170532 0.492649,0.170532 0.182591,0 0.353123,-0.04479 0.172255,-0.04479 0.341065,-0.134359 v 0.299724 q -0.170533,0.07235 -0.349678,0.110243 -0.179145,0.0379 -0.363458,0.0379 -0.461643,0 -0.732083,-0.268718 -0.268718,-0.268717 -0.268718,-0.726915 0,-0.473701 0.254938,-0.751031 0.256659,-0.279053 0.690742,-0.279053 0.389296,0 0.61495,0.251492 0.227376,0.249769 0.227376,0.680407 z m -0.316949,-0.09302 q -0.0034,-0.260105 -0.146416,-0.415134 -0.14125,-0.15503 -0.375516,-0.15503 -0.265273,0 -0.42547,0.149862 -0.158474,0.149862 -0.18259,0.422024 z"
         style="font-size:3.52778px;stroke-width:0.264583"
         id="path3849" />
    </g>
    <path
       style="fill:none;stroke:#000000;stroke-width:0.264583px;stroke-linecap:butt;stroke-linejoin:miter;stroke-opacity:1"
       d="m 68.08408,53.85205 c 0.407311,0.0149 0.814349,0.0298 1.008273,0.119815 0.193923,0.09002 0.17503,0.254936 0.346735,0.495817 0.171704,0.240881 0.533693,0.557702 1.115378,0.838821 0.581686,0.281119 1.382971,0.526659 1.98474,1.262582 0.601769,0.735923 1.00417,1.961945 1.439685,2.940834 0.435515,0.978889 0.904033,1.710612 0.967977,2.431153 0.06394,0.720542 -0.276442,1.43004 -0.616781,2.139441"
       id="path2233"
       sodipodi:nodetypes="cccccccc" />
    <path
       style="fill:none;stroke:#00ff00;stroke-width:0.264583px;stroke-linecap:butt;stroke-linejoin:miter;stroke-opacity:1"
       d="m 103.02448,62.803297 c 0.18098,-2.653819 0.36198,-5.307881 0.80987,-5.299088 0.44789,0.0088 1.16253,2.680268 1.64129,2.142 0.47876,-0.538267 0.7217,-4.286115 1.13575,-6.211796 0.41404,-1.925681 0.99891,-2.02883 1.23481,-0.31817 0.23591,1.71066 0.12307,5.234693 0.15997,7.105373 0.0369,1.87068 0.22328,2.087893 0.54625,0.409652 0.32297,-1.67824 0.78278,-5.25174 1.11081,-7.241938 0.32802,-1.990197 0.52427,-2.396889 0.75432,-0.574375 0.23005,1.822515 0.49382,5.873905 0.90027,7.923054 0.40644,2.049149 0.95526,2.09623 1.06536,-0.394619 0.1101,-2.490849 -0.21826,-7.519684 0.0125,-9.974442 0.23074,-2.454758 1.02028,-2.335112 1.59225,0.569253 0.57196,2.904365 0.9266,8.592984 1.28123,14.281435"
       id="path2249" />
    <g
       aria-label="Kinocilium"
       id="text2255"
       style="font-size:3.52778px;line-height:1.25;font-family:sans-serif;-inkscape-font-specification:'sans-serif, Normal';stroke-width:0.264583">
      <path
         d="m 119.50992,45.618741 h 0.34796 v 1.086928 l 1.1541,-1.086928 h 0.44787 l -1.27641,1.198894 1.3677,1.372871 h -0.4582 l -1.23506,-1.238513 v 1.238513 h -0.34796 z"
         style="font-size:3.52778px;stroke-width:0.264583"
         id="path3936" />
      <path
         d="m 121.80952,46.261251 h 0.31695 v 1.929255 h -0.31695 z m 0,-0.751031 h 0.31695 v 0.401354 h -0.31695 z"
         style="font-size:3.52778px;stroke-width:0.264583"
         id="path3938" />
      <path
         d="m 124.39335,47.026063 v 1.164443 h -0.31695 v -1.154108 q 0,-0.273885 -0.1068,-0.409966 -0.1068,-0.136082 -0.32039,-0.136082 -0.25666,0 -0.4048,0.163642 -0.14814,0.163643 -0.14814,0.446141 v 1.090373 h -0.31867 v -1.929255 h 0.31867 v 0.299724 q 0.11369,-0.173978 0.26699,-0.260105 0.15503,-0.08613 0.35657,-0.08613 0.33245,0 0.50298,0.206706 0.17054,0.204984 0.17054,0.604615 z"
         style="font-size:3.52778px;stroke-width:0.264583"
         id="path3940" />
      <path
         d="m 125.77311,46.48346 q -0.25494,0 -0.40308,0.199816 -0.14814,0.198093 -0.14814,0.544325 0,0.346232 0.14642,0.546048 0.14814,0.198093 0.4048,0.198093 0.25321,0 0.40135,-0.199815 0.14814,-0.199816 0.14814,-0.544326 0,-0.342787 -0.14814,-0.542603 -0.14814,-0.201538 -0.40135,-0.201538 z m 0,-0.268718 q 0.41341,0 0.6494,0.268718 0.23599,0.268718 0.23599,0.744141 0,0.473701 -0.23599,0.744141 -0.23599,0.268718 -0.6494,0.268718 -0.41514,0 -0.65112,-0.268718 -0.23427,-0.27044 -0.23427,-0.744141 0,-0.475423 0.23427,-0.744141 0.23598,-0.268718 0.65112,-0.268718 z"
         style="font-size:3.52778px;stroke-width:0.264583"
         id="path3942" />
      <path
         d="m 128.57225,46.335321 v 0.296278 q -0.13436,-0.07407 -0.27044,-0.110243 -0.13436,-0.0379 -0.27216,-0.0379 -0.30834,0 -0.47887,0.196371 -0.17053,0.194648 -0.17053,0.54777 0,0.353123 0.17053,0.549493 0.17053,0.194648 0.47887,0.194648 0.1378,0 0.27216,-0.03617 0.13608,-0.0379 0.27044,-0.111966 v 0.292833 q -0.13264,0.06201 -0.27561,0.09302 -0.14125,0.03101 -0.30144,0.03101 -0.43581,0 -0.69247,-0.273885 -0.25666,-0.273886 -0.25666,-0.738974 0,-0.471978 0.25838,-0.742418 0.26011,-0.270441 0.71142,-0.270441 0.14641,0 0.28594,0.03101 0.13953,0.02928 0.27044,0.08957 z"
         style="font-size:3.52778px;stroke-width:0.264583"
         id="path3944" />
      <path
         d="m 129.12347,46.261251 h 0.31695 v 1.929255 h -0.31695 z m 0,-0.751031 h 0.31695 v 0.401354 h -0.31695 z"
         style="font-size:3.52778px;stroke-width:0.264583"
         id="path3946" />
      <path
         d="m 130.1036,45.51022 h 0.31695 v 2.680286 h -0.31695 z"
         style="font-size:3.52778px;stroke-width:0.264583"
         id="path3948" />
      <path
         d="m 131.08373,46.261251 h 0.31695 v 1.929255 h -0.31695 z m 0,-0.751031 h 0.31695 v 0.401354 h -0.31695 z"
         style="font-size:3.52778px;stroke-width:0.264583"
         id="path3950" />
      <path
         d="m 132.03113,47.429139 v -1.167888 h 0.31695 v 1.155831 q 0,0.273885 0.1068,0.411689 0.10679,0.136081 0.32039,0.136081 0.25666,0 0.4048,-0.163642 0.14986,-0.163642 0.14986,-0.44614 v -1.093819 h 0.31695 v 1.929255 h -0.31695 v -0.296278 q -0.11541,0.1757 -0.26872,0.261827 -0.15158,0.0844 -0.35312,0.0844 -0.33245,0 -0.50471,-0.206706 -0.17225,-0.206706 -0.17225,-0.604615 z"
         style="font-size:3.52778px;stroke-width:0.264583"
         id="path3952" />
      <path
         d="m 135.80179,46.631599 q 0.11885,-0.213596 0.28422,-0.315226 0.16536,-0.101631 0.38929,-0.101631 0.30145,0 0.46509,0.211874 0.16365,0.210151 0.16365,0.599447 v 1.164443 h -0.31868 v -1.154108 q 0,-0.27733 -0.0982,-0.411689 -0.0982,-0.134359 -0.29973,-0.134359 -0.24632,0 -0.38929,0.163642 -0.14297,0.163643 -0.14297,0.446141 v 1.090373 h -0.31867 v -1.154108 q 0,-0.279053 -0.0982,-0.411689 -0.0982,-0.134359 -0.30317,-0.134359 -0.24288,0 -0.38585,0.165365 -0.14297,0.163642 -0.14297,0.444418 v 1.090373 h -0.31867 v -1.929255 h 0.31867 v 0.299724 q 0.10852,-0.177423 0.2601,-0.261828 0.15159,-0.0844 0.36002,-0.0844 0.21015,0 0.35656,0.106798 0.14814,0.106799 0.21877,0.310059 z"
         style="font-size:3.52778px;stroke-width:0.264583"
         id="path3954" />
    </g>
    <path
       style="fill:none;stroke:#000000;stroke-width:0.264583px;stroke-linecap:butt;stroke-linejoin:miter;stroke-opacity:1;marker-end:url(#Arrow1Send)"
       d="m 118.96904,47.618862 c -1.77817,1.378946 -3.55593,2.757574 -5.33327,4.135879"
       id="path2257"
       sodipodi:nodetypes="cc" />
    <path
       style="fill:none;stroke:#ff0000;stroke-width:0.264583px;stroke-linecap:butt;stroke-linejoin:miter;stroke-opacity:1"
       d="m 104.08484,57.515413 c 0.16987,-0.261044 0.34016,-0.522734 0.42551,-0.681288 0.0854,-0.158554 0.0854,-0.215981 0.0799,-0.298496 -0.005,-0.08252 -0.0168,-0.190291 -0.0702,-0.211951 -0.0534,-0.02166 -0.14893,0.04606 -0.10452,0.05978 0.0444,0.01372 0.22737,-0.02651 0.33522,-0.104179 0.10784,-0.07767 0.14304,-0.194919 0.122,-0.343767 -0.021,-0.148847 -0.10023,-0.330809 -0.167,-0.426045 -0.0668,-0.09524 -0.12252,-0.100858 -0.16349,-0.04939 -0.041,0.05147 -0.0638,0.158315 -0.0109,0.251708 0.0529,0.09339 0.17812,0.173349 0.25963,0.2034 0.0815,0.03005 0.1212,0.0127 0.18697,-0.179025 0.0658,-0.191721 0.15935,-0.560235 0.19542,-0.795662 0.0361,-0.235427 0.0135,-0.33903 -0.003,-0.363109 -0.0167,-0.02408 -0.0265,0.03235 -0.0312,0.08308 -0.005,0.05073 -0.005,0.09527 0.062,0.139717 0.0667,0.04445 0.19703,0.09032 0.30987,-0.05561 0.11284,-0.145932 0.2119,-0.48427 0.23668,-0.70468 0.0248,-0.22041 -0.0268,-0.324302 -0.044,-0.339895 -0.0172,-0.01559 8.5e-4,0.05718 0.0801,0.122034 0.0793,0.06485 0.21729,0.12353 0.30491,0.1234 0.0876,-1.29e-4 0.1284,-0.05825 0.17233,-0.221966 0.0439,-0.163715 0.091,-0.434639 0.0738,-0.601327 -0.0172,-0.166689 -0.10213,-0.229175 -0.13392,-0.234808 -0.0318,-0.0056 -0.009,0.04459 0.0608,0.109707 0.0697,0.06511 0.18473,0.146129 0.25906,0.188761 0.0743,0.04263 0.10803,0.04849 0.14101,0.04518 0.033,-0.0033 0.0667,-0.01473 0.0965,-0.04541 0.0299,-0.03068 0.0579,-0.08207 0.0783,-0.111268 0.0204,-0.0292 0.0315,-0.03475 0.0394,-0.05328 0.008,-0.01852 0.0138,-0.05252 0.0202,-0.08871"
       id="path2357" />
    <path
       style="fill:none;stroke:#ff0000;stroke-width:0.264583px;stroke-linecap:butt;stroke-linejoin:miter;stroke-opacity:1"
       d="m 107.85731,53.186829 c 0.22071,-0.07598 0.43986,-0.151413 0.55419,-0.226881 0.11433,-0.07547 0.12569,-0.153711 0.12885,-0.234295 0.003,-0.08058 -0.002,-0.164073 -0.0829,-0.135145 -0.0805,0.02893 -0.23582,0.173245 -0.28935,0.266646 -0.0535,0.0934 -0.008,0.133367 0.0236,0.159023 0.0315,0.02566 0.0488,0.03743 0.0971,0.04229 0.0482,0.0049 0.1278,0.0049 0.22828,-0.0483 0.10048,-0.05316 0.22431,-0.159297 0.28892,-0.236894 0.0646,-0.0776 0.0705,-0.129282 0.0708,-0.182855 2.9e-4,-0.05357 -0.006,-0.109707 -0.0359,-0.133476 -0.0304,-0.02377 -0.0869,-0.01187 -0.11909,0.02118 -0.0322,0.03305 -0.0379,0.08453 -0.005,0.173659 0.0325,0.08913 0.10111,0.215137 0.16082,0.26758 0.0597,0.05244 0.1107,0.03499 0.15543,-0.01036 0.0447,-0.04535 0.0853,-0.120036 0.1003,-0.192792 0.015,-0.07276 0.004,-0.145536 -0.0179,-0.193705 -0.0216,-0.04817 -0.0558,-0.07074 -0.1051,-0.06317 -0.0493,0.0076 -0.11108,0.0477 -0.14833,0.09786 -0.0373,0.05016 -0.0489,0.107869 -0.0514,0.174386 -0.003,0.06652 0.003,0.141087 0.14724,0.218851 0.14392,0.07776 0.42297,0.160664 0.58382,0.123098 0.16084,-0.03757 0.20715,-0.196371 0.25395,-0.356891"
       id="path2361" />
    <path
       style="fill:none;stroke:#ff0000;stroke-width:0.264583px;stroke-linecap:butt;stroke-linejoin:miter;stroke-opacity:1"
       d="m 110.46553,52.227225 c 0.0666,-0.0572 0.13289,-0.114198 0.18994,-0.154697 0.0571,-0.0405 0.10406,-0.06417 0.21463,-0.186609 0.11057,-0.122438 0.28604,-0.344524 0.3852,-0.544614 0.0992,-0.200091 0.12202,-0.380122 0.1238,-0.481089 0.002,-0.100967 -0.0205,-0.123254 -0.0383,-0.15168 -0.0178,-0.02843 -0.0295,-0.0636 -0.0924,-0.11097 -0.0629,-0.04737 -0.17899,-0.105375 -0.27111,-0.140489 -0.0921,-0.03511 -0.16013,-0.04625 -0.1671,0.02191 -0.007,0.06816 0.0488,0.212946 0.18718,0.207715 0.13835,-0.0052 0.35993,-0.156884 0.47616,-0.27738 0.11622,-0.120495 0.12796,-0.212476 0.13429,-0.320395 0.006,-0.10792 0.007,-0.232132 0.0136,-0.182016 0.007,0.05012 0.0189,0.274405 0.0724,0.215248 0.0535,-0.05916 0.14884,-0.400733 0.16364,-0.555645 0.0148,-0.154911 -0.0525,-0.120835 -0.0986,-0.04534 -0.0461,0.0755 -0.0695,0.189866 0.0116,0.298559 0.0811,0.108692 0.26325,0.211937 0.39256,0.234132 0.12931,0.0222 0.2084,-0.03449 0.27591,-0.107479 0.0675,-0.07299 0.12434,-0.163333 0.18163,-0.254384"
       id="path2365" />
    <path
       id="path2369"
       style="fill:#0000ff;stroke:none;stroke-width:0.264999;stroke-miterlimit:4;stroke-dasharray:none"
       d="m 107.27967,53.101852 a 0.44453755,0.49938691 0 0 1 -0.44454,0.499387 0.44453755,0.49938691 0 0 1 -0.44454,-0.499387 0.44453755,0.49938691 0 0 1 0.44454,-0.499386 0.44453755,0.49938691 0 0 1 0.44454,0.499386 z" />
    <path
       id="path2371"
       style="fill:#0000ff;stroke:none;stroke-width:0.264999;stroke-miterlimit:4;stroke-dasharray:none"
       d="m 104.50354,57.619179 a 0.38704705,0.40102053 0 0 1 -0.38705,0.40102 0.38704705,0.40102053 0 0 1 -0.38704,-0.40102 0.38704705,0.40102053 0 0 1 0.38704,-0.401021 0.38704705,0.40102053 0 0 1 0.38705,0.401021 z" />
    <path
       id="path2373"
       style="fill:#0000ff;stroke:none;stroke-width:0.264999;stroke-miterlimit:4;stroke-dasharray:none"
       d="m 108.20023,53.154026 a 0.25468469,0.27538517 0 0 1 -0.25468,0.275385 0.25468469,0.27538517 0 0 1 -0.25469,-0.275385 0.25468469,0.27538517 0 0 1 0.25469,-0.275385 0.25468469,0.27538517 0 0 1 0.25468,0.275385 z" />
    <path
       id="path2375"
       style="fill:#0000ff;stroke:none;stroke-width:0.264999;stroke-miterlimit:4;stroke-dasharray:none"
       d="m 110.2558,52.85648 a 0.36727995,0.40614989 0 0 1 -0.36728,0.40615 0.36727995,0.40614989 0 0 1 -0.36728,-0.40615 0.36727995,0.40614989 0 0 1 0.36728,-0.40615 0.36727995,0.40614989 0 0 1 0.36728,0.40615 z" />
    <path
       id="path2377"
       style="fill:#0000ff;stroke:none;stroke-width:0.264999;stroke-miterlimit:4;stroke-dasharray:none"
       d="m 110.96764,52.311615 a 0.37775639,0.3073374 0 0 1 -0.37776,0.307337 0.37775639,0.3073374 0 0 1 -0.37775,-0.307337 0.37775639,0.3073374 0 0 1 0.37775,-0.307337 0.37775639,0.3073374 0 0 1 0.37776,0.307337 z" />
    <path
       id="path2379"
       style="fill:#0000ff;stroke:none;stroke-width:0.264999;stroke-miterlimit:4;stroke-dasharray:none"
       d="m 112.9099,49.808197 a 0.2807526,0.42654321 0 0 1 -0.28076,0.426543 0.2807526,0.42654321 0 0 1 -0.28075,-0.426543 0.2807526,0.42654321 0 0 1 0.28075,-0.426543 0.2807526,0.42654321 0 0 1 0.28076,0.426543 z" />
    <g
       aria-label="Tip Link"
       id="text2255-2"
       style="font-size:3.52778px;line-height:1.25;font-family:sans-serif;-inkscape-font-specification:'sans-serif, Normal';stroke-width:0.264583">
      <path
         d="m 117.26982,53.267975 h 2.17558 v 0.292834 h -0.91296 v 2.278932 h -0.34967 v -2.278932 h -0.91295 z"
         style="font-size:3.52778px;stroke-width:0.264583"
         id="path4551" />
      <path
         d="m 119.65899,53.910486 h 0.31695 v 1.929255 h -0.31695 z m 0,-0.751031 h 0.31695 v 0.401354 h -0.31695 z"
         style="font-size:3.52778px;stroke-width:0.264583"
         id="path4553" />
      <path
         d="m 120.94574,55.550353 v 1.023194 h -0.31868 v -2.663061 h 0.31868 v 0.292833 q 0.0999,-0.172255 0.25149,-0.254937 0.1533,-0.08441 0.36518,-0.08441 0.3514,0 0.57016,0.279053 0.22049,0.279053 0.22049,0.733806 0,0.454753 -0.22049,0.733806 -0.21876,0.279053 -0.57016,0.279053 -0.21188,0 -0.36518,-0.08268 -0.15159,-0.0844 -0.25149,-0.256659 z m 1.07831,-0.673517 q 0,-0.349677 -0.14469,-0.547771 -0.14297,-0.199815 -0.39447,-0.199815 -0.25149,0 -0.39618,0.199815 -0.14297,0.198094 -0.14297,0.547771 0,0.349677 0.14297,0.549493 0.14469,0.198093 0.39618,0.198093 0.2515,0 0.39447,-0.198093 0.14469,-0.199816 0.14469,-0.549493 z"
         style="font-size:3.52778px;stroke-width:0.264583"
         id="path4555" />
      <path
         d="m 124.0136,53.267975 h 0.34795 v 2.278932 h 1.25229 v 0.292834 h -1.60024 z"
         style="font-size:3.52778px;stroke-width:0.264583"
         id="path4557" />
      <path
         d="m 125.96524,53.910486 h 0.31695 v 1.929255 h -0.31695 z m 0,-0.751031 h 0.31695 v 0.401354 h -0.31695 z"
         style="font-size:3.52778px;stroke-width:0.264583"
         id="path4559" />
      <path
         d="m 128.54907,54.675298 v 1.164443 h -0.31695 v -1.154108 q 0,-0.273885 -0.1068,-0.409967 -0.1068,-0.136081 -0.3204,-0.136081 -0.25666,0 -0.40479,0.163642 -0.14814,0.163642 -0.14814,0.44614 v 1.090374 h -0.31868 v -1.929255 h 0.31868 v 0.299724 q 0.11368,-0.173978 0.26699,-0.260105 0.15503,-0.08613 0.35657,-0.08613 0.33245,0 0.50298,0.206706 0.17054,0.204983 0.17054,0.604615 z"
         style="font-size:3.52778px;stroke-width:0.264583"
         id="path4561" />
      <path
         d="m 129.16918,53.159455 h 0.31867 v 1.583022 l 0.94568,-0.831991 h 0.4048 l -1.02319,0.902616 1.06626,1.026639 h -0.41341 l -0.98014,-0.942234 v 0.942234 h -0.31867 z"
         style="font-size:3.52778px;stroke-width:0.264583"
         id="path4563" />
    </g>
    <path
       style="fill:none;stroke:#000000;stroke-width:0.264583px;stroke-linecap:butt;stroke-linejoin:miter;stroke-opacity:1;marker-end:url(#Arrow1Send-3)"
       d="m 117.40754,54.159873 c -3.893,0.404517 -7.78527,0.808959 -11.67677,1.21332"
       id="path2257-9"
       sodipodi:nodetypes="cc" />
    <g
       aria-label="K+ Channel"
       id="text2571">
      <path
         d="m 100.02319,66.881787 h 0.34795 v 1.086928 l 1.15411,-1.086928 h 0.44786 l -1.2764,1.198894 1.3677,1.372871 h -0.4582 l -1.23507,-1.238512 v 1.238512 h -0.34795 z"
         style="font-size:3.52778px;baseline-shift:baseline;stroke-width:0.264583"
         id="path4650" />
      <path
         d="m 103.04506,66.604801 v 0.623649 h 0.62364 v 0.190341 h -0.62364 v 0.623649 h -0.18811 V 67.418791 H 102.2333 V 67.22845 h 0.62365 v -0.623649 z"
         style="font-size:65%;baseline-shift:super"
         id="path4652" />
      <path
         d="m 107.30509,67.07988 v 0.366903 q -0.1757,-0.163642 -0.37551,-0.244602 -0.1981,-0.08096 -0.42203,-0.08096 -0.44097,0 -0.67524,0.27044 -0.23426,0.268718 -0.23426,0.778592 0,0.508152 0.23426,0.778592 0.23427,0.268718 0.67524,0.268718 0.22393,0 0.42203,-0.08096 0.19981,-0.08096 0.37551,-0.244602 v 0.363458 q -0.18259,0.124024 -0.38757,0.186035 -0.20326,0.06201 -0.43064,0.06201 -0.58394,0 -0.91984,-0.356567 -0.3359,-0.358291 -0.3359,-0.976686 0,-0.620117 0.3359,-0.976685 0.3359,-0.35829 0.91984,-0.35829 0.23082,0 0.43408,0.06201 0.20499,0.06029 0.38413,0.18259 z"
         style="font-size:3.52778px;baseline-shift:baseline;stroke-width:0.264583"
         id="path4654" />
      <path
         d="m 109.43244,68.289109 v 1.164443 h -0.31695 v -1.154107 q 0,-0.273886 -0.1068,-0.409967 -0.1068,-0.136081 -0.32039,-0.136081 -0.25666,0 -0.4048,0.163642 -0.14814,0.163642 -0.14814,0.44614 v 1.090373 h -0.31867 v -2.680286 h 0.31867 v 1.050755 q 0.11369,-0.173977 0.267,-0.260105 0.15502,-0.08613 0.35656,-0.08613 0.33245,0 0.50299,0.206706 0.17053,0.204983 0.17053,0.604614 z"
         style="font-size:3.52778px;baseline-shift:baseline;stroke-width:0.264583"
         id="path4656" />
      <path
         d="m 110.94139,68.483757 q -0.38413,0 -0.53227,0.08785 -0.14814,0.08785 -0.14814,0.299724 0,0.16881 0.11025,0.268717 0.11196,0.09819 0.30317,0.09819 0.26355,0 0.42202,-0.186036 0.1602,-0.187757 0.1602,-0.497816 v -0.07063 z m 0.63218,-0.130913 v 1.100708 h -0.31695 v -0.292833 q -0.10852,0.1757 -0.27044,0.260105 -0.16192,0.08268 -0.39619,0.08268 -0.29628,0 -0.47198,-0.165365 -0.17397,-0.167087 -0.17397,-0.44614 0,-0.325561 0.21704,-0.490926 0.21876,-0.165365 0.65112,-0.165365 h 0.44442 v -0.03101 q 0,-0.218763 -0.1447,-0.337619 -0.14297,-0.120579 -0.40307,-0.120579 -0.16537,0 -0.32212,0.03962 -0.15675,0.03962 -0.30145,0.118856 v -0.292833 q 0.17398,-0.06718 0.33762,-0.09991 0.16365,-0.03445 0.31868,-0.03445 0.41858,0 0.62528,0.217041 0.20671,0.217041 0.20671,0.658014 z"
         style="font-size:3.52778px;baseline-shift:baseline;stroke-width:0.264583"
         id="path4658" />
      <path
         d="m 113.83011,68.289109 v 1.164443 h -0.31695 v -1.154107 q 0,-0.273886 -0.1068,-0.409967 -0.1068,-0.136081 -0.32039,-0.136081 -0.25666,0 -0.4048,0.163642 -0.14814,0.163642 -0.14814,0.44614 v 1.090373 h -0.31867 v -1.929254 h 0.31867 v 0.299723 q 0.11369,-0.173977 0.26699,-0.260105 0.15503,-0.08613 0.35657,-0.08613 0.33245,0 0.50298,0.206706 0.17054,0.204983 0.17054,0.604614 z"
         style="font-size:3.52778px;baseline-shift:baseline;stroke-width:0.264583"
         id="path4660" />
      <path
         d="m 116.06598,68.289109 v 1.164443 h -0.31695 v -1.154107 q 0,-0.273886 -0.1068,-0.409967 -0.1068,-0.136081 -0.3204,-0.136081 -0.25666,0 -0.40479,0.163642 -0.14814,0.163642 -0.14814,0.44614 v 1.090373 h -0.31868 v -1.929254 h 0.31868 v 0.299723 q 0.11368,-0.173977 0.26699,-0.260105 0.15503,-0.08613 0.35657,-0.08613 0.33245,0 0.50298,0.206706 0.17054,0.204983 0.17054,0.604614 z"
         style="font-size:3.52778px;baseline-shift:baseline;stroke-width:0.264583"
         id="path4662" />
      <path
         d="m 118.34835,68.409688 v 0.155029 h -1.45727 q 0.0207,0.327284 0.19637,0.499539 0.17742,0.170533 0.49264,0.170533 0.18259,0 0.35313,-0.04479 0.17225,-0.04479 0.34106,-0.134359 v 0.299724 q -0.17053,0.07235 -0.34968,0.110243 -0.17914,0.0379 -0.36345,0.0379 -0.46165,0 -0.73209,-0.268717 -0.26871,-0.268718 -0.26871,-0.726916 0,-0.473701 0.25493,-0.751031 0.25666,-0.279053 0.69075,-0.279053 0.38929,0 0.61495,0.251492 0.22737,0.249769 0.22737,0.680407 z m -0.31695,-0.09302 q -0.003,-0.260105 -0.14641,-0.415134 -0.14125,-0.15503 -0.37552,-0.15503 -0.26527,0 -0.42547,0.149862 -0.15847,0.149862 -0.18259,0.422025 z"
         style="font-size:3.52778px;baseline-shift:baseline;stroke-width:0.264583"
         id="path4664" />
      <path
         d="m 118.86856,66.773266 h 0.31695 v 2.680286 h -0.31695 z"
         style="font-size:3.52778px;baseline-shift:baseline;stroke-width:0.264583"
         id="path4666" />
    </g>
    <path
       style="fill:none;stroke:#000000;stroke-width:0.264583px;stroke-linecap:butt;stroke-linejoin:miter;stroke-opacity:1;marker-end:url(#Arrow1Send-3-4)"
       d="m 106.30406,65.39228 c -0.69254,-2.44271 -1.38499,-4.885128 -2.07736,-7.327231"
       id="path2257-9-8"
       sodipodi:nodetypes="cc" />
    <path
       id="path2749"
       style="fill:#ff00ff;stroke:none;stroke-width:0.264999;stroke-miterlimit:4;stroke-dasharray:none"
       d="m 74.310662,65.819382 a 0.78432542,1.029601 0 0 1 -0.784325,1.029601 0.78432542,1.029601 0 0 1 -0.784326,-1.029601 0.78432542,1.029601 0 0 1 0.784326,-1.029601 0.78432542,1.029601 0 0 1 0.784325,1.029601 z" />
    <path
       id="path2751"
       style="fill:#ff00ff;stroke:none;stroke-width:0.264999;stroke-miterlimit:4;stroke-dasharray:none"
       d="m 64.277697,67.617149 a 0.83006924,0.5940699 0 0 1 -0.830069,0.59407 0.83006924,0.5940699 0 0 1 -0.830069,-0.59407 0.83006924,0.5940699 0 0 1 0.830069,-0.59407 0.83006924,0.5940699 0 0 1 0.830069,0.59407 z" />
    <path
       id="path2753"
       style="fill:#ff00ff;stroke:none;stroke-width:0.264999;stroke-miterlimit:4;stroke-dasharray:none"
       d="m 69.408619,71.863548 a 0.65244669,0.69123286 0 0 1 -0.652447,0.691233 0.65244669,0.69123286 0 0 1 -0.652447,-0.691233 0.65244669,0.69123286 0 0 1 0.652447,-0.691233 0.65244669,0.69123286 0 0 1 0.652447,0.691233 z" />
    <path
       id="path2755"
       style="fill:#ff00ff;stroke:none;stroke-width:0.264999;stroke-miterlimit:4;stroke-dasharray:none"
       d="m 67.779312,63.393204 a 0.64015907,0.68586046 0 0 1 -0.640159,0.68586 0.64015907,0.68586046 0 0 1 -0.64016,-0.68586 0.64015907,0.68586046 0 0 1 0.64016,-0.685861 0.64015907,0.68586046 0 0 1 0.640159,0.685861 z" />
    <g
       aria-label="Calcium
Channel"
       id="text2759"
       style="font-size:4.9389px;line-height:1.25;font-family:sans-serif;-inkscape-font-specification:'sans-serif, Normal';stroke-width:0.264583">
      <path
         d="m 81.331589,66.627495 v 0.366903 q -0.1757,-0.163642 -0.375515,-0.244602 -0.198093,-0.08096 -0.422025,-0.08096 -0.440972,0 -0.675239,0.27044 -0.234267,0.268718 -0.234267,0.778592 0,0.508152 0.234267,0.778592 0.234267,0.268718 0.675239,0.268718 0.223932,0 0.422025,-0.08096 0.199815,-0.08096 0.375515,-0.244602 v 0.363458 q -0.18259,0.124024 -0.387573,0.186035 -0.203261,0.06201 -0.430637,0.06201 -0.583944,0 -0.919841,-0.356567 -0.335897,-0.358291 -0.335897,-0.976686 0,-0.620117 0.335897,-0.976685 0.335897,-0.35829 0.919841,-0.35829 0.230821,0 0.434082,0.06201 0.204983,0.06029 0.384128,0.18259 z"
         style="font-size:3.52778px;stroke-width:0.264583"
         id="path5093" />
      <path
         d="m 82.732022,68.031372 q -0.384129,0 -0.532268,0.08785 -0.148139,0.08785 -0.148139,0.299724 0,0.16881 0.110243,0.268717 0.111966,0.09819 0.303169,0.09819 0.26355,0 0.422024,-0.186036 0.160197,-0.187757 0.160197,-0.497816 v -0.07062 z m 0.632175,-0.130913 v 1.100708 h -0.316949 v -0.292833 q -0.108521,0.1757 -0.27044,0.260105 -0.16192,0.08268 -0.396186,0.08268 -0.296279,0 -0.471979,-0.165364 -0.173977,-0.167088 -0.173977,-0.446141 0,-0.325561 0.217041,-0.490926 0.218764,-0.165365 0.651123,-0.165365 h 0.444418 v -0.03101 q 0,-0.218763 -0.144694,-0.337619 -0.142972,-0.120579 -0.403076,-0.120579 -0.165365,0 -0.322117,0.03962 -0.156752,0.03962 -0.301446,0.118856 v -0.292833 q 0.173977,-0.06718 0.337619,-0.09991 0.163643,-0.03445 0.318672,-0.03445 0.418579,0 0.625285,0.217041 0.206706,0.217041 0.206706,0.658014 z"
         style="font-size:3.52778px;stroke-width:0.264583"
         id="path5095" />
      <path
         d="m 84.017043,66.320881 h 0.316949 v 2.680286 h -0.316949 z"
         style="font-size:3.52778px;stroke-width:0.264583"
         id="path5097" />
      <path
         d="m 86.385548,67.145982 v 0.296279 q -0.134359,-0.07407 -0.27044,-0.110244 -0.134359,-0.0379 -0.272163,-0.0379 -0.308336,0 -0.478869,0.196371 -0.170532,0.194648 -0.170532,0.54777 0,0.353123 0.170532,0.549494 0.170533,0.194648 0.478869,0.194648 0.137804,0 0.272163,-0.03617 0.136081,-0.0379 0.27044,-0.111966 v 0.292834 q -0.132636,0.06201 -0.275608,0.09302 -0.141249,0.03101 -0.301446,0.03101 -0.435805,0 -0.692465,-0.273885 -0.256659,-0.273885 -0.256659,-0.738974 0,-0.471978 0.258382,-0.742418 0.260105,-0.27044 0.711413,-0.27044 0.146416,0 0.285943,0.03101 0.139526,0.02928 0.27044,0.08957 z"
         style="font-size:3.52778px;stroke-width:0.264583"
         id="path5099" />
      <path
         d="m 86.936763,67.071913 h 0.316949 v 1.929254 h -0.316949 z m 0,-0.751032 h 0.316949 v 0.401354 h -0.316949 z"
         style="font-size:3.52778px;stroke-width:0.264583"
         id="path5101" />
      <path
         d="m 87.884166,68.239801 v -1.167888 h 0.316949 v 1.15583 q 0,0.273885 0.106798,0.411689 0.106798,0.136081 0.320394,0.136081 0.25666,0 0.404799,-0.163642 0.149861,-0.163642 0.149861,-0.44614 v -1.093818 h 0.316949 v 1.929254 h -0.316949 v -0.296278 q -0.11541,0.1757 -0.268717,0.261827 -0.151584,0.0844 -0.353123,0.0844 -0.332452,0 -0.504706,-0.206706 -0.172255,-0.206706 -0.172255,-0.604614 z"
         style="font-size:3.52778px;stroke-width:0.264583"
         id="path5103" />
      <path
         d="m 91.654825,67.442261 q 0.118856,-0.213596 0.284221,-0.315227 0.165364,-0.10163 0.389296,-0.10163 0.301446,0 0.465088,0.211873 0.163642,0.210151 0.163642,0.599447 v 1.164443 H 92.638401 V 67.84706 q 0,-0.277331 -0.09819,-0.41169 -0.09819,-0.134358 -0.299723,-0.134358 -0.246325,0 -0.389296,0.163642 -0.142972,0.163642 -0.142972,0.44614 v 1.090373 H 91.389553 V 67.84706 q 0,-0.279053 -0.09819,-0.41169 -0.09819,-0.134358 -0.303168,-0.134358 -0.24288,0 -0.385851,0.165364 -0.142972,0.163642 -0.142972,0.444418 v 1.090373 h -0.318671 v -1.929254 h 0.318671 v 0.299723 q 0.108521,-0.177422 0.260105,-0.261827 0.151584,-0.08441 0.360013,-0.08441 0.210151,0 0.356567,0.106798 0.14814,0.106798 0.218764,0.310059 z"
         style="font-size:3.52778px;stroke-width:0.264583"
         id="path5105" />
      <path
         d="m 81.331589,72.80112 v 0.366903 q -0.1757,-0.163642 -0.375515,-0.244602 -0.198093,-0.08096 -0.422025,-0.08096 -0.440972,0 -0.675239,0.27044 -0.234267,0.268718 -0.234267,0.778592 0,0.508152 0.234267,0.778592 0.234267,0.268718 0.675239,0.268718 0.223932,0 0.422025,-0.08096 0.199815,-0.08096 0.375515,-0.244602 v 0.363458 q -0.18259,0.124024 -0.387573,0.186035 -0.203261,0.06201 -0.430637,0.06201 -0.583944,0 -0.919841,-0.356567 -0.335897,-0.358291 -0.335897,-0.976686 0,-0.620117 0.335897,-0.976685 0.335897,-0.35829 0.919841,-0.35829 0.230821,0 0.434082,0.06201 0.204983,0.06029 0.384128,0.18259 z"
         style="font-size:3.52778px;stroke-width:0.264583"
         id="path5107" />
      <path
         d="m 83.458937,74.010349 v 1.164443 h -0.316949 v -1.154107 q 0,-0.273886 -0.106798,-0.409967 -0.106798,-0.136081 -0.320394,-0.136081 -0.25666,0 -0.404799,0.163642 -0.148139,0.163642 -0.148139,0.44614 v 1.090373 h -0.318672 v -2.680286 h 0.318672 v 1.050755 q 0.113688,-0.173977 0.266995,-0.260105 0.155029,-0.08613 0.356568,-0.08613 0.332452,0 0.502984,0.206706 0.170532,0.204983 0.170532,0.604614 z"
         style="font-size:3.52778px;stroke-width:0.264583"
         id="path5109" />
      <path
         d="m 84.96789,74.204997 q -0.384128,0 -0.532268,0.08785 -0.148139,0.08785 -0.148139,0.299724 0,0.16881 0.110243,0.268717 0.111966,0.09819 0.303169,0.09819 0.26355,0 0.422024,-0.186036 0.160198,-0.187757 0.160198,-0.497816 v -0.07062 z m 0.632176,-0.130913 v 1.100708 h -0.316949 v -0.292833 q -0.108521,0.1757 -0.270441,0.260105 -0.161919,0.08268 -0.396186,0.08268 -0.296278,0 -0.471978,-0.165364 -0.173978,-0.167088 -0.173978,-0.446141 0,-0.325561 0.217041,-0.490926 0.218764,-0.165365 0.651124,-0.165365 h 0.444418 v -0.03101 q 0,-0.218763 -0.144695,-0.337619 -0.142971,-0.120579 -0.403076,-0.120579 -0.165365,0 -0.322117,0.03962 -0.156752,0.03962 -0.301446,0.118856 v -0.292833 q 0.173978,-0.06718 0.33762,-0.09991 0.163642,-0.03445 0.318671,-0.03445 0.41858,0 0.625286,0.217041 0.206706,0.217041 0.206706,0.658014 z"
         style="font-size:3.52778px;stroke-width:0.264583"
         id="path5111" />
      <path
         d="m 87.856605,74.010349 v 1.164443 h -0.316949 v -1.154107 q 0,-0.273886 -0.106798,-0.409967 -0.106798,-0.136081 -0.320394,-0.136081 -0.25666,0 -0.404799,0.163642 -0.14814,0.163642 -0.14814,0.44614 v 1.090373 h -0.318671 v -1.929254 h 0.318671 v 0.299723 q 0.113689,-0.173977 0.266995,-0.260105 0.15503,-0.08613 0.356568,-0.08613 0.332452,0 0.502984,0.206706 0.170533,0.204983 0.170533,0.604614 z"
         style="font-size:3.52778px;stroke-width:0.264583"
         id="path5113" />
      <path
         d="m 90.092473,74.010349 v 1.164443 h -0.316949 v -1.154107 q 0,-0.273886 -0.106798,-0.409967 -0.106798,-0.136081 -0.320394,-0.136081 -0.25666,0 -0.404799,0.163642 -0.148139,0.163642 -0.148139,0.44614 v 1.090373 h -0.318672 v -1.929254 h 0.318672 v 0.299723 q 0.113688,-0.173977 0.266995,-0.260105 0.155029,-0.08613 0.356568,-0.08613 0.332451,0 0.502984,0.206706 0.170532,0.204983 0.170532,0.604614 z"
         style="font-size:3.52778px;stroke-width:0.264583"
         id="path5115" />
      <path
         d="m 92.37485,74.130928 v 0.155029 h -1.457276 q 0.02067,0.327284 0.196371,0.499539 0.177422,0.170533 0.492649,0.170533 0.18259,0 0.353122,-0.04479 0.172255,-0.04479 0.341065,-0.134358 v 0.299723 q -0.170533,0.07235 -0.349678,0.110243 -0.179145,0.0379 -0.363457,0.0379 -0.461644,0 -0.732084,-0.268717 -0.268717,-0.268718 -0.268717,-0.726916 0,-0.473701 0.254937,-0.751031 0.25666,-0.279053 0.690742,-0.279053 0.389296,0 0.61495,0.251492 0.227376,0.249769 0.227376,0.680407 z m -0.316949,-0.09302 q -0.0034,-0.260105 -0.146416,-0.415134 -0.141249,-0.15503 -0.375516,-0.15503 -0.265272,0 -0.425469,0.149862 -0.158475,0.149862 -0.182591,0.422025 z"
         style="font-size:3.52778px;stroke-width:0.264583"
         id="path5117" />
      <path
         d="m 92.89506,72.494506 h 0.316949 v 2.680286 H 92.89506 Z"
         style="font-size:3.52778px;stroke-width:0.264583"
         id="path5119" />
    </g>
    <path
       style="fill:none;stroke:#000000;stroke-width:0.264583px;stroke-linecap:butt;stroke-linejoin:miter;stroke-opacity:1;marker-start:url(#marker2131-4)"
       d="m 69.400391,71.90272 c 2.995466,-0.861686 5.990758,-1.723321 8.985876,-2.584907"
       id="path2125-0"
       sodipodi:nodetypes="cc" />
  </g>
</svg>
