<?xml version="1.0" encoding="UTF-8" standalone="no"?>
<svg
   xmlns:dc="http://purl.org/dc/elements/1.1/"
   xmlns:cc="http://creativecommons.org/ns#"
   xmlns:rdf="http://www.w3.org/1999/02/22-rdf-syntax-ns#"
   xmlns:svg="http://www.w3.org/2000/svg"
   xmlns="http://www.w3.org/2000/svg"
   xmlns:sodipodi="http://sodipodi.sourceforge.net/DTD/sodipodi-0.dtd"
   xmlns:inkscape="http://www.inkscape.org/namespaces/inkscape"
   sodipodi:docname="Eye.svg"
   id="svg213"
   viewBox="0 0 210 297"
   version="1.1"
   height="297mm"
   width="210mm"
   inkscape:version="1.0.2 (e86c870879, 2021-01-15)">
  <sodipodi:namedview
     pagecolor="#ffffff"
     bordercolor="#666666"
     borderopacity="1"
     objecttolerance="10"
     gridtolerance="10"
     guidetolerance="10"
     inkscape:pageopacity="0"
     inkscape:pageshadow="2"
     inkscape:window-width="1218"
     inkscape:window-height="728"
     id="namedview215"
     showgrid="false"
     inkscape:zoom="0.76257015"
     inkscape:cx="499.78883"
     inkscape:cy="575.02505"
     inkscape:window-x="597"
     inkscape:window-y="151"
     inkscape:window-maximized="0"
     inkscape:current-layer="svg213"
     inkscape:document-rotation="0" />
  <defs
     id="defs41">
    <marker
       id="Arrow1Send"
       overflow="visible"
       orient="auto">
      <path
         transform="scale(.2) rotate(180) translate(6)"
         d="m0 0 5-5-17.5 5 17.5 5-5-5z"
         fill-rule="evenodd"
         stroke="#000"
         stroke-width="1pt"
         id="path2" />
    </marker>
    <marker
       id="Arrow1Send-5"
       overflow="visible"
       orient="auto">
      <path
         transform="matrix(-.2 0 0 -.2 -1.2 0)"
         d="m0 0 5-5-17.5 5 17.5 5z"
         fill-rule="evenodd"
         stroke="#000"
         stroke-width="1pt"
         id="path5" />
    </marker>
    <marker
       id="Arrow1Send-0"
       overflow="visible"
       orient="auto">
      <path
         transform="matrix(-.2 0 0 -.2 -1.2 0)"
         d="m0 0 5-5-17.5 5 17.5 5z"
         fill-rule="evenodd"
         stroke="#000"
         stroke-width="1pt"
         id="path8" />
    </marker>
    <marker
       id="Arrow1Send-2"
       overflow="visible"
       orient="auto">
      <path
         transform="matrix(-.2 0 0 -.2 -1.2 0)"
         d="m0 0 5-5-17.5 5 17.5 5z"
         fill-rule="evenodd"
         stroke="#000"
         stroke-width="1pt"
         id="path11" />
    </marker>
    <marker
       id="Arrow1Send-0-2"
       overflow="visible"
       orient="auto">
      <path
         transform="matrix(-.2 0 0 -.2 -1.2 0)"
         d="m0 0 5-5-17.5 5 17.5 5z"
         fill-rule="evenodd"
         stroke="#000"
         stroke-width="1pt"
         id="path14" />
    </marker>
    <marker
       id="Arrow1Send-0-2-9"
       overflow="visible"
       orient="auto">
      <path
         transform="matrix(-.2 0 0 -.2 -1.2 0)"
         d="m0 0 5-5-17.5 5 17.5 5z"
         fill-rule="evenodd"
         stroke="#000"
         stroke-width="1pt"
         id="path17" />
    </marker>
    <marker
       id="Arrow1Send-0-2-9-4"
       overflow="visible"
       orient="auto">
      <path
         transform="matrix(-.2 0 0 -.2 -1.2 0)"
         d="m0 0 5-5-17.5 5 17.5 5z"
         fill-rule="evenodd"
         stroke="#000"
         stroke-width="1pt"
         id="path20" />
    </marker>
    <marker
       id="Arrow1Send-5-6"
       overflow="visible"
       orient="auto">
      <path
         transform="matrix(-.2 0 0 -.2 -1.2 0)"
         d="m0 0 5-5-17.5 5 17.5 5z"
         fill-rule="evenodd"
         stroke="#000"
         stroke-width="1pt"
         id="path23" />
    </marker>
    <marker
       id="Arrow1Send-0-2-9-5-6"
       overflow="visible"
       orient="auto">
      <path
         transform="matrix(-.2 0 0 -.2 -1.2 0)"
         d="m0 0 5-5-17.5 5 17.5 5z"
         fill-rule="evenodd"
         stroke="#000"
         stroke-width="1pt"
         id="path26" />
    </marker>
    <marker
       id="Arrow1Send-37"
       overflow="visible"
       orient="auto">
      <path
         transform="matrix(-.2 0 0 -.2 -1.2 0)"
         d="m0 0 5-5-17.5 5 17.5 5z"
         fill-rule="evenodd"
         stroke="#000"
         stroke-width="1pt"
         id="path29" />
    </marker>
    <marker
       id="Arrow1Send-37-4"
       overflow="visible"
       orient="auto">
      <path
         transform="matrix(-.2 0 0 -.2 -1.2 0)"
         d="m0 0 5-5-17.5 5 17.5 5z"
         fill-rule="evenodd"
         stroke="#000"
         stroke-width="1pt"
         id="path32" />
    </marker>
    <marker
       id="Arrow1Send-37-43"
       overflow="visible"
       orient="auto">
      <path
         transform="matrix(-.2 0 0 -.2 -1.2 0)"
         d="m0 0 5-5-17.5 5 17.5 5z"
         fill-rule="evenodd"
         stroke="#000"
         stroke-width="1pt"
         id="path35" />
    </marker>
    <marker
       id="Arrow1Send-3-6"
       overflow="visible"
       orient="auto">
      <path
         transform="matrix(-.2 0 0 -.2 -1.2 0)"
         d="m0 0 5-5-17.5 5 17.5 5z"
         fill-rule="evenodd"
         stroke="#000"
         stroke-width="1pt"
         id="path38" />
    </marker>
  </defs>
  <metadata
     id="metadata43">
    <rdf:RDF>
      <cc:Work
         rdf:about="">
        <dc:format>image/svg+xml</dc:format>
        <dc:type
           rdf:resource="http://purl.org/dc/dcmitype/StillImage" />
        <dc:title></dc:title>
      </cc:Work>
    </rdf:RDF>
    <rdf:RDF>
      <cc:Work
         rdf:about="">
        <dc:title />
      </cc:Work>
    </rdf:RDF>
    <rdf:RDF>
      <cc:Work
         rdf:about="">
        <dc:title />
      </cc:Work>
    </rdf:RDF>
    <rdf:RDF>
      <cc:Work
         rdf:about="">
        <dc:title />
      </cc:Work>
    </rdf:RDF>
    <rdf:RDF>
      <cc:Work
         rdf:about="">
        <dc:title></dc:title>
      </cc:Work>
    </rdf:RDF>
  </metadata>
  <ellipse
     cx="94.55"
     cy="136.15"
     rx="30.615"
     ry="30.132"
     fill="none"
     stroke="#000"
     stroke-width=".3"
     id="ellipse45" />
  <path
     transform="scale(.26458)"
     d="m279.57 600.31c-5.1365-3.9701-13.738-12.261-17.782-17.14-14.974-18.065-23.387-39.387-24.503-62.102-0.84052-17.113 2.7972-31.884 12.654-51.383 10.872-21.507 23.258-36.954 39.057-48.707 4.0313-2.999 11.057-7.5312 11.299-7.289 0.0929 0.0929 3.0675 0.78776 1.1507 2.0681-29.55 19.737-54.195 53.743-57.941 89.413-0.62465 5.9483-0.71803 17.325-0.18698 22.78 2.0332 20.888 11.787 39.72 24.25 55.796 5.0574 6.5231 9.865 12.138 17.032 18.196 3.2644 2.7593-0.6975 1.7162-5.03-1.6325z"
     fill="#0f0"
     stroke="#0f0"
     stroke-width=".46754"
     id="path47" />
  <path
     d="m104.35 172.4-3e-3 -6.6948"
     fill="none"
     marker-end="url(#Arrow1Send)"
     stroke="#000"
     stroke-width=".465"
     id="path53" />
  <path
     d="m64.571 115.77 1.5532 7.4052"
     fill="none"
     marker-end="url(#Arrow1Send-5)"
     stroke="#000"
     stroke-width=".565"
     id="path63" />
  <path
     d="m80.12 109.65c4.0295 9.2854 8.0587 18.57 7.4356 26.996-0.62311 8.4252-5.8984 15.99-11.174 23.555"
     fill="none"
     stroke="#0ff"
     stroke-dasharray="0.665, 3.99000000000000021"
     stroke-width=".665"
     id="path65" />
  <path
     d="m74.54 169.3 2.859-21.072"
     fill="none"
     marker-end="url(#Arrow1Send-0)"
     stroke="#000"
     stroke-width=".465"
     id="path73" />
  <g
     transform="matrix(1 0 0 1.338 -.49584 -45.477)"
     fill="none"
     stroke="#0f0"
     stroke-width=".26458px"
     id="g79">
    <path
       d="m93.117 125.01c-2.0284 3.896-4.0567 7.792-3.9267 11.436 0.13 3.6441 2.418 7.036 4.7058 10.428"
       id="path75" />
    <path
       d="m93.117 125.01c1.9506 3.5421 3.901 7.0839 4.0307 10.728 0.12975 3.6441-1.561 7.3901-3.2516 11.136"
       id="path77" />
  </g>
  <path
     d="m97.555 154.48-2.0586-7.782"
     fill="none"
     marker-end="url(#Arrow1Send-2)"
     stroke="#000"
     stroke-width=".465"
     id="path85" />
  <g
     transform="matrix(.70943 0 0 .74295 26.913 31.304)"
     fill="none"
     stroke="#00f"
     stroke-width=".26458px"
     id="g93">
    <path
       d="m92.621 121.79 0.16477-9.8099"
       id="path87" />
    <path
       d="m93.699 121.76 0.16477-9.8099"
       id="path89" />
    <path
       d="m91.526 121.71 0.16477-9.8099"
       id="path91" />
  </g>
  <g
     transform="matrix(.70943 0 0 .74295 27.575 67.847)"
     fill="none"
     stroke="#00f"
     stroke-width=".26458px"
     id="g101">
    <path
       d="m92.621 121.79 0.16477-9.8099"
       id="path95" />
    <path
       d="m93.699 121.76 0.16477-9.8099"
       id="path97" />
    <path
       d="m91.526 121.71 0.16477-9.8099"
       id="path99" />
  </g>
  <g
     fill="none"
     id="g115">
    <path
       d="m116.86 109.92-23.006 8.3003"
       marker-end="url(#Arrow1Send-0-2)"
       stroke="#000"
       stroke-width=".465"
       id="path109" />
    <ellipse
       cx="92.675"
       cy="111.76"
       rx="3.5613"
       ry="2.565"
       stroke="#f0f"
       stroke-width=".265"
       id="ellipse111" />
    <ellipse
       cx="93.229"
       cy="160.9"
       rx="3.5613"
       ry="2.565"
       stroke="#f0f"
       stroke-width=".265"
       id="ellipse113" />
  </g>
  <g
     fill="none"
     id="g129">
    <path
       d="m93.26 101.62 0.12097 9.346"
       marker-end="url(#Arrow1Send-0-2-9)"
       stroke="#000"
       stroke-width=".465"
       id="path123" />
    <path
       d="m84.381 164.45c0.85247-7.4682 1.705-14.937 2.6876-19.353 0.9826-4.4166 2.0952-5.781 2.1683-1.8458 0.07311 3.9352-0.89333 13.17-1.8598 22.404"
       stroke="#800080"
       stroke-width=".26458px"
       id="path125" />
    <path
       d="m84.102 107.88c0.85247 7.4682 1.705 14.937 2.6876 19.353 0.9826 4.4166 2.0952 5.781 2.1683 1.8458 0.07311-3.9352-0.89333-13.17-1.8598-22.404"
       stroke="#800080"
       stroke-width=".26458px"
       id="path127" />
  </g>
  <path
     d="m75.268 104.72 10.634 9.7731"
     fill="none"
     marker-end="url(#Arrow1Send-0-2-9-4)"
     stroke="#000"
     stroke-width=".465"
     id="path135" />
  <path
     d="m79.284 135.84 7.4685-0.0868"
     fill="none"
     marker-end="url(#Arrow1Send-5-6)"
     stroke="#000"
     stroke-width=".565"
     id="path141" />
  <path
     d="m96.731 166.21c8.0397-5.8226 16.078-11.645 20.229-16.881 4.1508-5.2367 4.4125-9.8868 4.8443-12.265 0.43181-2.3786 1.0334-2.4849 1.3131-3.1488 0.27963-0.66391 0.23741-1.8857-0.20429-2.2715s-1.2825 0.0647-2.775-2.1558c-1.4925-2.2205-3.6346-7.11-6.363-11.197-2.7285-4.0868-6.0484-7.3771-9.3667-10.666"
     fill="none"
     stroke="#f00"
     stroke-width=".26458px"
     id="path149" />
  <path
     d="m113.81 152.96c3.7173-2.3134 7.4346-4.6267 11.31-3.9001s7.9074 4.4925 11.94 8.2582"
     fill="none"
     stroke="#f00"
     stroke-width=".26458px"
     id="path151" />
  <g
     fill="none"
     id="g179">
    <path
       d="m113.24 112.5c1.9518 2.8776 3.9033 5.755 5.5235 8.3217 1.6202 2.5667 2.909 4.8227 3.7386 6.7599 0.82961 1.9372 1.2001 3.5556 1.3313 6.2389s0.0233 6.4315-1.4091 10.175c-1.4324 3.7436-4.1891 7.4828-6.8407 10.302-2.6516 2.8192-5.198 4.7183-7.6731 6.4482-2.4752 1.7299-4.8789 3.2904-7.2828 4.8511"
       stroke="#0ff"
       stroke-width=".26458px"
       id="path161" />
    <path
       d="m110.62 102.58-2.3835 8.1841"
       marker-end="url(#Arrow1Send-0-2-9-5-6)"
       stroke="#000"
       stroke-width=".465"
       id="path163" />
    <g
       stroke="#0ff"
       stroke-width=".26458px"
       id="g177">
      <path
         d="m117.54 119.29c-1.9842 0.65312-3.9687 1.3063-4.9025 2.1081-0.93384 0.80185-0.81699 1.752-1.5244 2.381-0.70739 0.62898-2.2391 0.93709-3.7711 1.2452"
         id="path165" />
      <path
         d="m111.79 122.63c0.61862 0.94806 1.237 1.8958 1.1349 2.9084s-0.9247 2.0901-1.7472 3.1676"
         id="path167" />
      <path
         d="m109.52 124.52c-0.16652 0.59495-0.333 1.1897-0.37051 1.822-0.0375 0.63226 0.0538 1.3018 0.14514 1.9712"
         id="path169" />
      <path
         d="m112.01 157.68c-0.201-1.4422-0.40203-2.8847-1.2164-3.81s-2.2422-1.333-3.0662-1.8613c-0.82394-0.52829-1.0437-1.1773-1.2635-1.8266"
         id="path171" />
      <path
         d="m107.94 152.21c-0.37934 0.62355-0.75864 1.247-1.5538 1.3743-0.79513 0.12723-2.0064-0.24179-3.218-0.61091"
         id="path173" />
      <path
         d="m110.5 153.57c0.0126-0.51284 0.0253-1.0259 0.66189-1.6641 0.63663-0.63818 1.8971-1.4011 3.1576-2.164"
         id="path175" />
    </g>
  </g>
  <g
     fill="none"
     id="g191">
    <path
       d="m117.95 164.01-5.286-5.7382"
       marker-end="url(#Arrow1Send-37)"
       stroke="#000"
       stroke-width=".465"
       id="path185" />
    <path
       d="m121.43 139.26c0.49827-1.4245 0.99652-2.849 1.3791-3.8963 0.38255-1.0473 0.64904-1.7165 0.75346-2.2315 0.10443-0.51498 0.0464-0.87438-0.37988-1.3028-0.42632-0.42845-1.2201-0.92451-2.1344-1.9129-0.91425-0.98841-1.9491-2.4698-2.9836-3.9508"
       stroke="#f00"
       stroke-width="1.062"
       id="path187" />
    <path
       d="m121.43 139.26c1.1217 2.114 2.2432 4.2277 5.1999 7.0832s7.7484 6.4527 12.54 10.05"
       stroke="#f00"
       stroke-width=".26458px"
       id="path189" />
  </g>
  <g
     id="g209">
    <path
       d="m131.19 140.42-7.5151-7.2343"
       fill="none"
       marker-end="url(#Arrow1Send-37-4)"
       stroke="#000"
       stroke-width=".465"
       id="path201" />
    <path
       d="m126.72 126.61-6.103 1.7281"
       fill="none"
       marker-end="url(#Arrow1Send-37-43)"
       stroke="#000"
       stroke-width=".465"
       id="path203" />
    <path
       d="m74.363 158.83c-1.2696-1.0504-3.3956-3.2439-4.3954-4.535-3.7013-4.7797-5.7808-10.421-6.0565-16.431-0.20776-4.5277 0.6914-8.436 3.1277-13.595 2.6872-5.6904 5.7489-9.7773 9.6541-12.887 0.99645-0.79349 2.7329-1.9926 2.7928-1.9286 0.02296 0.0246 0.75822 0.20843 0.28442 0.54718-7.3041 5.2222-13.396 14.22-14.322 23.657-0.1544 1.5738-0.17748 4.5838-0.04622 6.0273 0.50255 5.5266 2.9135 10.509 5.9941 14.763 1.2501 1.7259 2.4384 3.2116 4.21 4.8144 0.80689 0.73006-0.1724 0.45406-1.2433-0.43195z"
       fill="#ff0"
       stroke="#ff0"
       stroke-width=".11957"
       id="path205" />
    <path
       d="m56.95 151.69 8.6363-5.1277"
       fill="none"
       marker-end="url(#Arrow1Send-3-6)"
       stroke="#000"
       stroke-width=".58068"
       id="path207" />
  </g>
  <path
     d="m119.89 144.68c3.4342 1.7829 6.8684 3.5658 9.8502 5.5512s5.5106 4.1726 8.0397 6.3601"
     fill="none"
     stroke="#f00"
     stroke-width=".26458px"
     id="path211" />
  <text
     x="102.29663"
     y="176.13483"
     font-family="sans-serif"
     font-size="4.9389px"
     stroke-width=".26458"
     style="line-height:1.25"
     xml:space="preserve"
     id="text51"><tspan
       x="102.29663"
       y="176.13483"
       font-size="3.5278px"
       stroke-width=".26458"
       id="tspan49">Sclera</tspan></text>
  <text
     x="43.545551"
     y="153.62695"
     font-family="sans-serif"
     font-size="4.9389px"
     stroke-width=".26458"
     style="line-height:1.25"
     xml:space="preserve"
     id="text57"><tspan
       x="43.545551"
       y="153.62695"
       font-size="3.5278px"
       stroke-width=".26458"
       id="tspan55">Cornea</tspan></text>
  <text
     x="46.610531"
     y="115.23326"
     font-family="sans-serif"
     font-size="3.5278px"
     stroke-width=".26458"
     style="line-height:1.25"
     xml:space="preserve"
     id="text61"><tspan
       x="46.610531"
       y="115.23326"
       font-size="3.5278px"
       stroke-width=".26458"
       id="tspan59">Conjuctiva</tspan></text>
  <text
     x="75.983994"
     y="172.3918"
     font-family="sans-serif"
     font-size="3.5278px"
     stroke-width=".26458"
     text-anchor="middle"
     style="line-height:1.25"
     xml:space="preserve"
     id="text71"><tspan
       x="75.983994"
       y="172.3918"
       text-align="center"
       id="tspan67">Aqueous </tspan></text>
  <text
     x="75.983994"
     y="176.80153"
     font-family="sans-serif"
     font-size="3.5278px"
     stroke-width=".26458"
     text-anchor="middle"
     style="line-height:1.25"
     xml:space="preserve"
     id="text3722"><tspan
       x="75.983994"
       y="176.80153"
       text-align="center"
       id="tspan69">Humor</tspan></text>
  <text
     x="96.353752"
     y="158.94519"
     font-family="sans-serif"
     font-size="4.9389px"
     stroke-width=".26458"
     style="line-height:1.25"
     xml:space="preserve"
     id="text83"><tspan
       x="96.353752"
       y="158.94519"
       font-size="3.5278px"
       stroke-width=".26458"
       id="tspan81">Lens</tspan></text>
  <text
     x="127.45979"
     y="107.30583"
     font-family="sans-serif"
     font-size="3.5278px"
     stroke-width=".26458"
     text-anchor="middle"
     style="line-height:1.25"
     xml:space="preserve"
     id="text107"><tspan
       x="127.45979"
       y="107.30583"
       text-align="center"
       id="tspan103">Suspensory</tspan></text>
  <text
     x="127.45979"
     y="113.47946"
     font-family="sans-serif"
     font-size="3.5278px"
     stroke-width=".26458"
     text-anchor="middle"
     style="line-height:1.25"
     xml:space="preserve"
     id="text3729"><tspan
       x="127.45979"
       y="113.47946"
       text-align="center"
       id="tspan105">Ligaments</tspan></text>
  <text
     x="92.656242"
     y="94.558586"
     font-family="sans-serif"
     font-size="3.5278px"
     stroke-width=".26458"
     text-anchor="middle"
     style="line-height:1.25"
     xml:space="preserve"
     id="text121"><tspan
       x="92.656242"
       y="94.558586"
       text-align="center"
       id="tspan117">Ciliary</tspan></text>
  <text
     x="92.656242"
     y="100.73221"
     font-family="sans-serif"
     font-size="3.5278px"
     stroke-width=".26458"
     text-anchor="middle"
     style="line-height:1.25"
     xml:space="preserve"
     id="text3734"><tspan
       x="92.656242"
       y="100.73221"
       text-align="center"
       id="tspan119">Muscle</tspan></text>
  <text
     x="69.396706"
     y="104.08236"
     font-family="sans-serif"
     font-size="4.9389px"
     stroke-width=".26458"
     style="line-height:1.25"
     xml:space="preserve"
     id="text133"><tspan
       x="69.396706"
       y="104.08236"
       font-size="3.5278px"
       stroke-width=".26458"
       id="tspan131">Iris</tspan></text>
  <text
     x="69.682274"
     y="136.85925"
     font-family="sans-serif"
     font-size="4.9389px"
     stroke-width=".26458"
     style="line-height:1.25"
     xml:space="preserve"
     id="text139"><tspan
       x="69.682274"
       y="136.85925"
       font-size="3.5278px"
       stroke-width=".26458"
       id="tspan137">Pupil</tspan></text>
  <text
     x="105.5426"
     y="137.18166"
     font-family="sans-serif"
     font-size="3.5278px"
     stroke-width=".26458"
     text-anchor="middle"
     style="line-height:1.25"
     xml:space="preserve"
     id="text147"><tspan
       x="105.5426"
       y="137.18166"
       text-align="center"
       id="tspan143">Vitreus</tspan></text>
  <text
     x="105.5426"
     y="143.35529"
     font-family="sans-serif"
     font-size="3.5278px"
     stroke-width=".26458"
     text-anchor="middle"
     style="line-height:1.25"
     xml:space="preserve"
     id="text3743"><tspan
       x="105.5426"
       y="143.35529"
       text-align="center"
       id="tspan145">Humor</tspan></text>
  <text
     x="129.13818"
     y="160.83337"
     font-family="sans-serif"
     font-size="3.5278px"
     stroke-width=".26458"
     style="line-height:1.25"
     xml:space="preserve"
     id="text155"><tspan
       x="129.13818"
       y="160.83337"
       font-size="3.5278px"
       stroke-width=".26458"
       id="tspan153">Optic Nerve</tspan></text>
  <text
     x="103.32287"
     y="101.63541"
     font-family="sans-serif"
     font-size="4.9389px"
     stroke-width=".26458"
     style="line-height:1.25"
     xml:space="preserve"
     id="text159"><tspan
       x="103.32287"
       y="101.63541"
       font-size="3.5278px"
       stroke-width=".26458"
       id="tspan157">Retina</tspan></text>
  <text
     x="112.28851"
     y="166.69804"
     font-family="sans-serif"
     font-size="4.9389px"
     stroke-width=".26458"
     style="line-height:1.25"
     xml:space="preserve"
     id="text183"><tspan
       x="112.28851"
       y="166.69804"
       font-size="3.5278px"
       stroke-width=".26458"
       id="tspan181">Choroid</tspan></text>
  <text
     x="127.03443"
     y="127.78426"
     font-family="sans-serif"
     font-size="4.9389px"
     stroke-width=".26458"
     style="line-height:1.25"
     xml:space="preserve"
     id="text195"><tspan
       x="127.03443"
       y="127.78426"
       font-size="3.5278px"
       stroke-width=".26458"
       id="tspan193">Macula</tspan></text>
  <text
     x="131.59576"
     y="142.07924"
     font-family="sans-serif"
     font-size="4.9389px"
     stroke-width=".26458"
     style="line-height:1.25"
     xml:space="preserve"
     id="text199"><tspan
       x="131.59576"
       y="142.07924"
       font-size="3.5278px"
       stroke-width=".26458"
       id="tspan197">Fovea</tspan></text>
</svg>
