<?xml version="1.0" encoding="UTF-8" standalone="no"?>
<svg
   xmlns:dc="http://purl.org/dc/elements/1.1/"
   xmlns:cc="http://creativecommons.org/ns#"
   xmlns:rdf="http://www.w3.org/1999/02/22-rdf-syntax-ns#"
   xmlns:svg="http://www.w3.org/2000/svg"
   xmlns="http://www.w3.org/2000/svg"
   xmlns:sodipodi="http://sodipodi.sourceforge.net/DTD/sodipodi-0.dtd"
   xmlns:inkscape="http://www.inkscape.org/namespaces/inkscape"
   width="210mm"
   height="297mm"
   viewBox="0 0 210 297"
   version="1.1"
   id="svg8"
   inkscape:version="1.0.2 (e86c870879, 2021-01-15)"
   sodipodi:docname="GAS.svg">
  <defs
     id="defs2">
    <inkscape:path-effect
       effect="bspline"
       id="path-effect948"
       is_visible="true"
       lpeversion="1"
       weight="33.333333"
       steps="2"
       helper_size="0"
       apply_no_weight="true"
       apply_with_weight="true"
       only_selected="false" />
  </defs>
  <sodipodi:namedview
     id="base"
     pagecolor="#ffffff"
     bordercolor="#666666"
     borderopacity="1.0"
     inkscape:pageopacity="0.0"
     inkscape:pageshadow="2"
     inkscape:zoom="0.98994949"
     inkscape:cx="349.26099"
     inkscape:cy="318.7882"
     inkscape:document-units="mm"
     inkscape:current-layer="layer1"
     inkscape:document-rotation="0"
     showgrid="false"
     inkscape:window-width="1533"
     inkscape:window-height="1016"
     inkscape:window-x="539"
     inkscape:window-y="43"
     inkscape:window-maximized="0" />
  <metadata
     id="metadata5">
    <rdf:RDF>
      <cc:Work
         rdf:about="">
        <dc:format>image/svg+xml</dc:format>
        <dc:type
           rdf:resource="http://purl.org/dc/dcmitype/StillImage" />
        <dc:title></dc:title>
      </cc:Work>
    </rdf:RDF>
  </metadata>
  <g
     inkscape:label="Layer 1"
     inkscape:groupmode="layer"
     id="layer1">
    <path
       id="rect833"
       style="fill:#00ff00;fill-opacity:1;stroke:#00ff00;stroke-width:1.062"
       d="M 11.692626,45.359413 H 55.807124 V 112.24876 H 11.692626 Z" />
    <path
       id="rect833-3"
       style="fill:#ffff00;fill-opacity:1;stroke:#ffff00;stroke-width:1.062"
       d="M 55.807121,45.359413 H 99.921619 V 112.24876 H 55.807121 Z" />
    <path
       id="rect833-3-6"
       style="fill:#ff6600;fill-opacity:1;stroke:#ff6600;stroke-width:1.062"
       d="M 99.921623,45.359413 H 144.03612 V 112.24876 H 99.921623 Z" />
    <path
       id="rect833-3-6-7"
       style="fill:#ff0000;fill-opacity:1;stroke:#ff0000;stroke-width:1.062"
       d="m 144.03612,45.359417 h 44.1145 v 66.889343 h -44.1145 z" />
    <g
       aria-label="Good
Health"
       id="text897"
       style="font-size:4.9389px;line-height:1.25;font-family:sans-serif;-inkscape-font-specification:'sans-serif, Normal';stroke-width:0.264583">
      <path
         d="m 29.70646,55.211753 v -0.96704 h -0.795819 v -0.400321 h 1.278133 v 1.545818 q -0.282154,0.20016 -0.622185,0.303858 -0.340032,0.101286 -0.725884,0.101286 -0.84405,0 -1.321541,-0.491961 -0.47508,-0.494372 -0.47508,-1.374596 0,-0.882636 0.47508,-1.374596 0.477491,-0.494373 1.321541,-0.494373 0.35209,0 0.668006,0.08682 0.318328,0.08682 0.586012,0.255627 v 0.518488 q -0.270096,-0.2291 -0.573954,-0.344855 -0.303858,-0.115756 -0.639067,-0.115756 -0.660771,0 -0.993568,0.368971 -0.330385,0.36897 -0.330385,1.099677 0,0.728295 0.330385,1.097265 0.332797,0.368971 0.993568,0.368971 0.258038,0 0.460611,-0.04341 0.202572,-0.04582 0.364147,-0.139871 z"
         style="text-align:center;text-anchor:middle;stroke-width:0.264583"
         id="path972" />
      <path
         d="m 32.105974,53.33555 q -0.356912,0 -0.564308,0.279742 -0.207395,0.277331 -0.207395,0.762057 0,0.484726 0.204984,0.764469 0.207395,0.27733 0.566719,0.27733 0.354501,0 0.561897,-0.279742 0.207395,-0.279742 0.207395,-0.762057 0,-0.479903 -0.207395,-0.759645 -0.207396,-0.282154 -0.561897,-0.282154 z m 0,-0.376205 q 0.578778,0 0.909163,0.376205 0.330385,0.376205 0.330385,1.041799 0,0.663183 -0.330385,1.041799 -0.330385,0.376206 -0.909163,0.376206 -0.581189,0 -0.911574,-0.376206 -0.327974,-0.378616 -0.327974,-1.041799 0,-0.665594 0.327974,-1.041799 0.330385,-0.376205 0.911574,-0.376205 z"
         style="text-align:center;text-anchor:middle;stroke-width:0.264583"
         id="path974" />
      <path
         d="m 35.127675,53.33555 q -0.356913,0 -0.564308,0.279742 -0.207395,0.277331 -0.207395,0.762057 0,0.484726 0.204983,0.764469 0.207395,0.27733 0.56672,0.27733 0.354501,0 0.561896,-0.279742 0.207395,-0.279742 0.207395,-0.762057 0,-0.479903 -0.207395,-0.759645 -0.207395,-0.282154 -0.561896,-0.282154 z m 0,-0.376205 q 0.578777,0 0.909162,0.376205 0.330386,0.376205 0.330386,1.041799 0,0.663183 -0.330386,1.041799 -0.330385,0.376206 -0.909162,0.376206 -0.581189,0 -0.911575,-0.376206 -0.327973,-0.378616 -0.327973,-1.041799 0,-0.665594 0.327973,-1.041799 0.330386,-0.376205 0.911575,-0.376205 z"
         style="text-align:center;text-anchor:middle;stroke-width:0.264583"
         id="path976" />
      <path
         d="m 38.880081,53.434424 v -1.461412 h 0.443729 v 3.752406 h -0.443729 v -0.405144 q -0.139871,0.241157 -0.354501,0.359324 -0.212219,0.115756 -0.511253,0.115756 -0.48955,0 -0.798231,-0.390675 -0.30627,-0.390675 -0.30627,-1.02733 0,-0.636655 0.30627,-1.02733 0.308681,-0.390674 0.798231,-0.390674 0.299034,0 0.511253,0.118167 0.21463,0.115755 0.354501,0.356912 z m -1.512056,0.942925 q 0,0.489549 0.200161,0.769292 0.202572,0.277331 0.554661,0.277331 0.35209,0 0.554662,-0.277331 0.202572,-0.279743 0.202572,-0.769292 0,-0.489549 -0.202572,-0.76688 -0.202572,-0.279742 -0.554662,-0.279742 -0.352089,0 -0.554661,0.279742 -0.200161,0.277331 -0.200161,0.76688 z"
         style="text-align:center;text-anchor:middle;stroke-width:0.264583"
         id="path978" />
      <path
         d="m 25.645372,58.298566 h 0.487138 v 1.475882 h 1.770094 v -1.475882 h 0.487137 v 3.600477 H 27.902604 V 60.184415 H 26.13251 v 1.714628 h -0.487138 z"
         style="text-align:center;text-anchor:middle;stroke-width:0.264583"
         id="path980" />
      <path
         d="m 31.650187,60.43763 v 0.217042 h -2.04019 q 0.02894,0.458199 0.274919,0.699356 0.248392,0.238745 0.68971,0.238745 0.255626,0 0.494372,-0.0627 0.241157,-0.0627 0.477491,-0.188103 v 0.419613 q -0.238745,0.101286 -0.489549,0.154341 -0.250803,0.05306 -0.508841,0.05306 -0.646302,0 -1.024919,-0.376206 -0.376205,-0.376205 -0.376205,-1.017683 0,-0.663182 0.356913,-1.051446 0.359324,-0.390674 0.96704,-0.390674 0.545016,0 0.860932,0.352089 0.318327,0.349678 0.318327,0.952571 z m -0.443729,-0.130225 q -0.0048,-0.364147 -0.204984,-0.581189 -0.197749,-0.217041 -0.525723,-0.217041 -0.371382,0 -0.595658,0.209807 -0.221865,0.209807 -0.255627,0.590835 z"
         style="text-align:center;text-anchor:middle;stroke-width:0.264583"
         id="path982" />
      <path
         d="m 33.605972,60.541328 q -0.53778,0 -0.745176,0.12299 -0.207395,0.12299 -0.207395,0.419614 0,0.236334 0.154341,0.376205 0.156752,0.13746 0.424437,0.13746 0.36897,0 0.590835,-0.26045 0.224276,-0.262862 0.224276,-0.696945 v -0.09887 z m 0.885047,-0.18328 v 1.540995 H 34.04729 v -0.409967 q -0.151929,0.24598 -0.378617,0.364147 -0.226688,0.115756 -0.554661,0.115756 -0.414791,0 -0.660771,-0.231511 -0.243569,-0.233923 -0.243569,-0.624597 0,-0.455788 0.303858,-0.687299 0.30627,-0.231511 0.911574,-0.231511 h 0.622186 v -0.04341 q 0,-0.306269 -0.202572,-0.472668 -0.200161,-0.16881 -0.564308,-0.16881 -0.231511,0 -0.450964,0.05547 -0.219453,0.05547 -0.422025,0.166399 v -0.409968 q 0.243569,-0.09405 0.472668,-0.139871 0.229099,-0.04823 0.446141,-0.04823 0.586012,0 0.875401,0.303858 0.289388,0.303858 0.289388,0.92122 z"
         style="text-align:center;text-anchor:middle;stroke-width:0.264583"
         id="path984" />
      <path
         d="m 35.405005,58.146637 h 0.443729 v 3.752406 h -0.443729 z"
         style="text-align:center;text-anchor:middle;stroke-width:0.264583"
         id="path986" />
      <path
         d="m 37.216096,58.431202 v 0.76688 h 0.913985 v 0.344855 h -0.913985 v 1.466236 q 0,0.330385 0.08923,0.424437 0.09164,0.09405 0.36897,0.09405 h 0.455787 v 0.371382 h -0.455787 q -0.513665,0 -0.709002,-0.190514 -0.195337,-0.192926 -0.195337,-0.699356 v -1.466236 h -0.325563 v -0.344855 h 0.325563 v -0.76688 z"
         style="text-align:center;text-anchor:middle;stroke-width:0.264583"
         id="path988" />
      <path
         d="m 40.958856,60.26882 v 1.630223 H 40.515127 V 60.28329 q 0,-0.38344 -0.149518,-0.573955 -0.149517,-0.190514 -0.448552,-0.190514 -0.359324,0 -0.56672,0.2291 -0.207395,0.229099 -0.207395,0.624597 v 1.526525 h -0.446141 v -3.752406 h 0.446141 v 1.471059 q 0.159164,-0.243569 0.373794,-0.364148 0.217041,-0.120578 0.499195,-0.120578 0.465434,0 0.704179,0.289388 0.238746,0.286977 0.238746,0.846462 z"
         style="text-align:center;text-anchor:middle;stroke-width:0.264583"
         id="path990" />
    </g>
    <g
       aria-label="Alarm"
       id="text903"
       style="font-size:4.9389px;line-height:1.25;font-family:sans-serif;-inkscape-font-specification:'sans-serif, Normal';stroke-width:0.264583">
      <path
         d="m 70.854025,55.391644 -0.660771,1.791798 h 1.323953 z m -0.27492,-0.479903 h 0.55225 l 1.372185,3.600477 h -0.50643 l -0.327974,-0.923632 h -1.622988 l -0.327974,0.923632 h -0.513665 z"
         style="stroke-width:0.264583"
         id="path993" />
      <path
         d="m 73.00997,54.759812 h 0.44373 v 3.752406 h -0.44373 z"
         style="stroke-width:0.264583"
         id="path995" />
      <path
         d="m 75.609645,57.154503 q -0.537781,0 -0.745176,0.12299 -0.207395,0.122991 -0.207395,0.419614 0,0.236334 0.154341,0.376205 0.156752,0.13746 0.424436,0.13746 0.368971,0 0.590836,-0.26045 0.224276,-0.262861 0.224276,-0.696944 v -0.09887 z m 0.885047,-0.183279 v 1.540994 h -0.443729 v -0.409967 q -0.151929,0.245981 -0.378617,0.364148 -0.226688,0.115755 -0.554662,0.115755 -0.41479,0 -0.66077,-0.231511 -0.243569,-0.233922 -0.243569,-0.624597 0,-0.455787 0.303858,-0.687298 0.30627,-0.231511 0.911574,-0.231511 h 0.622186 v -0.04341 q 0,-0.30627 -0.202572,-0.472669 -0.200161,-0.16881 -0.564308,-0.16881 -0.231511,0 -0.450964,0.05547 -0.219453,0.05547 -0.422025,0.166398 v -0.409967 q 0.243568,-0.09405 0.472668,-0.139871 0.229099,-0.04823 0.446141,-0.04823 0.586012,0 0.8754,0.303858 0.289389,0.303858 0.289389,0.921221 z"
         style="stroke-width:0.264583"
         id="path997" />
      <path
         d="m 78.973788,56.226048 q -0.07476,-0.04341 -0.163987,-0.0627 -0.08682,-0.0217 -0.192925,-0.0217 -0.376206,0 -0.578778,0.24598 -0.20016,0.243569 -0.20016,0.701768 v 1.422827 h -0.446141 v -2.70096 h 0.446141 v 0.419613 q 0.139871,-0.24598 0.364147,-0.364147 0.224276,-0.120579 0.545016,-0.120579 0.04582,0 0.101286,0.0072 0.05547,0.0048 0.12299,0.01688 z"
         style="stroke-width:0.264583"
         id="path999" />
      <path
         d="m 81.455296,56.329746 q 0.166398,-0.299035 0.397909,-0.441318 0.231511,-0.142283 0.545016,-0.142283 0.422025,0 0.651124,0.296623 0.2291,0.294212 0.2291,0.839228 v 1.630222 h -0.446141 v -1.615753 q 0,-0.388263 -0.13746,-0.576366 -0.13746,-0.188102 -0.419613,-0.188102 -0.344855,0 -0.545016,0.229099 -0.20016,0.229099 -0.20016,0.624597 v 1.526525 h -0.446141 v -1.615753 q 0,-0.390675 -0.13746,-0.576366 -0.137459,-0.188102 -0.424437,-0.188102 -0.340031,0 -0.540192,0.231511 -0.20016,0.229099 -0.20016,0.622185 v 1.526525 h -0.446141 v -2.70096 h 0.446141 v 0.419613 q 0.151929,-0.248392 0.364147,-0.366559 0.212219,-0.118167 0.504019,-0.118167 0.294212,0 0.499195,0.149518 0.207395,0.149517 0.30627,0.434083 z"
         style="stroke-width:0.264583"
         id="path1001" />
    </g>
    <g
       aria-label="Resistance"
       id="text916"
       style="font-size:4.9389px;line-height:1.25;font-family:sans-serif;-inkscape-font-specification:'sans-serif, Normal';stroke-width:0.264583">
      <path
         d="m 112.30906,57.835173 q 0.15675,0.05305 0.30386,0.226688 0.14952,0.173633 0.29904,0.477491 l 0.49437,0.983921 h -0.52331 l -0.46061,-0.923632 q -0.17846,-0.361736 -0.34727,-0.479903 -0.1664,-0.118167 -0.45579,-0.118167 h -0.53054 v 1.521702 h -0.48714 v -3.600477 h 1.09968 q 0.61736,0 0.92122,0.258038 0.30386,0.258039 0.30386,0.778938 0,0.340032 -0.15917,0.564308 -0.15675,0.224276 -0.4582,0.311093 z m -1.22025,-1.512056 v 1.278133 h 0.61254 q 0.35209,0 0.53054,-0.161575 0.18087,-0.163987 0.18087,-0.479903 0,-0.315916 -0.18087,-0.47508 -0.17845,-0.161575 -0.53054,-0.161575 z"
         style="stroke-width:0.264583"
         id="path1004" />
      <path
         d="m 116.10247,58.061861 v 0.217041 h -2.04019 q 0.0289,0.458199 0.27491,0.699356 0.2484,0.238746 0.68971,0.238746 0.25563,0 0.49438,-0.0627 0.24115,-0.0627 0.47749,-0.188103 v 0.419614 q -0.23875,0.101286 -0.48955,0.15434 -0.2508,0.05306 -0.50884,0.05306 -0.6463,0 -1.02492,-0.376205 -0.37621,-0.376205 -0.37621,-1.017684 0,-0.663182 0.35692,-1.051445 0.35932,-0.390675 0.96704,-0.390675 0.54501,0 0.86093,0.35209 0.31833,0.349678 0.31833,0.952571 z m -0.44373,-0.130225 q -0.005,-0.364148 -0.20499,-0.581189 -0.19775,-0.217042 -0.52572,-0.217042 -0.37138,0 -0.59566,0.209807 -0.22186,0.209807 -0.25563,0.590835 z"
         style="stroke-width:0.264583"
         id="path1006" />
      <path
         d="m 118.55262,56.901894 v 0.419614 q -0.1881,-0.09646 -0.39067,-0.144694 -0.20257,-0.04823 -0.41962,-0.04823 -0.33038,0 -0.49678,0.101286 -0.16399,0.101286 -0.16399,0.303858 0,0.154341 0.11817,0.243569 0.11817,0.08682 0.47508,0.166399 l 0.15193,0.03376 q 0.47267,0.101286 0.67042,0.286977 0.20016,0.183279 0.20016,0.513665 0,0.376205 -0.29904,0.595658 -0.29662,0.219453 -0.81752,0.219453 -0.21704,0 -0.45338,-0.04341 -0.23392,-0.041 -0.49437,-0.125402 V 58.9662 q 0.24598,0.127814 0.48473,0.192926 0.23874,0.0627 0.47267,0.0627 0.3135,0 0.48231,-0.106109 0.16881,-0.108521 0.16881,-0.303858 0,-0.180868 -0.12299,-0.277331 -0.12058,-0.09646 -0.53296,-0.185691 l -0.15434,-0.03617 q -0.41238,-0.08682 -0.59566,-0.265273 -0.18328,-0.180868 -0.18328,-0.494372 0,-0.381028 0.2701,-0.588424 0.2701,-0.207395 0.76688,-0.207395 0.24598,0 0.46302,0.03617 0.21704,0.03617 0.40032,0.10852 z"
         style="stroke-width:0.264583"
         id="path1008" />
      <path
         d="m 119.40391,56.822313 h 0.44373 v 2.70096 h -0.44373 z m 0,-1.051446 h 0.44373 v 0.561896 h -0.44373 z"
         style="stroke-width:0.264583"
         id="path1010" />
      <path
         d="m 122.49796,56.901894 v 0.419614 q -0.18811,-0.09646 -0.39068,-0.144694 -0.20257,-0.04823 -0.41961,-0.04823 -0.33039,0 -0.49679,0.101286 -0.16398,0.101286 -0.16398,0.303858 0,0.154341 0.11816,0.243569 0.11817,0.08682 0.47508,0.166399 l 0.15193,0.03376 q 0.47267,0.101286 0.67042,0.286977 0.20016,0.183279 0.20016,0.513665 0,0.376205 -0.29904,0.595658 -0.29662,0.219453 -0.81752,0.219453 -0.21704,0 -0.45337,-0.04341 -0.23393,-0.041 -0.49438,-0.125402 V 58.9662 q 0.24598,0.127814 0.48473,0.192926 0.23875,0.0627 0.47267,0.0627 0.3135,0 0.48231,-0.106109 0.16881,-0.108521 0.16881,-0.303858 0,-0.180868 -0.12299,-0.277331 -0.12058,-0.09646 -0.53296,-0.185691 l -0.15434,-0.03617 q -0.41237,-0.08682 -0.59565,-0.265273 -0.18328,-0.180868 -0.18328,-0.494372 0,-0.381028 0.27009,-0.588424 0.2701,-0.207395 0.76688,-0.207395 0.24598,0 0.46302,0.03617 0.21705,0.03617 0.40033,0.10852 z"
         style="stroke-width:0.264583"
         id="path1012" />
      <path
         d="m 123.78815,56.055433 v 0.76688 h 0.91398 v 0.344854 h -0.91398 v 1.466236 q 0,0.330386 0.0892,0.424437 0.0916,0.09405 0.36898,0.09405 h 0.45578 v 0.371382 h -0.45578 q -0.51367,0 -0.70901,-0.190514 -0.19533,-0.192926 -0.19533,-0.699356 v -1.466236 h -0.32557 v -0.344854 h 0.32557 v -0.76688 z"
         style="stroke-width:0.264583"
         id="path1014" />
      <path
         d="m 126.51322,58.165558 q -0.53778,0 -0.74517,0.12299 -0.2074,0.122991 -0.2074,0.419614 0,0.236334 0.15434,0.376205 0.15675,0.13746 0.42444,0.13746 0.36897,0 0.59083,-0.26045 0.22428,-0.262861 0.22428,-0.696944 v -0.09887 z m 0.88505,-0.183279 v 1.540994 h -0.44373 v -0.409967 q -0.15193,0.245981 -0.37862,0.364148 -0.22668,0.115755 -0.55466,0.115755 -0.41479,0 -0.66077,-0.231511 -0.24357,-0.233922 -0.24357,-0.624597 0,-0.455787 0.30386,-0.687298 0.30627,-0.231511 0.91157,-0.231511 h 0.62219 v -0.04341 q 0,-0.30627 -0.20257,-0.472669 -0.20016,-0.16881 -0.56431,-0.16881 -0.23151,0 -0.45096,0.05547 -0.21946,0.05547 -0.42203,0.166398 v -0.409967 q 0.24357,-0.09405 0.47267,-0.139871 0.2291,-0.04823 0.44614,-0.04823 0.58601,0 0.8754,0.303858 0.28939,0.303858 0.28939,0.921221 z"
         style="stroke-width:0.264583"
         id="path1016" />
      <path
         d="m 130.55743,57.893051 v 1.630222 H 130.1137 V 57.90752 q 0,-0.38344 -0.14952,-0.573954 -0.14951,-0.190514 -0.44855,-0.190514 -0.35932,0 -0.56672,0.229099 -0.20739,0.229099 -0.20739,0.624597 v 1.526525 h -0.44614 v -2.70096 h 0.44614 v 0.419613 q 0.15916,-0.243569 0.37379,-0.364147 0.21704,-0.120579 0.4992,-0.120579 0.46543,0 0.70417,0.289389 0.23875,0.286977 0.23875,0.846462 z"
         style="stroke-width:0.264583"
         id="path1018" />
      <path
         d="m 133.3862,56.92601 v 0.414791 q -0.1881,-0.103698 -0.37861,-0.154341 -0.18811,-0.05305 -0.38103,-0.05305 -0.43167,0 -0.67042,0.27492 -0.23874,0.272507 -0.23874,0.76688 0,0.494372 0.23874,0.769291 0.23875,0.272508 0.67042,0.272508 0.19292,0 0.38103,-0.05064 0.19051,-0.05306 0.37861,-0.156752 v 0.409967 q -0.18569,0.08682 -0.38585,0.130225 -0.19775,0.04341 -0.42202,0.04341 -0.61013,0 -0.96945,-0.38344 -0.35933,-0.38344 -0.35933,-1.034564 0,-0.660771 0.36174,-1.039388 0.36414,-0.378617 0.99598,-0.378617 0.20498,0 0.40032,0.04341 0.19533,0.041 0.37861,0.125402 z"
         style="stroke-width:0.264583"
         id="path1020" />
      <path
         d="m 136.46819,58.061861 v 0.217041 H 134.428 q 0.0289,0.458199 0.27492,0.699356 0.2484,0.238746 0.68971,0.238746 0.25563,0 0.49438,-0.0627 0.24115,-0.0627 0.47749,-0.188103 v 0.419614 q -0.23875,0.101286 -0.48955,0.15434 -0.25081,0.05306 -0.50884,0.05306 -0.64631,0 -1.02492,-0.376205 -0.37621,-0.376205 -0.37621,-1.017684 0,-0.663182 0.35691,-1.051445 0.35933,-0.390675 0.96705,-0.390675 0.54501,0 0.86093,0.35209 0.31832,0.349678 0.31832,0.952571 z m -0.44373,-0.130225 q -0.005,-0.364148 -0.20498,-0.581189 -0.19775,-0.217042 -0.52572,-0.217042 -0.37138,0 -0.59566,0.209807 -0.22186,0.209807 -0.25563,0.590835 z"
         style="stroke-width:0.264583"
         id="path1022" />
    </g>
    <g
       aria-label="Exhaustion"
       id="text916-3"
       style="font-size:4.9389px;line-height:1.25;font-family:sans-serif;-inkscape-font-specification:'sans-serif, Normal';stroke-width:0.264583">
      <path
         d="m 153.82602,56.335165 h 2.27652 v 0.409967 h -1.78938 v 1.065915 h 1.71462 v 0.409967 h -1.71462 v 1.304661 h 1.83279 v 0.409967 h -2.31993 z"
         style="stroke-width:0.264583"
         id="path1025" />
      <path
         d="m 159.17248,57.234681 -0.97669,1.314307 1.02733,1.386654 h -0.52331 l -0.78618,-1.061092 -0.78617,1.061092 h -0.52331 l 1.04903,-1.413181 -0.9598,-1.28778 h 0.52331 l 0.71624,0.962218 0.71623,-0.962218 z"
         style="stroke-width:0.264583"
         id="path1027" />
      <path
         d="m 162.0953,58.305419 v 1.630223 h -0.44373 v -1.615753 q 0,-0.38344 -0.14952,-0.573954 -0.14951,-0.190515 -0.44855,-0.190515 -0.35932,0 -0.56672,0.2291 -0.20739,0.229099 -0.20739,0.624597 v 1.526525 h -0.44614 v -3.752406 h 0.44614 v 1.471059 q 0.15916,-0.243569 0.37379,-0.364148 0.21704,-0.120578 0.4992,-0.120578 0.46543,0 0.70417,0.289389 0.23875,0.286977 0.23875,0.846461 z"
         style="stroke-width:0.264583"
         id="path1029" />
      <path
         d="m 164.20784,58.577927 q -0.53778,0 -0.74518,0.12299 -0.20739,0.12299 -0.20739,0.419614 0,0.236334 0.15434,0.376205 0.15675,0.13746 0.42443,0.13746 0.36898,0 0.59084,-0.26045 0.22428,-0.262861 0.22428,-0.696944 v -0.09887 z m 0.88505,-0.183279 v 1.540994 h -0.44373 v -0.409967 q -0.15193,0.24598 -0.37862,0.364147 -0.22669,0.115756 -0.55466,0.115756 -0.41479,0 -0.66077,-0.231511 -0.24357,-0.233923 -0.24357,-0.624597 0,-0.455787 0.30386,-0.687298 0.30627,-0.231511 0.91157,-0.231511 h 0.62219 v -0.04341 q 0,-0.306269 -0.20258,-0.472668 -0.20016,-0.16881 -0.5643,-0.16881 -0.23151,0 -0.45097,0.05547 -0.21945,0.05547 -0.42202,0.166399 v -0.409968 q 0.24357,-0.09405 0.47266,-0.139871 0.2291,-0.04823 0.44615,-0.04823 0.58601,0 0.8754,0.303858 0.28939,0.303858 0.28939,0.921221 z"
         style="stroke-width:0.264583"
         id="path1031" />
      <path
         d="m 165.96105,58.869727 v -1.635046 h 0.44373 v 1.618165 q 0,0.38344 0.14952,0.576366 0.14951,0.190514 0.44855,0.190514 0.35932,0 0.56672,-0.229099 0.20981,-0.229099 0.20981,-0.624597 v -1.531349 h 0.44373 v 2.700961 h -0.44373 v -0.41479 q -0.16158,0.24598 -0.37621,0.366559 -0.21222,0.118167 -0.49437,0.118167 -0.46543,0 -0.70659,-0.289389 -0.24116,-0.289389 -0.24116,-0.846462 z"
         style="stroke-width:0.264583"
         id="path1033" />
      <path
         d="m 170.85895,57.314263 v 0.419614 q -0.1881,-0.09646 -0.39067,-0.144695 -0.20257,-0.04823 -0.41961,-0.04823 -0.33039,0 -0.49679,0.101286 -0.16398,0.101286 -0.16398,0.303858 0,0.154341 0.11816,0.243569 0.11817,0.08682 0.47508,0.166398 l 0.15193,0.03376 q 0.47267,0.101286 0.67042,0.286978 0.20016,0.183279 0.20016,0.513664 0,0.376206 -0.29904,0.595659 -0.29662,0.219453 -0.81752,0.219453 -0.21704,0 -0.45337,-0.04341 -0.23393,-0.041 -0.49438,-0.125402 v -0.458199 q 0.24598,0.127813 0.48473,0.192926 0.23874,0.0627 0.47267,0.0627 0.3135,0 0.48231,-0.106109 0.16881,-0.108521 0.16881,-0.303859 0,-0.180867 -0.12299,-0.27733 -0.12058,-0.09646 -0.53296,-0.185691 l -0.15434,-0.03617 q -0.41238,-0.08682 -0.59565,-0.265273 -0.18328,-0.180868 -0.18328,-0.494372 0,-0.381029 0.27009,-0.588424 0.2701,-0.207395 0.76688,-0.207395 0.24598,0 0.46302,0.03617 0.21705,0.03617 0.40032,0.108521 z"
         style="stroke-width:0.264583"
         id="path1035" />
      <path
         d="m 172.14915,56.467801 v 0.76688 h 0.91398 v 0.344855 h -0.91398 v 1.466236 q 0,0.330385 0.0892,0.424437 0.0916,0.09405 0.36897,0.09405 h 0.45579 v 0.371382 h -0.45579 q -0.51366,0 -0.709,-0.190514 -0.19533,-0.192926 -0.19533,-0.699356 v -1.466236 h -0.32557 v -0.344855 h 0.32557 v -0.76688 z"
         style="stroke-width:0.264583"
         id="path1037" />
      <path
         d="m 173.64673,57.234681 h 0.44373 v 2.700961 h -0.44373 z m 0,-1.051445 h 0.44373 v 0.561896 h -0.44373 z"
         style="stroke-width:0.264583"
         id="path1039" />
      <path
         d="m 176.06554,57.545774 q -0.35691,0 -0.56431,0.279743 -0.2074,0.27733 -0.2074,0.762056 0,0.484726 0.20499,0.764469 0.20739,0.277331 0.56672,0.277331 0.3545,0 0.56189,-0.279743 0.2074,-0.279742 0.2074,-0.762057 0,-0.479903 -0.2074,-0.759645 -0.20739,-0.282154 -0.56189,-0.282154 z m 0,-0.376205 q 0.57878,0 0.90916,0.376205 0.33039,0.376205 0.33039,1.041799 0,0.663183 -0.33039,1.0418 -0.33038,0.376205 -0.90916,0.376205 -0.58119,0 -0.91158,-0.376205 -0.32797,-0.378617 -0.32797,-1.0418 0,-0.665594 0.32797,-1.041799 0.33039,-0.376205 0.91158,-0.376205 z"
         style="stroke-width:0.264583"
         id="path1041" />
      <path
         d="m 180.28579,58.305419 v 1.630223 h -0.44373 v -1.615753 q 0,-0.38344 -0.14952,-0.573954 -0.14951,-0.190515 -0.44855,-0.190515 -0.35932,0 -0.56672,0.2291 -0.20739,0.229099 -0.20739,0.624597 v 1.526525 h -0.44614 v -2.700961 h 0.44614 v 0.419614 q 0.15916,-0.243569 0.37379,-0.364148 0.21704,-0.120578 0.4992,-0.120578 0.46543,0 0.70418,0.289389 0.23874,0.286977 0.23874,0.846461 z"
         style="stroke-width:0.264583"
         id="path1043" />
    </g>
    <path
       style="fill:none;stroke:#000000;stroke-width:0.264583px;stroke-linecap:butt;stroke-linejoin:miter;stroke-opacity:1"
       d="m 11.920655,83.209386 43.784992,0.0631"
       id="path942" />
    <path
       style="fill:none;stroke:#000000;stroke-width:0.264583px;stroke-linecap:butt;stroke-linejoin:miter;stroke-opacity:1"
       d="M 55.705647,83.272486 66.599164,83.2164"
       id="path944" />
    <path
       style="fill:none;stroke:#000000;stroke-width:0.264583px;stroke-linecap:butt;stroke-linejoin:miter;stroke-opacity:1"
       d="m 66.599164,83.2164 c 2.666111,4.598586 5.332004,9.196798 7.937074,8.890051 2.605069,-0.306747 5.149385,-5.518199 13.929341,-13.956104 8.779956,-8.437906 23.794891,-20.1016 40.436741,-14.814766 16.64184,5.286835 34.90884,27.523487 53.17601,49.760339"
       id="path946"
       sodipodi:nodetypes="ccccc" />
  </g>
</svg>
