<?xml version="1.0" encoding="UTF-8" standalone="no"?>
<svg
   xmlns:dc="http://purl.org/dc/elements/1.1/"
   xmlns:cc="http://creativecommons.org/ns#"
   xmlns:rdf="http://www.w3.org/1999/02/22-rdf-syntax-ns#"
   xmlns:svg="http://www.w3.org/2000/svg"
   xmlns="http://www.w3.org/2000/svg"
   xmlns:sodipodi="http://sodipodi.sourceforge.net/DTD/sodipodi-0.dtd"
   xmlns:inkscape="http://www.inkscape.org/namespaces/inkscape"
   width="210mm"
   height="297mm"
   viewBox="0 0 210 297"
   version="1.1"
   id="svg8"
   inkscape:version="1.0.2 (e86c870879, 2021-01-15)"
   sodipodi:docname="Olfaction.svg">
  <defs
     id="defs2">
    <marker
       style="overflow:visible;"
       id="marker1315"
       refX="0.0"
       refY="0.0"
       orient="auto"
       inkscape:stockid="Arrow2Mend"
       inkscape:isstock="true">
      <path
         transform="scale(0.6) rotate(180) translate(0,0)"
         d="M 8.7185878,4.0337352 L -2.2072895,0.016013256 L 8.7185884,-4.0017078 C 6.9730900,-1.6296469 6.9831476,1.6157441 8.7185878,4.0337352 z "
         style="fill-rule:evenodd;stroke-width:0.625;stroke-linejoin:round;stroke:#000000;stroke-opacity:1;fill:#000000;fill-opacity:1"
         id="path1313" />
    </marker>
    <marker
       style="overflow:visible;"
       id="Arrow2Lend"
       refX="0.0"
       refY="0.0"
       orient="auto"
       inkscape:stockid="Arrow2Lend"
       inkscape:isstock="true">
      <path
         transform="scale(1.1) rotate(180) translate(1,0)"
         d="M 8.7185878,4.0337352 L -2.2072895,0.016013256 L 8.7185884,-4.0017078 C 6.9730900,-1.6296469 6.9831476,1.6157441 8.7185878,4.0337352 z "
         style="fill-rule:evenodd;stroke-width:0.625;stroke-linejoin:round;stroke:#000000;stroke-opacity:1;fill:#000000;fill-opacity:1"
         id="path960" />
    </marker>
    <inkscape:path-effect
       effect="bspline"
       id="path-effect1271"
       is_visible="true"
       lpeversion="1"
       weight="33.333333"
       steps="2"
       helper_size="0"
       apply_no_weight="true"
       apply_with_weight="true"
       only_selected="false" />
    <inkscape:path-effect
       effect="bspline"
       id="path-effect1267"
       is_visible="true"
       lpeversion="1"
       weight="33.333333"
       steps="2"
       helper_size="0"
       apply_no_weight="true"
       apply_with_weight="true"
       only_selected="false" />
    <inkscape:path-effect
       effect="bspline"
       id="path-effect1259"
       is_visible="true"
       lpeversion="1"
       weight="33.333333"
       steps="2"
       helper_size="0"
       apply_no_weight="true"
       apply_with_weight="true"
       only_selected="false" />
    <inkscape:path-effect
       effect="bspline"
       id="path-effect1255"
       is_visible="true"
       lpeversion="1"
       weight="33.333333"
       steps="2"
       helper_size="0"
       apply_no_weight="true"
       apply_with_weight="true"
       only_selected="false" />
    <inkscape:path-effect
       effect="bspline"
       id="path-effect1251"
       is_visible="true"
       lpeversion="1"
       weight="33.333333"
       steps="2"
       helper_size="0"
       apply_no_weight="true"
       apply_with_weight="true"
       only_selected="false" />
    <inkscape:path-effect
       effect="bspline"
       id="path-effect1247"
       is_visible="true"
       lpeversion="1"
       weight="33.333333"
       steps="2"
       helper_size="0"
       apply_no_weight="true"
       apply_with_weight="true"
       only_selected="false" />
    <inkscape:path-effect
       effect="bspline"
       id="path-effect1243"
       is_visible="true"
       lpeversion="1"
       weight="33.333333"
       steps="2"
       helper_size="0"
       apply_no_weight="true"
       apply_with_weight="true"
       only_selected="false" />
    <marker
       style="overflow:visible;"
       id="Arrow2Mend"
       refX="0.0"
       refY="0.0"
       orient="auto"
       inkscape:stockid="Arrow2Mend"
       inkscape:isstock="true">
      <path
         transform="scale(0.6) rotate(180) translate(0,0)"
         d="M 8.7185878,4.0337352 L -2.2072895,0.016013256 L 8.7185884,-4.0017078 C 6.9730900,-1.6296469 6.9831476,1.6157441 8.7185878,4.0337352 z "
         style="fill-rule:evenodd;stroke-width:0.625;stroke-linejoin:round;stroke:#000000;stroke-opacity:1;fill:#000000;fill-opacity:1"
         id="path966" />
    </marker>
    <inkscape:path-effect
       effect="bspline"
       id="path-effect937"
       is_visible="true"
       lpeversion="1"
       weight="33.333333"
       steps="2"
       helper_size="0"
       apply_no_weight="true"
       apply_with_weight="true"
       only_selected="false" />
    <inkscape:path-effect
       effect="bspline"
       id="path-effect929"
       is_visible="true"
       lpeversion="1"
       weight="33.333333"
       steps="2"
       helper_size="0"
       apply_no_weight="true"
       apply_with_weight="true"
       only_selected="false" />
    <inkscape:path-effect
       effect="bspline"
       id="path-effect925"
       is_visible="true"
       lpeversion="1"
       weight="33.333333"
       steps="2"
       helper_size="0"
       apply_no_weight="true"
       apply_with_weight="true"
       only_selected="false" />
    <inkscape:path-effect
       effect="bspline"
       id="path-effect921"
       is_visible="true"
       lpeversion="1"
       weight="33.333333"
       steps="2"
       helper_size="0"
       apply_no_weight="true"
       apply_with_weight="true"
       only_selected="false" />
    <inkscape:path-effect
       effect="bspline"
       id="path-effect917"
       is_visible="true"
       lpeversion="1"
       weight="33.333333"
       steps="2"
       helper_size="0"
       apply_no_weight="true"
       apply_with_weight="true"
       only_selected="false" />
    <inkscape:path-effect
       effect="bspline"
       id="path-effect913"
       is_visible="true"
       lpeversion="1"
       weight="33.333333"
       steps="2"
       helper_size="0"
       apply_no_weight="true"
       apply_with_weight="true"
       only_selected="false" />
    <inkscape:path-effect
       effect="bspline"
       id="path-effect909"
       is_visible="true"
       lpeversion="1"
       weight="33.333333"
       steps="2"
       helper_size="0"
       apply_no_weight="true"
       apply_with_weight="true"
       only_selected="false" />
    <inkscape:path-effect
       effect="bspline"
       id="path-effect905"
       is_visible="true"
       lpeversion="1"
       weight="33.333333"
       steps="2"
       helper_size="0"
       apply_no_weight="true"
       apply_with_weight="true"
       only_selected="false" />
    <inkscape:path-effect
       effect="bspline"
       id="path-effect901"
       is_visible="true"
       lpeversion="1"
       weight="33.333333"
       steps="2"
       helper_size="0"
       apply_no_weight="true"
       apply_with_weight="true"
       only_selected="false" />
    <inkscape:path-effect
       effect="bspline"
       id="path-effect897"
       is_visible="true"
       lpeversion="1"
       weight="33.333333"
       steps="2"
       helper_size="0"
       apply_no_weight="true"
       apply_with_weight="true"
       only_selected="false" />
    <inkscape:path-effect
       effect="bspline"
       id="path-effect893"
       is_visible="true"
       lpeversion="1"
       weight="33.333333"
       steps="2"
       helper_size="0"
       apply_no_weight="true"
       apply_with_weight="true"
       only_selected="false" />
    <inkscape:path-effect
       effect="bspline"
       id="path-effect889"
       is_visible="true"
       lpeversion="1"
       weight="33.333333"
       steps="2"
       helper_size="0"
       apply_no_weight="true"
       apply_with_weight="true"
       only_selected="false" />
    <inkscape:path-effect
       effect="bspline"
       id="path-effect843"
       is_visible="true"
       lpeversion="1"
       weight="33.333333"
       steps="2"
       helper_size="0"
       apply_no_weight="true"
       apply_with_weight="true"
       only_selected="false" />
    <inkscape:path-effect
       effect="bspline"
       id="path-effect839"
       is_visible="true"
       lpeversion="1"
       weight="33.333333"
       steps="2"
       helper_size="0"
       apply_no_weight="true"
       apply_with_weight="true"
       only_selected="false" />
    <inkscape:path-effect
       effect="bspline"
       id="path-effect835"
       is_visible="true"
       lpeversion="1"
       weight="33.333333"
       steps="2"
       helper_size="0"
       apply_no_weight="true"
       apply_with_weight="true"
       only_selected="false" />
  </defs>
  <sodipodi:namedview
     id="base"
     pagecolor="#ffffff"
     bordercolor="#666666"
     borderopacity="1.0"
     inkscape:pageopacity="0.0"
     inkscape:pageshadow="2"
     inkscape:zoom="1.979899"
     inkscape:cx="423.19735"
     inkscape:cy="177.10675"
     inkscape:document-units="mm"
     inkscape:current-layer="layer1"
     inkscape:document-rotation="0"
     showgrid="false"
     inkscape:window-width="1533"
     inkscape:window-height="1016"
     inkscape:window-x="50"
     inkscape:window-y="27"
     inkscape:window-maximized="0" />
  <metadata
     id="metadata5">
    <rdf:RDF>
      <cc:Work
         rdf:about="">
        <dc:format>image/svg+xml</dc:format>
        <dc:type
           rdf:resource="http://purl.org/dc/dcmitype/StillImage" />
        <dc:title />
      </cc:Work>
    </rdf:RDF>
  </metadata>
  <g
     inkscape:label="Layer 1"
     inkscape:groupmode="layer"
     id="layer1">
    <path
       style="fill:none;stroke:#000000;stroke-width:0.264583px;stroke-linecap:butt;stroke-linejoin:miter;stroke-opacity:1"
       d="m 139.45628,39.417874 c -23.10954,0.3542 -46.219342,0.708403 -57.96412,3.96968 -11.744777,3.261277 -12.124244,9.42913 -0.519681,12.355844 11.604562,2.926715 35.191941,2.61243 58.779531,2.298142"
       id="path833"
       sodipodi:nodetypes="cccc" />
    <path
       style="fill:none;stroke:#000000;stroke-width:0.264583px;stroke-linecap:butt;stroke-linejoin:miter;stroke-opacity:1"
       d="m 72.544574,58.479168 c 22.400642,0.412719 44.800116,0.825416 67.199766,1.238117"
       id="path837"
       sodipodi:nodetypes="cc" />
    <path
       style="fill:none;stroke:#000000;stroke-width:0.264583px;stroke-linecap:butt;stroke-linejoin:miter;stroke-opacity:1"
       d="m 72.710918,65.772404 c 22.193384,0.633498 44.386502,1.266988 66.579342,1.900471"
       id="path841"
       sodipodi:nodetypes="cc" />
    <g
       aria-label="Olfactory Epithelium"
       id="text847"
       style="font-size:4.9389px;line-height:1.25;font-family:sans-serif;-inkscape-font-specification:'sans-serif, Normal';stroke-width:0.264583">
      <path
         d="m 142.44448,70.855744 q -0.37896,0 -0.60289,0.282498 -0.22221,0.282498 -0.22221,0.76998 0,0.485759 0.22221,0.768257 0.22393,0.282498 0.60289,0.282498 0.37896,0 0.59945,-0.282498 0.22221,-0.282498 0.22221,-0.768257 0,-0.487482 -0.22221,-0.76998 -0.22049,-0.282498 -0.59945,-0.282498 z m 0,-0.282498 q 0.54088,0 0.86472,0.363458 0.32384,0.361735 0.32384,0.971518 0,0.60806 -0.32384,0.971517 -0.32384,0.361736 -0.86472,0.361736 -0.5426,0 -0.86817,-0.361736 -0.32383,-0.361735 -0.32383,-0.971517 0,-0.609783 0.32383,-0.971518 0.32557,-0.363458 0.86817,-0.363458 z"
         style="font-size:3.52778px;stroke-width:0.264583"
         id="path950" />
      <path
         d="m 144.16358,70.511235 h 0.31695 v 2.680286 h -0.31695 z"
         style="font-size:3.52778px;stroke-width:0.264583"
         id="path952" />
      <path
         d="m 146.1204,70.511235 v 0.26355 h -0.30317 q -0.17053,0 -0.23771,0.0689 -0.0655,0.0689 -0.0655,0.248047 v 0.170532 h 0.52193 v 0.246324 h -0.52193 v 1.682931 h -0.31867 V 71.50859 h -0.30317 v -0.246324 h 0.30317 v -0.134359 q 0,-0.322116 0.14986,-0.468533 0.14986,-0.148139 0.47542,-0.148139 z"
         style="font-size:3.52778px;stroke-width:0.264583"
         id="path954" />
      <path
         d="m 147.26245,72.221726 q -0.38413,0 -0.53227,0.08785 -0.14814,0.08785 -0.14814,0.299723 0,0.16881 0.11024,0.268718 0.11197,0.09819 0.30317,0.09819 0.26355,0 0.42203,-0.186035 0.16019,-0.187758 0.16019,-0.497817 v -0.07062 z m 0.63217,-0.130914 v 1.100709 h -0.31695 v -0.292834 q -0.10852,0.1757 -0.27044,0.260105 -0.16192,0.08268 -0.39618,0.08268 -0.29628,0 -0.47198,-0.165365 -0.17398,-0.167087 -0.17398,-0.44614 0,-0.325562 0.21704,-0.490927 0.21877,-0.165364 0.65113,-0.165364 h 0.44441 v -0.03101 q 0,-0.218764 -0.14469,-0.33762 -0.14297,-0.120578 -0.40308,-0.120578 -0.16536,0 -0.32211,0.03962 -0.15675,0.03962 -0.30145,0.118856 v -0.292833 q 0.17398,-0.06718 0.33762,-0.09991 0.16364,-0.03445 0.31867,-0.03445 0.41858,0 0.62529,0.217041 0.2067,0.217041 0.2067,0.658014 z"
         style="font-size:3.52778px;stroke-width:0.264583"
         id="path956" />
      <path
         d="m 149.93584,71.336336 v 0.296278 q -0.13435,-0.07407 -0.27044,-0.110243 -0.13435,-0.0379 -0.27216,-0.0379 -0.30834,0 -0.47887,0.19637 -0.17053,0.194648 -0.17053,0.547771 0,0.353122 0.17053,0.549493 0.17053,0.194648 0.47887,0.194648 0.13781,0 0.27216,-0.03617 0.13609,-0.0379 0.27044,-0.111965 v 0.292833 q -0.13263,0.06201 -0.2756,0.09302 -0.14125,0.03101 -0.30145,0.03101 -0.4358,0 -0.69246,-0.273886 -0.25666,-0.273885 -0.25666,-0.738973 0,-0.471979 0.25838,-0.742419 0.2601,-0.27044 0.71141,-0.27044 0.14642,0 0.28594,0.03101 0.13953,0.02928 0.27044,0.08957 z"
         style="font-size:3.52778px;stroke-width:0.264583"
         id="path958" />
      <path
         d="m 150.80056,70.714495 v 0.547771 h 0.65285 v 0.246324 h -0.65285 v 1.04731 q 0,0.235989 0.0637,0.303169 0.0655,0.06718 0.26355,0.06718 h 0.32556 v 0.265273 h -0.32556 q -0.36691,0 -0.50643,-0.136082 -0.13953,-0.137804 -0.13953,-0.499539 v -1.04731 h -0.23254 v -0.246324 h 0.23254 v -0.547771 z"
         style="font-size:3.52778px;stroke-width:0.264583"
         id="path961" />
      <path
         d="m 152.61785,71.484475 q -0.25493,0 -0.40307,0.199815 -0.14814,0.198094 -0.14814,0.544326 0,0.346232 0.14641,0.546048 0.14814,0.198093 0.4048,0.198093 0.25322,0 0.40136,-0.199816 0.14814,-0.199815 0.14814,-0.544325 0,-0.342787 -0.14814,-0.542603 -0.14814,-0.201538 -0.40136,-0.201538 z m 0,-0.268718 q 0.41341,0 0.6494,0.268718 0.23599,0.268717 0.23599,0.744141 0,0.473701 -0.23599,0.744141 -0.23599,0.268718 -0.6494,0.268718 -0.41513,0 -0.65112,-0.268718 -0.23427,-0.27044 -0.23427,-0.744141 0,-0.475424 0.23427,-0.744141 0.23599,-0.268718 0.65112,-0.268718 z"
         style="font-size:3.52778px;stroke-width:0.264583"
         id="path963" />
      <path
         d="m 155.14655,71.558544 q -0.0534,-0.03101 -0.11713,-0.04479 -0.062,-0.0155 -0.1378,-0.0155 -0.26872,0 -0.41341,0.1757 -0.14298,0.173978 -0.14298,0.501262 v 1.016304 h -0.31867 v -1.929255 h 0.31867 v 0.299723 q 0.0999,-0.1757 0.26011,-0.260104 0.1602,-0.08613 0.38929,-0.08613 0.0327,0 0.0724,0.0052 0.0396,0.0034 0.0879,0.01206 z"
         style="font-size:3.52778px;stroke-width:0.264583"
         id="path965" />
      <path
         d="m 156.28171,73.370666 q -0.13435,0.34451 -0.26182,0.449585 -0.12747,0.105076 -0.34107,0.105076 h -0.25321 v -0.265273 h 0.18603 q 0.13092,0 0.20326,-0.06201 0.0724,-0.06201 0.1602,-0.292833 l 0.0568,-0.144694 -0.78032,-1.898249 h 0.3359 l 0.60289,1.508953 0.60289,-1.508953 h 0.3359 z"
         style="font-size:3.52778px;stroke-width:0.264583"
         id="path967" />
      <path
         d="m 158.7019,70.619755 h 1.62608 v 0.292834 h -1.27813 v 0.761366 h 1.22473 v 0.292833 h -1.22473 v 0.931899 h 1.30914 v 0.292834 h -1.65709 z"
         style="font-size:3.52778px;stroke-width:0.264583"
         id="path969" />
      <path
         d="m 161.22371,72.902132 v 1.023195 h -0.31868 v -2.663061 h 0.31868 v 0.292833 q 0.0999,-0.172255 0.25149,-0.254937 0.15331,-0.08441 0.36518,-0.08441 0.3514,0 0.57016,0.279053 0.22049,0.279053 0.22049,0.733806 0,0.454753 -0.22049,0.733806 -0.21876,0.279053 -0.57016,0.279053 -0.21187,0 -0.36518,-0.08268 -0.15159,-0.08441 -0.25149,-0.25666 z m 1.07831,-0.673516 q 0,-0.349678 -0.14469,-0.547771 -0.14297,-0.199815 -0.39447,-0.199815 -0.25149,0 -0.39618,0.199815 -0.14297,0.198093 -0.14297,0.547771 0,0.349677 0.14297,0.549493 0.14469,0.198093 0.39618,0.198093 0.2515,0 0.39447,-0.198093 0.14469,-0.199816 0.14469,-0.549493 z"
         style="font-size:3.52778px;stroke-width:0.264583"
         id="path971" />
      <path
         d="m 163.15641,71.262266 h 0.31695 v 1.929255 h -0.31695 z m 0,-0.751031 h 0.31695 v 0.401354 h -0.31695 z"
         style="font-size:3.52778px;stroke-width:0.264583"
         id="path973" />
      <path
         d="m 164.45004,70.714495 v 0.547771 h 0.65285 v 0.246324 h -0.65285 v 1.04731 q 0,0.235989 0.0637,0.303169 0.0655,0.06718 0.26355,0.06718 h 0.32557 v 0.265273 h -0.32557 q -0.3669,0 -0.50642,-0.136082 -0.13953,-0.137804 -0.13953,-0.499539 v -1.04731 h -0.23255 v -0.246324 h 0.23255 v -0.547771 z"
         style="font-size:3.52778px;stroke-width:0.264583"
         id="path975" />
      <path
         d="m 167.12344,72.027078 v 1.164443 h -0.31695 v -1.154108 q 0,-0.273885 -0.1068,-0.409967 -0.1068,-0.136081 -0.32039,-0.136081 -0.25666,0 -0.4048,0.163642 -0.14814,0.163642 -0.14814,0.44614 v 1.090374 h -0.31867 v -2.680286 h 0.31867 v 1.050754 q 0.11369,-0.173977 0.26699,-0.260104 0.15503,-0.08613 0.35657,-0.08613 0.33245,0 0.50298,0.206706 0.17054,0.204983 0.17054,0.604615 z"
         style="font-size:3.52778px;stroke-width:0.264583"
         id="path977" />
      <path
         d="m 169.40581,72.147656 v 0.155029 h -1.45727 q 0.0207,0.327285 0.19637,0.49954 0.17742,0.170532 0.49265,0.170532 0.18259,0 0.35312,-0.04479 0.17225,-0.04479 0.34106,-0.134359 v 0.299723 q -0.17053,0.07235 -0.34967,0.110244 -0.17915,0.0379 -0.36346,0.0379 -0.46164,0 -0.73208,-0.268718 -0.26872,-0.268718 -0.26872,-0.726916 0,-0.473701 0.25494,-0.751031 0.25666,-0.279053 0.69074,-0.279053 0.38929,0 0.61495,0.251492 0.22737,0.24977 0.22737,0.680407 z m -0.31694,-0.09302 q -0.003,-0.260104 -0.14642,-0.415134 -0.14125,-0.155029 -0.37552,-0.155029 -0.26527,0 -0.42547,0.149862 -0.15847,0.149861 -0.18259,0.422024 z"
         style="font-size:3.52778px;stroke-width:0.264583"
         id="path979" />
      <path
         d="m 169.92602,70.511235 h 0.31695 v 2.680286 h -0.31695 z"
         style="font-size:3.52778px;stroke-width:0.264583"
         id="path981" />
      <path
         d="m 170.90615,71.262266 h 0.31695 v 1.929255 h -0.31695 z m 0,-0.751031 h 0.31695 v 0.401354 h -0.31695 z"
         style="font-size:3.52778px;stroke-width:0.264583"
         id="path983" />
      <path
         d="m 171.85356,72.430154 v -1.167888 h 0.31695 v 1.15583 q 0,0.273886 0.10679,0.411689 0.1068,0.136082 0.3204,0.136082 0.25666,0 0.4048,-0.163642 0.14986,-0.163642 0.14986,-0.446141 v -1.093818 h 0.31695 v 1.929255 h -0.31695 v -0.296279 q -0.11541,0.1757 -0.26872,0.261828 -0.15158,0.0844 -0.35312,0.0844 -0.33245,0 -0.50471,-0.206706 -0.17225,-0.206706 -0.17225,-0.604615 z"
         style="font-size:3.52778px;stroke-width:0.264583"
         id="path985" />
      <path
         d="m 175.62421,71.632614 q 0.11886,-0.213596 0.28422,-0.315226 0.16537,-0.101631 0.3893,-0.101631 0.30145,0 0.46509,0.211874 0.16364,0.210151 0.16364,0.599447 v 1.164443 h -0.31867 v -1.154108 q 0,-0.27733 -0.0982,-0.411689 -0.0982,-0.134359 -0.29972,-0.134359 -0.24632,0 -0.3893,0.163642 -0.14297,0.163642 -0.14297,0.44614 v 1.090374 h -0.31867 v -1.154108 q 0,-0.279053 -0.0982,-0.411689 -0.0982,-0.134359 -0.30317,-0.134359 -0.24288,0 -0.38585,0.165365 -0.14297,0.163642 -0.14297,0.444417 v 1.090374 h -0.31868 v -1.929255 h 0.31868 v 0.299723 q 0.10852,-0.177422 0.2601,-0.261827 0.15158,-0.08441 0.36001,-0.08441 0.21015,0 0.35657,0.106798 0.14814,0.106798 0.21876,0.310059 z"
         style="font-size:3.52778px;stroke-width:0.264583"
         id="path987" />
    </g>
    <g
       aria-label="Cribriform Plate"
       id="text851"
       style="font-size:4.9389px;line-height:1.25;font-family:sans-serif;-inkscape-font-specification:'sans-serif, Normal';stroke-width:0.264583">
      <path
         d="m 142.31295,62.568268 v 0.366903 q -0.1757,-0.163642 -0.37551,-0.244602 -0.1981,-0.08096 -0.42203,-0.08096 -0.44097,0 -0.67524,0.27044 -0.23427,0.268718 -0.23427,0.778592 0,0.508152 0.23427,0.778592 0.23427,0.268718 0.67524,0.268718 0.22393,0 0.42203,-0.08096 0.19981,-0.08096 0.37551,-0.244602 v 0.363458 q -0.18259,0.124024 -0.38757,0.186035 -0.20326,0.06201 -0.43064,0.06201 -0.58394,0 -0.91984,-0.356567 -0.3359,-0.358291 -0.3359,-0.976686 0,-0.620117 0.3359,-0.976685 0.3359,-0.35829 0.91984,-0.35829 0.23082,0 0.43408,0.06201 0.20499,0.06029 0.38413,0.18259 z"
         style="font-size:3.52778px;stroke-width:0.264583"
         id="path1002" />
      <path
         d="m 143.95454,63.308964 q -0.0534,-0.03101 -0.11713,-0.04479 -0.062,-0.0155 -0.13781,-0.0155 -0.26871,0 -0.41341,0.1757 -0.14297,0.173977 -0.14297,0.501261 v 1.016304 h -0.31867 v -1.929254 h 0.31867 v 0.299723 q 0.0999,-0.1757 0.2601,-0.260105 0.1602,-0.08613 0.3893,-0.08613 0.0327,0 0.0724,0.0052 0.0396,0.0034 0.0879,0.01206 z"
         style="font-size:3.52778px;stroke-width:0.264583"
         id="path1004" />
      <path
         d="m 144.28699,63.012686 h 0.31695 v 1.929254 h -0.31695 z m 0,-0.751032 h 0.31695 v 0.401354 h -0.31695 z"
         style="font-size:3.52778px;stroke-width:0.264583"
         id="path1006" />
      <path
         d="m 146.65205,63.979035 q 0,-0.349677 -0.14469,-0.54777 -0.14297,-0.199816 -0.39447,-0.199816 -0.25149,0 -0.39618,0.199816 -0.14297,0.198093 -0.14297,0.54777 0,0.349678 0.14297,0.549494 0.14469,0.198093 0.39618,0.198093 0.2515,0 0.39447,-0.198093 0.14469,-0.199816 0.14469,-0.549494 z m -1.07831,-0.673516 q 0.0999,-0.172255 0.25149,-0.254937 0.15331,-0.0844 0.36518,-0.0844 0.3514,0 0.57016,0.279053 0.22049,0.279053 0.22049,0.733805 0,0.454753 -0.22049,0.733806 -0.21876,0.279053 -0.57016,0.279053 -0.21187,0 -0.36518,-0.08268 -0.15159,-0.0844 -0.25149,-0.25666 v 0.289388 h -0.31868 v -2.680286 h 0.31868 z"
         style="font-size:3.52778px;stroke-width:0.264583"
         id="path1008" />
      <path
         d="m 148.62437,63.308964 q -0.0534,-0.03101 -0.11713,-0.04479 -0.062,-0.0155 -0.13781,-0.0155 -0.26872,0 -0.41341,0.1757 -0.14297,0.173977 -0.14297,0.501261 v 1.016304 h -0.31867 v -1.929254 h 0.31867 v 0.299723 q 0.0999,-0.1757 0.2601,-0.260105 0.1602,-0.08613 0.3893,-0.08613 0.0327,0 0.0724,0.0052 0.0396,0.0034 0.0879,0.01206 z"
         style="font-size:3.52778px;stroke-width:0.264583"
         id="path1010" />
      <path
         d="m 148.95682,63.012686 h 0.31695 v 1.929254 h -0.31695 z m 0,-0.751032 h 0.31695 v 0.401354 h -0.31695 z"
         style="font-size:3.52778px;stroke-width:0.264583"
         id="path1012" />
      <path
         d="m 150.91364,62.261654 v 0.26355 h -0.30317 q -0.17053,0 -0.23771,0.0689 -0.0655,0.0689 -0.0655,0.248047 v 0.170533 h 0.52193 v 0.246324 h -0.52193 v 1.68293 h -0.31867 v -1.68293 h -0.30317 v -0.246324 h 0.30317 v -0.134359 q 0,-0.322117 0.14986,-0.468534 0.14986,-0.148139 0.47542,-0.148139 z"
         style="font-size:3.52778px;stroke-width:0.264583"
         id="path1014" />
      <path
         d="m 151.9265,63.234894 q -0.25494,0 -0.40308,0.199816 -0.14814,0.198093 -0.14814,0.544325 0,0.346233 0.14642,0.546048 0.14814,0.198094 0.4048,0.198094 0.25321,0 0.40135,-0.199816 0.14814,-0.199816 0.14814,-0.544326 0,-0.342787 -0.14814,-0.542602 -0.14814,-0.201539 -0.40135,-0.201539 z m 0,-0.268717 q 0.41341,0 0.6494,0.268717 0.23599,0.268718 0.23599,0.744141 0,0.473701 -0.23599,0.744142 -0.23599,0.268717 -0.6494,0.268717 -0.41514,0 -0.65113,-0.268717 -0.23426,-0.270441 -0.23426,-0.744142 0,-0.475423 0.23426,-0.744141 0.23599,-0.268717 0.65113,-0.268717 z"
         style="font-size:3.52778px;stroke-width:0.264583"
         id="path1016" />
      <path
         d="m 154.4552,63.308964 q -0.0534,-0.03101 -0.11713,-0.04479 -0.062,-0.0155 -0.13781,-0.0155 -0.26872,0 -0.41341,0.1757 -0.14297,0.173977 -0.14297,0.501261 v 1.016304 h -0.31867 v -1.929254 h 0.31867 v 0.299723 q 0.0999,-0.1757 0.2601,-0.260105 0.1602,-0.08613 0.3893,-0.08613 0.0327,0 0.0724,0.0052 0.0396,0.0034 0.0879,0.01206 z"
         style="font-size:3.52778px;stroke-width:0.264583"
         id="path1018" />
      <path
         d="m 156.2277,63.383034 q 0.11886,-0.213596 0.28422,-0.315227 0.16537,-0.10163 0.3893,-0.10163 0.30144,0 0.46509,0.211873 0.16364,0.210151 0.16364,0.599447 v 1.164443 h -0.31867 v -1.154107 q 0,-0.277331 -0.0982,-0.41169 -0.0982,-0.134358 -0.29972,-0.134358 -0.24633,0 -0.3893,0.163642 -0.14297,0.163642 -0.14297,0.44614 v 1.090373 h -0.31867 v -1.154107 q 0,-0.279053 -0.0982,-0.41169 -0.0982,-0.134358 -0.30317,-0.134358 -0.24287,0 -0.38585,0.165364 -0.14297,0.163642 -0.14297,0.444418 v 1.090373 h -0.31867 v -1.929254 h 0.31867 v 0.299723 q 0.10852,-0.177422 0.26011,-0.261827 0.15158,-0.0844 0.36001,-0.0844 0.21015,0 0.35657,0.106798 0.14814,0.106798 0.21876,0.310059 z"
         style="font-size:3.52778px;stroke-width:0.264583"
         id="path1020" />
      <path
         d="m 159.64524,62.656118 v 0.96635 h 0.43752 q 0.24288,0 0.37552,-0.125746 0.13264,-0.125746 0.13264,-0.35829 0,-0.230822 -0.13264,-0.356568 -0.13264,-0.125746 -0.37552,-0.125746 z m -0.34796,-0.285943 h 0.78548 q 0.43236,0 0.65285,0.19637 0.22221,0.194648 0.22221,0.571887 0,0.380683 -0.22221,0.575331 -0.22049,0.194648 -0.65285,0.194648 h -0.43752 v 1.033529 h -0.34796 z"
         style="font-size:3.52778px;stroke-width:0.264583"
         id="path1022" />
      <path
         d="m 161.41085,62.261654 h 0.31695 v 2.680286 h -0.31695 z"
         style="font-size:3.52778px;stroke-width:0.264583"
         id="path1024" />
      <path
         d="m 163.26776,63.972145 q -0.38413,0 -0.53227,0.08785 -0.14814,0.08785 -0.14814,0.299724 0,0.16881 0.11024,0.268717 0.11197,0.09819 0.30317,0.09819 0.26355,0 0.42203,-0.186036 0.16019,-0.187757 0.16019,-0.497816 v -0.07063 z m 0.63217,-0.130913 v 1.100708 h -0.31695 v -0.292833 q -0.10852,0.1757 -0.27044,0.260105 -0.16192,0.08268 -0.39618,0.08268 -0.29628,0 -0.47198,-0.165364 -0.17398,-0.167088 -0.17398,-0.446141 0,-0.325561 0.21704,-0.490926 0.21877,-0.165365 0.65113,-0.165365 h 0.44441 v -0.03101 q 0,-0.218763 -0.14469,-0.337619 -0.14297,-0.120579 -0.40308,-0.120579 -0.16536,0 -0.32211,0.03962 -0.15675,0.03962 -0.30145,0.118856 v -0.292833 q 0.17398,-0.06718 0.33762,-0.09991 0.16364,-0.03445 0.31867,-0.03445 0.41858,0 0.62529,0.217041 0.2067,0.217041 0.2067,0.658014 z"
         style="font-size:3.52778px;stroke-width:0.264583"
         id="path1026" />
      <path
         d="m 164.86628,62.464915 v 0.547771 h 0.65285 v 0.246324 h -0.65285 v 1.04731 q 0,0.235989 0.0637,0.303168 0.0654,0.06718 0.26355,0.06718 h 0.32556 v 0.265272 h -0.32556 q -0.36691,0 -0.50643,-0.136081 -0.13953,-0.137804 -0.13953,-0.499539 v -1.04731 h -0.23254 v -0.246324 h 0.23254 v -0.547771 z"
         style="font-size:3.52778px;stroke-width:0.264583"
         id="path1028" />
      <path
         d="m 167.58619,63.898076 v 0.155029 h -1.45728 q 0.0207,0.327284 0.19637,0.499539 0.17743,0.170533 0.49265,0.170533 0.18259,0 0.35312,-0.04479 0.17226,-0.04479 0.34107,-0.134358 v 0.299723 q -0.17053,0.07235 -0.34968,0.110243 -0.17914,0.0379 -0.36346,0.0379 -0.46164,0 -0.73208,-0.268717 -0.26872,-0.268718 -0.26872,-0.726916 0,-0.473701 0.25494,-0.751031 0.25666,-0.279053 0.69074,-0.279053 0.3893,0 0.61495,0.251492 0.22738,0.249769 0.22738,0.680407 z m -0.31695,-0.09302 q -0.003,-0.260105 -0.14642,-0.415134 -0.14125,-0.15503 -0.37551,-0.15503 -0.26528,0 -0.42547,0.149862 -0.15848,0.149862 -0.18259,0.422025 z"
         style="font-size:3.52778px;stroke-width:0.264583"
         id="path1030" />
    </g>
    <g
       aria-label="Olfactory Bulb"
       id="text855"
       style="font-size:4.9389px;line-height:1.25;font-family:sans-serif;-inkscape-font-specification:'sans-serif, Normal';stroke-width:0.264583">
      <path
         d="m 143.98154,46.864598 q -0.37896,0 -0.60289,0.282498 -0.22221,0.282498 -0.22221,0.76998 0,0.485758 0.22221,0.768256 0.22393,0.282499 0.60289,0.282499 0.37896,0 0.59945,-0.282499 0.22221,-0.282498 0.22221,-0.768256 0,-0.487482 -0.22221,-0.76998 -0.22049,-0.282498 -0.59945,-0.282498 z m 0,-0.282498 q 0.54088,0 0.86472,0.363458 0.32384,0.361735 0.32384,0.971518 0,0.608059 -0.32384,0.971517 -0.32384,0.361736 -0.86472,0.361736 -0.5426,0 -0.86816,-0.361736 -0.32384,-0.361735 -0.32384,-0.971517 0,-0.609783 0.32384,-0.971518 0.32556,-0.363458 0.86816,-0.363458 z"
         style="font-size:3.52778px;stroke-width:0.264583"
         id="path1045" />
      <path
         d="m 145.70065,46.520089 h 0.31695 v 2.680286 h -0.31695 z"
         style="font-size:3.52778px;stroke-width:0.264583"
         id="path1047" />
      <path
         d="m 147.65746,46.520089 v 0.26355 h -0.30317 q -0.17053,0 -0.23771,0.0689 -0.0655,0.0689 -0.0655,0.248047 v 0.170532 h 0.52194 v 0.246324 h -0.52194 v 1.682931 h -0.31867 v -1.682931 h -0.30317 V 47.27112 h 0.30317 v -0.134359 q 0,-0.322117 0.14986,-0.468533 0.14987,-0.148139 0.47543,-0.148139 z"
         style="font-size:3.52778px;stroke-width:0.264583"
         id="path1049" />
      <path
         d="m 148.79951,48.23058 q -0.38413,0 -0.53227,0.08785 -0.14814,0.08785 -0.14814,0.299723 0,0.16881 0.11025,0.268718 0.11196,0.09819 0.30317,0.09819 0.26355,0 0.42202,-0.186035 0.1602,-0.187758 0.1602,-0.497817 v -0.07062 z m 0.63218,-0.130914 v 1.100709 h -0.31695 v -0.292834 q -0.10852,0.1757 -0.27044,0.260105 -0.16192,0.08268 -0.39619,0.08268 -0.29628,0 -0.47198,-0.165365 -0.17397,-0.167087 -0.17397,-0.44614 0,-0.325562 0.21704,-0.490927 0.21876,-0.165364 0.65112,-0.165364 h 0.44442 v -0.03101 q 0,-0.218764 -0.1447,-0.33762 -0.14297,-0.120578 -0.40307,-0.120578 -0.16537,0 -0.32212,0.03962 -0.15675,0.03962 -0.30145,0.118856 V 47.35897 q 0.17398,-0.06718 0.33762,-0.09991 0.16365,-0.03445 0.31868,-0.03445 0.41858,0 0.62528,0.217041 0.20671,0.217041 0.20671,0.658014 z"
         style="font-size:3.52778px;stroke-width:0.264583"
         id="path1051" />
      <path
         d="m 151.47291,47.345189 v 0.296279 q -0.13436,-0.07407 -0.27044,-0.110243 -0.13436,-0.0379 -0.27217,-0.0379 -0.30833,0 -0.47886,0.19637 -0.17054,0.194648 -0.17054,0.547771 0,0.353122 0.17054,0.549493 0.17053,0.194648 0.47886,0.194648 0.13781,0 0.27217,-0.03617 0.13608,-0.0379 0.27044,-0.111965 v 0.292833 q -0.13264,0.06201 -0.27561,0.09302 -0.14125,0.03101 -0.30145,0.03101 -0.4358,0 -0.69246,-0.273886 -0.25666,-0.273885 -0.25666,-0.738973 0,-0.471979 0.25838,-0.742419 0.26011,-0.27044 0.71141,-0.27044 0.14642,0 0.28595,0.03101 0.13952,0.02928 0.27044,0.08957 z"
         style="font-size:3.52778px;stroke-width:0.264583"
         id="path1053" />
      <path
         d="m 152.33763,46.723349 v 0.547771 h 0.65284 v 0.246324 h -0.65284 v 1.04731 q 0,0.235989 0.0637,0.303169 0.0655,0.06718 0.26355,0.06718 h 0.32556 v 0.265273 h -0.32556 q -0.3669,0 -0.50643,-0.136082 -0.13952,-0.137804 -0.13952,-0.499539 v -1.04731 h -0.23255 V 47.27112 h 0.23255 v -0.547771 z"
         style="font-size:3.52778px;stroke-width:0.264583"
         id="path1055" />
      <path
         d="m 154.15492,47.493329 q -0.25494,0 -0.40308,0.199815 -0.14814,0.198093 -0.14814,0.544326 0,0.346232 0.14642,0.546048 0.14814,0.198093 0.4048,0.198093 0.25321,0 0.40135,-0.199816 0.14814,-0.199815 0.14814,-0.544325 0,-0.342787 -0.14814,-0.542603 -0.14814,-0.201538 -0.40135,-0.201538 z m 0,-0.268718 q 0.41341,0 0.6494,0.268718 0.23599,0.268717 0.23599,0.744141 0,0.473701 -0.23599,0.744141 -0.23599,0.268718 -0.6494,0.268718 -0.41514,0 -0.65113,-0.268718 -0.23426,-0.27044 -0.23426,-0.744141 0,-0.475424 0.23426,-0.744141 0.23599,-0.268718 0.65113,-0.268718 z"
         style="font-size:3.52778px;stroke-width:0.264583"
         id="path1057" />
      <path
         d="m 156.68362,47.567398 q -0.0534,-0.03101 -0.11714,-0.04479 -0.062,-0.0155 -0.1378,-0.0155 -0.26872,0 -0.41341,0.1757 -0.14297,0.173977 -0.14297,0.501262 v 1.016304 h -0.31867 V 47.27112 h 0.31867 v 0.299723 q 0.0999,-0.1757 0.2601,-0.260104 0.1602,-0.08613 0.3893,-0.08613 0.0327,0 0.0724,0.0052 0.0396,0.0034 0.0879,0.01206 z"
         style="font-size:3.52778px;stroke-width:0.264583"
         id="path1059" />
      <path
         d="m 157.81878,49.37952 q -0.13436,0.344509 -0.26183,0.449585 -0.12747,0.105075 -0.34106,0.105075 h -0.25322 v -0.265272 h 0.18604 q 0.13091,0 0.20326,-0.06201 0.0723,-0.06201 0.16019,-0.292833 l 0.0568,-0.144694 -0.78032,-1.898249 h 0.3359 l 0.60289,1.508953 0.6029,-1.508953 h 0.33589 z"
         style="font-size:3.52778px;stroke-width:0.264583"
         id="path1061" />
      <path
         d="m 160.58691,47.972197 v 0.942234 h 0.55811 q 0.28078,0 0.41513,-0.11541 0.13609,-0.117134 0.13609,-0.356568 0,-0.241157 -0.13609,-0.354845 -0.13435,-0.115411 -0.41513,-0.115411 z m 0,-1.057645 v 0.775147 h 0.51505 q 0.25493,0 0.37896,-0.09474 0.12574,-0.09646 0.12574,-0.292833 0,-0.194648 -0.12574,-0.291111 -0.12403,-0.09646 -0.37896,-0.09646 z m -0.34795,-0.285943 h 0.88883 q 0.39791,0 0.61323,0.165365 0.21532,0.165365 0.21532,0.470256 0,0.235989 -0.11024,0.375515 -0.11025,0.139527 -0.32384,0.173978 0.25666,0.05512 0.39791,0.230821 0.14297,0.173978 0.14297,0.435805 0,0.34451 -0.23427,0.532268 -0.23426,0.187758 -0.66662,0.187758 h -0.92329 z"
         style="font-size:3.52778px;stroke-width:0.264583"
         id="path1063" />
      <path
         d="M 162.61263,48.439008 V 47.27112 h 0.31695 v 1.15583 q 0,0.273885 0.1068,0.411689 0.1068,0.136082 0.32039,0.136082 0.25666,0 0.4048,-0.163642 0.14986,-0.163643 0.14986,-0.446141 V 47.27112 h 0.31695 v 1.929255 h -0.31695 v -0.296279 q -0.11541,0.1757 -0.26871,0.261828 -0.15159,0.08441 -0.35313,0.08441 -0.33245,0 -0.5047,-0.206706 -0.17226,-0.206706 -0.17226,-0.604615 z"
         style="font-size:3.52778px;stroke-width:0.264583"
         id="path1065" />
      <path
         d="m 164.88123,46.520089 h 0.31695 v 2.680286 h -0.31695 z"
         style="font-size:3.52778px;stroke-width:0.264583"
         id="path1067" />
      <path
         d="m 167.24629,48.23747 q 0,-0.349678 -0.1447,-0.547771 -0.14297,-0.199815 -0.39446,-0.199815 -0.25149,0 -0.39619,0.199815 -0.14297,0.198093 -0.14297,0.547771 0,0.349677 0.14297,0.549493 0.1447,0.198093 0.39619,0.198093 0.25149,0 0.39446,-0.198093 0.1447,-0.199816 0.1447,-0.549493 z m -1.07832,-0.673517 q 0.0999,-0.172255 0.25149,-0.254937 0.15331,-0.0844 0.36518,-0.0844 0.3514,0 0.57017,0.279053 0.22048,0.279053 0.22048,0.733806 0,0.454753 -0.22048,0.733806 -0.21877,0.279053 -0.57017,0.279053 -0.21187,0 -0.36518,-0.08268 -0.15158,-0.0844 -0.25149,-0.25666 v 0.289389 h -0.31867 v -2.680286 h 0.31867 z"
         style="font-size:3.52778px;stroke-width:0.264583"
         id="path1069" />
    </g>
    <path
       id="path857"
       style="fill:#ff0000;stroke:#ff0000;stroke-width:1.062"
       d="m 101.66129,70.140564 a 5.2549047,5.2373805 0 0 1 -5.254903,5.23738 5.2549047,5.2373805 0 0 1 -5.254904,-5.23738 5.2549047,5.2373805 0 0 1 5.254904,-5.237381 5.2549047,5.2373805 0 0 1 5.254903,5.237381 z" />
    <path
       id="rect859"
       style="fill:#ff0000;stroke:#ff0000;stroke-width:1.062"
       d="m 94.887726,54.638149 h 2.968776 v 11.349286 h -2.968776 z" />
    <path
       id="path857-3"
       style="fill:#ff0000;stroke:#ff0000;stroke-width:1.062"
       d="m 125.45213,70.967026 a 5.2549047,5.2373805 0 0 1 -5.2549,5.23738 5.2549047,5.2373805 0 0 1 -5.25491,-5.23738 5.2549047,5.2373805 0 0 1 5.25491,-5.237381 5.2549047,5.2373805 0 0 1 5.2549,5.237381 z" />
    <path
       id="rect859-6"
       style="fill:#ff0000;stroke:#ff0000;stroke-width:1.062"
       d="m 118.67857,55.464611 h 2.96878 v 11.349286 h -2.96878 z" />
    <path
       id="path885"
       style="fill:none;stroke:#ff0000;stroke-width:1.062;stroke-miterlimit:4;stroke-dasharray:1.062, 1.062;stroke-dashoffset:0"
       d="m 114.00317,46.810093 a 5.0064774,5.1093545 0 0 1 -5.00648,5.109354 5.0064774,5.1093545 0 0 1 -5.00648,-5.109354 5.0064774,5.1093545 0 0 1 5.00648,-5.109355 5.0064774,5.1093545 0 0 1 5.00648,5.109355 z" />
    <path
       style="fill:none;stroke:#ff0000;stroke-width:0.264583px;stroke-linecap:butt;stroke-linejoin:miter;stroke-opacity:1"
       d="m 96.209473,54.101214 c 2.892699,-2.370357 5.785117,-4.740481 8.677237,-7.110365"
       id="path903" />
    <path
       style="fill:none;stroke:#ff0000;stroke-width:0.264583px;stroke-linecap:butt;stroke-linejoin:miter;stroke-opacity:1"
       d="m 121.64735,55.464611 c -3.10609,-2.752221 -6.21496,-5.50691 -9.32664,-8.264085"
       id="path907" />
    <path
       style="fill:none;stroke:#ff0000;stroke-width:0.264583px;stroke-linecap:butt;stroke-linejoin:miter;stroke-opacity:1"
       d="m 104.88671,46.990849 c 0.51088,-0.438012 1.02155,-0.875838 1.532,-1.313477"
       id="path915" />
    <path
       style="fill:none;stroke:#ff0000;stroke-width:0.264583px;stroke-linecap:butt;stroke-linejoin:miter;stroke-opacity:1"
       d="m 104.88671,46.990849 c 0.80054,0.495125 1.59798,0.988333 2.39232,1.479624"
       id="path919" />
    <path
       style="fill:none;stroke:#ff0000;stroke-width:0.264583px;stroke-linecap:butt;stroke-linejoin:miter;stroke-opacity:1"
       d="m 112.32071,47.200526 c 0.0255,-1.095266 0.0511,-2.193116 0.0767,-3.293544"
       id="path923" />
    <path
       style="fill:none;stroke:#ff0000;stroke-width:0.264583px;stroke-linecap:butt;stroke-linejoin:miter;stroke-opacity:1"
       d="m 112.32071,47.200526 c -0.88242,0.652813 -1.76528,1.305951 -2.64858,1.959417"
       id="path927" />
    <g
       aria-label="Glomerulus"
       id="text933"
       style="font-size:4.9389px;line-height:1.25;font-family:sans-serif;-inkscape-font-specification:'sans-serif, Normal';stroke-width:0.264583">
      <path
         d="m 88.001093,35.792391 v -0.690742 h -0.568441 v -0.285943 h 0.912951 v 1.104154 q -0.201538,0.142971 -0.444418,0.217041 -0.242879,0.07235 -0.518487,0.07235 -0.602892,0 -0.943957,-0.3514 -0.339342,-0.353122 -0.339342,-0.981853 0,-0.630453 0.339342,-0.981853 0.341065,-0.353122 0.943957,-0.353122 0.251492,0 0.477146,0.06201 0.227377,0.06201 0.41858,0.18259 v 0.370348 q -0.192926,-0.163642 -0.409967,-0.246325 -0.217041,-0.08268 -0.456476,-0.08268 -0.471978,0 -0.70969,0.26355 -0.235989,0.26355 -0.235989,0.785482 0,0.52021 0.235989,0.78376 0.237712,0.26355 0.70969,0.26355 0.184313,0 0.329007,-0.03101 0.144694,-0.03273 0.260105,-0.09991 z"
         style="font-size:3.52778px;stroke-width:0.264583"
         id="path1149" />
      <path
         d="m 88.967443,33.479008 h 0.316949 v 2.680286 h -0.316949 z"
         style="font-size:3.52778px;stroke-width:0.264583"
         id="path1151" />
      <path
         d="m 90.695159,34.452248 q -0.254937,0 -0.403076,0.199816 -0.148139,0.198093 -0.148139,0.544325 0,0.346233 0.146417,0.546048 0.148139,0.198093 0.404798,0.198093 0.253215,0 0.401354,-0.199815 0.14814,-0.199816 0.14814,-0.544326 0,-0.342787 -0.14814,-0.542603 -0.148139,-0.201538 -0.401354,-0.201538 z m 0,-0.268717 q 0.413412,0 0.649401,0.268717 0.23599,0.268718 0.23599,0.744141 0,0.473701 -0.23599,0.744141 -0.235989,0.268718 -0.649401,0.268718 -0.415134,0 -0.651123,-0.268718 -0.234267,-0.27044 -0.234267,-0.744141 0,-0.475423 0.234267,-0.744141 0.235989,-0.268717 0.651123,-0.268717 z"
         style="font-size:3.52778px;stroke-width:0.264583"
         id="path1153" />
      <path
         d="m 93.60799,34.600387 q 0.118856,-0.213596 0.28422,-0.315226 0.165365,-0.10163 0.389296,-0.10163 0.301446,0 0.465088,0.211873 0.163643,0.210151 0.163643,0.599447 v 1.164443 h -0.318672 v -1.154108 q 0,-0.27733 -0.09819,-0.411689 -0.09819,-0.134359 -0.299724,-0.134359 -0.246324,0 -0.389296,0.163643 -0.142971,0.163642 -0.142971,0.44614 v 1.090373 h -0.318672 v -1.154108 q 0,-0.279053 -0.09818,-0.411689 -0.09819,-0.134359 -0.303169,-0.134359 -0.242879,0 -0.385851,0.165365 -0.142971,0.163642 -0.142971,0.444418 v 1.090373 h -0.318672 v -1.929255 h 0.318672 v 0.299724 q 0.10852,-0.177423 0.260105,-0.261828 0.151584,-0.0844 0.360012,-0.0844 0.210151,0 0.356568,0.106798 0.148139,0.106798 0.218764,0.310058 z"
         style="font-size:3.52778px;stroke-width:0.264583"
         id="path1155" />
      <path
         d="m 97.192614,35.11543 v 0.155029 h -1.457277 q 0.02067,0.327284 0.196371,0.499539 0.177422,0.170532 0.492649,0.170532 0.18259,0 0.353122,-0.04479 0.172255,-0.04479 0.341065,-0.134359 v 0.299724 q -0.170532,0.07235 -0.349677,0.110243 -0.179145,0.0379 -0.363458,0.0379 -0.461643,0 -0.732083,-0.268718 -0.268718,-0.268717 -0.268718,-0.726915 0,-0.473701 0.254937,-0.751031 0.25666,-0.279053 0.690742,-0.279053 0.389296,0 0.61495,0.251492 0.227377,0.249769 0.227377,0.680407 z m -0.316949,-0.09302 q -0.0034,-0.260105 -0.146417,-0.415134 -0.141249,-0.15503 -0.375516,-0.15503 -0.265272,0 -0.425469,0.149862 -0.158475,0.149862 -0.18259,0.422024 z"
         style="font-size:3.52778px;stroke-width:0.264583"
         id="path1157" />
      <path
         d="m 98.830758,34.526318 q -0.0534,-0.03101 -0.117133,-0.04479 -0.06201,-0.0155 -0.137804,-0.0155 -0.268718,0 -0.413412,0.1757 -0.142971,0.173977 -0.142971,0.501261 v 1.016304 h -0.318672 v -1.929255 h 0.318672 v 0.299724 q 0.09991,-0.1757 0.260105,-0.260105 0.160197,-0.08613 0.389296,-0.08613 0.03273,0 0.07235,0.0052 0.03962,0.0034 0.08785,0.01206 z"
         style="font-size:3.52778px;stroke-width:0.264583"
         id="path1159" />
      <path
         d="m 99.130482,35.397928 v -1.167889 h 0.316949 v 1.155831 q 0,0.273885 0.106798,0.411689 0.106798,0.136081 0.320394,0.136081 0.256657,0 0.404797,-0.163642 0.14986,-0.163642 0.14986,-0.44614 v -1.093819 h 0.31695 v 1.929255 h -0.31695 v -0.296278 q -0.11541,0.1757 -0.26871,0.261827 -0.15159,0.08441 -0.353127,0.08441 -0.332452,0 -0.504707,-0.206706 -0.172254,-0.206706 -0.172254,-0.604614 z"
         style="font-size:3.52778px;stroke-width:0.264583"
         id="path1161" />
      <path
         d="m 101.39908,33.479008 h 0.31695 v 2.680286 h -0.31695 z"
         style="font-size:3.52778px;stroke-width:0.264583"
         id="path1163" />
      <path
         d="m 102.34648,35.397928 v -1.167889 h 0.31695 v 1.155831 q 0,0.273885 0.1068,0.411689 0.1068,0.136081 0.32039,0.136081 0.25666,0 0.4048,-0.163642 0.14986,-0.163642 0.14986,-0.44614 v -1.093819 h 0.31695 v 1.929255 h -0.31695 v -0.296278 q -0.11541,0.1757 -0.26872,0.261827 -0.15158,0.08441 -0.35312,0.08441 -0.33245,0 -0.5047,-0.206706 -0.17226,-0.206706 -0.17226,-0.604614 z"
         style="font-size:3.52778px;stroke-width:0.264583"
         id="path1165" />
      <path
         d="m 105.84498,34.286884 v 0.299723 q -0.13436,-0.0689 -0.27906,-0.103353 -0.14469,-0.03445 -0.29972,-0.03445 -0.23599,0 -0.35484,0.07235 -0.11714,0.07235 -0.11714,0.217041 0,0.110243 0.0844,0.173978 0.0844,0.06201 0.33934,0.118856 l 0.10852,0.02412 q 0.33762,0.07235 0.47887,0.204984 0.14297,0.130913 0.14297,0.366903 0,0.268717 -0.2136,0.425469 -0.21187,0.156752 -0.58394,0.156752 -0.15503,0 -0.32384,-0.03101 -0.16709,-0.02928 -0.35312,-0.08957 v -0.327285 q 0.1757,0.0913 0.34623,0.137804 0.17053,0.04479 0.33762,0.04479 0.22393,0 0.34451,-0.07579 0.12058,-0.07751 0.12058,-0.217041 0,-0.129191 -0.0879,-0.198093 -0.0861,-0.0689 -0.38069,-0.132636 l -0.11024,-0.02584 q -0.29455,-0.06201 -0.42547,-0.189481 -0.13091,-0.129191 -0.13091,-0.353122 0,-0.272163 0.19292,-0.420302 0.19293,-0.148139 0.54777,-0.148139 0.1757,0 0.33073,0.02584 0.15503,0.02584 0.28595,0.07751 z"
         style="font-size:3.52778px;stroke-width:0.264583"
         id="path1167" />
    </g>
    <path
       style="fill:none;stroke:#000000;stroke-width:0.264583px;stroke-linecap:butt;stroke-linejoin:miter;stroke-opacity:1;marker-end:url(#Arrow2Mend)"
       d="m 99.54687,36.779718 c 1.78595,2.072328 3.57201,4.14479 5.35819,6.217388"
       id="path935"
       sodipodi:nodetypes="cc" />
    <path
       style="fill:none;stroke:#ff0000;stroke-width:0.264583px;stroke-linecap:butt;stroke-linejoin:miter;stroke-opacity:1"
       d="m 93.054308,71.24696 c -0.320328,2.691706 -0.640629,5.383183 -1.186869,7.111131 -0.54624,1.727948 -1.318417,2.492567 -2.694854,3.143982 -1.376437,0.651415 -3.357219,1.189635 -5.338217,1.727914"
       id="path1241" />
    <path
       style="fill:none;stroke:#ff0000;stroke-width:0.264583px;stroke-linecap:butt;stroke-linejoin:miter;stroke-opacity:1"
       d="m 97.249771,73.294229 c 0.01632,1.733347 0.03263,3.466428 0.114273,5.134079 0.08164,1.667651 0.228587,3.269787 -0.391256,5.010469 -0.619842,1.740683 -2.006362,3.620048 -3.97429,4.267759 -1.967929,0.64771 -4.517476,0.06373 -7.067388,-0.520338"
       id="path1245" />
    <path
       style="fill:none;stroke:#ff0000;stroke-width:0.264583px;stroke-linecap:butt;stroke-linejoin:miter;stroke-opacity:1"
       d="m 99.217795,73.576808 c 1.060585,1.827649 2.120995,3.654981 2.492215,5.670271 0.37123,2.015289 0.0535,4.218534 0.64715,5.869056 0.59364,1.650521 2.09826,2.748227 3.57402,3.115829 1.47576,0.367601 2.92268,0.0054 4.36946,-0.356848"
       id="path1249" />
    <path
       style="fill:none;stroke:#ff0000;stroke-width:0.264583px;stroke-linecap:butt;stroke-linejoin:miter;stroke-opacity:1"
       d="m 117.99875,74.357668 c -0.85079,1.33659 -1.70155,2.673119 -2.46532,4.724829 -0.76377,2.051711 -1.44054,4.818382 -2.82812,5.680723 -1.38758,0.862341 -3.48624,-0.179633 -5.58525,-1.221783"
       id="path1253" />
    <path
       style="fill:none;stroke:#ff0000;stroke-width:0.264583px;stroke-linecap:butt;stroke-linejoin:miter;stroke-opacity:1"
       d="m 121.40438,72.896634 c 1.01273,2.704857 2.02533,5.4094 2.80219,7.670163 0.77685,2.260763 1.31796,4.077681 1.98955,4.677123 0.67158,0.599442 1.47367,-0.01826 2.6748,-0.386336 1.20114,-0.368079 2.80105,-0.48653 4.40074,-0.604965"
       id="path1257" />
    <path
       id="path1261"
       style="fill:none;stroke:#00ff00;stroke-width:0.512339;stroke-miterlimit:4;stroke-dasharray:none;stroke-dashoffset:0"
       inkscape:transform-center-x="2.1227642e-06"
       inkscape:transform-center-y="-1.822655e-06"
       d="m 90.141341,89.099838 1.611466,2.615659 -1.459494,2.7034 -3.07096,0.08774 -1.611467,-2.615659 1.459494,-2.7034 z" />
    <path
       id="path1263"
       style="fill:none;stroke:#00ff00;stroke-width:1.062;stroke-miterlimit:4;stroke-dasharray:none;stroke-dashoffset:0"
       d="m 89.990431,91.787834 a 1.217169,1.101298 0 0 1 -1.217169,1.101298 1.217169,1.101298 0 0 1 -1.217169,-1.101298 1.217169,1.101298 0 0 1 1.217169,-1.101298 1.217169,1.101298 0 0 1 1.217169,1.101298 z" />
    <path
       style="fill:none;stroke:#00ffff;stroke-width:0.264583px;stroke-linecap:butt;stroke-linejoin:miter;stroke-opacity:1"
       d="m 110.92873,43.965513 c -0.68459,-0.188863 -1.3695,-0.377813 -2.05472,-0.566849"
       id="path1265" />
    <path
       style="fill:none;stroke:#00ffff;stroke-width:0.264583px;stroke-linecap:butt;stroke-linejoin:miter;stroke-opacity:1"
       d="m 110.68011,45.491286 c -0.068,-0.544965 -0.13602,-1.090214 0.62735,-1.842203 0.76336,-0.751989 2.358,-1.710331 4.22299,-2.136313 1.86498,-0.425981 3.99994,-0.319644 6.26543,0.308123 2.26549,0.627768 4.66124,1.77677 7.05673,2.925645"
       id="path1269"
       sodipodi:nodetypes="ccccc" />
    <path
       id="path1279"
       style="fill:#00ffff;stroke:#00ffff;stroke-width:1.062;stroke-miterlimit:4;stroke-dasharray:none;stroke-dashoffset:0"
       d="m 132.958,44.630924 a 2.6703463,2.8821051 0 0 1 -2.67034,2.882105 2.6703463,2.8821051 0 0 1 -2.67035,-2.882105 2.6703463,2.8821051 0 0 1 2.67035,-2.882105 2.6703463,2.8821051 0 0 1 2.67034,2.882105 z" />
    <g
       aria-label="Mitral Cell"
       id="text1283"
       style="font-size:4.9389px;line-height:1.25;font-family:sans-serif;-inkscape-font-specification:'sans-serif, Normal';stroke-width:0.264583">
      <path
         d="m 120.44754,32.65931 h 0.51849 l 0.65629,1.750109 0.65974,-1.750109 h 0.51848 v 2.571765 h -0.33934 v -2.258261 l -0.66318,1.76389 h -0.34968 l -0.66318,-1.76389 v 2.258261 h -0.33762 z"
         style="font-size:3.52778px;stroke-width:0.264583"
         id="path1221" />
      <path
         d="m 123.47751,33.301821 h 0.31695 v 1.929254 h -0.31695 z m 0,-0.751032 h 0.31695 v 0.401354 h -0.31695 z"
         style="font-size:3.52778px;stroke-width:0.264583"
         id="path1223" />
      <path
         d="m 124.77114,32.75405 v 0.547771 h 0.65285 v 0.246324 h -0.65285 v 1.04731 q 0,0.235989 0.0637,0.303168 0.0654,0.06718 0.26355,0.06718 h 0.32556 v 0.265272 h -0.32556 q -0.36691,0 -0.50643,-0.136081 -0.13953,-0.137804 -0.13953,-0.499539 v -1.04731 h -0.23254 v -0.246324 h 0.23254 V 32.75405 Z"
         style="font-size:3.52778px;stroke-width:0.264583"
         id="path1225" />
      <path
         d="m 126.95878,33.598099 q -0.0534,-0.03101 -0.11714,-0.04479 -0.062,-0.0155 -0.1378,-0.0155 -0.26872,0 -0.41341,0.1757 -0.14297,0.173977 -0.14297,0.501261 v 1.016304 h -0.31867 v -1.929254 h 0.31867 v 0.299723 q 0.0999,-0.1757 0.2601,-0.260105 0.1602,-0.08613 0.3893,-0.08613 0.0327,0 0.0723,0.0052 0.0396,0.0034 0.0878,0.01206 z"
         style="font-size:3.52778px;stroke-width:0.264583"
         id="path1227" />
      <path
         d="m 128.16801,34.26128 q -0.38413,0 -0.53227,0.08785 -0.14814,0.08785 -0.14814,0.299724 0,0.16881 0.11024,0.268717 0.11197,0.09819 0.30317,0.09819 0.26355,0 0.42203,-0.186036 0.16019,-0.187757 0.16019,-0.497816 v -0.07062 z m 0.63217,-0.130913 v 1.100708 h -0.31695 v -0.292833 q -0.10852,0.1757 -0.27044,0.260105 -0.16192,0.08268 -0.39618,0.08268 -0.29628,0 -0.47198,-0.165364 -0.17398,-0.167088 -0.17398,-0.446141 0,-0.325561 0.21704,-0.490926 0.21877,-0.165365 0.65113,-0.165365 h 0.44441 v -0.03101 q 0,-0.218763 -0.14469,-0.337619 -0.14297,-0.120579 -0.40308,-0.120579 -0.16536,0 -0.32211,0.03962 -0.15676,0.03962 -0.30145,0.118856 v -0.292833 q 0.17398,-0.06718 0.33762,-0.09991 0.16364,-0.03445 0.31867,-0.03445 0.41858,0 0.62529,0.217041 0.2067,0.217041 0.2067,0.658014 z"
         style="font-size:3.52778px;stroke-width:0.264583"
         id="path1229" />
      <path
         d="m 129.45303,32.550789 h 0.31695 v 2.680286 h -0.31695 z"
         style="font-size:3.52778px;stroke-width:0.264583"
         id="path1231" />
      <path
         d="m 133.49413,32.857403 v 0.366903 q -0.1757,-0.163642 -0.37552,-0.244602 -0.19809,-0.08096 -0.42202,-0.08096 -0.44097,0 -0.67524,0.27044 -0.23427,0.268718 -0.23427,0.778592 0,0.508152 0.23427,0.778592 0.23427,0.268718 0.67524,0.268718 0.22393,0 0.42202,-0.08096 0.19982,-0.08096 0.37552,-0.244602 v 0.363458 q -0.18259,0.124024 -0.38758,0.186035 -0.20326,0.06201 -0.43063,0.06201 -0.58395,0 -0.91984,-0.356567 -0.3359,-0.358291 -0.3359,-0.976686 0,-0.620117 0.3359,-0.976685 0.33589,-0.35829 0.91984,-0.35829 0.23082,0 0.43408,0.06201 0.20498,0.06029 0.38413,0.18259 z"
         style="font-size:3.52778px;stroke-width:0.264583"
         id="path1233" />
      <path
         d="m 135.66799,34.187211 v 0.155029 h -1.45728 q 0.0207,0.327284 0.19637,0.499539 0.17742,0.170533 0.49265,0.170533 0.18259,0 0.35312,-0.04479 0.17226,-0.04479 0.34107,-0.134358 v 0.299723 q -0.17054,0.07235 -0.34968,0.110243 -0.17915,0.0379 -0.36346,0.0379 -0.46164,0 -0.73208,-0.268717 -0.26872,-0.268718 -0.26872,-0.726916 0,-0.473701 0.25494,-0.751031 0.25666,-0.279053 0.69074,-0.279053 0.38929,0 0.61495,0.251492 0.22738,0.249769 0.22738,0.680407 z m -0.31695,-0.09302 q -0.003,-0.260105 -0.14642,-0.415134 -0.14125,-0.15503 -0.37552,-0.15503 -0.26527,0 -0.42547,0.149862 -0.15847,0.149862 -0.18259,0.422025 z"
         style="font-size:3.52778px;stroke-width:0.264583"
         id="path1235" />
      <path
         d="m 136.18819,32.550789 h 0.31695 v 2.680286 h -0.31695 z"
         style="font-size:3.52778px;stroke-width:0.264583"
         id="path1237" />
      <path
         d="m 137.16832,32.550789 h 0.31695 v 2.680286 h -0.31695 z"
         style="font-size:3.52778px;stroke-width:0.264583"
         id="path1239" />
    </g>
    <path
       style="fill:none;stroke:#000000;stroke-width:0.264583px;stroke-linecap:butt;stroke-linejoin:miter;stroke-opacity:1;marker-end:url(#marker1315)"
       d="m 130.0659,36.190877 0.0415,4.294698"
       id="path1285" />
    <g
       aria-label="Brain"
       id="text855-7"
       style="font-size:4.9389px;line-height:1.25;font-family:sans-serif;-inkscape-font-specification:'sans-serif, Normal';stroke-width:0.264583">
      <path
         d="m 146.15096,32.983397 v 0.942234 h 0.5581 q 0.28078,0 0.41514,-0.11541 0.13608,-0.117134 0.13608,-0.356568 0,-0.241157 -0.13608,-0.354845 -0.13436,-0.115411 -0.41514,-0.115411 z m 0,-1.057645 v 0.775147 h 0.51504 q 0.25494,0 0.37896,-0.09474 0.12575,-0.09646 0.12575,-0.292833 0,-0.194648 -0.12575,-0.291111 -0.12402,-0.09646 -0.37896,-0.09646 z M 145.803,31.639809 h 0.88884 q 0.39791,0 0.61323,0.165365 0.21532,0.165364 0.21532,0.470256 0,0.235989 -0.11025,0.375515 -0.11024,0.139527 -0.32384,0.173978 0.25666,0.05512 0.39791,0.230821 0.14297,0.173978 0.14297,0.435805 0,0.34451 -0.23426,0.532268 -0.23427,0.187758 -0.66663,0.187758 H 145.803 Z"
         style="font-size:3.52778px;stroke-width:0.264583"
         id="path1254" />
      <path
         d="m 149.32734,32.578598 q -0.0534,-0.03101 -0.11713,-0.04479 -0.062,-0.0155 -0.13781,-0.0155 -0.26872,0 -0.41341,0.1757 -0.14297,0.173977 -0.14297,0.501262 v 1.016304 h -0.31867 V 32.28232 h 0.31867 v 0.299723 q 0.0999,-0.1757 0.2601,-0.260105 0.1602,-0.08613 0.3893,-0.08613 0.0327,0 0.0724,0.0052 0.0396,0.0034 0.0878,0.01206 z"
         style="font-size:3.52778px;stroke-width:0.264583"
         id="path1256" />
      <path
         d="m 150.53657,33.24178 q -0.38413,0 -0.53227,0.08785 -0.14814,0.08785 -0.14814,0.299723 0,0.16881 0.11024,0.268718 0.11197,0.09819 0.30317,0.09819 0.26355,0 0.42203,-0.186035 0.16019,-0.187758 0.16019,-0.497817 v -0.07062 z m 0.63217,-0.130914 v 1.100709 h -0.31695 v -0.292834 q -0.10852,0.1757 -0.27044,0.260105 -0.16191,0.08268 -0.39618,0.08268 -0.29628,0 -0.47198,-0.165364 -0.17398,-0.167087 -0.17398,-0.44614 0,-0.325562 0.21704,-0.490927 0.21877,-0.165364 0.65113,-0.165364 h 0.44441 v -0.03101 q 0,-0.218764 -0.14469,-0.33762 -0.14297,-0.120578 -0.40308,-0.120578 -0.16536,0 -0.32211,0.03962 -0.15675,0.03962 -0.30145,0.118856 V 32.37017 q 0.17398,-0.06718 0.33762,-0.09991 0.16364,-0.03445 0.31867,-0.03445 0.41858,0 0.62529,0.217041 0.2067,0.217041 0.2067,0.658014 z"
         style="font-size:3.52778px;stroke-width:0.264583"
         id="path1258" />
      <path
         d="m 151.82159,32.28232 h 0.31695 v 1.929255 h -0.31695 z m 0,-0.751031 h 0.31695 v 0.401353 h -0.31695 z"
         style="font-size:3.52778px;stroke-width:0.264583"
         id="path1260" />
      <path
         d="m 154.40541,33.047132 v 1.164443 h -0.31695 v -1.154108 q 0,-0.273885 -0.10679,-0.409967 -0.1068,-0.136081 -0.3204,-0.136081 -0.25666,0 -0.4048,0.163642 -0.14814,0.163642 -0.14814,0.44614 v 1.090374 h -0.31867 V 32.28232 h 0.31867 v 0.299723 q 0.11369,-0.173977 0.267,-0.260105 0.15503,-0.08613 0.35657,-0.08613 0.33245,0 0.50298,0.206706 0.17053,0.204983 0.17053,0.604615 z"
         style="font-size:3.52778px;stroke-width:0.264583"
         id="path1262" />
    </g>
  </g>
</svg>
