<?xml version="1.0" encoding="UTF-8" standalone="no"?>
<svg
   xmlns:dc="http://purl.org/dc/elements/1.1/"
   xmlns:cc="http://creativecommons.org/ns#"
   xmlns:rdf="http://www.w3.org/1999/02/22-rdf-syntax-ns#"
   xmlns:svg="http://www.w3.org/2000/svg"
   xmlns="http://www.w3.org/2000/svg"
   xmlns:sodipodi="http://sodipodi.sourceforge.net/DTD/sodipodi-0.dtd"
   xmlns:inkscape="http://www.inkscape.org/namespaces/inkscape"
   width="210mm"
   height="297mm"
   viewBox="0 0 210 297"
   version="1.1"
   id="svg8"
   inkscape:version="1.0.2 (e86c870879, 2021-01-15)"
   sodipodi:docname="operant.svg">
  <defs
     id="defs2">
    <inkscape:path-effect
       effect="bspline"
       id="path-effect841"
       is_visible="true"
       lpeversion="1"
       weight="33.333333"
       steps="2"
       helper_size="0"
       apply_no_weight="true"
       apply_with_weight="true"
       only_selected="false" />
    <inkscape:path-effect
       effect="bspline"
       id="path-effect837"
       is_visible="true"
       lpeversion="1"
       weight="33.333333"
       steps="2"
       helper_size="0"
       apply_no_weight="true"
       apply_with_weight="true"
       only_selected="false" />
  </defs>
  <sodipodi:namedview
     id="base"
     pagecolor="#ffffff"
     bordercolor="#666666"
     borderopacity="1.0"
     inkscape:pageopacity="0.0"
     inkscape:pageshadow="2"
     inkscape:zoom="2.8"
     inkscape:cx="476.29024"
     inkscape:cy="474.30202"
     inkscape:document-units="mm"
     inkscape:current-layer="layer1"
     inkscape:document-rotation="0"
     showgrid="false"
     inkscape:window-width="1533"
     inkscape:window-height="1016"
     inkscape:window-x="50"
     inkscape:window-y="27"
     inkscape:window-maximized="0" />
  <metadata
     id="metadata5">
    <rdf:RDF>
      <cc:Work
         rdf:about="">
        <dc:format>image/svg+xml</dc:format>
        <dc:type
           rdf:resource="http://purl.org/dc/dcmitype/StillImage" />
        <dc:title></dc:title>
      </cc:Work>
    </rdf:RDF>
  </metadata>
  <g
     inkscape:label="Layer 1"
     inkscape:groupmode="layer"
     id="layer1">
    <path
       id="rect833"
       style="fill:none;stroke:#000000;stroke-width:0.269123"
       d="m 113.26847,107.07191 h 39.73088 v 39.73087 h -39.73088 z" />
    <path
       style="fill:none;stroke:#000000;stroke-width:0.264583px;stroke-linecap:butt;stroke-linejoin:miter;stroke-opacity:1"
       d="m 133.20336,106.93469 c -0.0586,13.28664 -0.11727,26.57301 -0.1759,39.85912"
       id="path835"
       sodipodi:nodetypes="cc" />
    <path
       style="fill:none;stroke:#000000;stroke-width:0.264583px;stroke-linecap:butt;stroke-linejoin:miter;stroke-opacity:1"
       d="m 113.01227,127.75951 c 13.41469,-0.0601 26.82912,-0.12016 40.24328,-0.18024"
       id="path839" />
    <g
       aria-label="Reinforcement"
       id="text845"
       style="font-size:4.9389px;line-height:1.25;font-family:sans-serif;-inkscape-font-specification:'sans-serif, Normal';stroke-width:0.264583">
      <path
         d="m 87.296823,118.35471 q 0.111965,0.0379 0.217041,0.16192 0.106798,0.12402 0.213596,0.34106 l 0.353122,0.7028 h -0.373793 l -0.329007,-0.65973 q -0.127468,-0.25839 -0.248047,-0.34279 -0.118856,-0.0844 -0.325561,-0.0844 h -0.378961 v 1.08692 h -0.347955 v -2.57176 h 0.785482 q 0.440973,0 0.658014,0.18431 0.217041,0.18431 0.217041,0.55638 0,0.24288 -0.113688,0.40308 -0.111966,0.1602 -0.327284,0.22221 z m -0.87161,-1.08004 v 0.91295 h 0.437527 q 0.251492,0 0.378961,-0.11541 0.129191,-0.11713 0.129191,-0.34279 0,-0.22565 -0.129191,-0.33934 -0.127469,-0.11541 -0.378961,-0.11541 z"
         style="font-size:3.52778px;stroke-width:0.264583"
         id="path947" />
      <path
         d="m 90.006392,118.51663 v 0.15503 h -1.457276 q 0.02067,0.32728 0.19637,0.49954 0.177423,0.17053 0.492649,0.17053 0.18259,0 0.353123,-0.0448 0.172254,-0.0448 0.341064,-0.13436 v 0.29973 q -0.170532,0.0724 -0.349677,0.11024 -0.179145,0.0379 -0.363458,0.0379 -0.461643,0 -0.732083,-0.26872 -0.268718,-0.26872 -0.268718,-0.72692 0,-0.4737 0.254937,-0.75103 0.25666,-0.27905 0.690742,-0.27905 0.389297,0 0.61495,0.25149 0.227377,0.24977 0.227377,0.68041 z m -0.316949,-0.093 q -0.0034,-0.2601 -0.146417,-0.41513 -0.141249,-0.15503 -0.375515,-0.15503 -0.265273,0 -0.42547,0.14986 -0.158474,0.14986 -0.18259,0.42202 z"
         style="font-size:3.52778px;stroke-width:0.264583"
         id="path949" />
      <path
         d="m 90.526602,117.63124 h 0.316949 v 1.92925 h -0.316949 z m 0,-0.75103 h 0.316949 v 0.40135 h -0.316949 z"
         style="font-size:3.52778px;stroke-width:0.264583"
         id="path951" />
      <path
         d="m 93.110425,118.39605 v 1.16444 h -0.316949 v -1.1541 q 0,-0.27389 -0.106798,-0.40997 -0.106798,-0.13608 -0.320394,-0.13608 -0.25666,0 -0.404799,0.16364 -0.148139,0.16364 -0.148139,0.44614 v 1.09037 h -0.318672 v -1.92925 h 0.318672 v 0.29972 q 0.113688,-0.17398 0.266995,-0.2601 0.155029,-0.0861 0.356567,-0.0861 0.332452,0 0.502985,0.20671 0.170532,0.20498 0.170532,0.60461 z"
         style="font-size:3.52778px;stroke-width:0.264583"
         id="path953" />
      <path
         d="m 94.719286,116.88021 v 0.26355 h -0.303169 q -0.170532,0 -0.237712,0.0689 -0.06546,0.0689 -0.06546,0.24805 v 0.17053 h 0.521932 v 0.24632 h -0.521932 v 1.68293 h -0.318672 v -1.68293 h -0.303169 v -0.24632 h 0.303169 v -0.13436 q 0,-0.32212 0.149862,-0.46853 0.149862,-0.14814 0.475423,-0.14814 z"
         style="font-size:3.52778px;stroke-width:0.264583"
         id="path955" />
      <path
         d="m 95.732144,117.85345 q -0.254937,0 -0.403076,0.19981 -0.148139,0.1981 -0.148139,0.54433 0,0.34623 0.146416,0.54605 0.14814,0.19809 0.404799,0.19809 0.253215,0 0.401354,-0.19982 0.14814,-0.19981 0.14814,-0.54432 0,-0.34279 -0.14814,-0.5426 -0.148139,-0.20154 -0.401354,-0.20154 z m 0,-0.26872 q 0.413412,0 0.649401,0.26872 0.23599,0.26872 0.23599,0.74414 0,0.4737 -0.23599,0.74414 -0.235989,0.26872 -0.649401,0.26872 -0.415134,0 -0.651123,-0.26872 -0.234267,-0.27044 -0.234267,-0.74414 0,-0.47542 0.234267,-0.74414 0.235989,-0.26872 0.651123,-0.26872 z"
         style="font-size:3.52778px;stroke-width:0.264583"
         id="path957" />
      <path
         d="m 98.260846,117.92752 q -0.0534,-0.031 -0.117133,-0.0448 -0.06201,-0.0155 -0.137804,-0.0155 -0.268718,0 -0.413412,0.1757 -0.142971,0.17398 -0.142971,0.50126 v 1.0163 h -0.318672 v -1.92925 h 0.318672 v 0.29972 q 0.09991,-0.1757 0.260105,-0.2601 0.160197,-0.0861 0.389296,-0.0861 0.03273,0 0.07235,0.005 0.03962,0.003 0.08785,0.0121 z"
         style="font-size:3.52778px;stroke-width:0.264583"
         id="path959" />
      <path
         d="m 99.904158,117.70531 v 0.29628 q -0.134359,-0.0741 -0.27044,-0.11025 -0.134359,-0.0379 -0.272163,-0.0379 -0.308336,0 -0.478869,0.19637 -0.170532,0.19465 -0.170532,0.54777 0,0.35312 0.170532,0.54949 0.170533,0.19465 0.478869,0.19465 0.137804,0 0.272163,-0.0362 0.136081,-0.0379 0.27044,-0.11197 v 0.29283 q -0.132636,0.062 -0.275608,0.093 -0.141249,0.031 -0.301446,0.031 -0.435805,0 -0.692465,-0.27389 -0.256659,-0.27388 -0.256659,-0.73897 0,-0.47198 0.258382,-0.74242 0.260105,-0.27044 0.711413,-0.27044 0.146416,0 0.285943,0.031 0.139526,0.0293 0.27044,0.0896 z"
         style="font-size:3.52778px;stroke-width:0.264583"
         id="path961" />
      <path
         d="m 102.10558,118.51663 v 0.15503 h -1.45728 q 0.0207,0.32728 0.19637,0.49954 0.17742,0.17053 0.49265,0.17053 0.18259,0 0.35312,-0.0448 0.17226,-0.0448 0.34107,-0.13436 v 0.29973 q -0.17054,0.0724 -0.34968,0.11024 -0.17915,0.0379 -0.36346,0.0379 -0.46164,0 -0.73208,-0.26872 -0.26872,-0.26872 -0.26872,-0.72692 0,-0.4737 0.25494,-0.75103 0.25666,-0.27905 0.69074,-0.27905 0.3893,0 0.61495,0.25149 0.22738,0.24977 0.22738,0.68041 z m -0.31695,-0.093 q -0.003,-0.2601 -0.14642,-0.41513 -0.14125,-0.15503 -0.37552,-0.15503 -0.26527,0 -0.42547,0.14986 -0.15847,0.14986 -0.18259,0.42202 z"
         style="font-size:3.52778px;stroke-width:0.264583"
         id="path963" />
      <path
         d="m 104.12785,118.00159 q 0.11885,-0.2136 0.28422,-0.31523 0.16536,-0.10163 0.38929,-0.10163 0.30145,0 0.46509,0.21187 0.16364,0.21015 0.16364,0.59945 v 1.16444 h -0.31867 v -1.1541 q 0,-0.27733 -0.0982,-0.41169 -0.0982,-0.13436 -0.29973,-0.13436 -0.24632,0 -0.38929,0.16364 -0.14297,0.16364 -0.14297,0.44614 v 1.09037 h -0.31867 v -1.1541 q 0,-0.27906 -0.0982,-0.41169 -0.0982,-0.13436 -0.30317,-0.13436 -0.24288,0 -0.38585,0.16536 -0.14297,0.16364 -0.14297,0.44442 v 1.09037 h -0.31867 v -1.92925 h 0.31867 v 0.29972 q 0.10852,-0.17742 0.2601,-0.26183 0.15159,-0.0844 0.36002,-0.0844 0.21015,0 0.35656,0.1068 0.14814,0.1068 0.21877,0.31006 z"
         style="font-size:3.52778px;stroke-width:0.264583"
         id="path965" />
      <path
         d="m 107.71247,118.51663 v 0.15503 h -1.45727 q 0.0207,0.32728 0.19637,0.49954 0.17742,0.17053 0.49265,0.17053 0.18259,0 0.35312,-0.0448 0.17225,-0.0448 0.34106,-0.13436 v 0.29973 q -0.17053,0.0724 -0.34967,0.11024 -0.17915,0.0379 -0.36346,0.0379 -0.46165,0 -0.73209,-0.26872 -0.26871,-0.26872 -0.26871,-0.72692 0,-0.4737 0.25493,-0.75103 0.25666,-0.27905 0.69075,-0.27905 0.38929,0 0.61495,0.25149 0.22737,0.24977 0.22737,0.68041 z m -0.31695,-0.093 q -0.003,-0.2601 -0.14641,-0.41513 -0.14125,-0.15503 -0.37552,-0.15503 -0.26527,0 -0.42547,0.14986 -0.15847,0.14986 -0.18259,0.42202 z"
         style="font-size:3.52778px;stroke-width:0.264583"
         id="path967" />
      <path
         d="m 109.83638,118.39605 v 1.16444 h -0.31695 v -1.1541 q 0,-0.27389 -0.1068,-0.40997 -0.1068,-0.13608 -0.3204,-0.13608 -0.25666,0 -0.40479,0.16364 -0.14814,0.16364 -0.14814,0.44614 v 1.09037 h -0.31868 v -1.92925 h 0.31868 v 0.29972 q 0.11368,-0.17398 0.26699,-0.2601 0.15503,-0.0861 0.35657,-0.0861 0.33245,0 0.50298,0.20671 0.17054,0.20498 0.17054,0.60461 z"
         style="font-size:3.52778px;stroke-width:0.264583"
         id="path969" />
      <path
         d="m 110.78205,117.08347 v 0.54777 h 0.65285 v 0.24632 h -0.65285 v 1.04731 q 0,0.23599 0.0637,0.30317 0.0655,0.0672 0.26355,0.0672 h 0.32556 v 0.26527 h -0.32556 q -0.3669,0 -0.50643,-0.13608 -0.13953,-0.1378 -0.13953,-0.49954 v -1.04731 h -0.23254 v -0.24632 h 0.23254 v -0.54777 z"
         style="font-size:3.52778px;stroke-width:0.264583"
         id="path971" />
    </g>
    <g
       aria-label="Punishment"
       id="text849"
       style="font-size:4.9389px;line-height:1.25;font-family:sans-serif;-inkscape-font-specification:'sans-serif, Normal';stroke-width:0.264583">
      <path
         d="m 90.829952,137.86947 v 0.96635 h 0.437528 q 0.242879,0 0.375515,-0.12575 0.132637,-0.12575 0.132637,-0.35829 0,-0.23082 -0.132637,-0.35657 -0.132636,-0.12574 -0.375515,-0.12574 z m -0.347955,-0.28595 h 0.785483 q 0.432359,0 0.652846,0.19637 0.222208,0.19465 0.222208,0.57189 0,0.38068 -0.222208,0.57533 -0.220487,0.19465 -0.652846,0.19465 h -0.437528 v 1.03353 h -0.347955 z"
         style="font-size:3.52778px;stroke-width:0.264583"
         id="path974" />
      <path
         d="m 92.500825,139.39392 v -1.16789 h 0.316949 v 1.15583 q 0,0.27389 0.106798,0.41169 0.106798,0.13608 0.320394,0.13608 0.256659,0 0.404799,-0.16364 0.149861,-0.16364 0.149861,-0.44614 v -1.09382 h 0.316949 v 1.92926 h -0.316949 v -0.29628 q -0.11541,0.1757 -0.268717,0.26183 -0.151585,0.0844 -0.353123,0.0844 -0.332452,0 -0.504707,-0.2067 -0.172254,-0.20671 -0.172254,-0.60462 z"
         style="font-size:3.52778px;stroke-width:0.264583"
         id="path976" />
      <path
         d="m 96.373115,138.99085 v 1.16444 h -0.316949 v -1.15411 q 0,-0.27388 -0.106798,-0.40997 -0.106798,-0.13608 -0.320394,-0.13608 -0.25666,0 -0.404799,0.16365 -0.14814,0.16364 -0.14814,0.44614 v 1.09037 h -0.318671 v -1.92926 h 0.318671 v 0.29973 q 0.113689,-0.17398 0.266995,-0.26011 0.15503,-0.0861 0.356568,-0.0861 0.332452,0 0.502984,0.2067 0.170533,0.20498 0.170533,0.60462 z"
         style="font-size:3.52778px;stroke-width:0.264583"
         id="path978" />
      <path
         d="m 97.00529,138.22603 h 0.316949 v 1.92926 H 97.00529 Z m 0,-0.75103 h 0.316949 v 0.40136 H 97.00529 Z"
         style="font-size:3.52778px;stroke-width:0.264583"
         id="path980" />
      <path
         d="m 99.21532,138.28288 v 0.29972 q -0.134359,-0.0689 -0.279053,-0.10335 -0.144694,-0.0345 -0.299723,-0.0345 -0.235989,0 -0.354845,0.0723 -0.117134,0.0724 -0.117134,0.21705 0,0.11024 0.08441,0.17397 0.08441,0.062 0.339342,0.11886 l 0.108521,0.0241 q 0.33762,0.0724 0.478869,0.20499 0.142971,0.13091 0.142971,0.3669 0,0.26872 -0.213596,0.42547 -0.211873,0.15675 -0.583944,0.15675 -0.155029,0 -0.323839,-0.031 -0.167087,-0.0293 -0.353123,-0.0896 v -0.32728 q 0.1757,0.0913 0.346233,0.1378 0.170532,0.0448 0.337619,0.0448 0.223932,0 0.34451,-0.0758 0.120578,-0.0775 0.120578,-0.21704 0,-0.12919 -0.08785,-0.1981 -0.08613,-0.0689 -0.380683,-0.13263 l -0.110243,-0.0258 q -0.294556,-0.062 -0.42547,-0.18948 -0.130913,-0.12919 -0.130913,-0.35312 0,-0.27217 0.192925,-0.42031 0.192926,-0.14813 0.547771,-0.14813 0.1757,0 0.330729,0.0258 0.15503,0.0258 0.285943,0.0775 z"
         style="font-size:3.52778px;stroke-width:0.264583"
         id="path982" />
      <path
         d="m 101.42707,138.99085 v 1.16444 h -0.31695 v -1.15411 q 0,-0.27388 -0.10679,-0.40997 -0.1068,-0.13608 -0.3204,-0.13608 -0.25666,0 -0.4048,0.16365 -0.14814,0.16364 -0.14814,0.44614 v 1.09037 H 99.811322 V 137.475 h 0.318668 v 1.05076 q 0.11369,-0.17398 0.267,-0.26011 0.15503,-0.0861 0.35657,-0.0861 0.33245,0 0.50298,0.2067 0.17053,0.20498 0.17053,0.60462 z"
         style="font-size:3.52778px;stroke-width:0.264583"
         id="path984" />
      <path
         d="m 103.56131,138.59638 q 0.11886,-0.21359 0.28422,-0.31522 0.16537,-0.10163 0.3893,-0.10163 0.30144,0 0.46509,0.21187 0.16364,0.21015 0.16364,0.59945 v 1.16444 h -0.31867 v -1.15411 q 0,-0.27733 -0.0982,-0.41169 -0.0982,-0.13436 -0.29972,-0.13436 -0.24633,0 -0.3893,0.16365 -0.14297,0.16364 -0.14297,0.44614 v 1.09037 h -0.31867 v -1.15411 q 0,-0.27905 -0.0982,-0.41169 -0.0982,-0.13436 -0.30317,-0.13436 -0.24288,0 -0.38585,0.16537 -0.14297,0.16364 -0.14297,0.44442 v 1.09037 h -0.31867 v -1.92926 h 0.31867 v 0.29973 q 0.10852,-0.17743 0.26011,-0.26183 0.15158,-0.0844 0.36001,-0.0844 0.21015,0 0.35657,0.10679 0.14814,0.1068 0.21876,0.31006 z"
         style="font-size:3.52778px;stroke-width:0.264583"
         id="path986" />
      <path
         d="m 107.14594,139.11142 v 0.15503 h -1.45728 q 0.0207,0.32729 0.19637,0.49954 0.17742,0.17053 0.49265,0.17053 0.18259,0 0.35312,-0.0448 0.17226,-0.0448 0.34107,-0.13436 v 0.29972 q -0.17054,0.0724 -0.34968,0.11025 -0.17915,0.0379 -0.36346,0.0379 -0.46164,0 -0.73208,-0.26872 -0.26872,-0.26871 -0.26872,-0.72691 0,-0.4737 0.25494,-0.75103 0.25666,-0.27905 0.69074,-0.27905 0.38929,0 0.61495,0.25149 0.22738,0.24977 0.22738,0.6804 z m -0.31695,-0.093 q -0.003,-0.26011 -0.14642,-0.41514 -0.14125,-0.15503 -0.37552,-0.15503 -0.26527,0 -0.42547,0.14986 -0.15847,0.14987 -0.18259,0.42203 z"
         style="font-size:3.52778px;stroke-width:0.264583"
         id="path988" />
      <path
         d="m 109.26984,138.99085 v 1.16444 h -0.31695 v -1.15411 q 0,-0.27388 -0.1068,-0.40997 -0.1068,-0.13608 -0.32039,-0.13608 -0.25666,0 -0.4048,0.16365 -0.14814,0.16364 -0.14814,0.44614 v 1.09037 h -0.31867 v -1.92926 h 0.31867 v 0.29973 q 0.11369,-0.17398 0.26699,-0.26011 0.15503,-0.0861 0.35657,-0.0861 0.33245,0 0.50299,0.2067 0.17053,0.20498 0.17053,0.60462 z"
         style="font-size:3.52778px;stroke-width:0.264583"
         id="path990" />
      <path
         d="m 110.21552,137.67826 v 0.54777 h 0.65284 v 0.24633 h -0.65284 v 1.04731 q 0,0.23599 0.0637,0.30317 0.0655,0.0672 0.26355,0.0672 h 0.32556 v 0.26527 h -0.32556 q -0.3669,0 -0.50643,-0.13608 -0.13952,-0.13781 -0.13952,-0.49954 v -1.04731 h -0.23255 v -0.24633 h 0.23255 v -0.54777 z"
         style="font-size:3.52778px;stroke-width:0.264583"
         id="path992" />
    </g>
    <g
       aria-label="Positive"
       id="text853"
       style="font-size:4.9389px;line-height:1.25;font-family:sans-serif;-inkscape-font-specification:'sans-serif, Normal';stroke-width:0.264583">
      <path
         d="m 116.49916,101.87719 v 0.96635 h 0.43752 q 0.24288,0 0.37552,-0.12575 0.13264,-0.12574 0.13264,-0.35829 0,-0.23082 -0.13264,-0.35657 -0.13264,-0.12574 -0.37552,-0.12574 z m -0.34796,-0.28595 h 0.78548 q 0.43236,0 0.65285,0.19637 0.22221,0.19465 0.22221,0.57189 0,0.38068 -0.22221,0.57533 -0.22049,0.19465 -0.65285,0.19465 h -0.43752 v 1.03353 h -0.34796 z"
         style="font-size:3.52778px;stroke-width:0.264583"
         id="path995" />
      <path
         d="m 118.88661,102.45596 q -0.25494,0 -0.40308,0.19982 -0.14814,0.19809 -0.14814,0.54432 0,0.34624 0.14642,0.54605 0.14814,0.1981 0.4048,0.1981 0.25321,0 0.40135,-0.19982 0.14814,-0.19982 0.14814,-0.54433 0,-0.34278 -0.14814,-0.5426 -0.14814,-0.20154 -0.40135,-0.20154 z m 0,-0.26871 q 0.41341,0 0.6494,0.26871 0.23599,0.26872 0.23599,0.74414 0,0.47371 -0.23599,0.74415 -0.23599,0.26871 -0.6494,0.26871 -0.41513,0 -0.65112,-0.26871 -0.23427,-0.27044 -0.23427,-0.74415 0,-0.47542 0.23427,-0.74414 0.23599,-0.26871 0.65112,-0.26871 z"
         style="font-size:3.52778px;stroke-width:0.264583"
         id="path997" />
      <path
         d="m 121.52728,102.2906 v 0.29972 q -0.13436,-0.0689 -0.27906,-0.10335 -0.14469,-0.0344 -0.29972,-0.0344 -0.23599,0 -0.35484,0.0724 -0.11714,0.0723 -0.11714,0.21704 0,0.11024 0.0844,0.17397 0.0844,0.062 0.33934,0.11886 l 0.10852,0.0241 q 0.33762,0.0723 0.47887,0.20498 0.14297,0.13091 0.14297,0.3669 0,0.26872 -0.2136,0.42547 -0.21187,0.15675 -0.58394,0.15675 -0.15503,0 -0.32384,-0.031 -0.16709,-0.0293 -0.35312,-0.0896 v -0.32729 q 0.1757,0.0913 0.34623,0.1378 0.17053,0.0448 0.33762,0.0448 0.22393,0 0.34451,-0.0758 0.12058,-0.0775 0.12058,-0.21704 0,-0.12919 -0.0879,-0.1981 -0.0861,-0.0689 -0.38068,-0.13263 l -0.11025,-0.0258 q -0.29455,-0.062 -0.42547,-0.18948 -0.13091,-0.12919 -0.13091,-0.35312 0,-0.27217 0.19292,-0.4203 0.19293,-0.14814 0.54777,-0.14814 0.1757,0 0.33073,0.0258 0.15503,0.0258 0.28595,0.0775 z"
         style="font-size:3.52778px;stroke-width:0.264583"
         id="path999" />
      <path
         d="m 122.13534,102.23375 h 0.31695 v 1.92926 h -0.31695 z m 0,-0.75103 h 0.31695 v 0.40136 h -0.31695 z"
         style="font-size:3.52778px;stroke-width:0.264583"
         id="path1001" />
      <path
         d="m 123.42897,101.68598 v 0.54777 h 0.65285 v 0.24633 h -0.65285 v 1.04731 q 0,0.23599 0.0637,0.30317 0.0654,0.0672 0.26355,0.0672 h 0.32556 v 0.26527 h -0.32556 q -0.36691,0 -0.50643,-0.13608 -0.13953,-0.13781 -0.13953,-0.49954 v -1.04731 h -0.23254 v -0.24633 h 0.23254 v -0.54777 z"
         style="font-size:3.52778px;stroke-width:0.264583"
         id="path1003" />
      <path
         d="m 124.49867,102.23375 h 0.31695 v 1.92926 h -0.31695 z m 0,-0.75103 h 0.31695 v 0.40136 h -0.31695 z"
         style="font-size:3.52778px;stroke-width:0.264583"
         id="path1005" />
      <path
         d="m 125.25143,102.23375 h 0.3359 l 0.60289,1.6192 0.60289,-1.6192 h 0.3359 l -0.72347,1.92926 h -0.43064 z"
         style="font-size:3.52778px;stroke-width:0.264583"
         id="path1007" />
      <path
         d="m 129.21674,103.11915 v 0.15502 h -1.45728 q 0.0207,0.32729 0.19637,0.49954 0.17742,0.17054 0.49265,0.17054 0.18259,0 0.35312,-0.0448 0.17226,-0.0448 0.34107,-0.13436 v 0.29972 q -0.17054,0.0724 -0.34968,0.11025 -0.17915,0.0379 -0.36346,0.0379 -0.46164,0 -0.73208,-0.26871 -0.26872,-0.26872 -0.26872,-0.72692 0,-0.4737 0.25494,-0.75103 0.25666,-0.27905 0.69074,-0.27905 0.38929,0 0.61495,0.25149 0.22738,0.24977 0.22738,0.68041 z m -0.31695,-0.093 q -0.003,-0.26011 -0.14642,-0.41514 -0.14125,-0.15503 -0.37552,-0.15503 -0.26527,0 -0.42547,0.14987 -0.15847,0.14986 -0.18259,0.42202 z"
         style="font-size:3.52778px;stroke-width:0.264583"
         id="path1009" />
    </g>
    <g
       aria-label="Negative"
       id="text857"
       style="font-size:4.9389px;line-height:1.25;font-family:sans-serif;-inkscape-font-specification:'sans-serif, Normal';stroke-width:0.264583">
      <path
         d="m 135.82614,101.18332 h 0.46853 l 1.14033,2.15147 v -2.15147 h 0.33762 v 2.57177 h -0.46854 l -1.14032,-2.15146 v 2.15146 h -0.33762 z"
         style="font-size:3.52778px;stroke-width:0.264583"
         id="path1012" />
      <path
         d="m 140.1015,102.71122 v 0.15503 h -1.45727 q 0.0207,0.32729 0.19637,0.49954 0.17742,0.17054 0.49265,0.17054 0.18259,0 0.35312,-0.0448 0.17225,-0.0448 0.34106,-0.13436 v 0.29972 q -0.17053,0.0724 -0.34967,0.11025 -0.17915,0.0379 -0.36346,0.0379 -0.46165,0 -0.73209,-0.26871 -0.26871,-0.26872 -0.26871,-0.72692 0,-0.4737 0.25493,-0.75103 0.25666,-0.27905 0.69075,-0.27905 0.38929,0 0.61495,0.25149 0.22737,0.24977 0.22737,0.6804 z m -0.31695,-0.093 q -0.003,-0.26011 -0.14641,-0.41514 -0.14125,-0.15503 -0.37552,-0.15503 -0.26527,0 -0.42547,0.14986 -0.15847,0.14987 -0.18259,0.42203 z"
         style="font-size:3.52778px;stroke-width:0.264583"
         id="path1014" />
      <path
         d="m 141.89123,102.76807 q 0,-0.34451 -0.14297,-0.53399 -0.14125,-0.18948 -0.39791,-0.18948 -0.25494,0 -0.39791,0.18948 -0.14125,0.18948 -0.14125,0.53399 0,0.34279 0.14125,0.53227 0.14297,0.18948 0.39791,0.18948 0.25666,0 0.39791,-0.18948 0.14297,-0.18948 0.14297,-0.53227 z m 0.31695,0.74758 q 0,0.49265 -0.21876,0.73209 -0.21877,0.24115 -0.67007,0.24115 -0.16709,0 -0.31523,-0.0258 -0.14814,-0.0241 -0.28767,-0.0758 v -0.30833 q 0.13953,0.0758 0.27561,0.11196 0.13608,0.0362 0.27733,0.0362 0.31178,0 0.46681,-0.16364 0.15503,-0.16192 0.15503,-0.49093 v -0.15675 q -0.0982,0.17053 -0.25149,0.25493 -0.15331,0.0844 -0.3669,0.0844 -0.35485,0 -0.57189,-0.27044 -0.21704,-0.27044 -0.21704,-0.71658 0,-0.44786 0.21704,-0.7183 0.21704,-0.27044 0.57189,-0.27044 0.21359,0 0.3669,0.0844 0.15331,0.0844 0.25149,0.25494 v -0.29284 h 0.31695 z"
         style="font-size:3.52778px;stroke-width:0.264583"
         id="path1016" />
      <path
         d="m 143.7378,102.78529 q -0.38413,0 -0.53226,0.0879 -0.14814,0.0878 -0.14814,0.29973 0,0.16881 0.11024,0.26871 0.11197,0.0982 0.30317,0.0982 0.26355,0 0.42202,-0.18604 0.1602,-0.18775 0.1602,-0.49781 v -0.0706 z m 0.63218,-0.13091 v 1.10071 h -0.31695 v -0.29283 q -0.10852,0.1757 -0.27044,0.2601 -0.16192,0.0827 -0.39619,0.0827 -0.29628,0 -0.47198,-0.16536 -0.17397,-0.16709 -0.17397,-0.44614 0,-0.32556 0.21704,-0.49093 0.21876,-0.16536 0.65112,-0.16536 h 0.44442 v -0.031 q 0,-0.21876 -0.14469,-0.33762 -0.14298,-0.12058 -0.40308,-0.12058 -0.16537,0 -0.32212,0.0396 -0.15675,0.0396 -0.30144,0.11886 v -0.29284 q 0.17397,-0.0672 0.33762,-0.0999 0.16364,-0.0344 0.31867,-0.0344 0.41858,0 0.62528,0.21704 0.20671,0.21704 0.20671,0.65801 z"
         style="font-size:3.52778px;stroke-width:0.264583"
         id="path1018" />
      <path
         d="m 145.33633,101.27806 v 0.54777 h 0.65284 v 0.24633 h -0.65284 v 1.04731 q 0,0.23599 0.0637,0.30317 0.0655,0.0672 0.26355,0.0672 h 0.32556 v 0.26527 h -0.32556 q -0.3669,0 -0.50643,-0.13608 -0.13952,-0.13781 -0.13952,-0.49954 v -1.04731 h -0.23255 v -0.24633 h 0.23255 v -0.54777 z"
         style="font-size:3.52778px;stroke-width:0.264583"
         id="path1020" />
      <path
         d="m 146.40603,101.82583 h 0.31695 v 1.92926 h -0.31695 z m 0,-0.75103 h 0.31695 v 0.40136 h -0.31695 z"
         style="font-size:3.52778px;stroke-width:0.264583"
         id="path1022" />
      <path
         d="m 147.15879,101.82583 h 0.33589 l 0.60289,1.6192 0.6029,-1.6192 h 0.33589 l -0.72347,1.92926 h -0.43063 z"
         style="font-size:3.52778px;stroke-width:0.264583"
         id="path1024" />
      <path
         d="m 151.12409,102.71122 v 0.15503 h -1.45727 q 0.0207,0.32729 0.19637,0.49954 0.17742,0.17054 0.49265,0.17054 0.18259,0 0.35312,-0.0448 0.17225,-0.0448 0.34106,-0.13436 v 0.29972 q -0.17053,0.0724 -0.34967,0.11025 -0.17915,0.0379 -0.36346,0.0379 -0.46164,0 -0.73208,-0.26871 -0.26872,-0.26872 -0.26872,-0.72692 0,-0.4737 0.25493,-0.75103 0.25666,-0.27905 0.69075,-0.27905 0.38929,0 0.61495,0.25149 0.22737,0.24977 0.22737,0.6804 z m -0.31695,-0.093 q -0.003,-0.26011 -0.14641,-0.41514 -0.14125,-0.15503 -0.37552,-0.15503 -0.26527,0 -0.42547,0.14986 -0.15847,0.14987 -0.18259,0.42203 z"
         style="font-size:3.52778px;stroke-width:0.264583"
         id="path1026" />
    </g>
    <g
       aria-label="Give
Something
Good"
       id="text879"
       style="font-size:3.52778px;line-height:1.25;font-family:sans-serif;-inkscape-font-specification:'sans-serif, Normal';stroke-width:0.264583">
      <path
         d="m 115.79797,113.78588 v -0.69074 h -0.56844 v -0.28594 h 0.91295 v 1.10415 q -0.20154,0.14297 -0.44442,0.21704 -0.24288,0.0724 -0.51849,0.0724 -0.60289,0 -0.94395,-0.3514 -0.33935,-0.35312 -0.33935,-0.98185 0,-0.63046 0.33935,-0.98186 0.34106,-0.35312 0.94395,-0.35312 0.2515,0 0.47715,0.062 0.22738,0.062 0.41858,0.18259 v 0.37035 q -0.19293,-0.16364 -0.40997,-0.24632 -0.21704,-0.0827 -0.45647,-0.0827 -0.47198,0 -0.70969,0.26355 -0.23599,0.26355 -0.23599,0.78548 0,0.52021 0.23599,0.78376 0.23771,0.26355 0.70969,0.26355 0.18431,0 0.329,-0.031 0.1447,-0.0327 0.26011,-0.0999 z"
         style="font-size:3.52778px;stroke-width:0.264583"
         id="path1029" />
      <path
         d="m 116.76432,112.22353 h 0.31695 v 1.92926 h -0.31695 z m 0,-0.75103 h 0.31695 v 0.40135 h -0.31695 z"
         style="font-size:3.52778px;stroke-width:0.264583"
         id="path1031" />
      <path
         d="m 117.51707,112.22353 h 0.3359 l 0.60289,1.6192 0.60289,-1.6192 h 0.3359 l -0.72347,1.92926 h -0.43064 z"
         style="font-size:3.52778px;stroke-width:0.264583"
         id="path1033" />
      <path
         d="m 121.48238,113.10892 v 0.15503 h -1.45728 q 0.0207,0.32729 0.19637,0.49954 0.17743,0.17053 0.49265,0.17053 0.18259,0 0.35313,-0.0448 0.17225,-0.0448 0.34106,-0.13436 v 0.29972 q -0.17053,0.0724 -0.34968,0.11024 -0.17914,0.0379 -0.36346,0.0379 -0.46164,0 -0.73208,-0.26872 -0.26872,-0.26872 -0.26872,-0.72691 0,-0.4737 0.25494,-0.75103 0.25666,-0.27906 0.69074,-0.27906 0.3893,0 0.61495,0.25149 0.22738,0.24977 0.22738,0.68041 z m -0.31695,-0.093 q -0.003,-0.2601 -0.14642,-0.41513 -0.14125,-0.15503 -0.37551,-0.15503 -0.26527,0 -0.42547,0.14986 -0.15848,0.14986 -0.18259,0.42203 z"
         style="font-size:3.52778px;stroke-width:0.264583"
         id="path1035" />
      <path
         d="m 115.58609,116.07515 v 0.33934 q -0.19809,-0.0947 -0.37379,-0.14125 -0.1757,-0.0465 -0.33934,-0.0465 -0.28422,0 -0.43925,0.11024 -0.15331,0.11024 -0.15331,0.3135 0,0.17053 0.10163,0.25838 0.10336,0.0861 0.3893,0.13953 l 0.21015,0.0431 q 0.3893,0.0741 0.57361,0.26183 0.18603,0.18604 0.18603,0.49954 0,0.37379 -0.25149,0.56672 -0.24977,0.19293 -0.7338,0.19293 -0.18259,0 -0.3893,-0.0414 -0.20498,-0.0413 -0.42547,-0.1223 v -0.35829 q 0.21187,0.11886 0.41513,0.17915 0.20327,0.0603 0.39964,0.0603 0.298,0 0.45992,-0.11714 0.16192,-0.11713 0.16192,-0.33417 0,-0.18948 -0.11714,-0.29628 -0.11541,-0.1068 -0.38068,-0.1602 l -0.21187,-0.0413 q -0.3893,-0.0775 -0.56328,-0.24288 -0.17397,-0.16536 -0.17397,-0.45992 0,-0.34106 0.23943,-0.53743 0.24116,-0.19637 0.66318,-0.19637 0.18087,0 0.36863,0.0327 0.18775,0.0327 0.38412,0.0982 z"
         style="font-size:3.52778px;stroke-width:0.264583"
         id="path1037" />
      <path
         d="m 117.01753,116.85547 q -0.25493,0 -0.40307,0.19981 -0.14814,0.19809 -0.14814,0.54433 0,0.34623 0.14641,0.54604 0.14814,0.1981 0.4048,0.1981 0.25322,0 0.40136,-0.19982 0.14814,-0.19981 0.14814,-0.54432 0,-0.34279 -0.14814,-0.54261 -0.14814,-0.20153 -0.40136,-0.20153 z m 0,-0.26872 q 0.41341,0 0.6494,0.26872 0.23599,0.26871 0.23599,0.74414 0,0.4737 -0.23599,0.74414 -0.23599,0.26872 -0.6494,0.26872 -0.41513,0 -0.65112,-0.26872 -0.23427,-0.27044 -0.23427,-0.74414 0,-0.47543 0.23427,-0.74414 0.23599,-0.26872 0.65112,-0.26872 z"
         style="font-size:3.52778px;stroke-width:0.264583"
         id="path1039" />
      <path
         d="m 119.93036,117.0036 q 0.11886,-0.21359 0.28422,-0.31522 0.16537,-0.10163 0.3893,-0.10163 0.30145,0 0.46509,0.21187 0.16364,0.21015 0.16364,0.59945 v 1.16444 h -0.31867 v -1.15411 q 0,-0.27733 -0.0982,-0.41169 -0.0982,-0.13435 -0.29972,-0.13435 -0.24632,0 -0.3893,0.16364 -0.14297,0.16364 -0.14297,0.44614 v 1.09037 h -0.31867 v -1.15411 q 0,-0.27905 -0.0982,-0.41169 -0.0982,-0.13435 -0.30317,-0.13435 -0.24288,0 -0.38585,0.16536 -0.14298,0.16364 -0.14298,0.44442 v 1.09037 h -0.31867 v -1.92925 h 0.31867 v 0.29972 q 0.10852,-0.17742 0.26011,-0.26183 0.15158,-0.0844 0.36001,-0.0844 0.21015,0 0.35657,0.1068 0.14814,0.10679 0.21876,0.31005 z"
         style="font-size:3.52778px;stroke-width:0.264583"
         id="path1041" />
      <path
         d="m 123.51499,117.51865 v 0.15503 h -1.45728 q 0.0207,0.32728 0.19637,0.49954 0.17742,0.17053 0.49265,0.17053 0.18259,0 0.35312,-0.0448 0.17226,-0.0448 0.34107,-0.13436 v 0.29973 q -0.17053,0.0723 -0.34968,0.11024 -0.17914,0.0379 -0.36346,0.0379 -0.46164,0 -0.73208,-0.26872 -0.26872,-0.26872 -0.26872,-0.72692 0,-0.4737 0.25494,-0.75103 0.25666,-0.27905 0.69074,-0.27905 0.3893,0 0.61495,0.25149 0.22738,0.24977 0.22738,0.68041 z m -0.31695,-0.093 q -0.003,-0.26011 -0.14642,-0.41514 -0.14125,-0.15502 -0.37551,-0.15502 -0.26528,0 -0.42547,0.14986 -0.15848,0.14986 -0.18259,0.42202 z"
         style="font-size:3.52778px;stroke-width:0.264583"
         id="path1043" />
      <path
         d="m 124.3487,116.08549 v 0.54777 h 0.65285 v 0.24632 h -0.65285 v 1.04731 q 0,0.23599 0.0637,0.30317 0.0654,0.0672 0.26355,0.0672 h 0.32556 v 0.26527 h -0.32556 q -0.36691,0 -0.50643,-0.13608 -0.13953,-0.1378 -0.13953,-0.49954 v -1.04731 h -0.23254 v -0.24632 h 0.23254 v -0.54777 z"
         style="font-size:3.52778px;stroke-width:0.264583"
         id="path1045" />
      <path
         d="m 127.0221,117.39807 v 1.16444 h -0.31695 v -1.15411 q 0,-0.27388 -0.1068,-0.40996 -0.1068,-0.13608 -0.32039,-0.13608 -0.25666,0 -0.4048,0.16364 -0.14814,0.16364 -0.14814,0.44614 v 1.09037 h -0.31867 v -2.68028 h 0.31867 v 1.05075 q 0.11369,-0.17398 0.26699,-0.2601 0.15503,-0.0861 0.35657,-0.0861 0.33245,0 0.50298,0.2067 0.17054,0.20499 0.17054,0.60462 z"
         style="font-size:3.52778px;stroke-width:0.264583"
         id="path1047" />
      <path
         d="m 127.65427,116.63326 h 0.31695 v 1.92925 h -0.31695 z m 0,-0.75103 h 0.31695 v 0.40135 h -0.31695 z"
         style="font-size:3.52778px;stroke-width:0.264583"
         id="path1049" />
      <path
         d="m 130.2381,117.39807 v 1.16444 h -0.31695 v -1.15411 q 0,-0.27388 -0.1068,-0.40996 -0.1068,-0.13608 -0.3204,-0.13608 -0.25666,0 -0.40479,0.16364 -0.14814,0.16364 -0.14814,0.44614 v 1.09037 h -0.31868 v -1.92925 h 0.31868 v 0.29972 q 0.11368,-0.17398 0.26699,-0.2601 0.15503,-0.0861 0.35657,-0.0861 0.33245,0 0.50298,0.2067 0.17054,0.20499 0.17054,0.60462 z"
         style="font-size:3.52778px;stroke-width:0.264583"
         id="path1051" />
      <path
         d="m 132.13979,117.57549 q 0,-0.34451 -0.14297,-0.53399 -0.14125,-0.18948 -0.39791,-0.18948 -0.25494,0 -0.39791,0.18948 -0.14125,0.18948 -0.14125,0.53399 0,0.34279 0.14125,0.53227 0.14297,0.18948 0.39791,0.18948 0.25666,0 0.39791,-0.18948 0.14297,-0.18948 0.14297,-0.53227 z m 0.31695,0.74759 q 0,0.49265 -0.21877,0.73208 -0.21876,0.24116 -0.67007,0.24116 -0.16708,0 -0.31522,-0.0258 -0.14814,-0.0241 -0.28767,-0.0758 v -0.30834 q 0.13953,0.0758 0.27561,0.11197 0.13608,0.0362 0.27733,0.0362 0.31178,0 0.46681,-0.16364 0.15503,-0.16192 0.15503,-0.49093 v -0.15675 q -0.0982,0.17053 -0.25149,0.25494 -0.15331,0.0844 -0.36691,0.0844 -0.35484,0 -0.57188,-0.27044 -0.21704,-0.27044 -0.21704,-0.71658 0,-0.44786 0.21704,-0.7183 0.21704,-0.27044 0.57188,-0.27044 0.2136,0 0.36691,0.0844 0.1533,0.0844 0.25149,0.25494 v -0.29283 h 0.31695 z"
         style="font-size:3.52778px;stroke-width:0.264583"
         id="path1053" />
      <path
         d="m 115.79797,122.60533 v -0.69074 h -0.56844 v -0.28594 h 0.91295 v 1.10415 q -0.20154,0.14297 -0.44442,0.21704 -0.24288,0.0724 -0.51849,0.0724 -0.60289,0 -0.94395,-0.3514 -0.33935,-0.35312 -0.33935,-0.98185 0,-0.63046 0.33935,-0.98186 0.34106,-0.35312 0.94395,-0.35312 0.2515,0 0.47715,0.062 0.22738,0.062 0.41858,0.18259 v 0.37035 q -0.19293,-0.16364 -0.40997,-0.24632 -0.21704,-0.0827 -0.45647,-0.0827 -0.47198,0 -0.70969,0.26355 -0.23599,0.26355 -0.23599,0.78548 0,0.52021 0.23599,0.78376 0.23771,0.26355 0.70969,0.26355 0.18431,0 0.329,-0.031 0.1447,-0.0327 0.26011,-0.0999 z"
         style="font-size:3.52778px;stroke-width:0.264583"
         id="path1055" />
      <path
         d="m 117.5119,121.26519 q -0.25493,0 -0.40307,0.19982 -0.14814,0.19809 -0.14814,0.54432 0,0.34623 0.14642,0.54605 0.14813,0.19809 0.40479,0.19809 0.25322,0 0.40136,-0.19981 0.14814,-0.19982 0.14814,-0.54433 0,-0.34279 -0.14814,-0.5426 -0.14814,-0.20154 -0.40136,-0.20154 z m 0,-0.26872 q 0.41342,0 0.64941,0.26872 0.23598,0.26872 0.23598,0.74414 0,0.4737 -0.23598,0.74414 -0.23599,0.26872 -0.64941,0.26872 -0.41513,0 -0.65112,-0.26872 -0.23427,-0.27044 -0.23427,-0.74414 0,-0.47542 0.23427,-0.74414 0.23599,-0.26872 0.65112,-0.26872 z"
         style="font-size:3.52778px;stroke-width:0.264583"
         id="path1057" />
      <path
         d="m 119.67026,121.26519 q -0.25494,0 -0.40308,0.19982 -0.14814,0.19809 -0.14814,0.54432 0,0.34623 0.14642,0.54605 0.14814,0.19809 0.4048,0.19809 0.25321,0 0.40135,-0.19981 0.14814,-0.19982 0.14814,-0.54433 0,-0.34279 -0.14814,-0.5426 -0.14814,-0.20154 -0.40135,-0.20154 z m 0,-0.26872 q 0.41341,0 0.6494,0.26872 0.23599,0.26872 0.23599,0.74414 0,0.4737 -0.23599,0.74414 -0.23599,0.26872 -0.6494,0.26872 -0.41514,0 -0.65113,-0.26872 -0.23426,-0.27044 -0.23426,-0.74414 0,-0.47542 0.23426,-0.74414 0.23599,-0.26872 0.65113,-0.26872 z"
         style="font-size:3.52778px;stroke-width:0.264583"
         id="path1059" />
      <path
         d="m 122.35054,121.33581 v -1.04386 h 0.31695 v 2.68029 h -0.31695 v -0.28939 q -0.0999,0.17225 -0.25321,0.25666 -0.15158,0.0827 -0.36518,0.0827 -0.34968,0 -0.57016,-0.27905 -0.21877,-0.27906 -0.21877,-0.73381 0,-0.45475 0.21877,-0.7338 0.22048,-0.27906 0.57016,-0.27906 0.2136,0 0.36518,0.0844 0.15331,0.0827 0.25321,0.25493 z m -1.08003,0.67352 q 0,0.34968 0.14297,0.54949 0.14469,0.1981 0.39618,0.1981 0.2515,0 0.39619,-0.1981 0.14469,-0.19981 0.14469,-0.54949 0,-0.34968 -0.14469,-0.54777 -0.14469,-0.19981 -0.39619,-0.19981 -0.25149,0 -0.39618,0.19981 -0.14297,0.19809 -0.14297,0.54777 z"
         style="font-size:3.52778px;stroke-width:0.264583"
         id="path1061" />
    </g>
    <g
       aria-label="Take Away
Something
Bad"
       id="text887"
       style="font-size:4.9389px;line-height:1.25;font-family:sans-serif;-inkscape-font-specification:'sans-serif, Normal';stroke-width:0.264583">
      <path
         d="m 133.64236,109.74945 h 2.17558 v 0.29283 h -0.91295 v 2.27893 h -0.34968 v -2.27893 h -0.91295 z"
         style="font-size:3.52778px;stroke-width:0.264583"
         id="path1064" />
      <path
         d="m 136.43289,111.35142 q -0.38413,0 -0.53227,0.0878 -0.14814,0.0879 -0.14814,0.29972 0,0.16881 0.11024,0.26872 0.11197,0.0982 0.30317,0.0982 0.26355,0 0.42203,-0.18603 0.1602,-0.18776 0.1602,-0.49782 v -0.0706 z m 0.63217,-0.13092 v 1.10071 h -0.31694 v -0.29283 q -0.10853,0.1757 -0.27045,0.2601 -0.16191,0.0827 -0.39618,0.0827 -0.29628,0 -0.47198,-0.16537 -0.17398,-0.16709 -0.17398,-0.44614 0,-0.32556 0.21704,-0.49092 0.21877,-0.16537 0.65113,-0.16537 h 0.44442 v -0.031 q 0,-0.21876 -0.1447,-0.33761 -0.14297,-0.12058 -0.40308,-0.12058 -0.16536,0 -0.32211,0.0396 -0.15675,0.0396 -0.30145,0.11885 v -0.29283 q 0.17398,-0.0672 0.33762,-0.0999 0.16364,-0.0345 0.31867,-0.0345 0.41858,0 0.62529,0.21704 0.2067,0.21704 0.2067,0.65801 z"
         style="font-size:3.52778px;stroke-width:0.264583"
         id="path1066" />
      <path
         d="m 137.70585,109.64093 h 0.31867 v 1.58302 l 0.94568,-0.83199 h 0.4048 l -1.02319,0.90261 1.06626,1.02664 h -0.41342 l -0.98013,-0.94223 v 0.94223 h -0.31867 z"
         style="font-size:3.52778px;stroke-width:0.264583"
         id="path1068" />
      <path
         d="m 141.28531,111.27735 v 0.15503 h -1.45728 q 0.0207,0.32728 0.19637,0.49954 0.17743,0.17053 0.49265,0.17053 0.18259,0 0.35312,-0.0448 0.17226,-0.0448 0.34107,-0.13436 v 0.29973 q -0.17053,0.0723 -0.34968,0.11024 -0.17914,0.0379 -0.36346,0.0379 -0.46164,0 -0.73208,-0.26872 -0.26872,-0.26872 -0.26872,-0.72692 0,-0.4737 0.25494,-0.75103 0.25666,-0.27905 0.69074,-0.27905 0.3893,0 0.61495,0.25149 0.22738,0.24977 0.22738,0.68041 z m -0.31695,-0.093 q -0.003,-0.2601 -0.14642,-0.41513 -0.14125,-0.15503 -0.37551,-0.15503 -0.26527,0 -0.42547,0.14986 -0.15848,0.14986 -0.18259,0.42202 z"
         style="font-size:3.52778px;stroke-width:0.264583"
         id="path1070" />
      <path
         d="m 143.80023,110.09223 -0.47198,1.27986 h 0.94568 z m -0.19637,-0.34278 h 0.39446 l 0.98013,2.57176 h -0.36173 l -0.23427,-0.65973 h -1.15927 l -0.23427,0.65973 h -0.3669 z"
         style="font-size:3.52778px;stroke-width:0.264583"
         id="path1072" />
      <path
         d="m 145.0129,110.39196 h 0.31695 l 0.39619,1.50551 0.39446,-1.50551 h 0.3738 l 0.39618,1.50551 0.39447,-1.50551 h 0.31695 l -0.50471,1.92925 h -0.37379 l -0.41514,-1.5813 -0.41686,1.5813 h -0.37379 z"
         style="font-size:3.52778px;stroke-width:0.264583"
         id="path1074" />
      <path
         d="m 148.95926,111.35142 q -0.38412,0 -0.53226,0.0878 -0.14814,0.0879 -0.14814,0.29972 0,0.16881 0.11024,0.26872 0.11197,0.0982 0.30317,0.0982 0.26355,0 0.42202,-0.18603 0.1602,-0.18776 0.1602,-0.49782 v -0.0706 z m 0.63218,-0.13092 v 1.10071 h -0.31695 v -0.29283 q -0.10852,0.1757 -0.27044,0.2601 -0.16192,0.0827 -0.39619,0.0827 -0.29627,0 -0.47197,-0.16537 -0.17398,-0.16709 -0.17398,-0.44614 0,-0.32556 0.21704,-0.49092 0.21876,-0.16537 0.65112,-0.16537 h 0.44442 v -0.031 q 0,-0.21876 -0.14469,-0.33761 -0.14298,-0.12058 -0.40308,-0.12058 -0.16537,0 -0.32212,0.0396 -0.15675,0.0396 -0.30144,0.11885 v -0.29283 q 0.17397,-0.0672 0.33762,-0.0999 0.16364,-0.0345 0.31867,-0.0345 0.41858,0 0.62528,0.21704 0.20671,0.21704 0.20671,0.65801 z"
         style="font-size:3.52778px;stroke-width:0.264583"
         id="path1076" />
      <path
         d="m 151.04699,112.50036 q -0.13436,0.34451 -0.26182,0.44958 -0.12747,0.10508 -0.34107,0.10508 h -0.25321 v -0.26527 h 0.18603 q 0.13091,0 0.20326,-0.062 0.0724,-0.062 0.1602,-0.29283 l 0.0568,-0.14469 -0.78031,-1.89825 h 0.3359 l 0.60289,1.50895 0.60289,-1.50895 h 0.3359 z"
         style="font-size:3.52778px;stroke-width:0.264583"
         id="path1078" />
      <path
         d="m 135.54061,116.00748 v 0.33934 q -0.19809,-0.0947 -0.37379,-0.14125 -0.1757,-0.0465 -0.33935,-0.0465 -0.28422,0 -0.43925,0.11024 -0.1533,0.11025 -0.1533,0.31351 0,0.17053 0.10163,0.25838 0.10335,0.0861 0.38929,0.13953 l 0.21015,0.0431 q 0.3893,0.0741 0.57361,0.26183 0.18604,0.18603 0.18604,0.49954 0,0.37379 -0.25149,0.56672 -0.24977,0.19292 -0.73381,0.19292 -0.18259,0 -0.3893,-0.0413 -0.20498,-0.0413 -0.42547,-0.1223 v -0.35829 q 0.21188,0.11886 0.41514,0.17914 0.20326,0.0603 0.39963,0.0603 0.298,0 0.45992,-0.11713 0.16192,-0.11713 0.16192,-0.33417 0,-0.18948 -0.11713,-0.29628 -0.11541,-0.1068 -0.38069,-0.1602 l -0.21187,-0.0413 q -0.3893,-0.0775 -0.56327,-0.24288 -0.17398,-0.16536 -0.17398,-0.45992 0,-0.34107 0.23943,-0.53744 0.24116,-0.19637 0.66318,-0.19637 0.18087,0 0.36863,0.0327 0.18776,0.0327 0.38413,0.0982 z"
         style="font-size:3.52778px;stroke-width:0.264583"
         id="path1080" />
      <path
         d="m 136.97205,116.78779 q -0.25494,0 -0.40308,0.19982 -0.14814,0.19809 -0.14814,0.54432 0,0.34624 0.14642,0.54605 0.14814,0.19809 0.4048,0.19809 0.25321,0 0.40135,-0.19981 0.14814,-0.19982 0.14814,-0.54433 0,-0.34278 -0.14814,-0.5426 -0.14814,-0.20154 -0.40135,-0.20154 z m 0,-0.26872 q 0.41341,0 0.6494,0.26872 0.23599,0.26872 0.23599,0.74414 0,0.4737 -0.23599,0.74414 -0.23599,0.26872 -0.6494,0.26872 -0.41514,0 -0.65113,-0.26872 -0.23426,-0.27044 -0.23426,-0.74414 0,-0.47542 0.23426,-0.74414 0.23599,-0.26872 0.65113,-0.26872 z"
         style="font-size:3.52778px;stroke-width:0.264583"
         id="path1082" />
      <path
         d="m 139.88488,116.93593 q 0.11885,-0.2136 0.28422,-0.31523 0.16536,-0.10163 0.38929,-0.10163 0.30145,0 0.46509,0.21188 0.16364,0.21015 0.16364,0.59944 v 1.16445 h -0.31867 v -1.15411 q 0,-0.27733 -0.0982,-0.41169 -0.0982,-0.13436 -0.29973,-0.13436 -0.24632,0 -0.38929,0.16364 -0.14297,0.16365 -0.14297,0.44614 v 1.09038 h -0.31868 v -1.15411 q 0,-0.27905 -0.0982,-0.41169 -0.0982,-0.13436 -0.30317,-0.13436 -0.24288,0 -0.38585,0.16537 -0.14297,0.16364 -0.14297,0.44441 v 1.09038 h -0.31867 v -1.92926 h 0.31867 v 0.29973 q 0.10852,-0.17743 0.2601,-0.26183 0.15159,-0.0844 0.36002,-0.0844 0.21015,0 0.35656,0.1068 0.14814,0.1068 0.21877,0.31006 z"
         style="font-size:3.52778px;stroke-width:0.264583"
         id="path1084" />
      <path
         d="m 143.4695,117.45097 v 0.15503 h -1.45728 q 0.0207,0.32729 0.19637,0.49954 0.17743,0.17053 0.49265,0.17053 0.18259,0 0.35313,-0.0448 0.17225,-0.0448 0.34106,-0.13436 v 0.29972 q -0.17053,0.0724 -0.34968,0.11025 -0.17914,0.0379 -0.36345,0.0379 -0.46165,0 -0.73209,-0.26872 -0.26872,-0.26871 -0.26872,-0.72691 0,-0.4737 0.25494,-0.75103 0.25666,-0.27906 0.69074,-0.27906 0.3893,0 0.61495,0.2515 0.22738,0.24977 0.22738,0.6804 z m -0.31695,-0.093 q -0.003,-0.26011 -0.14641,-0.41514 -0.14125,-0.15503 -0.37552,-0.15503 -0.26527,0 -0.42547,0.14986 -0.15847,0.14987 -0.18259,0.42203 z"
         style="font-size:3.52778px;stroke-width:0.264583"
         id="path1086" />
      <path
         d="m 144.30321,116.01781 v 0.54777 h 0.65285 v 0.24633 h -0.65285 v 1.04731 q 0,0.23599 0.0637,0.30317 0.0655,0.0672 0.26355,0.0672 h 0.32556 v 0.26527 h -0.32556 q -0.3669,0 -0.50643,-0.13608 -0.13953,-0.13781 -0.13953,-0.49954 v -1.04731 H 143.752 v -0.24633 h 0.23254 v -0.54777 z"
         style="font-size:3.52778px;stroke-width:0.264583"
         id="path1088" />
      <path
         d="m 146.97661,117.33039 v 1.16445 h -0.31695 v -1.15411 q 0,-0.27389 -0.1068,-0.40997 -0.10679,-0.13608 -0.32039,-0.13608 -0.25666,0 -0.4048,0.16364 -0.14814,0.16365 -0.14814,0.44614 v 1.09038 h -0.31867 v -2.68029 h 0.31867 v 1.05076 q 0.11369,-0.17398 0.267,-0.26011 0.15503,-0.0861 0.35656,-0.0861 0.33246,0 0.50299,0.20671 0.17053,0.20498 0.17053,0.60461 z"
         style="font-size:3.52778px;stroke-width:0.264583"
         id="path1090" />
      <path
         d="m 147.60879,116.56558 h 0.31694 v 1.92926 h -0.31694 z m 0,-0.75103 h 0.31694 v 0.40136 h -0.31694 z"
         style="font-size:3.52778px;stroke-width:0.264583"
         id="path1092" />
      <path
         d="m 150.19261,117.33039 v 1.16445 h -0.31695 v -1.15411 q 0,-0.27389 -0.1068,-0.40997 -0.1068,-0.13608 -0.32039,-0.13608 -0.25666,0 -0.4048,0.16364 -0.14814,0.16365 -0.14814,0.44614 v 1.09038 h -0.31867 v -1.92926 h 0.31867 v 0.29973 q 0.11369,-0.17398 0.26699,-0.26011 0.15503,-0.0861 0.35657,-0.0861 0.33245,0 0.50299,0.20671 0.17053,0.20498 0.17053,0.60461 z"
         style="font-size:3.52778px;stroke-width:0.264583"
         id="path1094" />
      <path
         d="m 152.0943,117.50782 q 0,-0.34451 -0.14297,-0.53399 -0.14125,-0.18948 -0.39791,-0.18948 -0.25493,0 -0.39791,0.18948 -0.14125,0.18948 -0.14125,0.53399 0,0.34278 0.14125,0.53226 0.14298,0.18949 0.39791,0.18949 0.25666,0 0.39791,-0.18949 0.14297,-0.18948 0.14297,-0.53226 z m 0.31695,0.74758 q 0,0.49265 -0.21876,0.73209 -0.21877,0.24115 -0.67007,0.24115 -0.16709,0 -0.31523,-0.0258 -0.14814,-0.0241 -0.28767,-0.0758 v -0.30833 q 0.13953,0.0758 0.27561,0.11196 0.13608,0.0362 0.27733,0.0362 0.31178,0 0.46681,-0.16365 0.15503,-0.16192 0.15503,-0.49092 v -0.15675 q -0.0982,0.17053 -0.25149,0.25493 -0.15331,0.0844 -0.3669,0.0844 -0.35485,0 -0.57189,-0.27044 -0.21704,-0.27044 -0.21704,-0.71658 0,-0.44787 0.21704,-0.71831 0.21704,-0.27044 0.57189,-0.27044 0.21359,0 0.3669,0.0844 0.15331,0.0844 0.25149,0.25494 v -0.29284 h 0.31695 z"
         style="font-size:3.52778px;stroke-width:0.264583"
         id="path1096" />
      <path
         d="m 134.34688,123.44029 v 0.94223 h 0.55811 q 0.28077,0 0.41513,-0.11541 0.13608,-0.11713 0.13608,-0.35657 0,-0.24116 -0.13608,-0.35484 -0.13436,-0.11541 -0.41513,-0.11541 z m 0,-1.05765 v 0.77515 h 0.51504 q 0.25494,0 0.37896,-0.0947 0.12575,-0.0965 0.12575,-0.29284 0,-0.19464 -0.12575,-0.29111 -0.12402,-0.0965 -0.37896,-0.0965 z m -0.34795,-0.28594 h 0.88883 q 0.39791,0 0.61323,0.16536 0.21532,0.16537 0.21532,0.47026 0,0.23599 -0.11024,0.37551 -0.11025,0.13953 -0.32384,0.17398 0.25666,0.0551 0.3979,0.23082 0.14298,0.17398 0.14298,0.43581 0,0.34451 -0.23427,0.53226 -0.23427,0.18776 -0.66663,0.18776 h -0.92328 z"
         style="font-size:3.52778px;stroke-width:0.264583"
         id="path1098" />
      <path
         d="m 137.28211,123.69867 q -0.38413,0 -0.53227,0.0878 -0.14814,0.0879 -0.14814,0.29972 0,0.16881 0.11024,0.26872 0.11197,0.0982 0.30317,0.0982 0.26355,0 0.42202,-0.18603 0.1602,-0.18776 0.1602,-0.49782 v -0.0706 z m 0.63217,-0.13092 v 1.10071 h -0.31695 v -0.29283 q -0.10852,0.1757 -0.27044,0.2601 -0.16192,0.0827 -0.39618,0.0827 -0.29628,0 -0.47198,-0.16537 -0.17398,-0.16709 -0.17398,-0.44614 0,-0.32556 0.21704,-0.49092 0.21876,-0.16537 0.65112,-0.16537 h 0.44442 v -0.031 q 0,-0.21876 -0.14469,-0.33761 -0.14297,-0.12058 -0.40308,-0.12058 -0.16536,0 -0.32212,0.0396 -0.15675,0.0396 -0.30144,0.11885 v -0.29283 q 0.17398,-0.0672 0.33762,-0.0999 0.16364,-0.0344 0.31867,-0.0344 0.41858,0 0.62528,0.21704 0.20671,0.21704 0.20671,0.65801 z"
         style="font-size:3.52778px;stroke-width:0.264583"
         id="path1100" />
      <path
         d="m 139.83664,123.03204 v -1.04386 h 0.31695 v 2.68028 h -0.31695 v -0.28939 q -0.0999,0.17226 -0.25321,0.25666 -0.15158,0.0827 -0.36518,0.0827 -0.34968,0 -0.57016,-0.27906 -0.21877,-0.27905 -0.21877,-0.7338 0,-0.45475 0.21877,-0.73381 0.22048,-0.27905 0.57016,-0.27905 0.2136,0 0.36518,0.0844 0.15331,0.0827 0.25321,0.25494 z m -1.08003,0.67352 q 0,0.34968 0.14297,0.54949 0.14469,0.19809 0.39618,0.19809 0.2515,0 0.39619,-0.19809 0.14469,-0.19981 0.14469,-0.54949 0,-0.34968 -0.14469,-0.54777 -0.14469,-0.19982 -0.39619,-0.19982 -0.25149,0 -0.39618,0.19982 -0.14297,0.19809 -0.14297,0.54777 z"
         style="font-size:3.52778px;stroke-width:0.264583"
         id="path1102" />
    </g>
    <g
       aria-label="Add
Something
Bad"
       id="text899"
       style="font-size:4.9389px;line-height:1.25;font-family:sans-serif;-inkscape-font-specification:'sans-serif, Normal';stroke-width:0.264583">
      <path
         d="m 115.07725,130.15791 -0.47198,1.27985 h 0.94568 z m -0.19637,-0.34279 h 0.39446 l 0.98014,2.57177 h -0.36174 l -0.23427,-0.65974 h -1.15927 l -0.23427,0.65974 h -0.3669 z"
         style="font-size:3.52778px;stroke-width:0.264583"
         id="path1105" />
      <path
         d="m 117.82472,130.75047 v -1.04387 h 0.31695 v 2.68029 h -0.31695 v -0.28939 q -0.0999,0.17225 -0.25322,0.25666 -0.15158,0.0827 -0.36518,0.0827 -0.34968,0 -0.57016,-0.27905 -0.21877,-0.27906 -0.21877,-0.73381 0,-0.45475 0.21877,-0.7338 0.22048,-0.27906 0.57016,-0.27906 0.2136,0 0.36518,0.0844 0.15331,0.0827 0.25322,0.25494 z m -1.08004,0.67351 q 0,0.34968 0.14297,0.54949 0.14469,0.1981 0.39619,0.1981 0.25149,0 0.39618,-0.1981 0.1447,-0.19981 0.1447,-0.54949 0,-0.34968 -0.1447,-0.54777 -0.14469,-0.19981 -0.39618,-0.19981 -0.2515,0 -0.39619,0.19981 -0.14297,0.19809 -0.14297,0.54777 z"
         style="font-size:3.52778px;stroke-width:0.264583"
         id="path1107" />
      <path
         d="m 120.06403,130.75047 v -1.04387 h 0.31695 v 2.68029 h -0.31695 v -0.28939 q -0.0999,0.17225 -0.25321,0.25666 -0.15159,0.0827 -0.36518,0.0827 -0.34968,0 -0.57017,-0.27905 -0.21876,-0.27906 -0.21876,-0.73381 0,-0.45475 0.21876,-0.7338 0.22049,-0.27906 0.57017,-0.27906 0.21359,0 0.36518,0.0844 0.1533,0.0827 0.25321,0.25494 z m -1.08004,0.67351 q 0,0.34968 0.14297,0.54949 0.1447,0.1981 0.39619,0.1981 0.25149,0 0.39619,-0.1981 0.14469,-0.19981 0.14469,-0.54949 0,-0.34968 -0.14469,-0.54777 -0.1447,-0.19981 -0.39619,-0.19981 -0.25149,0 -0.39619,0.19981 -0.14297,0.19809 -0.14297,0.54777 z"
         style="font-size:3.52778px;stroke-width:0.264583"
         id="path1109" />
      <path
         d="m 115.75938,136.07315 v 0.33934 q -0.19809,-0.0947 -0.37379,-0.14125 -0.1757,-0.0465 -0.33934,-0.0465 -0.28422,0 -0.43925,0.11024 -0.15331,0.11024 -0.15331,0.3135 0,0.17053 0.10163,0.25838 0.10335,0.0861 0.3893,0.13953 l 0.21015,0.0431 q 0.38929,0.0741 0.57361,0.26183 0.18603,0.18604 0.18603,0.49954 0,0.37379 -0.25149,0.56672 -0.24977,0.19293 -0.73381,0.19293 -0.18259,0 -0.38929,-0.0413 -0.20499,-0.0413 -0.42547,-0.1223 v -0.35829 q 0.21187,0.11886 0.41513,0.17915 0.20326,0.0603 0.39963,0.0603 0.298,0 0.45992,-0.11714 0.16192,-0.11713 0.16192,-0.33417 0,-0.18948 -0.11713,-0.29628 -0.11541,-0.1068 -0.38068,-0.1602 l -0.21188,-0.0413 q -0.38929,-0.0775 -0.56327,-0.24288 -0.17398,-0.16536 -0.17398,-0.45992 0,-0.34106 0.23944,-0.53743 0.24115,-0.19637 0.66318,-0.19637 0.18086,0 0.36862,0.0327 0.18776,0.0327 0.38413,0.0982 z"
         style="font-size:3.52778px;stroke-width:0.264583"
         id="path1111" />
      <path
         d="m 117.19082,136.85347 q -0.25494,0 -0.40308,0.19981 -0.14814,0.19809 -0.14814,0.54433 0,0.34623 0.14642,0.54604 0.14814,0.1981 0.4048,0.1981 0.25321,0 0.40135,-0.19982 0.14814,-0.19981 0.14814,-0.54432 0,-0.34279 -0.14814,-0.54261 -0.14814,-0.20153 -0.40135,-0.20153 z m 0,-0.26872 q 0.41341,0 0.6494,0.26872 0.23599,0.26871 0.23599,0.74414 0,0.4737 -0.23599,0.74414 -0.23599,0.26872 -0.6494,0.26872 -0.41513,0 -0.65112,-0.26872 -0.23427,-0.27044 -0.23427,-0.74414 0,-0.47543 0.23427,-0.74414 0.23599,-0.26872 0.65112,-0.26872 z"
         style="font-size:3.52778px;stroke-width:0.264583"
         id="path1113" />
      <path
         d="m 120.10365,137.0016 q 0.11886,-0.21359 0.28422,-0.31522 0.16536,-0.10163 0.3893,-0.10163 0.30144,0 0.46508,0.21187 0.16365,0.21015 0.16365,0.59945 v 1.16444 h -0.31868 v -1.15411 q 0,-0.27733 -0.0982,-0.41169 -0.0982,-0.13435 -0.29972,-0.13435 -0.24633,0 -0.3893,0.16364 -0.14297,0.16364 -0.14297,0.44614 v 1.09037 h -0.31867 v -1.15411 q 0,-0.27905 -0.0982,-0.41169 -0.0982,-0.13435 -0.30317,-0.13435 -0.24288,0 -0.38585,0.16536 -0.14297,0.16364 -0.14297,0.44442 v 1.09037 h -0.31867 v -1.92925 h 0.31867 v 0.29972 q 0.10852,-0.17742 0.26011,-0.26183 0.15158,-0.0844 0.36001,-0.0844 0.21015,0 0.35657,0.1068 0.14814,0.10679 0.21876,0.31005 z"
         style="font-size:3.52778px;stroke-width:0.264583"
         id="path1115" />
      <path
         d="m 123.68827,137.51665 v 0.15503 H 122.231 q 0.0207,0.32728 0.19637,0.49954 0.17742,0.17053 0.49265,0.17053 0.18259,0 0.35312,-0.0448 0.17225,-0.0448 0.34106,-0.13436 v 0.29973 q -0.17053,0.0723 -0.34967,0.11024 -0.17915,0.0379 -0.36346,0.0379 -0.46164,0 -0.73208,-0.26872 -0.26872,-0.26872 -0.26872,-0.72692 0,-0.4737 0.25494,-0.75103 0.25665,-0.27905 0.69074,-0.27905 0.38929,0 0.61495,0.25149 0.22737,0.24977 0.22737,0.68041 z m -0.31695,-0.093 q -0.003,-0.26011 -0.14641,-0.41513 -0.14125,-0.15503 -0.37552,-0.15503 -0.26527,0 -0.42547,0.14986 -0.15847,0.14986 -0.18259,0.42202 z"
         style="font-size:3.52778px;stroke-width:0.264583"
         id="path1117" />
      <path
         d="m 124.52199,136.08349 v 0.54777 h 0.65284 v 0.24632 h -0.65284 v 1.04731 q 0,0.23599 0.0637,0.30317 0.0655,0.0672 0.26355,0.0672 h 0.32556 v 0.26527 h -0.32556 q -0.3669,0 -0.50643,-0.13608 -0.13952,-0.1378 -0.13952,-0.49954 v -1.04731 h -0.23255 v -0.24632 h 0.23255 v -0.54777 z"
         style="font-size:3.52778px;stroke-width:0.264583"
         id="path1119" />
      <path
         d="m 127.19538,137.39607 v 1.16444 h -0.31695 v -1.15411 q 0,-0.27388 -0.10679,-0.40996 -0.1068,-0.13608 -0.3204,-0.13608 -0.25666,0 -0.4048,0.16364 -0.14814,0.16364 -0.14814,0.44614 v 1.09037 h -0.31867 v -2.68028 h 0.31867 v 1.05075 q 0.11369,-0.17398 0.267,-0.2601 0.15503,-0.0861 0.35657,-0.0861 0.33245,0 0.50298,0.2067 0.17053,0.20499 0.17053,0.60462 z"
         style="font-size:3.52778px;stroke-width:0.264583"
         id="path1121" />
      <path
         d="m 127.82756,136.63126 h 0.31695 v 1.92925 h -0.31695 z m 0,-0.75103 h 0.31695 v 0.40135 h -0.31695 z"
         style="font-size:3.52778px;stroke-width:0.264583"
         id="path1123" />
      <path
         d="m 130.41138,137.39607 v 1.16444 h -0.31695 v -1.15411 q 0,-0.27388 -0.1068,-0.40996 -0.10679,-0.13608 -0.32039,-0.13608 -0.25666,0 -0.4048,0.16364 -0.14814,0.16364 -0.14814,0.44614 v 1.09037 h -0.31867 v -1.92925 h 0.31867 v 0.29972 q 0.11369,-0.17398 0.267,-0.2601 0.15503,-0.0861 0.35657,-0.0861 0.33245,0 0.50298,0.2067 0.17053,0.20499 0.17053,0.60462 z"
         style="font-size:3.52778px;stroke-width:0.264583"
         id="path1125" />
      <path
         d="m 132.31308,137.57349 q 0,-0.34451 -0.14298,-0.53399 -0.14124,-0.18948 -0.3979,-0.18948 -0.25494,0 -0.39791,0.18948 -0.14125,0.18948 -0.14125,0.53399 0,0.34279 0.14125,0.53227 0.14297,0.18948 0.39791,0.18948 0.25666,0 0.3979,-0.18948 0.14298,-0.18948 0.14298,-0.53227 z m 0.31694,0.74759 q 0,0.49265 -0.21876,0.73208 -0.21876,0.24116 -0.67007,0.24116 -0.16709,0 -0.31523,-0.0258 -0.14814,-0.0241 -0.28766,-0.0758 v -0.30834 q 0.13952,0.0758 0.27561,0.11197 0.13608,0.0362 0.27733,0.0362 0.31178,0 0.46681,-0.16364 0.15503,-0.16192 0.15503,-0.49093 v -0.15675 q -0.0982,0.17053 -0.2515,0.25494 -0.1533,0.0844 -0.3669,0.0844 -0.35484,0 -0.57189,-0.27044 -0.21704,-0.27044 -0.21704,-0.71658 0,-0.44786 0.21704,-0.7183 0.21705,-0.27044 0.57189,-0.27044 0.2136,0 0.3669,0.0844 0.15331,0.0844 0.2515,0.25494 v -0.29283 h 0.31694 z"
         style="font-size:3.52778px;stroke-width:0.264583"
         id="path1127" />
      <path
         d="m 114.56565,143.50596 v 0.94223 h 0.55811 q 0.28078,0 0.41513,-0.11541 0.13609,-0.11713 0.13609,-0.35656 0,-0.24116 -0.13609,-0.35485 -0.13435,-0.11541 -0.41513,-0.11541 z m 0,-1.05765 v 0.77515 h 0.51505 q 0.25493,0 0.37896,-0.0947 0.12574,-0.0965 0.12574,-0.29283 0,-0.19465 -0.12574,-0.29111 -0.12403,-0.0965 -0.37896,-0.0965 z m -0.34795,-0.28594 h 0.88884 q 0.3979,0 0.61322,0.16537 0.21532,0.16536 0.21532,0.47025 0,0.23599 -0.11024,0.37552 -0.11025,0.13952 -0.32384,0.17397 0.25666,0.0551 0.39791,0.23083 0.14297,0.17397 0.14297,0.4358 0,0.34451 -0.23427,0.53227 -0.23426,0.18776 -0.66662,0.18776 h -0.92329 z"
         style="font-size:3.52778px;stroke-width:0.264583"
         id="path1129" />
      <path
         d="m 117.50088,143.76434 q -0.38413,0 -0.53227,0.0879 -0.14814,0.0879 -0.14814,0.29973 0,0.1688 0.11024,0.26871 0.11197,0.0982 0.30317,0.0982 0.26355,0 0.42203,-0.18604 0.16019,-0.18776 0.16019,-0.49781 v -0.0706 z m 0.63217,-0.13091 v 1.10071 h -0.31695 v -0.29284 q -0.10852,0.1757 -0.27044,0.26011 -0.16192,0.0827 -0.39618,0.0827 -0.29628,0 -0.47198,-0.16536 -0.17398,-0.16709 -0.17398,-0.44614 0,-0.32557 0.21704,-0.49093 0.21877,-0.16537 0.65113,-0.16537 h 0.44441 v -0.031 q 0,-0.21877 -0.14469,-0.33762 -0.14297,-0.12058 -0.40308,-0.12058 -0.16536,0 -0.32211,0.0396 -0.15675,0.0396 -0.30145,0.11886 v -0.29284 q 0.17398,-0.0672 0.33762,-0.0999 0.16364,-0.0344 0.31867,-0.0344 0.41858,0 0.62529,0.21704 0.2067,0.21705 0.2067,0.65802 z"
         style="font-size:3.52778px;stroke-width:0.264583"
         id="path1131" />
      <path
         d="m 120.05542,143.09772 v -1.04387 h 0.31695 v 2.68029 h -0.31695 v -0.28939 q -0.0999,0.17225 -0.25322,0.25666 -0.15158,0.0827 -0.36518,0.0827 -0.34967,0 -0.57016,-0.27905 -0.21876,-0.27906 -0.21876,-0.73381 0,-0.45475 0.21876,-0.7338 0.22049,-0.27906 0.57016,-0.27906 0.2136,0 0.36518,0.0844 0.15331,0.0827 0.25322,0.25494 z m -1.08004,0.67351 q 0,0.34968 0.14297,0.54949 0.1447,0.1981 0.39619,0.1981 0.25149,0 0.39618,-0.1981 0.1447,-0.19981 0.1447,-0.54949 0,-0.34968 -0.1447,-0.54777 -0.14469,-0.19981 -0.39618,-0.19981 -0.25149,0 -0.39619,0.19981 -0.14297,0.19809 -0.14297,0.54777 z"
         style="font-size:3.52778px;stroke-width:0.264583"
         id="path1133" />
    </g>
    <g
       aria-label="Take
Something
Good"
       id="text899-3"
       style="font-size:4.9389px;line-height:1.25;font-family:sans-serif;-inkscape-font-specification:'sans-serif, Normal';stroke-width:0.264583">
      <path
         d="m 133.72999,129.67785 h 2.17558 v 0.29284 h -0.91295 v 2.27893 h -0.34968 v -2.27893 h -0.91295 z"
         style="font-size:3.52778px;stroke-width:0.264583"
         id="path1136" />
      <path
         d="m 136.52052,131.27982 q -0.38413,0 -0.53227,0.0879 -0.14814,0.0879 -0.14814,0.29973 0,0.16881 0.11025,0.26871 0.11196,0.0982 0.30316,0.0982 0.26355,0 0.42203,-0.18604 0.1602,-0.18775 0.1602,-0.49781 v -0.0706 z m 0.63218,-0.13091 v 1.10071 h -0.31695 v -0.29283 q -0.10852,0.1757 -0.27044,0.2601 -0.16192,0.0827 -0.39619,0.0827 -0.29628,0 -0.47198,-0.16536 -0.17398,-0.16709 -0.17398,-0.44614 0,-0.32556 0.21705,-0.49093 0.21876,-0.16536 0.65112,-0.16536 h 0.44442 v -0.031 q 0,-0.21876 -0.1447,-0.33762 -0.14297,-0.12058 -0.40307,-0.12058 -0.16537,0 -0.32212,0.0396 -0.15675,0.0396 -0.30145,0.11886 v -0.29284 q 0.17398,-0.0672 0.33762,-0.0999 0.16364,-0.0345 0.31867,-0.0345 0.41858,0 0.62529,0.21705 0.20671,0.21704 0.20671,0.65801 z"
         style="font-size:3.52778px;stroke-width:0.264583"
         id="path1138" />
      <path
         d="m 137.79348,129.56933 h 0.31867 v 1.58302 l 0.94568,-0.83199 h 0.4048 l -1.02319,0.90262 1.06626,1.02664 h -0.41341 l -0.98014,-0.94224 v 0.94224 h -0.31867 z"
         style="font-size:3.52778px;stroke-width:0.264583"
         id="path1140" />
      <path
         d="m 141.37294,131.20575 v 0.15503 h -1.45728 q 0.0207,0.32729 0.19637,0.49954 0.17743,0.17053 0.49265,0.17053 0.18259,0 0.35313,-0.0448 0.17225,-0.0448 0.34106,-0.13436 v 0.29972 q -0.17053,0.0724 -0.34968,0.11025 -0.17914,0.0379 -0.36345,0.0379 -0.46165,0 -0.73209,-0.26872 -0.26872,-0.26871 -0.26872,-0.72691 0,-0.4737 0.25494,-0.75103 0.25666,-0.27906 0.69074,-0.27906 0.3893,0 0.61495,0.2515 0.22738,0.24977 0.22738,0.6804 z m -0.31695,-0.093 q -0.003,-0.26011 -0.14642,-0.41514 -0.14124,-0.15503 -0.37551,-0.15503 -0.26527,0 -0.42547,0.14986 -0.15848,0.14987 -0.18259,0.42203 z"
         style="font-size:3.52778px;stroke-width:0.264583"
         id="path1142" />
      <path
         d="m 135.62824,135.93588 v 0.33935 q -0.19809,-0.0948 -0.37379,-0.14125 -0.1757,-0.0465 -0.33935,-0.0465 -0.28422,0 -0.43925,0.11024 -0.1533,0.11024 -0.1533,0.3135 0,0.17054 0.10163,0.25839 0.10335,0.0861 0.38929,0.13952 l 0.21015,0.0431 q 0.3893,0.0741 0.57361,0.26182 0.18604,0.18604 0.18604,0.49954 0,0.3738 -0.25149,0.56672 -0.24977,0.19293 -0.73381,0.19293 -0.18259,0 -0.3893,-0.0413 -0.20498,-0.0413 -0.42546,-0.1223 v -0.35829 q 0.21187,0.11885 0.41513,0.17914 0.20326,0.0603 0.39963,0.0603 0.298,0 0.45992,-0.11713 0.16192,-0.11714 0.16192,-0.33418 0,-0.18948 -0.11713,-0.29628 -0.11541,-0.10679 -0.38069,-0.16019 l -0.21187,-0.0413 q -0.3893,-0.0775 -0.56327,-0.24288 -0.17398,-0.16537 -0.17398,-0.45992 0,-0.34107 0.23943,-0.53744 0.24116,-0.19637 0.66319,-0.19637 0.18086,0 0.36862,0.0327 0.18776,0.0327 0.38413,0.0982 z"
         style="font-size:3.52778px;stroke-width:0.264583"
         id="path1144" />
      <path
         d="m 137.05968,136.7162 q -0.25494,0 -0.40308,0.19981 -0.14814,0.1981 -0.14814,0.54433 0,0.34623 0.14642,0.54605 0.14814,0.19809 0.4048,0.19809 0.25321,0 0.40135,-0.19982 0.14814,-0.19981 0.14814,-0.54432 0,-0.34279 -0.14814,-0.5426 -0.14814,-0.20154 -0.40135,-0.20154 z m 0,-0.26872 q 0.41341,0 0.6494,0.26872 0.23599,0.26872 0.23599,0.74414 0,0.4737 -0.23599,0.74414 -0.23599,0.26872 -0.6494,0.26872 -0.41514,0 -0.65113,-0.26872 -0.23426,-0.27044 -0.23426,-0.74414 0,-0.47542 0.23426,-0.74414 0.23599,-0.26872 0.65113,-0.26872 z"
         style="font-size:3.52778px;stroke-width:0.264583"
         id="path1146" />
      <path
         d="m 139.97251,136.86434 q 0.11885,-0.2136 0.28422,-0.31523 0.16536,-0.10163 0.38929,-0.10163 0.30145,0 0.46509,0.21187 0.16364,0.21015 0.16364,0.59945 v 1.16444 h -0.31867 v -1.1541 q 0,-0.27733 -0.0982,-0.41169 -0.0982,-0.13436 -0.29973,-0.13436 -0.24632,0 -0.38929,0.16364 -0.14297,0.16364 -0.14297,0.44614 v 1.09037 h -0.31867 v -1.1541 q 0,-0.27906 -0.0982,-0.41169 -0.0982,-0.13436 -0.30317,-0.13436 -0.24288,0 -0.38585,0.16536 -0.14297,0.16364 -0.14297,0.44442 v 1.09037 h -0.31867 v -1.92925 h 0.31867 v 0.29972 q 0.10852,-0.17742 0.2601,-0.26183 0.15159,-0.0844 0.36002,-0.0844 0.21015,0 0.35656,0.1068 0.14814,0.1068 0.21877,0.31006 z"
         style="font-size:3.52778px;stroke-width:0.264583"
         id="path1148" />
      <path
         d="m 143.55713,137.37938 v 0.15503 h -1.45727 q 0.0207,0.32728 0.19637,0.49954 0.17742,0.17053 0.49265,0.17053 0.18259,0 0.35312,-0.0448 0.17225,-0.0448 0.34106,-0.13436 v 0.29973 q -0.17053,0.0724 -0.34968,0.11024 -0.17914,0.0379 -0.36345,0.0379 -0.46165,0 -0.73209,-0.26872 -0.26871,-0.26872 -0.26871,-0.72692 0,-0.4737 0.25493,-0.75103 0.25666,-0.27905 0.69075,-0.27905 0.38929,0 0.61495,0.25149 0.22737,0.24977 0.22737,0.68041 z m -0.31695,-0.093 q -0.003,-0.2601 -0.14641,-0.41513 -0.14125,-0.15503 -0.37552,-0.15503 -0.26527,0 -0.42547,0.14986 -0.15847,0.14986 -0.18259,0.42202 z"
         style="font-size:3.52778px;stroke-width:0.264583"
         id="path1150" />
      <path
         d="m 144.39085,135.94622 v 0.54777 h 0.65284 v 0.24632 h -0.65284 v 1.04731 q 0,0.23599 0.0637,0.30317 0.0655,0.0672 0.26355,0.0672 h 0.32556 v 0.26527 h -0.32556 q -0.3669,0 -0.50643,-0.13608 -0.13953,-0.1378 -0.13953,-0.49954 v -1.04731 h -0.23254 v -0.24632 h 0.23254 v -0.54777 z"
         style="font-size:3.52778px;stroke-width:0.264583"
         id="path1152" />
      <path
         d="m 147.06424,137.2588 v 1.16444 h -0.31695 v -1.1541 q 0,-0.27389 -0.1068,-0.40997 -0.10679,-0.13608 -0.32039,-0.13608 -0.25666,0 -0.4048,0.16364 -0.14814,0.16364 -0.14814,0.44614 v 1.09037 h -0.31867 v -2.68028 h 0.31867 v 1.05075 q 0.11369,-0.17398 0.267,-0.2601 0.15503,-0.0861 0.35656,-0.0861 0.33246,0 0.50299,0.20671 0.17053,0.20498 0.17053,0.60461 z"
         style="font-size:3.52778px;stroke-width:0.264583"
         id="path1154" />
      <path
         d="m 147.69642,136.49399 h 0.31695 v 1.92925 h -0.31695 z m 0,-0.75103 h 0.31695 v 0.40135 h -0.31695 z"
         style="font-size:3.52778px;stroke-width:0.264583"
         id="path1156" />
      <path
         d="m 150.28024,137.2588 v 1.16444 h -0.31695 v -1.1541 q 0,-0.27389 -0.1068,-0.40997 -0.10679,-0.13608 -0.32039,-0.13608 -0.25666,0 -0.4048,0.16364 -0.14814,0.16364 -0.14814,0.44614 v 1.09037 h -0.31867 v -1.92925 h 0.31867 v 0.29972 q 0.11369,-0.17398 0.267,-0.2601 0.15503,-0.0861 0.35656,-0.0861 0.33246,0 0.50299,0.20671 0.17053,0.20498 0.17053,0.60461 z"
         style="font-size:3.52778px;stroke-width:0.264583"
         id="path1158" />
      <path
         d="m 152.18193,137.43622 q 0,-0.34451 -0.14297,-0.53399 -0.14125,-0.18948 -0.39791,-0.18948 -0.25493,0 -0.39791,0.18948 -0.14124,0.18948 -0.14124,0.53399 0,0.34279 0.14124,0.53227 0.14298,0.18948 0.39791,0.18948 0.25666,0 0.39791,-0.18948 0.14297,-0.18948 0.14297,-0.53227 z m 0.31695,0.74759 q 0,0.49265 -0.21876,0.73208 -0.21876,0.24116 -0.67007,0.24116 -0.16709,0 -0.31523,-0.0258 -0.14814,-0.0241 -0.28766,-0.0758 v -0.30834 q 0.13952,0.0758 0.2756,0.11197 0.13608,0.0362 0.27733,0.0362 0.31179,0 0.46681,-0.16364 0.15503,-0.16192 0.15503,-0.49093 v -0.15675 q -0.0982,0.17053 -0.25149,0.25494 -0.1533,0.0844 -0.3669,0.0844 -0.35485,0 -0.57189,-0.27044 -0.21704,-0.27044 -0.21704,-0.71658 0,-0.44786 0.21704,-0.7183 0.21704,-0.27044 0.57189,-0.27044 0.2136,0 0.3669,0.0844 0.15331,0.0844 0.25149,0.25494 v -0.29283 h 0.31695 z"
         style="font-size:3.52778px;stroke-width:0.264583"
         id="path1160" />
      <path
         d="m 135.84011,144.22997 v -0.69075 h -0.56844 v -0.28594 h 0.91295 v 1.10415 q -0.20154,0.14298 -0.44441,0.21705 -0.24288,0.0723 -0.51849,0.0723 -0.60289,0 -0.94396,-0.3514 -0.33934,-0.35312 -0.33934,-0.98185 0,-0.63045 0.33934,-0.98185 0.34107,-0.35313 0.94396,-0.35313 0.25149,0 0.47714,0.062 0.22738,0.062 0.41858,0.18259 v 0.37034 q -0.19292,-0.16364 -0.40996,-0.24632 -0.21704,-0.0827 -0.45648,-0.0827 -0.47198,0 -0.70969,0.26355 -0.23599,0.26355 -0.23599,0.78548 0,0.52021 0.23599,0.78376 0.23771,0.26355 0.70969,0.26355 0.18431,0 0.32901,-0.031 0.14469,-0.0327 0.2601,-0.0999 z"
         style="font-size:3.52778px;stroke-width:0.264583"
         id="path1162" />
      <path
         d="m 137.55405,142.88982 q -0.25494,0 -0.40308,0.19982 -0.14814,0.19809 -0.14814,0.54432 0,0.34624 0.14642,0.54605 0.14814,0.19809 0.4048,0.19809 0.25321,0 0.40135,-0.19981 0.14814,-0.19982 0.14814,-0.54433 0,-0.34278 -0.14814,-0.5426 -0.14814,-0.20154 -0.40135,-0.20154 z m 0,-0.26872 q 0.41341,0 0.6494,0.26872 0.23599,0.26872 0.23599,0.74414 0,0.4737 -0.23599,0.74414 -0.23599,0.26872 -0.6494,0.26872 -0.41514,0 -0.65112,-0.26872 -0.23427,-0.27044 -0.23427,-0.74414 0,-0.47542 0.23427,-0.74414 0.23598,-0.26872 0.65112,-0.26872 z"
         style="font-size:3.52778px;stroke-width:0.264583"
         id="path1164" />
      <path
         d="m 139.7124,142.88982 q -0.25493,0 -0.40307,0.19982 -0.14814,0.19809 -0.14814,0.54432 0,0.34624 0.14641,0.54605 0.14814,0.19809 0.4048,0.19809 0.25322,0 0.40136,-0.19981 0.14814,-0.19982 0.14814,-0.54433 0,-0.34278 -0.14814,-0.5426 -0.14814,-0.20154 -0.40136,-0.20154 z m 0,-0.26872 q 0.41341,0 0.6494,0.26872 0.23599,0.26872 0.23599,0.74414 0,0.4737 -0.23599,0.74414 -0.23599,0.26872 -0.6494,0.26872 -0.41513,0 -0.65112,-0.26872 -0.23427,-0.27044 -0.23427,-0.74414 0,-0.47542 0.23427,-0.74414 0.23599,-0.26872 0.65112,-0.26872 z"
         style="font-size:3.52778px;stroke-width:0.264583"
         id="path1166" />
      <path
         d="m 142.39269,142.96045 v -1.04387 h 0.31695 v 2.68029 h -0.31695 v -0.28939 q -0.0999,0.17226 -0.25322,0.25666 -0.15158,0.0827 -0.36518,0.0827 -0.34967,0 -0.57016,-0.27905 -0.21876,-0.27905 -0.21876,-0.73381 0,-0.45475 0.21876,-0.7338 0.22049,-0.27906 0.57016,-0.27906 0.2136,0 0.36518,0.0844 0.15331,0.0827 0.25322,0.25494 z m -1.08004,0.67351 q 0,0.34968 0.14297,0.5495 0.1447,0.19809 0.39619,0.19809 0.25149,0 0.39618,-0.19809 0.1447,-0.19982 0.1447,-0.5495 0,-0.34967 -0.1447,-0.54777 -0.14469,-0.19981 -0.39618,-0.19981 -0.25149,0 -0.39619,0.19981 -0.14297,0.1981 -0.14297,0.54777 z"
         style="font-size:3.52778px;stroke-width:0.264583"
         id="path1168" />
    </g>
  </g>
</svg>
