<?xml version="1.0" encoding="UTF-8" standalone="no"?>
<svg
   xmlns:dc="http://purl.org/dc/elements/1.1/"
   xmlns:cc="http://creativecommons.org/ns#"
   xmlns:rdf="http://www.w3.org/1999/02/22-rdf-syntax-ns#"
   xmlns:svg="http://www.w3.org/2000/svg"
   xmlns="http://www.w3.org/2000/svg"
   xmlns:sodipodi="http://sodipodi.sourceforge.net/DTD/sodipodi-0.dtd"
   xmlns:inkscape="http://www.inkscape.org/namespaces/inkscape"
   width="210mm"
   height="297mm"
   viewBox="0 0 210 297"
   version="1.1"
   id="svg8"
   inkscape:version="1.0.2 (e86c870879, 2021-01-15)"
   sodipodi:docname="spinalchord.svg">
  <defs
     id="defs2">
    <inkscape:path-effect
       effect="bspline"
       id="path-effect841"
       is_visible="true"
       lpeversion="1"
       weight="33.333333"
       steps="2"
       helper_size="0"
       apply_no_weight="true"
       apply_with_weight="true"
       only_selected="false" />
    <inkscape:path-effect
       effect="bspline"
       id="path-effect837"
       is_visible="true"
       lpeversion="1"
       weight="33.333333"
       steps="2"
       helper_size="0"
       apply_no_weight="true"
       apply_with_weight="true"
       only_selected="false" />
  </defs>
  <sodipodi:namedview
     id="base"
     pagecolor="#ffffff"
     bordercolor="#666666"
     borderopacity="1.0"
     inkscape:pageopacity="0.0"
     inkscape:pageshadow="2"
     inkscape:zoom="1.4"
     inkscape:cx="307.76532"
     inkscape:cy="363.41135"
     inkscape:document-units="mm"
     inkscape:current-layer="layer1"
     inkscape:document-rotation="0"
     showgrid="false"
     inkscape:window-width="1533"
     inkscape:window-height="1016"
     inkscape:window-x="861"
     inkscape:window-y="65"
     inkscape:window-maximized="0" />
  <metadata
     id="metadata5">
    <rdf:RDF>
      <cc:Work
         rdf:about="">
        <dc:format>image/svg+xml</dc:format>
        <dc:type
           rdf:resource="http://purl.org/dc/dcmitype/StillImage" />
        <dc:title></dc:title>
      </cc:Work>
    </rdf:RDF>
  </metadata>
  <g
     inkscape:label="Layer 1"
     inkscape:groupmode="layer"
     id="layer1">
    <ellipse
       style="fill:none;stroke:#000000;stroke-width:1.062"
       id="path833"
       cx="110.88726"
       cy="103.74219"
       rx="39.725674"
       ry="29.50058" />
    <path
       style="fill:none;stroke:#000000;stroke-width:0.264583px;stroke-linecap:butt;stroke-linejoin:miter;stroke-opacity:1"
       d="m 86.915036,80.243354 c 3.22326,6.22536 6.446295,12.450283 6.440882,18.19961 -0.0054,5.749326 -3.239065,11.022846 -4.066867,15.008546 -0.827801,3.9857 0.750021,6.68313 4.773518,5.79645 4.023496,-0.88668 10.492381,-5.35691 15.874341,-6.11746 5.38196,-0.76054 9.67619,2.18849 13.74433,3.46934 4.06814,1.28084 7.90993,0.89369 6.78485,-2.56615 -1.12508,-3.45984 -7.21704,-9.99238 -9.43742,-16.927828 -2.22037,-6.93545 -0.56881,-14.273309 1.08283,-21.611512"
       id="path835"
       inkscape:path-effect="#path-effect837"
       inkscape:original-d="m 86.915036,80.243354 c 3.223361,6.225308 6.446395,12.450231 9.669293,18.675137 -3.233515,5.273989 -6.467168,10.547509 -9.701146,15.820869 1.57815,2.6978 3.155971,5.39523 4.73356,8.09245 6.469532,-4.47023 12.938417,-8.94046 19.407417,-13.41122 4.29467,2.94942 8.5889,5.89846 12.88296,8.8473 3.84229,-0.38692 7.68408,-0.77408 11.52583,-1.16152 -6.09193,-6.53253 -12.18389,-13.06507 -18.27624,-19.598002 1.65189,-7.337887 3.30346,-14.675745 4.95479,-22.014018"
       sodipodi:nodetypes="ccccccccc" />
    <path
       style="fill:none;stroke:#000000;stroke-width:0.264583px;stroke-linecap:butt;stroke-linejoin:miter;stroke-opacity:1"
       d="m 93.514385,77.153063 c 2.953317,9.145833 5.906533,18.291352 9.607425,22.573132 3.70089,4.281775 8.14915,3.700195 10.04474,-1.291619 1.89559,-4.991818 1.23866,-14.393794 0.5817,-23.79624"
       id="path839"
       inkscape:path-effect="#path-effect841"
       inkscape:original-d="m 93.514385,77.153063 c 2.95348,9.14578 5.906696,18.291299 8.859645,27.436547 4.44871,-0.58134 8.89697,-1.16292 13.34505,-1.74478 -0.65669,-9.402089 -1.31362,-18.804065 -1.97083,-28.206494" />
    <path
       style="fill:#999999;stroke:#000000;stroke-width:2.86704"
       d="m 344.96189,449.44522 c -6.64045,-2.89044 -8.95289,-10.94664 -6.25417,-21.78856 0.64187,-2.57867 3.22894,-10.26327 5.74905,-17.07688 7.97212,-21.55423 10.0797,-32.38404 8.76836,-45.0562 -1.38427,-13.37676 -5.26557,-24.72828 -16.09684,-47.07796 l -6.69186,-13.80827 8.73069,-4.14312 c 8.2886,-3.93332 14.00773,-6.18135 14.33062,-5.63296 0.0809,0.13736 1.70307,5.07118 3.60485,10.96404 6.07766,18.83217 13.99118,39.69814 19.04703,50.22224 10.48205,21.8191 19.76044,31.2798 31.50085,32.11983 6.48593,0.46406 10.16211,-0.95734 14.51693,-5.613 10.97394,-11.73202 13.05443,-32.49796 9.21633,-91.99048 l -0.47768,-7.40427 5.2816,0.48748 c 6.46449,0.59665 22.92756,3.1575 23.41179,3.64173 0.19355,0.19355 -0.66816,5.40772 -1.91492,11.58705 -3.54968,17.59333 -4.43473,24.01113 -4.89846,35.52085 -1.03416,25.66765 4.05996,40.51341 24.75484,72.14286 5.65494,8.64285 11.38354,17.84755 12.73019,20.45487 4.44724,8.61049 3.01585,13.33863 -4.51116,14.90124 -6.73252,1.39767 -14.72181,-0.48113 -32.20899,-7.57441 -15.65753,-6.35111 -20.73265,-7.62298 -30.65312,-7.68192 -12.79363,-0.076 -19.30665,1.94041 -44.64286,13.82135 -19.87252,9.31885 -27.68278,11.42652 -33.29307,8.98449 z"
       id="path843"
       transform="scale(0.26458333)" />
  </g>
</svg>
