<?xml version="1.0" encoding="UTF-8" standalone="no"?>
<svg
   xmlns:dc="http://purl.org/dc/elements/1.1/"
   xmlns:cc="http://creativecommons.org/ns#"
   xmlns:rdf="http://www.w3.org/1999/02/22-rdf-syntax-ns#"
   xmlns:svg="http://www.w3.org/2000/svg"
   xmlns="http://www.w3.org/2000/svg"
   xmlns:sodipodi="http://sodipodi.sourceforge.net/DTD/sodipodi-0.dtd"
   xmlns:inkscape="http://www.inkscape.org/namespaces/inkscape"
   width="210mm"
   height="297mm"
   viewBox="0 0 210 297"
   version="1.1"
   id="svg8"
   sodipodi:docname="VisualProcessing.svg"
   inkscape:version="1.0.2 (e86c870879, 2021-01-15)">
  <defs
     id="defs2">
    <inkscape:path-effect
       effect="bspline"
       id="path-effect1044"
       is_visible="true"
       lpeversion="1"
       weight="33.333333"
       steps="2"
       helper_size="0"
       apply_no_weight="true"
       apply_with_weight="true"
       only_selected="false" />
    <inkscape:path-effect
       effect="bspline"
       id="path-effect1021"
       is_visible="true"
       lpeversion="1"
       weight="33.333333"
       steps="2"
       helper_size="0"
       apply_no_weight="true"
       apply_with_weight="true"
       only_selected="false" />
    <inkscape:path-effect
       effect="bspline"
       id="path-effect1016"
       is_visible="true"
       lpeversion="1"
       weight="33.333333"
       steps="2"
       helper_size="0"
       apply_no_weight="true"
       apply_with_weight="true"
       only_selected="false" />
    <inkscape:path-effect
       effect="bspline"
       id="path-effect993"
       is_visible="true"
       lpeversion="1"
       weight="33.333333"
       steps="2"
       helper_size="0"
       apply_no_weight="true"
       apply_with_weight="true"
       only_selected="false" />
    <inkscape:path-effect
       effect="bspline"
       id="path-effect985"
       is_visible="true"
       lpeversion="1"
       weight="33.333333"
       steps="2"
       helper_size="0"
       apply_no_weight="true"
       apply_with_weight="true"
       only_selected="false" />
    <inkscape:path-effect
       effect="bspline"
       id="path-effect943"
       is_visible="true"
       lpeversion="1"
       weight="33.333333"
       steps="2"
       helper_size="0"
       apply_no_weight="true"
       apply_with_weight="true"
       only_selected="false" />
    <inkscape:path-effect
       effect="bspline"
       id="path-effect938"
       is_visible="true"
       lpeversion="1"
       weight="33.333333"
       steps="2"
       helper_size="0"
       apply_no_weight="true"
       apply_with_weight="true"
       only_selected="false" />
    <inkscape:path-effect
       effect="bspline"
       id="path-effect915"
       is_visible="true"
       lpeversion="1"
       weight="33.333333"
       steps="2"
       helper_size="0"
       apply_no_weight="true"
       apply_with_weight="true"
       only_selected="false" />
  </defs>
  <sodipodi:namedview
     id="base"
     pagecolor="#ffffff"
     bordercolor="#666666"
     borderopacity="1.0"
     inkscape:pageopacity="0.0"
     inkscape:pageshadow="2"
     inkscape:zoom="2.8"
     inkscape:cx="470.17363"
     inkscape:cy="542.15747"
     inkscape:document-units="mm"
     inkscape:current-layer="layer1"
     inkscape:document-rotation="0"
     showgrid="false"
     inkscape:window-width="1533"
     inkscape:window-height="1016"
     inkscape:window-x="108"
     inkscape:window-y="69"
     inkscape:window-maximized="0" />
  <metadata
     id="metadata5">
    <rdf:RDF>
      <cc:Work
         rdf:about="">
        <dc:format>image/svg+xml</dc:format>
        <dc:type
           rdf:resource="http://purl.org/dc/dcmitype/StillImage" />
        <dc:title></dc:title>
      </cc:Work>
    </rdf:RDF>
  </metadata>
  <g
     inkscape:label="Layer 1"
     inkscape:groupmode="layer"
     id="layer1">
    <path
       id="path833"
       style="fill:#ffffff;stroke:#000000;stroke-width:1.062"
       d="M 81.759474,110.49868 A 11.292448,10.80968 0 0 1 70.467026,121.30836 11.292448,10.80968 0 0 1 59.174578,110.49868 11.292448,10.80968 0 0 1 70.467026,99.689 11.292448,10.80968 0 0 1 81.759474,110.49868 Z" />
    <path
       id="path835"
       style="fill:#ffffff;stroke:#000000;stroke-width:1.062"
       d="m 136.19714,111.22176 a 11.673925,11.634865 0 0 1 -11.67392,11.63487 11.673925,11.634865 0 0 1 -11.67393,-11.63487 11.673925,11.634865 0 0 1 11.67393,-11.634861 11.673925,11.634865 0 0 1 11.67392,11.634861 z" />
    <path
       id="rect837"
       style="fill:#ff00ff;stroke:#000000;stroke-width:1.062"
       d="M 53.732613,39.856766 H 99.480129 V 58.84865 H 53.732613 Z" />
    <path
       id="rect839"
       style="fill:#ff0000;stroke:#000000;stroke-width:1.062"
       d="M 99.480125,39.856766 H 143.98913 V 58.863604 H 99.480125 Z" />
    <path
       style="fill:#ff0000;stroke:#ff0000;stroke-width:0.264583px;stroke-linecap:butt;stroke-linejoin:miter;stroke-opacity:1"
       d="M 128.4312,54.941914 59.487993,112.41791"
       id="path841" />
    <path
       style="fill:none;stroke:#ff0000;stroke-width:0.264583px;stroke-linecap:butt;stroke-linejoin:miter;stroke-opacity:1"
       d="m 124.29022,58.015954 -8.01414,61.674706"
       id="path843" />
    <path
       style="fill:#ff0000;stroke:#ff00ff;stroke-width:0.264583px;stroke-linecap:butt;stroke-linejoin:miter;stroke-opacity:1"
       d="M 74.013151,58.920907 135.59172,109.7096"
       id="path841-3"
       sodipodi:nodetypes="cc" />
    <path
       style="fill:none;stroke:#ff00ff;stroke-width:0.264583px;stroke-linecap:butt;stroke-linejoin:miter;stroke-opacity:1"
       d="m 74.013151,58.920907 4.790488,58.061443"
       id="path843-6"
       sodipodi:nodetypes="cc" />
    <g
       aria-label="Nasal"
       id="text871"
       style="font-size:4.9389px;line-height:1.25;font-family:sans-serif;-inkscape-font-specification:'sans-serif, Normal';stroke-width:0.264583"
       transform="matrix(1.149064,0,0,1.149064,-15.348633,-17.347225)">
      <path
         d="m 91.527824,112.94039 h 0.655948 l 1.596461,3.01205 v -3.01205 h 0.472668 v 3.60047 h -0.655948 l -1.59646,-3.01205 v 3.01205 h -0.472669 z"
         style="stroke-width:0.264583"
         id="path964" />
      <path
         d="m 96.430551,115.18315 q -0.537781,0 -0.745176,0.12299 -0.207395,0.12299 -0.207395,0.41961 0,0.23634 0.154341,0.37621 0.156752,0.13746 0.424436,0.13746 0.368971,0 0.590835,-0.26045 0.224277,-0.26286 0.224277,-0.69695 v -0.0989 z m 0.885047,-0.18328 v 1.54099 h -0.443729 v -0.40996 q -0.151929,0.24598 -0.378617,0.36414 -0.226688,0.11576 -0.554662,0.11576 -0.41479,0 -0.660771,-0.23151 -0.243568,-0.23392 -0.243568,-0.6246 0,-0.45579 0.303858,-0.6873 0.306269,-0.23151 0.911574,-0.23151 h 0.622186 v -0.0434 q 0,-0.30627 -0.202572,-0.47267 -0.200161,-0.16881 -0.564308,-0.16881 -0.231511,0 -0.450964,0.0555 -0.219453,0.0555 -0.422025,0.1664 v -0.40997 q 0.243568,-0.094 0.472668,-0.13987 0.229099,-0.0482 0.446141,-0.0482 0.586012,0 0.8754,0.30386 0.289389,0.30386 0.289389,0.92122 z"
         style="stroke-width:0.264583"
         id="path966" />
      <path
         d="m 99.951447,113.91948 v 0.41962 q -0.188103,-0.0965 -0.390675,-0.1447 -0.202572,-0.0482 -0.419614,-0.0482 -0.330385,0 -0.496784,0.10129 -0.163986,0.10128 -0.163986,0.30386 0,0.15434 0.118167,0.24356 0.118167,0.0868 0.475079,0.1664 l 0.151929,0.0338 q 0.472669,0.10128 0.670417,0.28697 0.20016,0.18328 0.20016,0.51367 0,0.3762 -0.299034,0.59566 -0.296623,0.21945 -0.817523,0.21945 -0.217041,0 -0.453376,-0.0434 -0.233922,-0.041 -0.494372,-0.1254 v -0.4582 q 0.245981,0.12781 0.484726,0.19293 0.238746,0.0627 0.472668,0.0627 0.313505,0 0.482315,-0.10611 0.16881,-0.10852 0.16881,-0.30386 0,-0.18087 -0.12299,-0.27733 -0.120579,-0.0965 -0.532958,-0.18569 l -0.15434,-0.0362 q -0.412379,-0.0868 -0.595659,-0.26527 -0.183279,-0.18087 -0.183279,-0.49437 0,-0.38103 0.270096,-0.58843 0.270096,-0.20739 0.76688,-0.20739 0.24598,0 0.463022,0.0362 0.217041,0.0362 0.400321,0.10852 z"
         style="stroke-width:0.264583"
         id="path968" />
      <path
         d="m 102.03022,115.18315 q -0.53778,0 -0.74517,0.12299 -0.2074,0.12299 -0.2074,0.41961 0,0.23634 0.15434,0.37621 0.15675,0.13746 0.42444,0.13746 0.36897,0 0.59083,-0.26045 0.22428,-0.26286 0.22428,-0.69695 v -0.0989 z m 0.88505,-0.18328 v 1.54099 h -0.44373 v -0.40996 q -0.15193,0.24598 -0.37862,0.36414 -0.22669,0.11576 -0.55466,0.11576 -0.41479,0 -0.66077,-0.23151 -0.24357,-0.23392 -0.24357,-0.6246 0,-0.45579 0.30386,-0.6873 0.30627,-0.23151 0.91157,-0.23151 h 0.62219 v -0.0434 q 0,-0.30627 -0.20257,-0.47267 -0.20016,-0.16881 -0.56431,-0.16881 -0.23151,0 -0.45097,0.0555 -0.21945,0.0555 -0.42202,0.1664 v -0.40997 q 0.24357,-0.094 0.47267,-0.13987 0.2291,-0.0482 0.44614,-0.0482 0.58601,0 0.8754,0.30386 0.28939,0.30386 0.28939,0.92122 z"
         style="stroke-width:0.264583"
         id="path970" />
      <path
         d="m 103.82925,112.78846 h 0.44373 v 3.7524 h -0.44373 z"
         style="stroke-width:0.264583"
         id="path972" />
    </g>
    <g
       aria-label="Temporal"
       id="text887-3"
       style="font-size:4.9389px;line-height:1.25;font-family:sans-serif;-inkscape-font-specification:'sans-serif, Normal';stroke-width:0.264583"
       transform="matrix(1.0812207,0,0,1.0812207,-2.7373196,-9.0406087)">
      <path
         d="m 33.702266,111.46118 h 3.045816 v 0.40997 h -1.278133 v 3.19051 H 34.9804 v -3.19051 h -1.278134 z"
         style="stroke-width:0.264583"
         id="path993" />
      <path
         d="m 38.670105,113.60025 v 0.21704 h -2.04019 q 0.02894,0.4582 0.274919,0.69936 0.248392,0.23874 0.68971,0.23874 0.255627,0 0.494372,-0.0627 0.241158,-0.0627 0.477492,-0.1881 v 0.41961 q -0.238746,0.10129 -0.48955,0.15434 -0.250803,0.0531 -0.508841,0.0531 -0.646302,0 -1.024918,-0.37621 -0.376206,-0.3762 -0.376206,-1.01768 0,-0.66318 0.356913,-1.05145 0.359324,-0.39067 0.96704,-0.39067 0.545016,0 0.860932,0.35209 0.318327,0.34967 0.318327,0.95257 z m -0.443729,-0.13023 q -0.0048,-0.36414 -0.204984,-0.58119 -0.197749,-0.21704 -0.525722,-0.21704 -0.371383,0 -0.595659,0.20981 -0.221864,0.20981 -0.255626,0.59083 z"
         style="stroke-width:0.264583"
         id="path995" />
      <path
         d="m 41.501291,112.87919 q 0.166399,-0.29904 0.39791,-0.44132 0.231511,-0.14228 0.545015,-0.14228 0.422025,0 0.651124,0.29662 0.2291,0.29421 0.2291,0.83923 v 1.63022 h -0.446141 v -1.61575 q 0,-0.38827 -0.13746,-0.57637 -0.137459,-0.1881 -0.419613,-0.1881 -0.344855,0 -0.545016,0.2291 -0.20016,0.2291 -0.20016,0.6246 v 1.52652 h -0.446141 v -1.61575 q 0,-0.39068 -0.13746,-0.57637 -0.137459,-0.1881 -0.424436,-0.1881 -0.340032,0 -0.540192,0.23151 -0.200161,0.2291 -0.200161,0.62219 v 1.52652 h -0.446141 v -2.70096 h 0.446141 v 0.41961 q 0.151929,-0.24839 0.364147,-0.36656 0.212219,-0.11816 0.504019,-0.11816 0.294212,0 0.499195,0.14951 0.207396,0.14952 0.30627,0.43409 z"
         style="stroke-width:0.264583"
         id="path997" />
      <path
         d="m 44.638746,114.65652 v 1.43247 h -0.446141 v -3.72829 h 0.446141 v 0.40997 q 0.139871,-0.24116 0.35209,-0.35692 0.21463,-0.11816 0.511253,-0.11816 0.491961,0 0.79823,0.39067 0.308682,0.39068 0.308682,1.02733 0,0.63666 -0.308682,1.02733 -0.306269,0.39068 -0.79823,0.39068 -0.296623,0 -0.511253,-0.11576 -0.212219,-0.11817 -0.35209,-0.35932 z m 1.509644,-0.94293 q 0,-0.48955 -0.202572,-0.76688 -0.20016,-0.27974 -0.55225,-0.27974 -0.352089,0 -0.554661,0.27974 -0.200161,0.27733 -0.200161,0.76688 0,0.48955 0.200161,0.76929 0.202572,0.27733 0.554661,0.27733 0.35209,0 0.55225,-0.27733 0.202572,-0.27974 0.202572,-0.76929 z"
         style="stroke-width:0.264583"
         id="path999" />
      <path
         d="m 48.391153,112.67179 q -0.356913,0 -0.564308,0.27975 -0.207395,0.27733 -0.207395,0.76205 0,0.48473 0.204983,0.76447 0.207396,0.27733 0.56672,0.27733 0.354501,0 0.561896,-0.27974 0.207395,-0.27974 0.207395,-0.76206 0,-0.4799 -0.207395,-0.75964 -0.207395,-0.28216 -0.561896,-0.28216 z m 0,-0.3762 q 0.578777,0 0.909163,0.3762 0.330385,0.37621 0.330385,1.0418 0,0.66318 -0.330385,1.0418 -0.330386,0.37621 -0.909163,0.37621 -0.581189,0 -0.911575,-0.37621 -0.327973,-0.37862 -0.327973,-1.0418 0,-0.66559 0.327973,-1.0418 0.330386,-0.3762 0.911575,-0.3762 z"
         style="stroke-width:0.264583"
         id="path1001" />
      <path
         d="m 51.931341,112.77549 q -0.07476,-0.0434 -0.163987,-0.0627 -0.08682,-0.0217 -0.192926,-0.0217 -0.376205,0 -0.578777,0.24598 -0.200161,0.24356 -0.200161,0.70176 v 1.42283 h -0.446141 v -2.70096 h 0.446141 v 0.41961 q 0.139871,-0.24598 0.364148,-0.36414 0.224276,-0.12058 0.545015,-0.12058 0.04582,0 0.101286,0.007 0.05547,0.005 0.12299,0.0169 z"
         style="stroke-width:0.264583"
         id="path1003" />
      <path
         d="m 53.624265,113.70395 q -0.537781,0 -0.745176,0.12299 -0.207395,0.12299 -0.207395,0.41961 0,0.23633 0.15434,0.3762 0.156753,0.13746 0.424437,0.13746 0.368971,0 0.590835,-0.26045 0.224277,-0.26286 0.224277,-0.69694 v -0.0989 z m 0.885047,-0.18328 v 1.54099 h -0.443729 v -0.40997 q -0.151929,0.24598 -0.378617,0.36415 -0.226688,0.11576 -0.554662,0.11576 -0.41479,0 -0.660771,-0.23151 -0.243568,-0.23393 -0.243568,-0.6246 0,-0.45579 0.303858,-0.6873 0.306269,-0.23151 0.911574,-0.23151 h 0.622186 v -0.0434 q 0,-0.30627 -0.202572,-0.47267 -0.200161,-0.16881 -0.564308,-0.16881 -0.231511,0 -0.450964,0.0555 -0.219453,0.0555 -0.422026,0.1664 v -0.40997 q 0.243569,-0.094 0.472669,-0.13987 0.229099,-0.0482 0.446141,-0.0482 0.586012,0 0.8754,0.30386 0.289389,0.30385 0.289389,0.92122 z"
         style="stroke-width:0.264583"
         id="path1005" />
      <path
         d="m 55.423298,111.30925 h 0.44373 v 3.75241 h -0.44373 z"
         style="stroke-width:0.264583"
         id="path1007" />
    </g>
    <path
       style="fill:none;stroke:#000000;stroke-width:0.264583px;stroke-linecap:butt;stroke-linejoin:miter;stroke-opacity:1"
       d="m 64.028375,119.94108 c 6.860742,15.91618 13.721347,31.83205 14.907508,45.24167 1.186161,13.40961 -3.301746,24.31273 -7.789687,35.21593"
       id="path913"
       sodipodi:nodetypes="ccc" />
    <path
       style="fill:none;stroke:#000000;stroke-width:0.264583px;stroke-linecap:butt;stroke-linejoin:miter;stroke-opacity:1"
       d="m 134.12168,118.06543 c -6.86074,15.91619 -13.72135,31.83206 -14.41544,45.25241 -0.6941,13.42035 4.77787,24.34491 10.24986,35.26951"
       id="path913-6"
       sodipodi:nodetypes="ccc" />
    <path
       style="fill:none;stroke:#000000;stroke-width:0.264583px;stroke-linecap:butt;stroke-linejoin:miter;stroke-opacity:1"
       d="m 79.426998,116.63716 c 6.451969,26.57199 12.903733,53.14313 18.967977,53.41152 6.064245,0.26839 11.740595,-25.76585 17.417105,-51.8008"
       id="path941"
       sodipodi:nodetypes="ccc" />
    <g
       aria-label="Optic"
       id="text947"
       style="font-size:4.9389px;line-height:1.25;font-family:sans-serif;-inkscape-font-specification:'sans-serif, Normal';stroke-width:0.264583"
       transform="matrix(1.1132328,0,0,1.1132328,-11.092048,-20.503612)">
      <path
         d="m 93.710472,143.44883 q -0.530546,0 -0.844051,0.39549 -0.311092,0.3955 -0.311092,1.07798 0,0.68006 0.311092,1.07556 0.313505,0.3955 0.844051,0.3955 0.530546,0 0.839227,-0.3955 0.311093,-0.3955 0.311093,-1.07556 0,-0.68248 -0.311093,-1.07798 -0.308681,-0.39549 -0.839227,-0.39549 z m 0,-0.3955 q 0.757233,0 1.210609,0.50884 0.453376,0.50643 0.453376,1.36013 0,0.85128 -0.453376,1.36012 -0.453376,0.50643 -1.210609,0.50643 -0.759646,0 -1.215433,-0.50643 -0.453375,-0.50643 -0.453375,-1.36012 0,-0.8537 0.453375,-1.36013 0.455787,-0.50884 1.215433,-0.50884 z"
         style="text-align:center;text-anchor:middle;stroke-width:0.264583"
         id="path1010" />
      <path
         d="m 96.546481,146.31377 v 1.43248 H 96.10034 v -3.72829 h 0.446141 v 0.40996 q 0.139871,-0.24115 0.352089,-0.35691 0.21463,-0.11817 0.511254,-0.11817 0.49196,0 0.79823,0.39068 0.308681,0.39067 0.308681,1.02733 0,0.63665 -0.308681,1.02733 -0.30627,0.39067 -0.79823,0.39067 -0.296624,0 -0.511254,-0.11575 -0.212218,-0.11817 -0.352089,-0.35933 z m 1.509644,-0.94292 q 0,-0.48955 -0.202572,-0.76688 -0.200161,-0.27974 -0.55225,-0.27974 -0.35209,0 -0.554662,0.27974 -0.20016,0.27733 -0.20016,0.76688 0,0.48955 0.20016,0.76929 0.202572,0.27733 0.554662,0.27733 0.352089,0 0.55225,-0.27733 0.202572,-0.27974 0.202572,-0.76929 z"
         style="text-align:center;text-anchor:middle;stroke-width:0.264583"
         id="path1012" />
      <path
         d="m 99.691171,143.25108 v 0.76688 h 0.913989 v 0.34485 h -0.913989 v 1.46624 q 0,0.33038 0.08923,0.42443 0.09164,0.0941 0.368969,0.0941 h 0.45579 v 0.37138 h -0.45579 q -0.513664,0 -0.709001,-0.19052 -0.195337,-0.19292 -0.195337,-0.69935 v -1.46624 H 98.919469 V 144.018 h 0.325563 v -0.76688 z"
         style="text-align:center;text-anchor:middle;stroke-width:0.264583"
         id="path1014" />
      <path
         d="m 101.18876,144.01796 h 0.44373 v 2.70096 h -0.44373 z m 0,-1.05145 h 0.44373 v 0.5619 h -0.44373 z"
         style="text-align:center;text-anchor:middle;stroke-width:0.264583"
         id="path1016" />
      <path
         d="m 104.50467,144.12165 v 0.41479 q -0.1881,-0.10369 -0.37862,-0.15434 -0.1881,-0.0531 -0.38103,-0.0531 -0.43167,0 -0.67041,0.27492 -0.23875,0.27251 -0.23875,0.76688 0,0.49437 0.23875,0.76929 0.23874,0.27251 0.67041,0.27251 0.19293,0 0.38103,-0.0506 0.19052,-0.0531 0.37862,-0.15676 v 0.40997 q -0.18569,0.0868 -0.38585,0.13023 -0.19775,0.0434 -0.42203,0.0434 -0.61013,0 -0.96945,-0.38344 -0.35932,-0.38344 -0.35932,-1.03456 0,-0.66077 0.36173,-1.03939 0.36415,-0.37862 0.99598,-0.37862 0.20499,0 0.40032,0.0434 0.19534,0.041 0.37862,0.1254 z"
         style="text-align:center;text-anchor:middle;stroke-width:0.264583"
         id="path1018" />
    </g>
    <g
       aria-label="Chiasm"
       id="text977"
       style="font-size:4.9389px;line-height:1.25;font-family:sans-serif;-inkscape-font-specification:'sans-serif, Normal';stroke-width:0.264583"
       transform="matrix(1.1132328,0,0,1.1132328,-11.092048,-20.503612)">
      <path
         d="m 92.287644,149.5694 v 0.51367 q -0.24598,-0.2291 -0.525723,-0.34245 -0.277331,-0.11334 -0.590835,-0.11334 -0.617362,0 -0.945336,0.37862 -0.327974,0.3762 -0.327974,1.09003 0,0.71141 0.327974,1.09003 0.327974,0.3762 0.945336,0.3762 0.313504,0 0.590835,-0.11334 0.279743,-0.11335 0.525723,-0.34244 v 0.50884 q -0.255627,0.17363 -0.542604,0.26045 -0.284565,0.0868 -0.602893,0.0868 -0.817523,0 -1.287779,-0.49919 -0.470257,-0.50161 -0.470257,-1.36736 0,-0.86817 0.470257,-1.36737 0.470256,-0.5016 1.287779,-0.5016 0.323151,0 0.607716,0.0868 0.286977,0.0844 0.537781,0.25563 z"
         style="text-align:center;text-anchor:middle;stroke-width:0.264583"
         id="path1021" />
      <path
         d="m 95.265936,151.26232 v 1.63023 h -0.44373 v -1.61576 q 0,-0.38344 -0.149517,-0.57395 -0.149518,-0.19051 -0.448552,-0.19051 -0.359325,0 -0.56672,0.2291 -0.207395,0.22909 -0.207395,0.62459 v 1.52653 h -0.446141 v -3.75241 h 0.446141 v 1.47106 q 0.159164,-0.24357 0.373794,-0.36415 0.217041,-0.12058 0.499195,-0.12058 0.465433,0 0.704179,0.28939 0.238746,0.28698 0.238746,0.84646 z"
         style="text-align:center;text-anchor:middle;stroke-width:0.264583"
         id="path1023" />
      <path
         d="m 96.150983,150.19159 h 0.443729 v 2.70096 h -0.443729 z m 0,-1.05145 h 0.443729 v 0.5619 h -0.443729 z"
         style="text-align:center;text-anchor:middle;stroke-width:0.264583"
         id="path1025" />
      <path
         d="m 98.750658,151.53483 q -0.537781,0 -0.745176,0.12299 -0.207395,0.12299 -0.207395,0.41962 0,0.23633 0.15434,0.3762 0.156753,0.13746 0.424437,0.13746 0.368971,0 0.590835,-0.26045 0.224277,-0.26286 0.224277,-0.69694 v -0.0989 z m 0.885047,-0.18328 v 1.541 h -0.443729 v -0.40997 q -0.151929,0.24598 -0.378617,0.36415 -0.226688,0.11575 -0.554662,0.11575 -0.41479,0 -0.660771,-0.23151 -0.243568,-0.23392 -0.243568,-0.62459 0,-0.45579 0.303858,-0.6873 0.306269,-0.23151 0.911574,-0.23151 h 0.622186 v -0.0434 q 0,-0.30627 -0.202572,-0.47267 -0.200161,-0.16881 -0.564308,-0.16881 -0.231511,0 -0.450964,0.0555 -0.219453,0.0555 -0.422026,0.16639 v -0.40996 q 0.243569,-0.0941 0.472669,-0.13987 0.229099,-0.0482 0.446141,-0.0482 0.586012,0 0.8754,0.30386 0.289389,0.30386 0.289389,0.92122 z"
         style="text-align:center;text-anchor:middle;stroke-width:0.264583"
         id="path1027" />
      <path
         d="m 102.27155,150.27117 v 0.41961 q -0.1881,-0.0965 -0.39067,-0.14469 -0.20257,-0.0482 -0.41961,-0.0482 -0.33039,0 -0.49679,0.10128 -0.16399,0.10129 -0.16399,0.30386 0,0.15434 0.11817,0.24357 0.11817,0.0868 0.47508,0.1664 l 0.15193,0.0338 q 0.47267,0.10129 0.67042,0.28698 0.20016,0.18328 0.20016,0.51366 0,0.37621 -0.29904,0.59566 -0.29662,0.21945 -0.81752,0.21945 -0.21704,0 -0.45338,-0.0434 -0.23392,-0.041 -0.49437,-0.1254 v -0.4582 q 0.24598,0.12782 0.48473,0.19293 0.23874,0.0627 0.47267,0.0627 0.3135,0 0.48231,-0.10611 0.16881,-0.10852 0.16881,-0.30386 0,-0.18086 -0.12299,-0.27733 -0.12058,-0.0965 -0.53296,-0.18569 l -0.15434,-0.0362 q -0.41238,-0.0868 -0.59566,-0.26527 -0.18328,-0.18087 -0.18328,-0.49438 0,-0.38103 0.2701,-0.58842 0.2701,-0.2074 0.76688,-0.2074 0.24598,0 0.46302,0.0362 0.21704,0.0362 0.40032,0.10852 z"
         style="text-align:center;text-anchor:middle;stroke-width:0.264583"
         id="path1029" />
      <path
         d="m 105.22573,150.71007 q 0.1664,-0.29903 0.39791,-0.44131 0.23151,-0.14229 0.54501,-0.14229 0.42203,0 0.65113,0.29663 0.2291,0.29421 0.2291,0.83922 v 1.63023 h -0.44614 v -1.61576 q 0,-0.38826 -0.13746,-0.57636 -0.13746,-0.1881 -0.41962,-0.1881 -0.34485,0 -0.54501,0.2291 -0.20016,0.22909 -0.20016,0.62459 v 1.52653 h -0.44614 v -1.61576 q 0,-0.39067 -0.13746,-0.57636 -0.13746,-0.1881 -0.42444,-0.1881 -0.34003,0 -0.54019,0.23151 -0.20016,0.2291 -0.20016,0.62218 v 1.52653 h -0.44614 v -2.70096 h 0.44614 v 0.41961 q 0.15193,-0.24839 0.36415,-0.36656 0.21221,-0.11817 0.50401,-0.11817 0.29422,0 0.4992,0.14952 0.2074,0.14952 0.30627,0.43408 z"
         style="text-align:center;text-anchor:middle;stroke-width:0.264583"
         id="path1031" />
    </g>
    <path
       style="fill:none;stroke:#000000;stroke-width:0.264583px;stroke-linecap:butt;stroke-linejoin:miter;stroke-opacity:1"
       d="m 82.153761,202.61935 c 5.559977,-11.96405 11.119894,-23.92797 16.317678,-24.00616 5.197781,-0.0782 10.032831,11.72918 14.867851,23.53645"
       id="path983"
       sodipodi:nodetypes="ccc" />
    <path
       style="fill:none;stroke:#ff00ff;stroke-width:0.264583px;stroke-linecap:butt;stroke-linejoin:miter;stroke-opacity:1"
       d="m 135.59172,109.7096 c -0.87058,1.59831 -1.74111,3.19653 -2.99365,6.32028 -1.25254,3.12376 -2.88702,7.77281 -5.63015,15.98554 -2.74314,8.21274 -6.59474,19.98857 -8.08804,27.95514 -1.49329,7.96657 -0.62835,12.12332 0.80498,18.24449 1.43333,6.12116 3.43493,14.20632 5.43649,22.29133"
       id="path991" />
    <path
       style="fill:none;stroke:#ff0000;stroke-width:0.264583px;stroke-linecap:butt;stroke-linejoin:miter;stroke-opacity:1"
       d="m 59.487993,112.41791 c 1.477156,1.20474 2.954228,2.40941 4.921278,5.02812 1.96705,2.6187 4.423208,6.64995 7.42578,14.57819 3.002572,7.92825 6.550705,19.75122 8.697576,27.86566 2.146871,8.11445 2.891976,12.51832 1.443708,18.70851 -1.448269,6.1902 -5.089691,14.16595 -8.731076,22.14163"
       id="path991-2"
       sodipodi:nodetypes="cccccc" />
    <path
       style="fill:none;stroke:#ff0000;stroke-width:0.264583px;stroke-linecap:butt;stroke-linejoin:miter;stroke-opacity:1"
       d="m 116.27608,119.69066 c -0.90479,5.34538 -1.80956,10.69056 -3.5834,18.51189 -1.77385,7.82133 -4.41667,18.11844 -6.88569,24.51864 -2.46901,6.40021 -4.7641,8.90337 -7.513316,11.32397 -2.749213,2.42059 -5.952424,4.75852 -9.258843,9.4523 -3.306419,4.69377 -6.715747,11.74292 -10.125086,18.79209"
       id="path1019" />
    <path
       style="fill:none;stroke:#ff00ff;stroke-width:0.264583px;stroke-linecap:butt;stroke-linejoin:miter;stroke-opacity:1"
       d="m 78.803639,116.98235 c 0.904795,5.34538 1.809556,10.69056 3.583405,18.51189 1.773848,7.82133 4.416669,18.11844 6.885682,24.51864 2.469012,6.4002 4.764109,8.90337 7.513321,11.32396 2.749212,2.4206 5.952433,4.75854 9.258843,9.45231 3.30642,4.69377 6.71575,11.74292 10.12509,18.79209"
       id="path1019-9" />
    <g
       aria-label="Temporal"
       id="text887-3-3"
       style="font-size:4.9389px;line-height:1.25;font-family:sans-serif;-inkscape-font-specification:'sans-serif, Normal';stroke-width:0.264583"
       transform="matrix(1.0812207,0,0,1.0812207,101.31477,-8.5706007)">
      <path
         d="m 33.702266,111.46118 h 3.045816 v 0.40997 h -1.278133 v 3.19051 H 34.9804 v -3.19051 h -1.278134 z"
         style="stroke-width:0.264583"
         id="path993-6" />
      <path
         d="m 38.670105,113.60025 v 0.21704 h -2.04019 q 0.02894,0.4582 0.274919,0.69936 0.248392,0.23874 0.68971,0.23874 0.255627,0 0.494372,-0.0627 0.241158,-0.0627 0.477492,-0.1881 v 0.41961 q -0.238746,0.10129 -0.48955,0.15434 -0.250803,0.0531 -0.508841,0.0531 -0.646302,0 -1.024918,-0.37621 -0.376206,-0.3762 -0.376206,-1.01768 0,-0.66318 0.356913,-1.05145 0.359324,-0.39067 0.96704,-0.39067 0.545016,0 0.860932,0.35209 0.318327,0.34967 0.318327,0.95257 z m -0.443729,-0.13023 q -0.0048,-0.36414 -0.204984,-0.58119 -0.197749,-0.21704 -0.525722,-0.21704 -0.371383,0 -0.595659,0.20981 -0.221864,0.20981 -0.255626,0.59083 z"
         style="stroke-width:0.264583"
         id="path995-7" />
      <path
         d="m 41.501291,112.87919 q 0.166399,-0.29904 0.39791,-0.44132 0.231511,-0.14228 0.545015,-0.14228 0.422025,0 0.651124,0.29662 0.2291,0.29421 0.2291,0.83923 v 1.63022 h -0.446141 v -1.61575 q 0,-0.38827 -0.13746,-0.57637 -0.137459,-0.1881 -0.419613,-0.1881 -0.344855,0 -0.545016,0.2291 -0.20016,0.2291 -0.20016,0.6246 v 1.52652 h -0.446141 v -1.61575 q 0,-0.39068 -0.13746,-0.57637 -0.137459,-0.1881 -0.424436,-0.1881 -0.340032,0 -0.540192,0.23151 -0.200161,0.2291 -0.200161,0.62219 v 1.52652 h -0.446141 v -2.70096 h 0.446141 v 0.41961 q 0.151929,-0.24839 0.364147,-0.36656 0.212219,-0.11816 0.504019,-0.11816 0.294212,0 0.499195,0.14951 0.207396,0.14952 0.30627,0.43409 z"
         style="stroke-width:0.264583"
         id="path997-5" />
      <path
         d="m 44.638746,114.65652 v 1.43247 h -0.446141 v -3.72829 h 0.446141 v 0.40997 q 0.139871,-0.24116 0.35209,-0.35692 0.21463,-0.11816 0.511253,-0.11816 0.491961,0 0.79823,0.39067 0.308682,0.39068 0.308682,1.02733 0,0.63666 -0.308682,1.02733 -0.306269,0.39068 -0.79823,0.39068 -0.296623,0 -0.511253,-0.11576 -0.212219,-0.11817 -0.35209,-0.35932 z m 1.509644,-0.94293 q 0,-0.48955 -0.202572,-0.76688 -0.20016,-0.27974 -0.55225,-0.27974 -0.352089,0 -0.554661,0.27974 -0.200161,0.27733 -0.200161,0.76688 0,0.48955 0.200161,0.76929 0.202572,0.27733 0.554661,0.27733 0.35209,0 0.55225,-0.27733 0.202572,-0.27974 0.202572,-0.76929 z"
         style="stroke-width:0.264583"
         id="path999-3" />
      <path
         d="m 48.391153,112.67179 q -0.356913,0 -0.564308,0.27975 -0.207395,0.27733 -0.207395,0.76205 0,0.48473 0.204983,0.76447 0.207396,0.27733 0.56672,0.27733 0.354501,0 0.561896,-0.27974 0.207395,-0.27974 0.207395,-0.76206 0,-0.4799 -0.207395,-0.75964 -0.207395,-0.28216 -0.561896,-0.28216 z m 0,-0.3762 q 0.578777,0 0.909163,0.3762 0.330385,0.37621 0.330385,1.0418 0,0.66318 -0.330385,1.0418 -0.330386,0.37621 -0.909163,0.37621 -0.581189,0 -0.911575,-0.37621 -0.327973,-0.37862 -0.327973,-1.0418 0,-0.66559 0.327973,-1.0418 0.330386,-0.3762 0.911575,-0.3762 z"
         style="stroke-width:0.264583"
         id="path1001-5" />
      <path
         d="m 51.931341,112.77549 q -0.07476,-0.0434 -0.163987,-0.0627 -0.08682,-0.0217 -0.192926,-0.0217 -0.376205,0 -0.578777,0.24598 -0.200161,0.24356 -0.200161,0.70176 v 1.42283 h -0.446141 v -2.70096 h 0.446141 v 0.41961 q 0.139871,-0.24598 0.364148,-0.36414 0.224276,-0.12058 0.545015,-0.12058 0.04582,0 0.101286,0.007 0.05547,0.005 0.12299,0.0169 z"
         style="stroke-width:0.264583"
         id="path1003-6" />
      <path
         d="m 53.624265,113.70395 q -0.537781,0 -0.745176,0.12299 -0.207395,0.12299 -0.207395,0.41961 0,0.23633 0.15434,0.3762 0.156753,0.13746 0.424437,0.13746 0.368971,0 0.590835,-0.26045 0.224277,-0.26286 0.224277,-0.69694 v -0.0989 z m 0.885047,-0.18328 v 1.54099 h -0.443729 v -0.40997 q -0.151929,0.24598 -0.378617,0.36415 -0.226688,0.11576 -0.554662,0.11576 -0.41479,0 -0.660771,-0.23151 -0.243568,-0.23393 -0.243568,-0.6246 0,-0.45579 0.303858,-0.6873 0.306269,-0.23151 0.911574,-0.23151 h 0.622186 v -0.0434 q 0,-0.30627 -0.202572,-0.47267 -0.200161,-0.16881 -0.564308,-0.16881 -0.231511,0 -0.450964,0.0555 -0.219453,0.0555 -0.422026,0.1664 v -0.40997 q 0.243569,-0.094 0.472669,-0.13987 0.229099,-0.0482 0.446141,-0.0482 0.586012,0 0.8754,0.30386 0.289389,0.30385 0.289389,0.92122 z"
         style="stroke-width:0.264583"
         id="path1005-2" />
      <path
         d="m 55.423298,111.30925 h 0.44373 v 3.75241 h -0.44373 z"
         style="stroke-width:0.264583"
         id="path1007-9" />
    </g>
  </g>
</svg>
