<?xml version="1.0" encoding="UTF-8" standalone="no"?>
<!DOCTYPE svg PUBLIC "-//W3C//DTD SVG 1.0//EN"
  "http://www.w3.org/TR/SVG/DTD/svg10.dtd">
<svg xmlns="http://www.w3.org/2000/svg" version="1.2" baseProfile="tiny"
     width="1010px" height="438px" viewport-fill="#ffffff" >
<desc>
Created with Chemtool 1.6.13 from file /home/kevin/Documents/MCAT Cheat Sheet/Biochem/Molecules/Metabolism/Beta Oxidation/SVG/Triacylglyceride.svg 
</desc>
<g>
<line x1="429" y1="200" x2="468" y2="200"
style="stroke-width:2; stroke:#000000" />
<line x1="417" y1="212" x2="417" y2="251"
style="stroke-width:2; stroke:#000000" />
<line x1="429" y1="264" x2="468" y2="264"
style="stroke-width:2; stroke:#000000" />
<line x1="417" y1="276" x2="417" y2="315"
style="stroke-width:2; stroke:#000000" />
<line x1="429" y1="328" x2="468" y2="328"
style="stroke-width:2; stroke:#000000" />
<line x1="404" y1="200" x2="365" y2="200"
style="stroke-width:2; stroke:#000000" />
<line x1="404" y1="264" x2="365" y2="264"
style="stroke-width:2; stroke:#000000" />
<line x1="404" y1="328" x2="365" y2="328"
style="stroke-width:2; stroke:#000000" />
<line x1="417" y1="187" x2="417" y2="148"
style="stroke-width:2; stroke:#000000" />
<line x1="417" y1="340" x2="417" y2="378"
style="stroke-width:2; stroke:#000000" />
<line x1="491" y1="194" x2="536" y2="168"
style="stroke-width:2; stroke:#000000" />
<line x1="536" y1="168" x2="591" y2="200"
style="stroke-width:2; stroke:#000000" />
<line x1="491" y1="258" x2="536" y2="232"
style="stroke-width:2; stroke:#000000" />
<line x1="536" y1="232" x2="591" y2="264"
style="stroke-width:2; stroke:#000000" />
<line x1="491" y1="322" x2="536" y2="296"
style="stroke-width:2; stroke:#000000" />
<line x1="536" y1="296" x2="590" y2="328"
style="stroke-width:2; stroke:#000000" />
<line x1="590" y1="328" x2="645" y2="296"
style="stroke-width:2; stroke:#000000" />
<line x1="645" y1="296" x2="699" y2="326"
style="stroke-width:2; stroke:#000000" />
<line x1="754" y1="294" x2="809" y2="326"
style="stroke-width:2; stroke:#000000" />
<line x1="809" y1="326" x2="864" y2="294"
style="stroke-width:2; stroke:#000000" />
<line x1="864" y1="294" x2="919" y2="326"
style="stroke-width:2; stroke:#000000" />
<line x1="591" y1="264" x2="646" y2="232"
style="stroke-width:2; stroke:#000000" />
<line x1="646" y1="232" x2="701" y2="264"
style="stroke-width:2; stroke:#000000" />
<line x1="701" y1="264" x2="756" y2="232"
style="stroke-width:2; stroke:#000000" />
<line x1="756" y1="232" x2="810" y2="264"
style="stroke-width:2; stroke:#000000" />
<line x1="865" y1="232" x2="919" y2="264"
style="stroke-width:2; stroke:#000000" />
<line x1="591" y1="200" x2="646" y2="168"
style="stroke-width:2; stroke:#000000" />
<line x1="701" y1="200" x2="755" y2="170"
style="stroke-width:2; stroke:#000000" />
<line x1="755" y1="170" x2="810" y2="202"
style="stroke-width:2; stroke:#000000" />
<line x1="810" y1="202" x2="864" y2="172"
style="stroke-width:2; stroke:#000000" />
<line x1="864" y1="172" x2="919" y2="204"
style="stroke-width:2; stroke:#000000" />
<line x1="540" y1="168" x2="540" y2="138"
style="stroke-width:2; stroke:#000000" />
<line x1="532" y1="168" x2="532" y2="138"
style="stroke-width:2; stroke:#000000" />
<line x1="540" y1="232" x2="540" y2="202"
style="stroke-width:2; stroke:#000000" />
<line x1="532" y1="232" x2="532" y2="202"
style="stroke-width:2; stroke:#000000" />
<line x1="540" y1="296" x2="540" y2="266"
style="stroke-width:2; stroke:#000000" />
<line x1="532" y1="296" x2="532" y2="266"
style="stroke-width:2; stroke:#000000" />
<line x1="646" y1="168" x2="701" y2="200"
style="stroke-width:2; stroke:#000000" />
<line x1="655" y1="166" x2="699" y2="191"
style="stroke-width:2; stroke:#000000" />
<line x1="699" y1="326" x2="754" y2="294"
style="stroke-width:2; stroke:#000000" />
<line x1="701" y1="317" x2="745" y2="292"
style="stroke-width:2; stroke:#000000" />
<line x1="810" y1="264" x2="864" y2="232"
style="stroke-width:2; stroke:#000000" />
<line x1="812" y1="255" x2="855" y2="230"
style="stroke-width:2; stroke:#000000" />
<text x="415" y="208" style="font-family:Helvetica; font-size:18pt; fill:#000000;text-anchor:middle;" > 
<tspan>
C</tspan>
</text>
<text x="415" y="272" style="font-family:Helvetica; font-size:18pt; fill:#000000;text-anchor:middle;" > 
<tspan>
C</tspan>
</text>
<text x="415" y="336" style="font-family:Helvetica; font-size:18pt; fill:#000000;text-anchor:middle;" > 
<tspan>
C</tspan>
</text>
<text x="415" y="144" style="font-family:Helvetica; font-size:18pt; fill:#000000;text-anchor:middle;" > 
<tspan>
H</tspan>
</text>
<text x="415" y="399" style="font-family:Helvetica; font-size:18pt; fill:#000000;text-anchor:middle;" > 
<tspan>
H</tspan>
</text>
<text x="351" y="336" style="font-family:Helvetica; font-size:18pt; fill:#000000;text-anchor:middle;" > 
<tspan>
H</tspan>
</text>
<text x="351" y="272" style="font-family:Helvetica; font-size:18pt; fill:#000000;text-anchor:middle;" > 
<tspan>
H</tspan>
</text>
<text x="351" y="208" style="font-family:Helvetica; font-size:18pt; fill:#000000;text-anchor:middle;" > 
<tspan>
H</tspan>
</text>
<text x="479" y="208" style="font-family:Helvetica; font-size:18pt; fill:#000000;text-anchor:middle;" > 
<tspan>
O</tspan>
</text>
<text x="479" y="272" style="font-family:Helvetica; font-size:18pt; fill:#000000;text-anchor:middle;" > 
<tspan>
O</tspan>
</text>
<text x="479" y="336" style="font-family:Helvetica; font-size:18pt; fill:#000000;text-anchor:middle;" > 
<tspan>
O</tspan>
</text>
<text x="534" y="134" style="font-family:Helvetica; font-size:18pt; fill:#000000;text-anchor:middle;" > 
<tspan>
O</tspan>
</text>
<text x="534" y="198" style="font-family:Helvetica; font-size:18pt; fill:#000000;text-anchor:middle;" > 
<tspan>
O</tspan>
</text>
<text x="534" y="262" style="font-family:Helvetica; font-size:18pt; fill:#000000;text-anchor:middle;" > 
<tspan>
O</tspan>
</text>
</g>
</svg>
