<?xml version="1.0" encoding="UTF-8" standalone="no"?>
<svg
   xmlns:dc="http://purl.org/dc/elements/1.1/"
   xmlns:cc="http://creativecommons.org/ns#"
   xmlns:rdf="http://www.w3.org/1999/02/22-rdf-syntax-ns#"
   xmlns:svg="http://www.w3.org/2000/svg"
   xmlns="http://www.w3.org/2000/svg"
   xmlns:sodipodi="http://sodipodi.sourceforge.net/DTD/sodipodi-0.dtd"
   xmlns:inkscape="http://www.inkscape.org/namespaces/inkscape"
   width="210mm"
   height="297mm"
   viewBox="0 0 210 297"
   version="1.1"
   id="svg8"
   inkscape:version="1.0.2 (e86c870879, 2021-01-15)"
   sodipodi:docname="hormones.svg">
  <defs
     id="defs2">
    <inkscape:path-effect
       effect="bspline"
       id="path-effect2763"
       is_visible="true"
       lpeversion="1"
       weight="33.333333"
       steps="2"
       helper_size="0"
       apply_no_weight="true"
       apply_with_weight="true"
       only_selected="false" />
    <inkscape:path-effect
       effect="bspline"
       id="path-effect2641"
       is_visible="true"
       lpeversion="1"
       weight="33.333333"
       steps="2"
       helper_size="0"
       apply_no_weight="true"
       apply_with_weight="true"
       only_selected="false" />
    <inkscape:path-effect
       effect="bspline"
       id="path-effect2497"
       is_visible="true"
       lpeversion="1"
       weight="33.333333"
       steps="2"
       helper_size="0"
       apply_no_weight="true"
       apply_with_weight="true"
       only_selected="false" />
    <inkscape:path-effect
       effect="bspline"
       id="path-effect2391"
       is_visible="true"
       lpeversion="1"
       weight="33.333333"
       steps="2"
       helper_size="0"
       apply_no_weight="true"
       apply_with_weight="true"
       only_selected="false" />
    <inkscape:path-effect
       effect="bspline"
       id="path-effect2293"
       is_visible="true"
       lpeversion="1"
       weight="33.333333"
       steps="2"
       helper_size="0"
       apply_no_weight="true"
       apply_with_weight="true"
       only_selected="false" />
    <inkscape:path-effect
       effect="bspline"
       id="path-effect2203"
       is_visible="true"
       lpeversion="1"
       weight="33.333333"
       steps="2"
       helper_size="0"
       apply_no_weight="true"
       apply_with_weight="true"
       only_selected="false" />
    <inkscape:path-effect
       effect="bspline"
       id="path-effect2121"
       is_visible="true"
       lpeversion="1"
       weight="33.333333"
       steps="2"
       helper_size="0"
       apply_no_weight="true"
       apply_with_weight="true"
       only_selected="false" />
    <inkscape:path-effect
       effect="bspline"
       id="path-effect2047"
       is_visible="true"
       lpeversion="1"
       weight="33.333333"
       steps="2"
       helper_size="0"
       apply_no_weight="true"
       apply_with_weight="true"
       only_selected="false" />
    <inkscape:path-effect
       effect="bspline"
       id="path-effect1949"
       is_visible="true"
       lpeversion="1"
       weight="33.333333"
       steps="2"
       helper_size="0"
       apply_no_weight="true"
       apply_with_weight="true"
       only_selected="false" />
    <inkscape:path-effect
       effect="bspline"
       id="path-effect1891"
       is_visible="true"
       lpeversion="1"
       weight="33.333333"
       steps="2"
       helper_size="0"
       apply_no_weight="true"
       apply_with_weight="true"
       only_selected="false" />
    <marker
       style="overflow:visible;"
       id="Arrow2Mend"
       refX="0.0"
       refY="0.0"
       orient="auto"
       inkscape:stockid="Arrow2Mend"
       inkscape:isstock="true">
      <path
         transform="scale(0.6) rotate(180) translate(0,0)"
         d="M 8.7185878,4.0337352 L -2.2072895,0.016013256 L 8.7185884,-4.0017078 C 6.9730900,-1.6296469 6.9831476,1.6157441 8.7185878,4.0337352 z "
         style="fill-rule:evenodd;stroke-width:0.625;stroke-linejoin:round;stroke:#000000;stroke-opacity:1;fill:#000000;fill-opacity:1"
         id="path1587" />
    </marker>
    <inkscape:path-effect
       effect="bspline"
       id="path-effect1558"
       is_visible="true"
       lpeversion="1"
       weight="33.333333"
       steps="2"
       helper_size="0"
       apply_no_weight="true"
       apply_with_weight="true"
       only_selected="false" />
    <marker
       style="overflow:visible"
       id="Arrow2Mend-0"
       refX="0"
       refY="0"
       orient="auto"
       inkscape:stockid="Arrow2Mend"
       inkscape:isstock="true">
      <path
         transform="scale(-0.6)"
         d="M 8.7185878,4.0337352 -2.2072895,0.01601326 8.7185884,-4.0017078 c -1.7454984,2.3720609 -1.7354408,5.6174519 -6e-7,8.035443 z"
         style="fill:#000000;fill-opacity:1;fill-rule:evenodd;stroke:#000000;stroke-width:0.625;stroke-linejoin:round;stroke-opacity:1"
         id="path1587-4" />
    </marker>
    <marker
       style="overflow:visible"
       id="Arrow2Mend-4"
       refX="0"
       refY="0"
       orient="auto"
       inkscape:stockid="Arrow2Mend"
       inkscape:isstock="true">
      <path
         transform="scale(-0.6)"
         d="M 8.7185878,4.0337352 -2.2072895,0.01601326 8.7185884,-4.0017078 c -1.7454984,2.3720609 -1.7354408,5.6174519 -6e-7,8.035443 z"
         style="fill:#000000;fill-opacity:1;fill-rule:evenodd;stroke:#000000;stroke-width:0.625;stroke-linejoin:round;stroke-opacity:1"
         id="path1587-47" />
    </marker>
    <marker
       style="overflow:visible"
       id="Arrow2Mend-4-3"
       refX="0"
       refY="0"
       orient="auto"
       inkscape:stockid="Arrow2Mend"
       inkscape:isstock="true">
      <path
         transform="scale(-0.6)"
         d="M 8.7185878,4.0337352 -2.2072895,0.01601326 8.7185884,-4.0017078 c -1.7454984,2.3720609 -1.7354408,5.6174519 -6e-7,8.035443 z"
         style="fill:#000000;fill-opacity:1;fill-rule:evenodd;stroke:#000000;stroke-width:0.625;stroke-linejoin:round;stroke-opacity:1"
         id="path1587-47-1" />
    </marker>
    <marker
       style="overflow:visible"
       id="Arrow2Mend-4-5"
       refX="0"
       refY="0"
       orient="auto"
       inkscape:stockid="Arrow2Mend"
       inkscape:isstock="true">
      <path
         transform="scale(-0.6)"
         d="M 8.7185878,4.0337352 -2.2072895,0.01601326 8.7185884,-4.0017078 c -1.7454984,2.3720609 -1.7354408,5.6174519 -6e-7,8.035443 z"
         style="fill:#000000;fill-opacity:1;fill-rule:evenodd;stroke:#000000;stroke-width:0.625;stroke-linejoin:round;stroke-opacity:1"
         id="path1587-47-9" />
    </marker>
    <marker
       style="overflow:visible"
       id="Arrow2Mend-4-2"
       refX="0"
       refY="0"
       orient="auto"
       inkscape:stockid="Arrow2Mend"
       inkscape:isstock="true">
      <path
         transform="scale(-0.6)"
         d="M 8.7185878,4.0337352 -2.2072895,0.01601326 8.7185884,-4.0017078 c -1.7454984,2.3720609 -1.7354408,5.6174519 -6e-7,8.035443 z"
         style="fill:#000000;fill-opacity:1;fill-rule:evenodd;stroke:#000000;stroke-width:0.625;stroke-linejoin:round;stroke-opacity:1"
         id="path1587-47-17" />
    </marker>
    <marker
       style="overflow:visible"
       id="Arrow2Mend-4-57"
       refX="0"
       refY="0"
       orient="auto"
       inkscape:stockid="Arrow2Mend"
       inkscape:isstock="true">
      <path
         transform="scale(-0.6)"
         d="M 8.7185878,4.0337352 -2.2072895,0.01601326 8.7185884,-4.0017078 c -1.7454984,2.3720609 -1.7354408,5.6174519 -6e-7,8.035443 z"
         style="fill:#000000;fill-opacity:1;fill-rule:evenodd;stroke:#000000;stroke-width:0.625;stroke-linejoin:round;stroke-opacity:1"
         id="path1587-47-4" />
    </marker>
    <marker
       style="overflow:visible"
       id="Arrow2Mend-4-8"
       refX="0"
       refY="0"
       orient="auto"
       inkscape:stockid="Arrow2Mend"
       inkscape:isstock="true">
      <path
         transform="scale(-0.6)"
         d="M 8.7185878,4.0337352 -2.2072895,0.01601326 8.7185884,-4.0017078 c -1.7454984,2.3720609 -1.7354408,5.6174519 -6e-7,8.035443 z"
         style="fill:#000000;fill-opacity:1;fill-rule:evenodd;stroke:#000000;stroke-width:0.625;stroke-linejoin:round;stroke-opacity:1"
         id="path1587-47-5" />
    </marker>
    <marker
       style="overflow:visible"
       id="Arrow2Mend-4-7"
       refX="0"
       refY="0"
       orient="auto"
       inkscape:stockid="Arrow2Mend"
       inkscape:isstock="true">
      <path
         transform="scale(-0.6)"
         d="M 8.7185878,4.0337352 -2.2072895,0.01601326 8.7185884,-4.0017078 c -1.7454984,2.3720609 -1.7354408,5.6174519 -6e-7,8.035443 z"
         style="fill:#000000;fill-opacity:1;fill-rule:evenodd;stroke:#000000;stroke-width:0.625;stroke-linejoin:round;stroke-opacity:1"
         id="path1587-47-53" />
    </marker>
    <marker
       style="overflow:visible"
       id="Arrow2Mend-4-31"
       refX="0"
       refY="0"
       orient="auto"
       inkscape:stockid="Arrow2Mend"
       inkscape:isstock="true">
      <path
         transform="scale(-0.6)"
         d="M 8.7185878,4.0337352 -2.2072895,0.01601326 8.7185884,-4.0017078 c -1.7454984,2.3720609 -1.7354408,5.6174519 -6e-7,8.035443 z"
         style="fill:#000000;fill-opacity:1;fill-rule:evenodd;stroke:#000000;stroke-width:0.625;stroke-linejoin:round;stroke-opacity:1"
         id="path1587-47-8" />
    </marker>
    <marker
       style="overflow:visible"
       id="Arrow2Mend-4-4"
       refX="0"
       refY="0"
       orient="auto"
       inkscape:stockid="Arrow2Mend"
       inkscape:isstock="true">
      <path
         transform="scale(-0.6)"
         d="M 8.7185878,4.0337352 -2.2072895,0.01601326 8.7185884,-4.0017078 c -1.7454984,2.3720609 -1.7354408,5.6174519 -6e-7,8.035443 z"
         style="fill:#000000;fill-opacity:1;fill-rule:evenodd;stroke:#000000;stroke-width:0.625;stroke-linejoin:round;stroke-opacity:1"
         id="path1587-47-3" />
    </marker>
  </defs>
  <sodipodi:namedview
     id="base"
     pagecolor="#ffffff"
     bordercolor="#666666"
     borderopacity="1.0"
     inkscape:pageopacity="0.0"
     inkscape:pageshadow="2"
     inkscape:zoom="0.98994949"
     inkscape:cx="410.08596"
     inkscape:cy="245.55608"
     inkscape:document-units="mm"
     inkscape:current-layer="g957-6-4"
     inkscape:document-rotation="0"
     showgrid="false"
     inkscape:window-width="1533"
     inkscape:window-height="1016"
     inkscape:window-x="380"
     inkscape:window-y="27"
     inkscape:window-maximized="0" />
  <metadata
     id="metadata5">
    <rdf:RDF>
      <cc:Work
         rdf:about="">
        <dc:format>image/svg+xml</dc:format>
        <dc:type
           rdf:resource="http://purl.org/dc/dcmitype/StillImage" />
        <dc:title />
      </cc:Work>
    </rdf:RDF>
  </metadata>
  <g
     inkscape:label="Layer 1"
     inkscape:groupmode="layer"
     id="layer1">
    <g
       id="g957-6-4"
       transform="translate(9.7837852,107.55133)">
      <g
         id="g1100">
        <g
           aria-label="Hypothalmus"
           id="text835-1-7-4"
           style="font-size:4.9389px;line-height:1.25;font-family:sans-serif;-inkscape-font-specification:'sans-serif, Normal';fill:#ff6600;stroke-width:0.264583">
          <path
             d="m -7.312736,-76.016279 h 0.4871376 v 1.475882 h 1.7700941 v -1.475882 h 0.4871376 v 3.600477 h -0.4871376 v -1.714628 h -1.7700941 v 1.714628 H -7.312736 Z"
             style="fill:#ff6600;stroke-width:0.264583"
             id="path1300" />
          <path
             d="m -2.4944147,-72.164998 q -0.1881026,0.482314 -0.366559,0.62942 -0.1784563,0.147106 -0.4774913,0.147106 h -0.3545011 v -0.371382 h 0.2604498 q 0.1832795,0 0.2845655,-0.08682 0.1012861,-0.08682 0.2242762,-0.409967 l 0.079582,-0.202572 -1.0924422,-2.657553 h 0.4702566 l 0.8440503,2.112537 0.8440503,-2.112537 h 0.4702566 z"
             style="fill:#ff6600;stroke-width:0.264583"
             id="path1302" />
          <path
             d="m -0.26612193,-72.820946 v 1.432474 H -0.7122628 v -3.728291 h 0.44614087 v 0.409967 q 0.13987119,-0.241157 0.35208955,-0.356912 0.21462993,-0.118167 0.51125332,-0.118167 0.49196076,0 0.79823046,0.390674 0.3086812,0.390675 0.3086812,1.02733 0,0.636655 -0.3086812,1.02733 -0.3062697,0.390675 -0.79823046,0.390675 -0.29662339,0 -0.51125332,-0.115756 -0.21221836,-0.118167 -0.35208955,-0.359324 z m 1.50964423,-0.942925 q 0,-0.489549 -0.2025721,-0.76688 -0.20016046,-0.279742 -0.55225001,-0.279742 -0.35208955,0 -0.55466162,0.279742 -0.2001605,0.277331 -0.2001605,0.76688 0,0.489549 0.2001605,0.769292 0.20257207,0.27733 0.55466162,0.27733 0.35208955,0 0.55225001,-0.27733 0.2025721,-0.279743 0.2025721,-0.769292 z"
             style="fill:#ff6600;stroke-width:0.264583"
             id="path1304" />
          <path
             d="m 3.4862842,-74.80567 q -0.3569127,0 -0.5643079,0.279742 -0.2073952,0.277331 -0.2073952,0.762057 0,0.484726 0.2049836,0.764469 0.2073952,0.27733 0.5667195,0.27733 0.3545011,0 0.5618963,-0.279742 0.2073952,-0.279742 0.2073952,-0.762057 0,-0.479903 -0.2073952,-0.759645 -0.2073952,-0.282154 -0.5618963,-0.282154 z m 0,-0.376205 q 0.5787773,0 0.9091627,0.376205 0.3303854,0.376205 0.3303854,1.041799 0,0.663182 -0.3303854,1.041799 -0.3303854,0.376206 -0.9091627,0.376206 -0.5811889,0 -0.9115743,-0.376206 -0.3279739,-0.378617 -0.3279739,-1.041799 0,-0.665594 0.3279739,-1.041799 0.3303854,-0.376205 0.9115743,-0.376205 z"
             style="fill:#ff6600;stroke-width:0.264583"
             id="path1306" />
          <path
             d="m 5.9002679,-75.883643 v 0.76688 h 0.9139859 v 0.344855 H 5.9002679 v 1.466236 q 0,0.330385 0.089228,0.424437 0.09164,0.09405 0.3689705,0.09405 h 0.4557872 v 0.371382 H 6.3584666 q -0.5136649,0 -0.7090022,-0.190514 -0.1953374,-0.192926 -0.1953374,-0.699356 v -1.466236 H 5.1285648 v -0.344855 H 5.454127 v -0.76688 z"
             style="fill:#ff6600;stroke-width:0.264583"
             id="path1308" />
          <path
             d="m 9.6430284,-74.046025 v 1.630223 H 9.1992991 v -1.615753 q 0,-0.38344 -0.1495174,-0.573955 -0.1495175,-0.190514 -0.4485525,-0.190514 -0.3593243,0 -0.5667195,0.2291 -0.2073952,0.229099 -0.2073952,0.624597 v 1.526525 H 7.3809736 v -3.752406 h 0.4461409 v 1.471059 q 0.1591638,-0.243569 0.3737937,-0.364148 0.2170415,-0.120578 0.4991955,-0.120578 0.4654334,0 0.7041791,0.289388 0.2387456,0.286977 0.2387456,0.846462 z"
             style="fill:#ff6600;stroke-width:0.264583"
             id="path1310" />
          <path
             d="m 11.755565,-73.773517 q -0.53778,0 -0.745175,0.12299 -0.207396,0.12299 -0.207396,0.419614 0,0.236334 0.154341,0.376205 0.156752,0.137459 0.424437,0.137459 0.36897,0 0.590835,-0.260449 0.224276,-0.262862 0.224276,-0.696945 v -0.09887 z m 0.885047,-0.18328 v 1.540995 h -0.443729 v -0.409967 q -0.151929,0.24598 -0.378617,0.364147 -0.226688,0.115756 -0.554661,0.115756 -0.414791,0 -0.660771,-0.231511 -0.243569,-0.233923 -0.243569,-0.624598 0,-0.455787 0.303858,-0.687298 0.30627,-0.231511 0.911574,-0.231511 h 0.622186 v -0.04341 q 0,-0.30627 -0.202572,-0.472668 -0.20016,-0.16881 -0.564308,-0.16881 -0.231511,0 -0.450964,0.05547 -0.219453,0.05547 -0.422025,0.166399 v -0.409968 q 0.243569,-0.09405 0.472668,-0.139871 0.229099,-0.04823 0.446141,-0.04823 0.586012,0 0.875401,0.303858 0.289388,0.303858 0.289388,0.92122 z"
             style="fill:#ff6600;stroke-width:0.264583"
             id="path1312" />
          <path
             d="m 13.554599,-76.168208 h 0.443729 v 3.752406 h -0.443729 z"
             style="fill:#ff6600;stroke-width:0.264583"
             id="path1314" />
          <path
             d="m 17.029674,-74.598275 q 0.166399,-0.299035 0.39791,-0.441318 0.231511,-0.142282 0.545015,-0.142282 0.422025,0 0.651125,0.296623 0.229099,0.294212 0.229099,0.839227 v 1.630223 h -0.446141 v -1.615753 q 0,-0.388264 -0.137459,-0.576366 -0.13746,-0.188103 -0.419614,-0.188103 -0.344855,0 -0.545015,0.2291 -0.200161,0.229099 -0.200161,0.624597 v 1.526525 h -0.446141 v -1.615753 q 0,-0.390675 -0.137459,-0.576366 -0.13746,-0.188103 -0.424437,-0.188103 -0.340032,0 -0.540192,0.231511 -0.200161,0.229099 -0.200161,0.622186 v 1.526525 h -0.446141 v -2.700961 h 0.446141 v 0.419614 q 0.151929,-0.248392 0.364148,-0.366559 0.212218,-0.118167 0.504018,-0.118167 0.294212,0 0.499196,0.149517 0.207395,0.149518 0.306269,0.434083 z"
             style="fill:#ff6600;stroke-width:0.264583"
             id="path1316" />
          <path
             d="m 19.69205,-73.481717 v -1.635046 h 0.443729 v 1.618165 q 0,0.38344 0.149518,0.576366 0.149517,0.190514 0.448552,0.190514 0.359325,0 0.56672,-0.229099 0.209807,-0.2291 0.209807,-0.624598 v -1.531348 h 0.443729 v 2.700961 h -0.443729 v -0.41479 q -0.161576,0.24598 -0.376206,0.366559 -0.212218,0.118167 -0.494372,0.118167 -0.465433,0 -0.706591,-0.289389 -0.241157,-0.289389 -0.241157,-0.846462 z"
             style="fill:#ff6600;stroke-width:0.264583"
             id="path1318" />
          <path
             d="m 24.589953,-75.037181 v 0.419614 q -0.188103,-0.09646 -0.390675,-0.144695 -0.202572,-0.04823 -0.419613,-0.04823 -0.330386,0 -0.496784,0.101286 -0.163987,0.101286 -0.163987,0.303858 0,0.154341 0.118167,0.243569 0.118167,0.08682 0.47508,0.166398 l 0.151929,0.03376 q 0.472668,0.101286 0.670417,0.286977 0.20016,0.18328 0.20016,0.513665 0,0.376205 -0.299035,0.595659 -0.296623,0.219453 -0.817523,0.219453 -0.217041,0 -0.453375,-0.04341 -0.233923,-0.041 -0.494372,-0.125401 v -0.458199 q 0.24598,0.127813 0.484726,0.192926 0.238745,0.0627 0.472668,0.0627 0.313504,0 0.482314,-0.106109 0.16881,-0.10852 0.16881,-0.303858 0,-0.180868 -0.12299,-0.277331 -0.120579,-0.09646 -0.532957,-0.185691 l -0.154341,-0.03617 q -0.412379,-0.08682 -0.595658,-0.265273 -0.18328,-0.180868 -0.18328,-0.494373 0,-0.381028 0.270096,-0.588423 0.270096,-0.207395 0.76688,-0.207395 0.245981,0 0.463022,0.03617 0.217042,0.03617 0.400321,0.108521 z"
             style="fill:#ff6600;stroke-width:0.264583"
             id="path1320" />
        </g>
        <g
           aria-label="TRH"
           id="text839-5-4-2"
           style="font-size:4.9389px;line-height:1.25;font-family:sans-serif;-inkscape-font-specification:'sans-serif, Normal';fill:#ff6600;stroke-width:0.264583">
          <path
             d="m 71.073108,-76.016279 h 3.045816 v 0.409967 h -1.278133 v 3.19051 h -0.489549 v -3.19051 h -1.278134 z"
             style="fill:#ff6600;stroke-width:0.264583"
             id="path1323" />
          <path
             d="m 76.296574,-74.103903 q 0.156752,0.05306 0.303858,0.226688 0.149518,0.173633 0.299035,0.477492 l 0.494372,0.983921 h -0.523311 l -0.46061,-0.923632 q -0.178457,-0.361736 -0.347267,-0.479903 -0.166398,-0.118167 -0.455787,-0.118167 h -0.530546 v 1.521702 h -0.487137 v -3.600477 h 1.099677 q 0.617362,0 0.92122,0.258038 0.303858,0.258038 0.303858,0.778938 0,0.340031 -0.159163,0.564308 -0.156753,0.224276 -0.458199,0.311092 z m -1.220256,-1.512055 v 1.278133 h 0.61254 q 0.352089,0 0.530546,-0.161575 0.180868,-0.163987 0.180868,-0.479903 0,-0.315916 -0.180868,-0.47508 -0.178457,-0.161575 -0.530546,-0.161575 z"
             style="fill:#ff6600;stroke-width:0.264583"
             id="path1325" />
          <path
             d="m 78.020848,-76.016279 h 0.487138 v 1.475882 h 1.770094 v -1.475882 h 0.487138 v 3.600477 H 80.27808 v -1.714628 h -1.770094 v 1.714628 h -0.487138 z"
             style="fill:#ff6600;stroke-width:0.264583"
             id="path1327" />
        </g>
        <g
           aria-label="CRH"
           id="text843-65-0-6"
           style="font-size:4.9389px;line-height:1.25;font-family:sans-serif;-inkscape-font-specification:'sans-serif, Normal';fill:#ff6600;stroke-width:0.264583">
          <path
             d="m 108.39498,-75.78236 v 0.513665 q -0.24598,-0.229099 -0.52572,-0.342443 -0.27733,-0.113344 -0.59084,-0.113344 -0.61736,0 -0.94533,0.378617 -0.32798,0.376205 -0.32798,1.09003 0,0.711414 0.32798,1.090031 0.32797,0.376205 0.94533,0.376205 0.31351,0 0.59084,-0.113344 0.27974,-0.113343 0.52572,-0.342443 v 0.508842 q -0.25562,0.173633 -0.5426,0.26045 -0.28457,0.08682 -0.60289,0.08682 -0.81753,0 -1.28778,-0.499195 -0.47026,-0.501607 -0.47026,-1.367362 0,-0.868166 0.47026,-1.367361 0.47025,-0.501607 1.28778,-0.501607 0.32315,0 0.60771,0.08682 0.28698,0.08441 0.53778,0.255626 z"
             style="fill:#ff6600;stroke-width:0.264583"
             id="path1330" />
          <path
             d="m 110.85479,-74.147314 q 0.15675,0.05306 0.30385,0.226688 0.14952,0.173633 0.29904,0.477491 l 0.49437,0.983922 h -0.52331 l -0.46061,-0.923632 q -0.17846,-0.361736 -0.34727,-0.479903 -0.16639,-0.118167 -0.45578,-0.118167 h -0.53055 v 1.521702 h -0.48714 v -3.600478 h 1.09968 q 0.61736,0 0.92122,0.258039 0.30386,0.258038 0.30386,0.778937 0,0.340032 -0.15916,0.564308 -0.15676,0.224277 -0.4582,0.311093 z m -1.22026,-1.512056 v 1.278134 h 0.61254 q 0.35209,0 0.53055,-0.161576 0.18086,-0.163987 0.18086,-0.479903 0,-0.315916 -0.18086,-0.475079 -0.17846,-0.161576 -0.53055,-0.161576 z"
             style="fill:#ff6600;stroke-width:0.264583"
             id="path1332" />
          <path
             d="m 112.57906,-76.059691 h 0.48714 v 1.475883 h 1.77009 v -1.475883 h 0.48714 v 3.600478 h -0.48714 v -1.714628 h -1.77009 v 1.714628 h -0.48714 z"
             style="fill:#ff6600;stroke-width:0.264583"
             id="path1334" />
        </g>
        <g
           aria-label="GnRH"
           id="text847-9-8-9"
           style="font-size:4.9389px;line-height:1.25;font-family:sans-serif;-inkscape-font-specification:'sans-serif, Normal';fill:#ff6600;stroke-width:0.264583">
          <path
             d="m 140.88774,-73.408166 v -0.96704 h -0.79582 v -0.400321 h 1.27813 v 1.545818 q -0.28215,0.20016 -0.62219,0.303858 -0.34003,0.101286 -0.72588,0.101286 -0.84405,0 -1.32154,-0.491961 -0.47508,-0.494372 -0.47508,-1.374596 0,-0.882636 0.47508,-1.374596 0.47749,-0.494373 1.32154,-0.494373 0.35209,0 0.66801,0.08682 0.31832,0.08682 0.58601,0.255627 v 0.518488 q -0.2701,-0.2291 -0.57396,-0.344855 -0.30385,-0.115756 -0.63906,-0.115756 -0.66077,0 -0.99357,0.368971 -0.33039,0.368971 -0.33039,1.099677 0,0.728295 0.33039,1.097265 0.3328,0.368971 0.99357,0.368971 0.25804,0 0.46061,-0.04341 0.20257,-0.04582 0.36415,-0.139872 z"
             style="fill:#ff6600;stroke-width:0.264583"
             id="path1337" />
          <path
             d="m 144.4858,-74.524724 v 1.630223 h -0.44373 v -1.615753 q 0,-0.38344 -0.14952,-0.573954 -0.14951,-0.190515 -0.44855,-0.190515 -0.35932,0 -0.56672,0.2291 -0.20739,0.229099 -0.20739,0.624597 v 1.526525 h -0.44614 v -2.700961 h 0.44614 v 0.419614 q 0.15916,-0.243569 0.37379,-0.364148 0.21704,-0.120578 0.4992,-0.120578 0.46543,0 0.70418,0.289389 0.23874,0.286977 0.23874,0.846461 z"
             style="fill:#ff6600;stroke-width:0.264583"
             id="path1339" />
          <path
             d="m 147.09753,-74.582601 q 0.15676,0.05305 0.30386,0.226687 0.14952,0.173634 0.29904,0.477492 l 0.49437,0.983921 h -0.52331 l -0.46061,-0.923632 q -0.17846,-0.361736 -0.34727,-0.479903 -0.1664,-0.118167 -0.45579,-0.118167 h -0.53054 v 1.521702 h -0.48714 v -3.600477 h 1.09968 q 0.61736,0 0.92122,0.258038 0.30386,0.258038 0.30386,0.778938 0,0.340032 -0.15917,0.564308 -0.15675,0.224276 -0.4582,0.311093 z m -1.22025,-1.512056 v 1.278133 h 0.61254 q 0.35209,0 0.53054,-0.161575 0.18087,-0.163987 0.18087,-0.479903 0,-0.315916 -0.18087,-0.47508 -0.17845,-0.161575 -0.53054,-0.161575 z"
             style="fill:#ff6600;stroke-width:0.264583"
             id="path1341" />
          <path
             d="m 148.82181,-76.494978 h 0.48714 v 1.475882 h 1.77009 v -1.475882 h 0.48714 v 3.600477 h -0.48714 v -1.714628 h -1.77009 v 1.714628 h -0.48714 z"
             style="fill:#ff6600;stroke-width:0.264583"
             id="path1343" />
        </g>
        <g
           aria-label="GHRH"
           id="text851-7-8-6"
           style="font-size:4.9389px;line-height:1.25;font-family:sans-serif;-inkscape-font-specification:'sans-serif, Normal';fill:#ff6600;stroke-width:0.264583">
          <path
             d="m 175.08422,-72.929467 v -0.96704 h -0.79582 v -0.400321 h 1.27814 v 1.545817 q -0.28216,0.200161 -0.62219,0.303859 -0.34003,0.101286 -0.72588,0.101286 -0.84405,0 -1.32154,-0.491961 -0.47508,-0.494372 -0.47508,-1.374596 0,-0.882636 0.47508,-1.374597 0.47749,-0.494372 1.32154,-0.494372 0.35209,0 0.668,0.08682 0.31833,0.08682 0.58602,0.255626 v 0.518488 q -0.2701,-0.229099 -0.57396,-0.344854 -0.30386,-0.115756 -0.63907,-0.115756 -0.66077,0 -0.99356,0.368971 -0.33039,0.36897 -0.33039,1.099677 0,0.728294 0.33039,1.097265 0.33279,0.368971 0.99356,0.368971 0.25804,0 0.46062,-0.04341 0.20257,-0.04582 0.36414,-0.139871 z"
             style="fill:#ff6600;stroke-width:0.264583"
             id="path1346" />
          <path
             d="m 176.45641,-76.016279 h 0.48713 v 1.475882 h 1.7701 v -1.475882 h 0.48714 v 3.600477 h -0.48714 v -1.714628 h -1.7701 v 1.714628 h -0.48713 z"
             style="fill:#ff6600;stroke-width:0.264583"
             id="path1348" />
          <path
             d="m 181.87762,-74.103903 q 0.15675,0.05306 0.30386,0.226688 0.14952,0.173633 0.29903,0.477492 l 0.49438,0.983921 h -0.52331 l -0.46061,-0.923632 q -0.17846,-0.361736 -0.34727,-0.479903 -0.1664,-0.118167 -0.45579,-0.118167 h -0.53054 v 1.521702 h -0.48714 v -3.600477 h 1.09968 q 0.61736,0 0.92122,0.258038 0.30385,0.258038 0.30385,0.778938 0,0.340031 -0.15916,0.564308 -0.15675,0.224276 -0.4582,0.311092 z m -1.22025,-1.512055 v 1.278133 h 0.61254 q 0.35208,0 0.53054,-0.161575 0.18087,-0.163987 0.18087,-0.479903 0,-0.315916 -0.18087,-0.47508 -0.17846,-0.161575 -0.53054,-0.161575 z"
             style="fill:#ff6600;stroke-width:0.264583"
             id="path1350" />
          <path
             d="m 183.6019,-76.016279 h 0.48713 v 1.475882 h 1.7701 v -1.475882 h 0.48713 v 3.600477 h -0.48713 v -1.714628 h -1.7701 v 1.714628 h -0.48713 z"
             style="fill:#ff6600;stroke-width:0.264583"
             id="path1352" />
        </g>
        <g
           aria-label="Thyroid"
           id="text835-1-7-48"
           style="font-size:4.9389px;line-height:1.25;font-family:sans-serif;-inkscape-font-specification:'sans-serif, Normal';fill:#008000;stroke-width:0.264583">
          <path
             d="m -7.3127363,-61.975599 h 3.0458157 v 0.409967 h -1.2781333 v 3.19051 H -6.034603 v -3.19051 h -1.2781333 z"
             style="fill:#008000;stroke-width:0.264583"
             id="path1355" />
          <path
             d="m -1.5707827,-60.005345 v 1.630223 H -2.014512 v -1.615753 q 0,-0.38344 -0.1495175,-0.573955 -0.1495175,-0.190514 -0.4485524,-0.190514 -0.3593243,0 -0.5667195,0.229099 -0.2073952,0.2291 -0.2073952,0.624598 v 1.526525 h -0.4461409 v -3.752407 h 0.4461409 v 1.47106 q 0.1591637,-0.243569 0.3737937,-0.364148 0.2170415,-0.120578 0.4991954,-0.120578 0.4654335,0 0.7041791,0.289388 0.2387457,0.286977 0.2387457,0.846462 z"
             style="fill:#008000;stroke-width:0.264583"
             id="path1357" />
          <path
             d="m 0.43805682,-58.124319 q -0.18810264,0.482315 -0.36655898,0.629421 -0.17845635,0.147106 -0.47749131,0.147106 h -0.35450112 v -0.371382 h 0.2604498 q 0.18327949,0 0.28456553,-0.08682 0.10128603,-0.08682 0.22427622,-0.409967 l 0.07958188,-0.202572 -1.09244224,-2.657553 h 0.4702566 l 0.84405029,2.112537 0.84405031,-2.112537 h 0.4702566 z"
             style="fill:#008000;stroke-width:0.264583"
             id="path1359" />
          <path
             d="m 3.8022004,-60.661293 q -0.074759,-0.04341 -0.163987,-0.0627 -0.086817,-0.0217 -0.1929257,-0.0217 -0.3762053,0 -0.5787774,0.245981 -0.2001605,0.243569 -0.2001605,0.701767 v 1.422828 H 2.220209 v -2.700961 h 0.4461408 v 0.419614 q 0.1398712,-0.245981 0.3641474,-0.364148 0.2242763,-0.120578 0.5450154,-0.120578 0.04582,0 0.101286,0.0072 0.055466,0.0048 0.1229902,0.01688 z"
             style="fill:#008000;stroke-width:0.264583"
             id="path1361" />
          <path
             d="m 5.2057351,-60.76499 q -0.3569127,0 -0.5643079,0.279742 -0.2073952,0.277331 -0.2073952,0.762057 0,0.484726 0.2049837,0.764468 0.2073952,0.277331 0.5667194,0.277331 0.3545012,0 0.5618964,-0.279742 0.2073952,-0.279743 0.2073952,-0.762057 0,-0.479903 -0.2073952,-0.759645 -0.2073952,-0.282154 -0.5618964,-0.282154 z m 0,-0.376205 q 0.5787774,0 0.9091628,0.376205 0.3303854,0.376205 0.3303854,1.041799 0,0.663182 -0.3303854,1.041799 -0.3303854,0.376206 -0.9091628,0.376206 -0.5811889,0 -0.9115743,-0.376206 -0.3279738,-0.378617 -0.3279738,-1.041799 0,-0.665594 0.3279738,-1.041799 0.3303854,-0.376205 0.9115743,-0.376205 z"
             style="fill:#008000;stroke-width:0.264583"
             id="path1363" />
          <path
             d="M 7.1808127,-61.076083 H 7.624542 v 2.700961 H 7.1808127 Z m 0,-1.051446 H 7.624542 v 0.561897 H 7.1808127 Z"
             style="fill:#008000;stroke-width:0.264583"
             id="path1365" />
          <path
             d="m 10.330326,-60.666116 v -1.461413 h 0.443729 v 3.752407 h -0.443729 v -0.405144 q -0.139871,0.241157 -0.3545009,0.359324 -0.2122184,0.115756 -0.5112533,0.115756 -0.4895492,0 -0.7982305,-0.390675 -0.3062696,-0.390675 -0.3062696,-1.02733 0,-0.636655 0.3062696,-1.02733 0.3086813,-0.390674 0.7982305,-0.390674 0.2990349,0 0.5112533,0.118167 0.2146299,0.115755 0.3545009,0.356912 z m -1.5120556,0.942925 q 0,0.489549 0.2001605,0.769292 0.2025721,0.27733 0.5546616,0.27733 0.3520896,0 0.5546615,-0.27733 0.202572,-0.279743 0.202572,-0.769292 0,-0.489549 -0.202572,-0.76688 -0.2025719,-0.279742 -0.5546615,-0.279742 -0.3520895,0 -0.5546616,0.279742 -0.2001605,0.277331 -0.2001605,0.76688 z"
             style="fill:#008000;stroke-width:0.264583"
             id="path1367" />
        </g>
        <g
           aria-label="T3+T4"
           id="text839-5-4-1"
           style="font-size:4.9389px;line-height:1.25;font-family:sans-serif;-inkscape-font-specification:'sans-serif, Normal';fill:#008000;stroke-width:0.264583">
          <path
             d="m 67.822307,-61.975599 h 3.045816 v 0.409967 H 69.58999 v 3.19051 h -0.489549 v -3.19051 h -1.278134 z"
             style="fill:#008000;stroke-width:0.264583"
             id="path1370" />
          <path
             d="m 72.85767,-60.316438 q 0.349678,0.07476 0.545016,0.311093 0.197748,0.236334 0.197748,0.583601 0,0.532957 -0.366559,0.824757 -0.366558,0.291801 -1.041799,0.291801 -0.226688,0 -0.467845,-0.04582 -0.238745,-0.04341 -0.494372,-0.132637 v -0.470256 q 0.202572,0.118167 0.443729,0.178456 0.241157,0.06029 0.504019,0.06029 0.458199,0 0.696944,-0.180868 0.241157,-0.180868 0.241157,-0.525722 0,-0.318328 -0.224276,-0.496784 -0.221864,-0.180868 -0.619774,-0.180868 h -0.419613 v -0.400321 h 0.438906 q 0.359324,0 0.549838,-0.142283 0.190514,-0.144694 0.190514,-0.41479 0,-0.277331 -0.197749,-0.424437 -0.195337,-0.149518 -0.561896,-0.149518 -0.20016,0 -0.42926,0.04341 -0.229099,0.04341 -0.504018,0.135048 v -0.434083 q 0.277331,-0.07717 0.518488,-0.115756 0.243569,-0.03858 0.458198,-0.03858 0.554662,0 0.877813,0.253215 0.32315,0.250804 0.32315,0.680064 0,0.299035 -0.171221,0.50643 -0.171222,0.204983 -0.487138,0.284565 z"
             style="fill:#008000;stroke-width:0.264583"
             id="path1372" />
          <path
             d="m 76.267634,-61.471581 v 1.343246 h 1.343245 v 0.409967 h -1.343245 v 1.343246 H 75.86249 v -1.343246 h -1.343246 v -0.409967 h 1.343246 v -1.343246 z"
             style="fill:#008000;stroke-width:0.264583"
             id="path1374" />
          <path
             d="m 78.119721,-61.975599 h 3.045816 v 0.409967 h -1.278133 v 3.19051 h -0.48955 v -3.19051 h -1.278133 z"
             style="fill:#008000;stroke-width:0.264583"
             id="path1376" />
          <path
             d="m 83.017625,-61.551163 -1.229902,1.922023 h 1.229902 z m -0.127814,-0.424436 h 0.61254 v 2.346459 h 0.513665 v 0.405144 h -0.513665 v 0.848874 h -0.484726 v -0.848874 h -1.6254 v -0.470256 z"
             style="fill:#008000;stroke-width:0.264583"
             id="path1378" />
        </g>
        <g
           aria-label="Calcitonin"
           id="text855-3-5-4-6"
           style="font-size:4.9389px;line-height:1.25;font-family:sans-serif;-inkscape-font-specification:'sans-serif, Normal';fill:#008000;stroke-width:0.264583">
          <path
             d="m 31.181318,-61.395374 v 0.513665 q -0.245981,-0.2291 -0.525723,-0.342443 -0.277331,-0.113344 -0.590835,-0.113344 -0.617363,0 -0.945337,0.378617 -0.327973,0.376205 -0.327973,1.09003 0,0.711414 0.327973,1.090031 0.327974,0.376205 0.945337,0.376205 0.313504,0 0.590835,-0.113344 0.279742,-0.113344 0.525723,-0.342443 v 0.508842 q -0.255627,0.173633 -0.542604,0.26045 -0.284566,0.08682 -0.602893,0.08682 -0.817523,0 -1.28778,-0.499195 -0.470256,-0.501607 -0.470256,-1.367362 0,-0.868166 0.470256,-1.367361 0.470257,-0.501607 1.28778,-0.501607 0.323151,0 0.607716,0.08682 0.286977,0.08441 0.537781,0.255627 z"
             style="fill:#008000;stroke-width:0.264583"
             id="path1381" />
          <path
             d="m 33.141926,-59.429943 q -0.537781,0 -0.745176,0.122991 -0.207395,0.12299 -0.207395,0.419613 0,0.236334 0.154341,0.376205 0.156752,0.13746 0.424436,0.13746 0.368971,0 0.590835,-0.26045 0.224277,-0.262861 0.224277,-0.696944 v -0.09887 z m 0.885047,-0.183279 v 1.540995 h -0.443729 v -0.409968 q -0.151929,0.245981 -0.378617,0.364148 -0.226688,0.115755 -0.554662,0.115755 -0.41479,0 -0.660771,-0.231511 -0.243568,-0.233922 -0.243568,-0.624597 0,-0.455787 0.303858,-0.687298 0.306269,-0.231511 0.911574,-0.231511 h 0.622186 v -0.04341 q 0,-0.30627 -0.202572,-0.472669 -0.200161,-0.16881 -0.564308,-0.16881 -0.231511,0 -0.450964,0.05547 -0.219453,0.05547 -0.422025,0.166398 v -0.409967 q 0.243568,-0.09405 0.472668,-0.139871 0.229099,-0.04823 0.446141,-0.04823 0.586012,0 0.8754,0.303858 0.289389,0.303858 0.289389,0.921221 z"
             style="fill:#008000;stroke-width:0.264583"
             id="path1383" />
          <path
             d="m 34.940959,-61.824634 h 0.443729 v 3.752407 h -0.443729 z"
             style="fill:#008000;stroke-width:0.264583"
             id="path1385" />
          <path
             d="m 38.256871,-60.669491 v 0.414791 q -0.188103,-0.103698 -0.378617,-0.154341 -0.188103,-0.05306 -0.381028,-0.05306 -0.431672,0 -0.670418,0.27492 -0.238745,0.272507 -0.238745,0.76688 0,0.494372 0.238745,0.769291 0.238746,0.272508 0.670418,0.272508 0.192925,0 0.381028,-0.05064 0.190514,-0.05306 0.378617,-0.156752 v 0.409967 q -0.185691,0.08682 -0.385852,0.130225 -0.197749,0.04341 -0.422025,0.04341 -0.610128,0 -0.969452,-0.38344 -0.359324,-0.38344 -0.359324,-1.034564 0,-0.660771 0.361736,-1.039388 0.364147,-0.378617 0.995979,-0.378617 0.204984,0 0.400321,0.04341 0.195337,0.041 0.378617,0.125402 z"
             style="fill:#008000;stroke-width:0.264583"
             id="path1387" />
          <path
             d="m 39.028573,-60.773188 h 0.44373 v 2.700961 h -0.44373 z m 0,-1.051446 h 0.44373 v 0.561896 h -0.44373 z"
             style="fill:#008000;stroke-width:0.264583"
             id="path1389" />
          <path
             d="m 40.839664,-61.540068 v 0.76688 h 0.913986 v 0.344854 h -0.913986 v 1.466236 q 0,0.330386 0.08923,0.424437 0.09164,0.09405 0.368971,0.09405 h 0.455787 v 0.371383 h -0.455787 q -0.513665,0 -0.709002,-0.190515 -0.195338,-0.192925 -0.195338,-0.699356 v -1.466236 h -0.325562 v -0.344854 h 0.325562 v -0.76688 z"
             style="fill:#008000;stroke-width:0.264583"
             id="path1391" />
          <path
             d="m 43.383873,-60.462096 q -0.356912,0 -0.564308,0.279743 -0.207395,0.277331 -0.207395,0.762057 0,0.484726 0.204984,0.764468 0.207395,0.277331 0.566719,0.277331 0.354502,0 0.561897,-0.279743 0.207395,-0.279742 0.207395,-0.762056 0,-0.479903 -0.207395,-0.759646 -0.207395,-0.282154 -0.561897,-0.282154 z m 0,-0.376205 q 0.578778,0 0.909163,0.376205 0.330386,0.376206 0.330386,1.0418 0,0.663182 -0.330386,1.041799 -0.330385,0.376205 -0.909163,0.376205 -0.581189,0 -0.911574,-0.376205 -0.327974,-0.378617 -0.327974,-1.041799 0,-0.665594 0.327974,-1.0418 0.330385,-0.376205 0.911574,-0.376205 z"
             style="fill:#008000;stroke-width:0.264583"
             id="path1393" />
          <path
             d="m 47.604126,-59.70245 v 1.630223 h -0.44373 v -1.615754 q 0,-0.38344 -0.149517,-0.573954 -0.149518,-0.190514 -0.448553,-0.190514 -0.359324,0 -0.566719,0.229099 -0.207395,0.229099 -0.207395,0.624597 v 1.526526 h -0.446141 v -2.700961 h 0.446141 v 0.419613 q 0.159164,-0.243569 0.373793,-0.364147 0.217042,-0.120579 0.499196,-0.120579 0.465433,0 0.704179,0.289389 0.238746,0.286977 0.238746,0.846462 z"
             style="fill:#008000;stroke-width:0.264583"
             id="path1395" />
          <path
             d="m 48.489172,-60.773188 h 0.44373 v 2.700961 h -0.44373 z m 0,-1.051446 h 0.44373 v 0.561896 h -0.44373 z"
             style="fill:#008000;stroke-width:0.264583"
             id="path1397" />
          <path
             d="m 52.106531,-59.70245 v 1.630223 h -0.443729 v -1.615754 q 0,-0.38344 -0.149518,-0.573954 -0.149517,-0.190514 -0.448552,-0.190514 -0.359325,0 -0.56672,0.229099 -0.207395,0.229099 -0.207395,0.624597 v 1.526526 h -0.446141 v -2.700961 h 0.446141 v 0.419613 q 0.159164,-0.243569 0.373794,-0.364147 0.217041,-0.120579 0.499195,-0.120579 0.465434,0 0.704179,0.289389 0.238746,0.286977 0.238746,0.846462 z"
             style="fill:#008000;stroke-width:0.264583"
             id="path1399" />
        </g>
        <g
           aria-label="Ant. Pituitary"
           id="text835-1-7-9"
           style="font-size:4.9389px;line-height:1.25;font-family:sans-serif;-inkscape-font-specification:'sans-serif, Normal';fill:#0000ff;stroke-width:0.264583">
          <path
             d="m -5.6632211,-47.455017 -0.6607708,1.791799 h 1.3239532 z m -0.2749193,-0.479903 h 0.5522501 l 1.3721846,3.600478 h -0.5064302 l -0.3279738,-0.923632 h -1.6229881 l -0.3279738,0.923632 h -0.5136649 z"
             style="fill:#0000ff;stroke-width:0.264583"
             id="path1402" />
          <path
             d="m -1.2621017,-45.964665 v 1.630223 H -1.705831 v -1.615754 q 0,-0.38344 -0.1495175,-0.573954 -0.1495175,-0.190514 -0.4485524,-0.190514 -0.3593243,0 -0.5667195,0.229099 -0.2073952,0.2291 -0.2073952,0.624598 v 1.526525 h -0.4461409 v -2.700961 h 0.4461409 v 0.419614 q 0.1591637,-0.243569 0.3737937,-0.364148 0.2170415,-0.120579 0.4991954,-0.120579 0.4654335,0 0.7041791,0.289389 0.2387457,0.286977 0.2387457,0.846462 z"
             style="fill:#0000ff;stroke-width:0.264583"
             id="path1404" />
          <path
             d="m 0.06185179,-47.802283 v 0.76688 h 0.91398588 v 0.344855 H 0.06185179 v 1.466236 q 0,0.330385 0.08922817,0.424436 0.0916397,0.09405 0.36897056,0.09405 h 0.45578715 v 0.371382 H 0.52005052 q -0.5136649,0 -0.70900225,-0.190514 -0.19533735,-0.192926 -0.19533735,-0.699356 v -1.466236 h -0.32556226 v -0.344855 h 0.32556226 v -0.76688 z"
             style="fill:#0000ff;stroke-width:0.264583"
             id="path1406" />
          <path
             d="m 1.6221385,-44.946981 h 0.5088417 v 0.612539 H 1.6221385 Z"
             style="fill:#0000ff;stroke-width:0.264583"
             id="path1408" />
          <path
             d="m 5.2057356,-47.534599 v 1.352893 h 0.6125393 q 0.3400317,0 0.5257228,-0.176045 0.185691,-0.176045 0.185691,-0.501607 0,-0.323151 -0.185691,-0.499196 -0.1856911,-0.176045 -0.5257228,-0.176045 z M 4.718598,-47.93492 h 1.0996769 q 0.6053047,0 0.9139859,0.27492 0.3110928,0.272507 0.3110928,0.800642 0,0.532957 -0.3110928,0.805465 -0.3086812,0.272508 -0.9139859,0.272508 H 5.2057356 v 1.446943 H 4.718598 Z"
             style="fill:#0000ff;stroke-width:0.264583"
             id="path1410" />
          <path
             d="m 7.5690764,-47.035403 h 0.4437293 v 2.700961 H 7.5690764 Z m 0,-1.051446 h 0.4437293 v 0.561897 H 7.5690764 Z"
             style="fill:#0000ff;stroke-width:0.264583"
             id="path1412" />
          <path
             d="m 9.3801663,-47.802283 v 0.76688 h 0.9139857 v 0.344855 H 9.3801663 v 1.466236 q 0,0.330385 0.089228,0.424436 0.09164,0.09405 0.3689706,0.09405 h 0.4557869 v 0.371382 H 9.8383651 q -0.5136649,0 -0.7090023,-0.190514 -0.1953373,-0.192926 -0.1953373,-0.699356 v -1.466236 H 8.6084632 v -0.344855 h 0.3255623 v -0.76688 z"
             style="fill:#0000ff;stroke-width:0.264583"
             id="path1414" />
          <path
             d="m 10.831933,-45.400357 v -1.635046 h 0.44373 v 1.618165 q 0,0.38344 0.149517,0.576366 0.149517,0.190514 0.448552,0.190514 0.359325,0 0.56672,-0.229099 0.209807,-0.2291 0.209807,-0.624598 v -1.531348 h 0.443729 v 2.700961 h -0.443729 v -0.414791 q -0.161576,0.245981 -0.376206,0.366559 -0.212218,0.118167 -0.494372,0.118167 -0.465433,0 -0.706591,-0.289388 -0.241157,-0.289389 -0.241157,-0.846462 z"
             style="fill:#0000ff;stroke-width:0.264583"
             id="path1416" />
          <path
             d="m 14.007974,-47.035403 h 0.443729 v 2.700961 h -0.443729 z m 0,-1.051446 h 0.443729 v 0.561897 h -0.443729 z"
             style="fill:#0000ff;stroke-width:0.264583"
             id="path1418" />
          <path
             d="m 15.819064,-47.802283 v 0.76688 h 0.913986 v 0.344855 h -0.913986 v 1.466236 q 0,0.330385 0.08923,0.424436 0.09164,0.09405 0.36897,0.09405 h 0.455787 v 0.371382 h -0.455787 q -0.513665,0 -0.709002,-0.190514 -0.195337,-0.192926 -0.195337,-0.699356 v -1.466236 h -0.325563 v -0.344855 h 0.325563 v -0.76688 z"
             style="fill:#0000ff;stroke-width:0.264583"
             id="path1420" />
          <path
             d="m 18.544141,-45.692157 q -0.53778,0 -0.745175,0.12299 -0.207396,0.12299 -0.207396,0.419613 0,0.236335 0.154341,0.376206 0.156752,0.137459 0.424437,0.137459 0.36897,0 0.590835,-0.260449 0.224276,-0.262862 0.224276,-0.696945 v -0.09887 z m 0.885047,-0.18328 v 1.540995 h -0.443729 v -0.409967 q -0.151929,0.24598 -0.378617,0.364147 -0.226687,0.115755 -0.554661,0.115755 -0.414791,0 -0.660771,-0.23151 -0.243569,-0.233923 -0.243569,-0.624598 0,-0.455787 0.303858,-0.687298 0.30627,-0.231511 0.911575,-0.231511 h 0.622185 v -0.04341 q 0,-0.30627 -0.202572,-0.472668 -0.20016,-0.16881 -0.564308,-0.16881 -0.231511,0 -0.450964,0.05547 -0.219453,0.05547 -0.422025,0.166398 v -0.409967 q 0.243569,-0.09405 0.472668,-0.139871 0.2291,-0.04823 0.446141,-0.04823 0.586012,0 0.875401,0.303859 0.289388,0.303858 0.289388,0.92122 z"
             style="fill:#0000ff;stroke-width:0.264583"
             id="path1422" />
          <path
             d="m 21.908285,-46.620613 q -0.07476,-0.04341 -0.163987,-0.0627 -0.08682,-0.0217 -0.192926,-0.0217 -0.376205,0 -0.578777,0.245981 -0.20016,0.243568 -0.20016,0.701767 v 1.422828 h -0.446141 v -2.700961 h 0.446141 v 0.419614 q 0.139871,-0.245981 0.364147,-0.364148 0.224276,-0.120579 0.545015,-0.120579 0.04582,0 0.101286,0.0072 0.05547,0.0048 0.122991,0.01688 z"
             style="fill:#0000ff;stroke-width:0.264583"
             id="path1424" />
          <path
             d="m 23.49751,-44.083639 q -0.188103,0.482315 -0.366559,0.629421 -0.178456,0.147106 -0.477491,0.147106 h -0.354502 v -0.371382 h 0.26045 q 0.18328,0 0.284566,-0.08682 0.101286,-0.08682 0.224276,-0.409967 l 0.07958,-0.202572 -1.092442,-2.657553 h 0.470256 l 0.844051,2.112537 0.84405,-2.112537 h 0.470256 z"
             style="fill:#0000ff;stroke-width:0.264583"
             id="path1426" />
        </g>
        <g
           aria-label="ACTH"
           id="text843-65-0-7"
           style="font-size:4.9389px;line-height:1.25;font-family:sans-serif;-inkscape-font-specification:'sans-serif, Normal';fill:#0000ff;stroke-width:0.264583">
          <path
             d="m 105.58309,-47.498424 -0.66077,1.791798 h 1.32395 z m -0.27492,-0.479903 h 0.55225 l 1.37219,3.600477 h -0.50644 l -0.32797,-0.923632 h -1.62299 l -0.32797,0.923632 h -0.51367 z"
             style="fill:#0000ff;stroke-width:0.264583"
             id="path1429" />
          <path
             d="m 110.36765,-47.700996 v 0.513665 q -0.24598,-0.2291 -0.52572,-0.342444 -0.27733,-0.113343 -0.59084,-0.113343 -0.61736,0 -0.94534,0.378616 -0.32797,0.376206 -0.32797,1.090031 0,0.711414 0.32797,1.090031 0.32798,0.376205 0.94534,0.376205 0.31351,0 0.59084,-0.113344 0.27974,-0.113344 0.52572,-0.342443 v 0.508842 q -0.25563,0.173633 -0.5426,0.260449 -0.28457,0.08682 -0.6029,0.08682 -0.81752,0 -1.28778,-0.499195 -0.47025,-0.501607 -0.47025,-1.367362 0,-0.868166 0.47025,-1.367361 0.47026,-0.501607 1.28778,-0.501607 0.32315,0 0.60772,0.08682 0.28698,0.08441 0.53778,0.255627 z"
             style="fill:#0000ff;stroke-width:0.264583"
             id="path1431" />
          <path
             d="m 110.62086,-47.978327 h 3.04582 v 0.409967 h -1.27813 v 3.19051 H 111.899 v -3.19051 h -1.27814 z"
             style="fill:#0000ff;stroke-width:0.264583"
             id="path1433" />
          <path
             d="m 114.13694,-47.978327 h 0.48713 v 1.475882 h 1.7701 v -1.475882 h 0.48714 v 3.600477 h -0.48714 v -1.714627 h -1.7701 v 1.714627 h -0.48713 z"
             style="fill:#0000ff;stroke-width:0.264583"
             id="path1435" />
        </g>
        <g
           aria-label="FSH    LH"
           id="text847-9-8-1"
           style="font-size:4.9389px;line-height:1.25;font-family:sans-serif;-inkscape-font-specification:'sans-serif, Normal';fill:#0000ff;stroke-width:0.264583">
          <path
             d="m 134.20647,-48.413618 h 2.06913 v 0.409967 h -1.582 v 1.061092 h 1.42766 v 0.409967 h -1.42766 v 1.719451 h -0.48713 z"
             style="fill:#0000ff;stroke-width:0.264583"
             id="path1438" />
          <path
             d="m 139.11884,-48.295451 v 0.47508 q -0.27733,-0.132637 -0.52331,-0.197749 -0.24598,-0.06511 -0.47508,-0.06511 -0.39791,0 -0.61495,0.154341 -0.21463,0.15434 -0.21463,0.438906 0,0.238746 0.14228,0.361736 0.14469,0.120578 0.54502,0.195337 l 0.29421,0.06029 q 0.54501,0.103698 0.80305,0.366559 0.26045,0.26045 0.26045,0.699356 0,0.523312 -0.35209,0.793408 -0.34968,0.270096 -1.02733,0.270096 -0.25563,0 -0.54501,-0.05788 -0.28698,-0.05788 -0.59566,-0.171222 v -0.501607 q 0.29662,0.166399 0.58119,0.250804 0.28456,0.08441 0.55948,0.08441 0.4172,0 0.64389,-0.163987 0.22669,-0.163987 0.22669,-0.467845 0,-0.265273 -0.16399,-0.41479 -0.16157,-0.149518 -0.53296,-0.224277 l -0.29662,-0.05788 q -0.54501,-0.108521 -0.78858,-0.340032 -0.24357,-0.231511 -0.24357,-0.64389 0,-0.477491 0.33521,-0.75241 0.33762,-0.27492 0.92845,-0.27492 0.25322,0 0.51608,0.04582 0.26286,0.04582 0.53778,0.13746 z"
             style="fill:#0000ff;stroke-width:0.264583"
             id="path1440" />
          <path
             d="m 140.09553,-48.413618 h 0.48713 v 1.475882 h 1.7701 v -1.475882 h 0.48714 v 3.600477 h -0.48714 v -1.714628 h -1.7701 v 1.714628 h -0.48713 z"
             style="fill:#0000ff;stroke-width:0.264583"
             id="path1442" />
          <path
             d="m 150.08908,-48.413618 h 0.48714 v 3.19051 h 1.75321 v 0.409967 h -2.24035 z"
             style="fill:#0000ff;stroke-width:0.264583"
             id="path1444" />
          <path
             d="m 152.84068,-48.413618 h 0.48714 v 1.475882 h 1.7701 v -1.475882 h 0.48713 v 3.600477 h -0.48713 v -1.714628 h -1.7701 v 1.714628 h -0.48714 z"
             style="fill:#0000ff;stroke-width:0.264583"
             id="path1446" />
        </g>
        <g
           aria-label="GH"
           id="text851-7-8-9"
           style="font-size:4.9389px;line-height:1.25;font-family:sans-serif;-inkscape-font-specification:'sans-serif, Normal';fill:#0000ff;stroke-width:0.264583">
          <path
             d="m 178.65698,-44.848107 v -0.967041 h -0.79582 v -0.400321 h 1.27813 v 1.545818 q -0.28215,0.200161 -0.62218,0.303858 -0.34004,0.101286 -0.72589,0.101286 -0.84405,0 -1.32154,-0.49196 -0.47508,-0.494373 -0.47508,-1.374596 0,-0.882636 0.47508,-1.374597 0.47749,-0.494372 1.32154,-0.494372 0.35209,0 0.66801,0.08682 0.31833,0.08682 0.58601,0.255626 v 0.518488 q -0.2701,-0.229099 -0.57395,-0.344855 -0.30386,-0.115755 -0.63907,-0.115755 -0.66077,0 -0.99357,0.368971 -0.33038,0.36897 -0.33038,1.099677 0,0.728294 0.33038,1.097265 0.3328,0.36897 0.99357,0.36897 0.25804,0 0.46061,-0.04341 0.20257,-0.04582 0.36415,-0.139871 z"
             style="fill:#0000ff;stroke-width:0.264583"
             id="path1449" />
          <path
             d="m 180.02916,-47.93492 h 0.48714 v 1.475883 h 1.77009 v -1.475883 h 0.48714 v 3.600478 h -0.48714 v -1.714628 h -1.77009 v 1.714628 h -0.48714 z"
             style="fill:#0000ff;stroke-width:0.264583"
             id="path1451" />
        </g>
        <g
           aria-label="Adrenal Gland"
           id="text835-1-7-6"
           style="font-size:4.9389px;line-height:1.25;font-family:sans-serif;-inkscape-font-specification:'sans-serif, Normal';fill:#ff00ff;stroke-width:0.264583">
          <path
             d="m -5.6632211,-33.414333 -0.6607708,1.791798 h 1.3239532 z m -0.2749193,-0.479903 h 0.5522501 l 1.3721846,3.600478 h -0.5064302 l -0.3279738,-0.923633 h -1.6229881 l -0.3279738,0.923633 h -0.5136649 z"
             style="fill:#ff00ff;stroke-width:0.264583"
             id="path1454" />
          <path
             d="m -1.8167635,-32.584752 v -1.461413 h 0.4437293 v 3.752407 h -0.4437293 v -0.405145 q -0.1398712,0.241158 -0.3545011,0.359325 -0.2122184,0.115755 -0.5112534,0.115755 -0.4895491,0 -0.7982304,-0.390675 -0.3062697,-0.390674 -0.3062697,-1.027329 0,-0.636655 0.3062697,-1.02733 0.3086813,-0.390675 0.7982304,-0.390675 0.299035,0 0.5112534,0.118167 0.2146299,0.115756 0.3545011,0.356913 z m -1.5120558,0.942925 q 0,0.489549 0.2001605,0.769291 0.202572,0.277331 0.5546616,0.277331 0.3520895,0 0.5546616,-0.277331 0.2025721,-0.279742 0.2025721,-0.769291 0,-0.489549 -0.2025721,-0.76688 -0.2025721,-0.279743 -0.5546616,-0.279743 -0.3520896,0 -0.5546616,0.279743 -0.2001605,0.277331 -0.2001605,0.76688 z"
             style="fill:#ff00ff;stroke-width:0.264583"
             id="path1456" />
          <path
             d="m 1.106062,-32.579929 q -0.074759,-0.04341 -0.16398694,-0.0627 -0.0868166,-0.0217 -0.19292578,-0.0217 -0.37620527,0 -0.57877734,0.24598 -0.2001605,0.243569 -0.2001605,0.701768 v 1.422828 h -0.44614087 v -2.700961 h 0.44614087 v 0.419613 q 0.13987119,-0.24598 0.36414741,-0.364147 0.22427622,-0.120579 0.54501533,-0.120579 0.0458199,0 0.10128604,0.0072 0.0554662,0.0048 0.12299018,0.01688 z"
             style="fill:#ff00ff;stroke-width:0.264583"
             id="path1458" />
          <path
             d="m 3.7732616,-31.755171 v 0.217041 H 1.7330714 q 0.028939,0.458199 0.2749193,0.699356 0.2483919,0.238746 0.6897096,0.238746 0.2556267,0 0.4943724,-0.0627 0.2411572,-0.0627 0.4774913,-0.188103 v 0.419614 q -0.2387457,0.101286 -0.4895492,0.154341 -0.2508035,0.05305 -0.5088417,0.05305 -0.6463014,0 -1.0249183,-0.376205 -0.3762052,-0.376205 -0.3762052,-1.017684 0,-0.663182 0.3569127,-1.051445 0.3593242,-0.390675 0.9670404,-0.390675 0.5450154,0 0.8609313,0.35209 0.3183276,0.349678 0.3183276,0.952571 z m -0.4437293,-0.130225 q -0.00482,-0.364147 -0.2049837,-0.581189 -0.1977489,-0.217042 -0.5257227,-0.217042 -0.3713821,0 -0.5956584,0.209807 -0.2218646,0.209807 -0.2556266,0.590835 z"
             style="fill:#ff00ff;stroke-width:0.264583"
             id="path1460" />
          <path
             d="m 6.74673,-31.923981 v 1.630223 H 6.3030007 v -1.615754 q 0,-0.38344 -0.1495175,-0.573954 -0.1495174,-0.190514 -0.4485524,-0.190514 -0.3593243,0 -0.5667195,0.229099 -0.2073952,0.2291 -0.2073952,0.624597 v 1.526526 H 4.4846752 v -2.700961 h 0.4461409 v 0.419613 q 0.1591638,-0.243569 0.3737937,-0.364147 0.2170415,-0.120579 0.4991955,-0.120579 0.4654334,0 0.7041791,0.289389 0.2387456,0.286977 0.2387456,0.846462 z"
             style="fill:#ff00ff;stroke-width:0.264583"
             id="path1462" />
          <path
             d="m 8.8592669,-31.651474 q -0.5377806,0 -0.7451758,0.122991 -0.2073952,0.12299 -0.2073952,0.419613 0,0.236334 0.1543406,0.376205 0.1567522,0.13746 0.4244367,0.13746 0.3689706,0 0.5908352,-0.26045 0.2242763,-0.262861 0.2242763,-0.696944 v -0.09887 z m 0.8850471,-0.183279 v 1.540995 H 9.3005847 v -0.409968 q -0.1519291,0.245981 -0.3786169,0.364148 -0.2266878,0.115755 -0.5546616,0.115755 -0.4147904,0 -0.6607708,-0.231511 -0.2435688,-0.233922 -0.2435688,-0.624597 0,-0.455787 0.3038581,-0.687298 0.3062697,-0.231511 0.9115743,-0.231511 h 0.6221857 v -0.04341 q 0,-0.30627 -0.2025721,-0.472668 -0.2001605,-0.168811 -0.5643079,-0.168811 -0.231511,0 -0.450964,0.05547 -0.2194531,0.05547 -0.4220252,0.166398 v -0.409967 q 0.2435688,-0.09405 0.4726682,-0.139871 0.2290994,-0.04823 0.4461409,-0.04823 0.586012,0 0.8754007,0.303858 0.2893887,0.303858 0.2893887,0.921221 z"
             style="fill:#ff00ff;stroke-width:0.264583"
             id="path1464" />
          <path
             d="m 10.658299,-34.046165 h 0.44373 v 3.752407 h -0.44373 z"
             style="fill:#ff00ff;stroke-width:0.264583"
             id="path1466" />
          <path
             d="m 16.074692,-30.807423 v -0.967041 h -0.795819 v -0.400321 h 1.278133 v 1.545818 q -0.282153,0.200161 -0.622185,0.303858 -0.340032,0.101286 -0.725883,0.101286 -0.844051,0 -1.321542,-0.491961 -0.47508,-0.494372 -0.47508,-1.374596 0,-0.882635 0.47508,-1.374596 0.477491,-0.494372 1.321542,-0.494372 0.352089,0 0.668005,0.08682 0.318328,0.08682 0.586012,0.255627 v 0.518488 q -0.270096,-0.229099 -0.573954,-0.344855 -0.303858,-0.115755 -0.639067,-0.115755 -0.66077,0 -0.993567,0.36897 -0.330386,0.368971 -0.330386,1.099677 0,0.728295 0.330386,1.097266 0.332797,0.36897 0.993567,0.36897 0.258039,0 0.460611,-0.04341 0.202572,-0.04582 0.364147,-0.139871 z"
             style="fill:#ff00ff;stroke-width:0.264583"
             id="path1468" />
          <path
             d="m 17.427583,-34.046165 h 0.443729 v 3.752407 h -0.443729 z"
             style="fill:#ff00ff;stroke-width:0.264583"
             id="path1470" />
          <path
             d="m 20.027258,-31.651474 q -0.537781,0 -0.745176,0.122991 -0.207395,0.12299 -0.207395,0.419613 0,0.236334 0.15434,0.376205 0.156752,0.13746 0.424437,0.13746 0.36897,0 0.590835,-0.26045 0.224276,-0.262861 0.224276,-0.696944 v -0.09887 z m 0.885047,-0.183279 v 1.540995 h -0.44373 v -0.409968 q -0.151929,0.245981 -0.378616,0.364148 -0.226688,0.115755 -0.554662,0.115755 -0.414791,0 -0.660771,-0.231511 -0.243569,-0.233922 -0.243569,-0.624597 0,-0.455787 0.303858,-0.687298 0.30627,-0.231511 0.911575,-0.231511 h 0.622185 v -0.04341 q 0,-0.30627 -0.202572,-0.472668 -0.20016,-0.168811 -0.564308,-0.168811 -0.231511,0 -0.450964,0.05547 -0.219453,0.05547 -0.422025,0.166398 v -0.409967 q 0.243569,-0.09405 0.472668,-0.139871 0.2291,-0.04823 0.446141,-0.04823 0.586012,0 0.875401,0.303858 0.289389,0.303858 0.289389,0.921221 z"
             style="fill:#ff00ff;stroke-width:0.264583"
             id="path1472" />
          <path
             d="m 24.071465,-31.923981 v 1.630223 h -0.44373 v -1.615754 q 0,-0.38344 -0.149517,-0.573954 -0.149518,-0.190514 -0.448553,-0.190514 -0.359324,0 -0.566719,0.229099 -0.207395,0.2291 -0.207395,0.624597 v 1.526526 H 21.80941 v -2.700961 h 0.446141 v 0.419613 q 0.159164,-0.243569 0.373793,-0.364147 0.217042,-0.120579 0.499196,-0.120579 0.465433,0 0.704179,0.289389 0.238746,0.286977 0.238746,0.846462 z"
             style="fill:#ff00ff;stroke-width:0.264583"
             id="path1474" />
          <path
             d="m 26.73384,-32.584752 v -1.461413 h 0.443729 v 3.752407 H 26.73384 v -0.405145 q -0.139871,0.241158 -0.354501,0.359325 -0.212218,0.115755 -0.511253,0.115755 -0.48955,0 -0.798231,-0.390675 -0.306269,-0.390674 -0.306269,-1.027329 0,-0.636655 0.306269,-1.02733 0.308681,-0.390675 0.798231,-0.390675 0.299035,0 0.511253,0.118167 0.21463,0.115756 0.354501,0.356913 z m -1.512056,0.942925 q 0,0.489549 0.200161,0.769291 0.202572,0.277331 0.554661,0.277331 0.35209,0 0.554662,-0.277331 0.202572,-0.279742 0.202572,-0.769291 0,-0.489549 -0.202572,-0.76688 -0.202572,-0.279743 -0.554662,-0.279743 -0.352089,0 -0.554661,0.279743 -0.200161,0.277331 -0.200161,0.76688 z"
             style="fill:#ff00ff;stroke-width:0.264583"
             id="path1476" />
        </g>
        <g
           aria-label="Cortisol"
           id="text843-65-0-9"
           style="font-size:4.9389px;line-height:1.25;font-family:sans-serif;-inkscape-font-specification:'sans-serif, Normal';fill:#ff00ff;stroke-width:0.264583">
          <path
             d="m 104.29289,-33.660312 v 0.513664 q -0.24598,-0.229099 -0.52572,-0.342443 -0.27733,-0.113344 -0.59083,-0.113344 -0.61737,0 -0.94534,0.378617 -0.32797,0.376205 -0.32797,1.090031 0,0.711414 0.32797,1.09003 0.32797,0.376206 0.94534,0.376206 0.3135,0 0.59083,-0.113344 0.27974,-0.113344 0.52572,-0.342443 v 0.508841 q -0.25562,0.173634 -0.5426,0.26045 -0.28457,0.08682 -0.60289,0.08682 -0.81753,0 -1.28778,-0.499196 -0.47026,-0.501607 -0.47026,-1.367361 0,-0.868166 0.47026,-1.367362 0.47025,-0.501607 1.28778,-0.501607 0.32315,0 0.60771,0.08682 0.28698,0.08441 0.53778,0.255627 z"
             style="fill:#ff00ff;stroke-width:0.264583"
             id="path1479" />
          <path
             d="m 106.07263,-32.727034 q -0.35691,0 -0.5643,0.279742 -0.2074,0.277331 -0.2074,0.762057 0,0.484726 0.20498,0.764469 0.2074,0.27733 0.56672,0.27733 0.35451,0 0.5619,-0.279742 0.2074,-0.279742 0.2074,-0.762057 0,-0.479903 -0.2074,-0.759645 -0.20739,-0.282154 -0.5619,-0.282154 z m 0,-0.376205 q 0.57878,0 0.90917,0.376205 0.33038,0.376205 0.33038,1.041799 0,0.663183 -0.33038,1.041799 -0.33039,0.376206 -0.90917,0.376206 -0.58118,0 -0.91157,-0.376206 -0.32797,-0.378616 -0.32797,-1.041799 0,-0.665594 0.32797,-1.041799 0.33039,-0.376205 0.91157,-0.376205 z"
             style="fill:#ff00ff;stroke-width:0.264583"
             id="path1481" />
          <path
             d="m 109.61282,-32.623336 q -0.0748,-0.04341 -0.16398,-0.0627 -0.0868,-0.0217 -0.19293,-0.0217 -0.37621,0 -0.57878,0.24598 -0.20016,0.243569 -0.20016,0.701768 v 1.422827 h -0.44614 v -2.700961 h 0.44614 v 0.419614 q 0.13987,-0.245981 0.36415,-0.364148 0.22428,-0.120578 0.54501,-0.120578 0.0458,0 0.10129,0.0072 0.0555,0.0048 0.12299,0.01688 z"
             style="fill:#ff00ff;stroke-width:0.264583"
             id="path1483" />
          <path
             d="m 110.51716,-33.805007 v 0.76688 h 0.91399 v 0.344855 h -0.91399 v 1.466236 q 0,0.330385 0.0892,0.424437 0.0916,0.09405 0.36897,0.09405 h 0.45579 v 0.371382 h -0.45579 q -0.51366,0 -0.709,-0.190514 -0.19534,-0.192926 -0.19534,-0.699356 v -1.466236 h -0.32556 v -0.344855 h 0.32556 v -0.76688 z"
             style="fill:#ff00ff;stroke-width:0.264583"
             id="path1485" />
          <path
             d="m 112.01475,-33.038127 h 0.44373 v 2.700961 h -0.44373 z m 0,-1.051445 h 0.44373 v 0.561896 h -0.44373 z"
             style="fill:#ff00ff;stroke-width:0.264583"
             id="path1487" />
          <path
             d="m 115.1088,-32.958545 v 0.419614 q -0.18811,-0.09646 -0.39068,-0.144695 -0.20257,-0.04823 -0.41961,-0.04823 -0.33039,0 -0.49679,0.101286 -0.16398,0.101286 -0.16398,0.303858 0,0.154341 0.11816,0.243569 0.11817,0.08682 0.47508,0.166398 l 0.15193,0.03376 q 0.47267,0.101286 0.67042,0.286977 0.20016,0.18328 0.20016,0.513665 0,0.376206 -0.29904,0.595659 -0.29662,0.219453 -0.81752,0.219453 -0.21704,0 -0.45337,-0.04341 -0.23393,-0.041 -0.49438,-0.125401 v -0.458199 q 0.24598,0.127813 0.48473,0.192926 0.23875,0.0627 0.47267,0.0627 0.3135,0 0.48231,-0.10611 0.16881,-0.10852 0.16881,-0.303858 0,-0.180868 -0.12299,-0.27733 -0.12058,-0.09646 -0.53296,-0.185692 l -0.15434,-0.03617 q -0.41237,-0.08682 -0.59565,-0.265273 -0.18328,-0.180868 -0.18328,-0.494372 0,-0.381029 0.27009,-0.588424 0.2701,-0.207395 0.76688,-0.207395 0.24598,0 0.46302,0.03617 0.21705,0.03617 0.40033,0.108521 z"
             style="fill:#ff00ff;stroke-width:0.264583"
             id="path1489" />
          <path
             d="m 117.0067,-32.727034 q -0.35691,0 -0.56431,0.279742 -0.20739,0.277331 -0.20739,0.762057 0,0.484726 0.20498,0.764469 0.2074,0.27733 0.56672,0.27733 0.3545,0 0.5619,-0.279742 0.20739,-0.279742 0.20739,-0.762057 0,-0.479903 -0.20739,-0.759645 -0.2074,-0.282154 -0.5619,-0.282154 z m 0,-0.376205 q 0.57878,0 0.90917,0.376205 0.33038,0.376205 0.33038,1.041799 0,0.663183 -0.33038,1.041799 -0.33039,0.376206 -0.90917,0.376206 -0.58119,0 -0.91157,-0.376206 -0.32798,-0.378616 -0.32798,-1.041799 0,-0.665594 0.32798,-1.041799 0.33038,-0.376205 0.91157,-0.376205 z"
             style="fill:#ff00ff;stroke-width:0.264583"
             id="path1491" />
          <path
             d="m 118.98178,-34.089572 h 0.44373 v 3.752406 h -0.44373 z"
             style="fill:#ff00ff;stroke-width:0.264583"
             id="path1493" />
        </g>
        <g
           aria-label="Actions"
           id="text835-1-7-5"
           style="font-size:4.9389px;line-height:1.25;font-family:sans-serif;-inkscape-font-specification:'sans-serif, Normal';fill:#ff0000;stroke-width:0.264583">
          <path
             d="m -5.6632211,-19.373651 -0.6607708,1.791798 h 1.3239532 z m -0.2749193,-0.479903 h 0.5522501 l 1.3721846,3.600477 h -0.5064302 l -0.3279738,-0.923632 h -1.6229881 l -0.3279738,0.923632 h -0.5136649 z"
             style="fill:#ff0000;stroke-width:0.264583"
             id="path1496" />
          <path
             d="m -1.650365,-18.85034 v 0.414791 q -0.1881027,-0.103698 -0.3786169,-0.154341 -0.1881026,-0.05306 -0.3810284,-0.05306 -0.4316714,0 -0.6704171,0.27492 -0.2387456,0.272507 -0.2387456,0.76688 0,0.494372 0.2387456,0.769291 0.2387457,0.272508 0.6704171,0.272508 0.1929258,0 0.3810284,-0.05064 0.1905142,-0.05306 0.3786169,-0.156752 v 0.409967 q -0.1856911,0.08682 -0.3858516,0.130225 -0.1977489,0.04341 -0.4220251,0.04341 -0.6101278,0 -0.9694521,-0.38344 -0.3593243,-0.38344 -0.3593243,-1.034564 0,-0.660771 0.3617359,-1.039388 0.3641474,-0.378617 0.9959793,-0.378617 0.2049837,0 0.400321,0.04341 0.1953374,0.041 0.3786169,0.125402 z"
             style="fill:#ff0000;stroke-width:0.264583"
             id="path1498" />
          <path
             d="m -0.43975563,-19.720917 v 0.76688 h 0.91398589 v 0.344854 h -0.91398589 v 1.466236 q 0,0.330386 0.0892282,0.424437 0.0916398,0.09405 0.36897056,0.09405 h 0.45578716 v 0.371382 H 0.0184431 q -0.51366489,0 -0.70900225,-0.190514 -0.19533735,-0.192926 -0.19533735,-0.699356 v -1.466236 h -0.3255623 v -0.344854 h 0.3255623 v -0.76688 z"
             style="fill:#ff0000;stroke-width:0.264583"
             id="path1500" />
          <path
             d="M 1.0578307,-18.954037 H 1.50156 v 2.70096 H 1.0578307 Z m 0,-1.051446 H 1.50156 v 0.561896 H 1.0578307 Z"
             style="fill:#ff0000;stroke-width:0.264583"
             id="path1502" />
          <path
             d="m 3.4766378,-18.642945 q -0.3569127,0 -0.5643079,0.279743 -0.2073952,0.277331 -0.2073952,0.762057 0,0.484726 0.2049836,0.764468 0.2073952,0.277331 0.5667195,0.277331 0.3545011,0 0.5618963,-0.279743 0.2073952,-0.279742 0.2073952,-0.762056 0,-0.479903 -0.2073952,-0.759646 -0.2073952,-0.282154 -0.5618963,-0.282154 z m 0,-0.376205 q 0.5787773,0 0.9091627,0.376205 0.3303854,0.376206 0.3303854,1.0418 0,0.663182 -0.3303854,1.041799 -0.3303854,0.376205 -0.9091627,0.376205 -0.5811889,0 -0.9115743,-0.376205 -0.3279739,-0.378617 -0.3279739,-1.041799 0,-0.665594 0.3279739,-1.0418 0.3303854,-0.376205 0.9115743,-0.376205 z"
             style="fill:#ff0000;stroke-width:0.264583"
             id="path1504" />
          <path
             d="m 7.6968891,-17.883299 v 1.630222 H 7.2531598 v -1.615753 q 0,-0.38344 -0.1495175,-0.573954 -0.1495175,-0.190514 -0.4485524,-0.190514 -0.3593243,0 -0.5667195,0.229099 -0.2073952,0.229099 -0.2073952,0.624597 v 1.526525 H 5.4348343 v -2.70096 h 0.4461409 v 0.419613 q 0.1591638,-0.243569 0.3737937,-0.364147 0.2170415,-0.120579 0.4991954,-0.120579 0.4654335,0 0.7041791,0.289389 0.2387457,0.286977 0.2387457,0.846462 z"
             style="fill:#ff0000;stroke-width:0.264583"
             id="path1506" />
          <path
             d="m 10.303799,-18.874456 v 0.419614 q -0.188102,-0.09646 -0.3906744,-0.144694 -0.2025721,-0.04823 -0.4196136,-0.04823 -0.3303854,0 -0.4967839,0.101286 -0.1639869,0.101286 -0.1639869,0.303858 0,0.154341 0.118167,0.243569 0.1181671,0.08682 0.4750798,0.166399 l 0.151929,0.03376 q 0.472668,0.101286 0.670417,0.286977 0.200161,0.183279 0.200161,0.513665 0,0.376205 -0.299035,0.595658 -0.2966237,0.219453 -0.8175233,0.219453 -0.2170415,0 -0.4533756,-0.04341 -0.2339225,-0.041 -0.4943723,-0.125402 v -0.458199 q 0.2459803,0.127814 0.484726,0.192926 0.2387456,0.0627 0.4726681,0.0627 0.3135044,0 0.4823145,-0.106109 0.1688101,-0.108521 0.1688101,-0.303858 0,-0.180868 -0.1229902,-0.277331 -0.1205786,-0.09646 -0.5329575,-0.185691 l -0.1543406,-0.03617 q -0.4123789,-0.08682 -0.5956584,-0.265273 -0.1832795,-0.180868 -0.1832795,-0.494372 0,-0.381029 0.2700961,-0.588424 0.2700961,-0.207395 0.76688,-0.207395 0.2459804,0 0.4630219,0.03617 0.2170417,0.03617 0.4003207,0.10852 z"
             style="fill:#ff0000;stroke-width:0.264583"
             id="path1508" />
        </g>
        <g
           aria-label="Metabolism"
           id="text839-5-4-63"
           style="font-size:4.9389px;line-height:1.25;font-family:sans-serif;-inkscape-font-specification:'sans-serif, Normal';fill:#ff0000;stroke-width:0.264583">
          <path
             d="m 62.097237,-19.853554 h 0.725883 l 0.918809,2.450157 0.923632,-2.450157 h 0.725883 v 3.600477 h -0.475079 v -3.161571 l -0.928456,2.46945 H 63.49836 l -0.928455,-2.46945 v 3.161571 h -0.472668 z"
             style="fill:#ff0000;stroke-width:0.264583"
             id="path1511" />
          <path
             d="m 68.649478,-17.714489 v 0.217041 h -2.04019 q 0.02894,0.458199 0.27492,0.699356 0.248392,0.238746 0.689709,0.238746 0.255627,0 0.494373,-0.0627 0.241157,-0.0627 0.477491,-0.188103 v 0.419614 q -0.238746,0.101286 -0.489549,0.15434 -0.250804,0.05306 -0.508842,0.05306 -0.646301,0 -1.024918,-0.376205 -0.376206,-0.376206 -0.376206,-1.017684 0,-0.663182 0.356913,-1.051445 0.359324,-0.390675 0.967041,-0.390675 0.545015,0 0.860931,0.35209 0.318327,0.349678 0.318327,0.952571 z m -0.443729,-0.130225 q -0.0048,-0.364148 -0.204983,-0.581189 -0.197749,-0.217042 -0.525723,-0.217042 -0.371382,0 -0.595659,0.209807 -0.221864,0.209807 -0.255626,0.590835 z"
             style="fill:#ff0000;stroke-width:0.264583"
             id="path1513" />
          <path
             d="m 69.81668,-19.720917 v 0.76688 h 0.913986 v 0.344854 H 69.81668 v 1.466236 q 0,0.330386 0.08923,0.424437 0.09164,0.09405 0.36897,0.09405 h 0.455788 v 0.371382 h -0.455788 q -0.513664,0 -0.709002,-0.190514 -0.195337,-0.192926 -0.195337,-0.699356 v -1.466236 h -0.325562 v -0.344854 h 0.325562 v -0.76688 z"
             style="fill:#ff0000;stroke-width:0.264583"
             id="path1515" />
          <path
             d="m 72.541756,-17.610792 q -0.537781,0 -0.745176,0.12299 -0.207395,0.122991 -0.207395,0.419614 0,0.236334 0.15434,0.376205 0.156753,0.13746 0.424437,0.13746 0.368971,0 0.590835,-0.26045 0.224277,-0.262861 0.224277,-0.696944 v -0.09887 z m 0.885047,-0.183279 v 1.540994 h -0.443729 v -0.409967 q -0.151929,0.245981 -0.378617,0.364148 -0.226688,0.115755 -0.554662,0.115755 -0.41479,0 -0.660771,-0.231511 -0.243568,-0.233922 -0.243568,-0.624597 0,-0.455787 0.303858,-0.687298 0.306269,-0.231511 0.911574,-0.231511 h 0.622186 v -0.04341 q 0,-0.30627 -0.202572,-0.472669 -0.200161,-0.16881 -0.564308,-0.16881 -0.231511,0 -0.450964,0.05547 -0.219453,0.05547 -0.422026,0.166399 v -0.409967 q 0.243569,-0.09405 0.472669,-0.139871 0.229099,-0.04823 0.44614,-0.04823 0.586013,0 0.875401,0.303858 0.289389,0.303858 0.289389,0.921221 z"
             style="fill:#ff0000;stroke-width:0.264583"
             id="path1517" />
          <path
             d="m 76.279693,-17.601145 q 0,-0.48955 -0.202572,-0.76688 -0.20016,-0.279743 -0.55225,-0.279743 -0.352089,0 -0.554661,0.279743 -0.200161,0.27733 -0.200161,0.76688 0,0.489549 0.200161,0.769291 0.202572,0.277331 0.554661,0.277331 0.35209,0 0.55225,-0.277331 0.202572,-0.279742 0.202572,-0.769291 z m -1.509644,-0.942925 q 0.139871,-0.241157 0.35209,-0.356913 0.21463,-0.118167 0.511253,-0.118167 0.491961,0 0.79823,0.390675 0.308682,0.390674 0.308682,1.02733 0,0.636655 -0.308682,1.027329 -0.306269,0.390675 -0.79823,0.390675 -0.296623,0 -0.511253,-0.115755 -0.212219,-0.118167 -0.35209,-0.359325 v 0.405144 h -0.446141 v -3.752406 h 0.446141 z"
             style="fill:#ff0000;stroke-width:0.264583"
             id="path1519" />
          <path
             d="m 78.522456,-18.642945 q -0.356913,0 -0.564308,0.279743 -0.207395,0.277331 -0.207395,0.762057 0,0.484726 0.204983,0.764468 0.207395,0.277331 0.56672,0.277331 0.354501,0 0.561896,-0.279743 0.207395,-0.279742 0.207395,-0.762056 0,-0.479903 -0.207395,-0.759646 -0.207395,-0.282154 -0.561896,-0.282154 z m 0,-0.376205 q 0.578777,0 0.909162,0.376205 0.330386,0.376206 0.330386,1.0418 0,0.663182 -0.330386,1.041799 -0.330385,0.376205 -0.909162,0.376205 -0.581189,0 -0.911575,-0.376205 -0.327974,-0.378617 -0.327974,-1.041799 0,-0.665594 0.327974,-1.0418 0.330386,-0.376205 0.911575,-0.376205 z"
             style="fill:#ff0000;stroke-width:0.264583"
             id="path1521" />
          <path
             d="m 80.497532,-20.005483 h 0.44373 v 3.752406 h -0.44373 z"
             style="fill:#ff0000;stroke-width:0.264583"
             id="path1523" />
          <path
             d="m 81.869717,-18.954037 h 0.443729 v 2.70096 h -0.443729 z m 0,-1.051446 h 0.443729 v 0.561896 h -0.443729 z"
             style="fill:#ff0000;stroke-width:0.264583"
             id="path1525" />
          <path
             d="m 84.963764,-18.874456 v 0.419614 q -0.188102,-0.09646 -0.390674,-0.144694 -0.202572,-0.04823 -0.419614,-0.04823 -0.330385,0 -0.496784,0.101286 -0.163987,0.101286 -0.163987,0.303858 0,0.154341 0.118167,0.243569 0.118167,0.08682 0.47508,0.166399 l 0.151929,0.03376 q 0.472668,0.101286 0.670417,0.286977 0.200161,0.183279 0.200161,0.513665 0,0.376205 -0.299035,0.595658 -0.296624,0.219453 -0.817523,0.219453 -0.217042,0 -0.453376,-0.04341 -0.233922,-0.041 -0.494372,-0.125402 v -0.458199 q 0.24598,0.127814 0.484726,0.192926 0.238745,0.0627 0.472668,0.0627 0.313504,0 0.482314,-0.106109 0.16881,-0.108521 0.16881,-0.303858 0,-0.180868 -0.12299,-0.277331 -0.120578,-0.09646 -0.532957,-0.185691 l -0.154341,-0.03617 q -0.412379,-0.08682 -0.595658,-0.265273 -0.18328,-0.180868 -0.18328,-0.494372 0,-0.381029 0.270096,-0.588424 0.270097,-0.207395 0.76688,-0.207395 0.245981,0 0.463022,0.03617 0.217042,0.03617 0.400321,0.10852 z"
             style="fill:#ff0000;stroke-width:0.264583"
             id="path1527" />
          <path
             d="m 87.917941,-18.435549 q 0.166399,-0.299035 0.39791,-0.441318 0.231511,-0.142283 0.545015,-0.142283 0.422025,0 0.651125,0.296623 0.229099,0.294212 0.229099,0.839228 v 1.630222 h -0.446141 v -1.615753 q 0,-0.388263 -0.137459,-0.576366 -0.13746,-0.188102 -0.419614,-0.188102 -0.344855,0 -0.545015,0.229099 -0.200161,0.229099 -0.200161,0.624597 v 1.526525 h -0.446141 v -1.615753 q 0,-0.390675 -0.137459,-0.576366 -0.13746,-0.188102 -0.424437,-0.188102 -0.340032,0 -0.540192,0.231511 -0.200161,0.229099 -0.200161,0.622185 v 1.526525 h -0.446141 v -2.70096 h 0.446141 v 0.419613 q 0.151929,-0.248392 0.364148,-0.366559 0.212218,-0.118167 0.504018,-0.118167 0.294212,0 0.499196,0.149518 0.207395,0.149517 0.306269,0.434083 z"
             style="fill:#ff0000;stroke-width:0.264583"
             id="path1529" />
        </g>
        <g
           aria-label="Stress"
           id="text843-65-0-5"
           style="font-size:4.9389px;line-height:1.25;font-family:sans-serif;-inkscape-font-specification:'sans-serif, Normal';fill:#ff0000;stroke-width:0.264583">
          <path
             d="m 105.4191,-19.778794 v 0.475079 q -0.27733,-0.132636 -0.52331,-0.197749 -0.24598,-0.06511 -0.47508,-0.06511 -0.39791,0 -0.61495,0.154341 -0.21463,0.15434 -0.21463,0.438906 0,0.238745 0.14228,0.361736 0.14469,0.120578 0.54502,0.195337 l 0.29421,0.06029 q 0.54501,0.103698 0.80305,0.366559 0.26045,0.26045 0.26045,0.699356 0,0.523311 -0.35209,0.793408 -0.34968,0.270096 -1.02733,0.270096 -0.25563,0 -0.54501,-0.05788 -0.28698,-0.05788 -0.59566,-0.171222 v -0.501607 q 0.29662,0.166399 0.58119,0.250804 0.28456,0.08441 0.55948,0.08441 0.4172,0 0.64389,-0.163987 0.22669,-0.163987 0.22669,-0.467845 0,-0.265273 -0.16399,-0.414791 -0.16157,-0.149517 -0.53296,-0.224276 l -0.29662,-0.05788 q -0.54501,-0.10852 -0.78858,-0.340031 -0.24357,-0.231511 -0.24357,-0.64389 0,-0.477491 0.33521,-0.752411 0.33762,-0.274919 0.92845,-0.274919 0.25322,0 0.51608,0.04582 0.26286,0.04582 0.53778,0.13746 z"
             style="fill:#ff0000;stroke-width:0.264583"
             id="path1532" />
          <path
             d="m 106.8154,-19.764325 v 0.76688 h 0.91399 v 0.344855 h -0.91399 v 1.466236 q 0,0.330385 0.0892,0.424437 0.0916,0.09405 0.36897,0.09405 h 0.45579 v 0.371382 h -0.45579 q -0.51367,0 -0.709,-0.190514 -0.19534,-0.192926 -0.19534,-0.699356 v -1.466236 h -0.32556 v -0.344855 h 0.32556 v -0.76688 z"
             style="fill:#ff0000;stroke-width:0.264583"
             id="path1534" />
          <path
             d="m 109.8781,-18.582654 q -0.0748,-0.04341 -0.16399,-0.0627 -0.0868,-0.02171 -0.19293,-0.02171 -0.3762,0 -0.57877,0.245981 -0.20016,0.243569 -0.20016,0.701767 v 1.422828 h -0.44614 v -2.700961 h 0.44614 v 0.419614 q 0.13987,-0.245981 0.36414,-0.364148 0.22428,-0.120578 0.54502,-0.120578 0.0458,0 0.10128,0.0072 0.0555,0.0048 0.123,0.01688 z"
             style="fill:#ff0000;stroke-width:0.264583"
             id="path1536" />
          <path
             d="m 112.5453,-17.757897 v 0.217042 h -2.04019 q 0.0289,0.458198 0.27491,0.699356 0.2484,0.238745 0.68971,0.238745 0.25563,0 0.49438,-0.0627 0.24115,-0.0627 0.47749,-0.188102 v 0.419613 q -0.23875,0.101286 -0.48955,0.154341 -0.2508,0.05306 -0.50884,0.05306 -0.6463,0 -1.02492,-0.376206 -0.37621,-0.376205 -0.37621,-1.017683 0,-0.663183 0.35692,-1.051446 0.35932,-0.390674 0.96704,-0.390674 0.54501,0 0.86093,0.352089 0.31833,0.349678 0.31833,0.952571 z m -0.44373,-0.130225 q -0.005,-0.364147 -0.20499,-0.581189 -0.19775,-0.217041 -0.52572,-0.217041 -0.37138,0 -0.59566,0.209807 -0.22186,0.209806 -0.25562,0.590835 z"
             style="fill:#ff0000;stroke-width:0.264583"
             id="path1538" />
          <path
             d="m 114.99545,-18.917863 v 0.419614 q -0.1881,-0.09646 -0.39067,-0.144695 -0.20257,-0.04823 -0.41962,-0.04823 -0.33038,0 -0.49678,0.101286 -0.16399,0.101286 -0.16399,0.303858 0,0.154341 0.11817,0.243569 0.11817,0.08682 0.47508,0.166398 l 0.15193,0.03376 q 0.47267,0.101286 0.67042,0.286977 0.20016,0.18328 0.20016,0.513665 0,0.376205 -0.29904,0.595659 -0.29662,0.219453 -0.81752,0.219453 -0.21704,0 -0.45338,-0.04341 -0.23392,-0.041 -0.49437,-0.125401 v -0.458199 q 0.24598,0.127813 0.48473,0.192926 0.23874,0.0627 0.47267,0.0627 0.3135,0 0.48231,-0.106109 0.16881,-0.10852 0.16881,-0.303858 0,-0.180868 -0.12299,-0.277331 -0.12058,-0.09646 -0.53296,-0.185691 l -0.15434,-0.03617 q -0.41238,-0.08682 -0.59566,-0.265273 -0.18328,-0.180868 -0.18328,-0.494373 0,-0.381028 0.2701,-0.588423 0.2701,-0.207395 0.76688,-0.207395 0.24598,0 0.46302,0.03617 0.21704,0.03617 0.40032,0.108521 z"
             style="fill:#ff0000;stroke-width:0.264583"
             id="path1540" />
          <path
             d="m 117.5686,-18.917863 v 0.419614 q -0.1881,-0.09646 -0.39067,-0.144695 -0.20258,-0.04823 -0.41962,-0.04823 -0.33038,0 -0.49678,0.101286 -0.16399,0.101286 -0.16399,0.303858 0,0.154341 0.11817,0.243569 0.11816,0.08682 0.47508,0.166398 l 0.15193,0.03376 q 0.47266,0.101286 0.67041,0.286977 0.20016,0.18328 0.20016,0.513665 0,0.376205 -0.29903,0.595659 -0.29662,0.219453 -0.81752,0.219453 -0.21705,0 -0.45338,-0.04341 -0.23392,-0.041 -0.49437,-0.125401 v -0.458199 q 0.24598,0.127813 0.48472,0.192926 0.23875,0.0627 0.47267,0.0627 0.31351,0 0.48232,-0.106109 0.16881,-0.10852 0.16881,-0.303858 0,-0.180868 -0.12299,-0.277331 -0.12058,-0.09646 -0.53296,-0.185691 l -0.15434,-0.03617 q -0.41238,-0.08682 -0.59566,-0.265273 -0.18328,-0.180868 -0.18328,-0.494373 0,-0.381028 0.2701,-0.588423 0.27009,-0.207395 0.76688,-0.207395 0.24598,0 0.46302,0.03617 0.21704,0.03617 0.40032,0.108521 z"
             style="fill:#ff0000;stroke-width:0.264583"
             id="path1542" />
        </g>
        <g
           aria-label="Reproduction"
           id="text847-9-8-11"
           style="font-size:4.9389px;line-height:1.25;font-family:sans-serif;-inkscape-font-specification:'sans-serif, Normal';fill:#ff0000;stroke-width:0.264583">
          <path
             d="m 130.67111,-18.419876 q 0.15675,0.05305 0.30386,0.226688 0.14951,0.173633 0.29903,0.477491 l 0.49437,0.983922 h -0.52331 l -0.46061,-0.923632 q -0.17845,-0.361736 -0.34726,-0.479903 -0.1664,-0.118167 -0.45579,-0.118167 h -0.53055 v 1.521702 h -0.48714 v -3.600478 h 1.09968 q 0.61736,0 0.92122,0.258039 0.30386,0.258038 0.30386,0.778937 0,0.340032 -0.15916,0.564308 -0.15676,0.224277 -0.4582,0.311093 z m -1.22026,-1.512056 v 1.278134 h 0.61254 q 0.35209,0 0.53055,-0.161576 0.18087,-0.163987 0.18087,-0.479903 0,-0.315916 -0.18087,-0.475079 -0.17846,-0.161576 -0.53055,-0.161576 z"
             style="fill:#ff0000;stroke-width:0.264583"
             id="path1545" />
          <path
             d="m 134.46451,-18.193188 v 0.217041 h -2.04019 q 0.0289,0.458199 0.27492,0.699356 0.24839,0.238746 0.68971,0.238746 0.25563,0 0.49437,-0.0627 0.24116,-0.0627 0.47749,-0.188102 v 0.419613 q -0.23874,0.101286 -0.48955,0.154341 -0.2508,0.05305 -0.50884,0.05305 -0.6463,0 -1.02492,-0.376205 -0.3762,-0.376205 -0.3762,-1.017683 0,-0.663183 0.35691,-1.051446 0.35933,-0.390675 0.96704,-0.390675 0.54502,0 0.86093,0.35209 0.31833,0.349678 0.31833,0.952571 z m -0.44373,-0.130225 q -0.005,-0.364147 -0.20498,-0.581189 -0.19775,-0.217041 -0.52572,-0.217041 -0.37139,0 -0.59566,0.209806 -0.22187,0.209807 -0.25563,0.590836 z"
             style="fill:#ff0000;stroke-width:0.264583"
             id="path1547" />
          <path
             d="m 135.62207,-17.136919 v 1.432474 h -0.44615 v -3.728291 h 0.44615 v 0.409967 q 0.13987,-0.241157 0.35209,-0.356913 0.21462,-0.118167 0.51125,-0.118167 0.49196,0 0.79823,0.390675 0.30868,0.390675 0.30868,1.02733 0,0.636655 -0.30868,1.02733 -0.30627,0.390674 -0.79823,0.390674 -0.29663,0 -0.51125,-0.115755 -0.21222,-0.118167 -0.35209,-0.359324 z m 1.50964,-0.942925 q 0,-0.489549 -0.20257,-0.76688 -0.20016,-0.279743 -0.55225,-0.279743 -0.35209,0 -0.55466,0.279743 -0.20016,0.277331 -0.20016,0.76688 0,0.489549 0.20016,0.769291 0.20257,0.277331 0.55466,0.277331 0.35209,0 0.55225,-0.277331 0.20257,-0.279742 0.20257,-0.769291 z"
             style="fill:#ff0000;stroke-width:0.264583"
             id="path1549" />
          <path
             d="m 139.89296,-19.017946 q -0.0748,-0.04341 -0.16399,-0.0627 -0.0868,-0.0217 -0.19292,-0.0217 -0.37621,0 -0.57878,0.245981 -0.20016,0.243568 -0.20016,0.701767 v 1.422828 h -0.44614 v -2.700961 h 0.44614 v 0.419613 q 0.13987,-0.24598 0.36415,-0.364147 0.22427,-0.120579 0.54501,-0.120579 0.0458,0 0.10129,0.0072 0.0555,0.0048 0.12299,0.01688 z"
             style="fill:#ff0000;stroke-width:0.264583"
             id="path1551" />
          <path
             d="m 141.29649,-19.121643 q -0.35691,0 -0.5643,0.279742 -0.2074,0.277331 -0.2074,0.762057 0,0.484726 0.20499,0.764468 0.20739,0.277331 0.56671,0.277331 0.35451,0 0.5619,-0.279742 0.2074,-0.279743 0.2074,-0.762057 0,-0.479903 -0.2074,-0.759645 -0.20739,-0.282154 -0.5619,-0.282154 z m 0,-0.376206 q 0.57878,0 0.90917,0.376206 0.33038,0.376205 0.33038,1.041799 0,0.663182 -0.33038,1.041799 -0.33039,0.376205 -0.90917,0.376205 -0.58118,0 -0.91157,-0.376205 -0.32797,-0.378617 -0.32797,-1.041799 0,-0.665594 0.32797,-1.041799 0.33039,-0.376206 0.91157,-0.376206 z"
             style="fill:#ff0000;stroke-width:0.264583"
             id="path1553" />
          <path
             d="m 145.0489,-19.022769 v -1.461413 h 0.44373 v 3.752407 h -0.44373 v -0.405144 q -0.13987,0.241157 -0.3545,0.359324 -0.21222,0.115755 -0.51125,0.115755 -0.48955,0 -0.79823,-0.390674 -0.30627,-0.390675 -0.30627,-1.02733 0,-0.636655 0.30627,-1.02733 0.30868,-0.390675 0.79823,-0.390675 0.29903,0 0.51125,0.118167 0.21463,0.115756 0.3545,0.356913 z m -1.51205,0.942925 q 0,0.489549 0.20016,0.769291 0.20257,0.277331 0.55466,0.277331 0.35209,0 0.55466,-0.277331 0.20257,-0.279742 0.20257,-0.769291 0,-0.489549 -0.20257,-0.76688 -0.20257,-0.279743 -0.55466,-0.279743 -0.35209,0 -0.55466,0.279743 -0.20016,0.277331 -0.20016,0.76688 z"
             style="fill:#ff0000;stroke-width:0.264583"
             id="path1555" />
          <path
             d="m 146.3608,-17.79769 v -1.635046 h 0.44373 v 1.618165 q 0,0.38344 0.14951,0.576366 0.14952,0.190514 0.44856,0.190514 0.35932,0 0.56672,-0.2291 0.2098,-0.229099 0.2098,-0.624597 v -1.531348 h 0.44373 v 2.700961 h -0.44373 v -0.414791 q -0.16157,0.245981 -0.3762,0.366559 -0.21222,0.118167 -0.49438,0.118167 -0.46543,0 -0.70659,-0.289388 -0.24115,-0.289389 -0.24115,-0.846462 z"
             style="fill:#ff0000;stroke-width:0.264583"
             id="path1557" />
          <path
             d="m 151.48056,-19.329039 v 0.414791 q -0.1881,-0.103698 -0.37861,-0.154341 -0.18811,-0.05305 -0.38103,-0.05305 -0.43167,0 -0.67042,0.274919 -0.23874,0.272508 -0.23874,0.76688 0,0.494372 0.23874,0.769291 0.23875,0.272508 0.67042,0.272508 0.19292,0 0.38103,-0.05064 0.19051,-0.05306 0.37861,-0.156752 v 0.409967 q -0.18569,0.08682 -0.38585,0.130225 -0.19775,0.04341 -0.42202,0.04341 -0.61013,0 -0.96945,-0.38344 -0.35933,-0.38344 -0.35933,-1.034564 0,-0.660771 0.36174,-1.039388 0.36414,-0.378617 0.99598,-0.378617 0.20498,0 0.40032,0.04341 0.19533,0.041 0.37861,0.125401 z"
             style="fill:#ff0000;stroke-width:0.264583"
             id="path1559" />
          <path
             d="m 152.69117,-20.199616 v 0.76688 h 0.91399 v 0.344855 h -0.91399 v 1.466236 q 0,0.330385 0.0892,0.424436 0.0916,0.09405 0.36897,0.09405 h 0.45579 v 0.371382 h -0.45579 q -0.51366,0 -0.709,-0.190514 -0.19534,-0.192926 -0.19534,-0.699356 v -1.466236 h -0.32556 v -0.344855 h 0.32556 v -0.76688 z"
             style="fill:#ff0000;stroke-width:0.264583"
             id="path1561" />
          <path
             d="m 154.18876,-19.432736 h 0.44373 v 2.700961 h -0.44373 z m 0,-1.051446 h 0.44373 v 0.561897 h -0.44373 z"
             style="fill:#ff0000;stroke-width:0.264583"
             id="path1563" />
          <path
             d="m 156.60757,-19.121643 q -0.35691,0 -0.56431,0.279742 -0.20739,0.277331 -0.20739,0.762057 0,0.484726 0.20498,0.764468 0.20739,0.277331 0.56672,0.277331 0.3545,0 0.56189,-0.279742 0.2074,-0.279743 0.2074,-0.762057 0,-0.479903 -0.2074,-0.759645 -0.20739,-0.282154 -0.56189,-0.282154 z m 0,-0.376206 q 0.57878,0 0.90916,0.376206 0.33039,0.376205 0.33039,1.041799 0,0.663182 -0.33039,1.041799 -0.33038,0.376205 -0.90916,0.376205 -0.58119,0 -0.91158,-0.376205 -0.32797,-0.378617 -0.32797,-1.041799 0,-0.665594 0.32797,-1.041799 0.33039,-0.376206 0.91158,-0.376206 z"
             style="fill:#ff0000;stroke-width:0.264583"
             id="path1565" />
          <path
             d="m 160.82782,-18.361998 v 1.630223 h -0.44373 v -1.615754 q 0,-0.38344 -0.14952,-0.573954 -0.14951,-0.190514 -0.44855,-0.190514 -0.35932,0 -0.56672,0.229099 -0.20739,0.2291 -0.20739,0.624597 v 1.526526 h -0.44615 v -2.700961 h 0.44615 v 0.419613 q 0.15916,-0.243568 0.37379,-0.364147 0.21704,-0.120579 0.49919,-0.120579 0.46544,0 0.70418,0.289389 0.23875,0.286977 0.23875,0.846462 z"
             style="fill:#ff0000;stroke-width:0.264583"
             id="path1567" />
        </g>
        <g
           aria-label="Growth"
           id="text851-7-8-8"
           style="font-size:4.9389px;line-height:1.25;font-family:sans-serif;-inkscape-font-specification:'sans-serif, Normal';fill:#ff0000;stroke-width:0.264583">
          <path
             d="m 173.45641,-16.766741 v -0.967041 h -0.79581 v -0.400321 h 1.27813 v 1.545818 q -0.28215,0.20016 -0.62219,0.303858 -0.34003,0.101286 -0.72588,0.101286 -0.84405,0 -1.32154,-0.491961 -0.47508,-0.494372 -0.47508,-1.374596 0,-0.882635 0.47508,-1.374596 0.47749,-0.494372 1.32154,-0.494372 0.35209,0 0.66801,0.08682 0.31832,0.08682 0.58601,0.255627 v 0.518488 q -0.2701,-0.229099 -0.57396,-0.344855 -0.30385,-0.115755 -0.63906,-0.115755 -0.66077,0 -0.99357,0.36897 -0.33039,0.368971 -0.33039,1.099677 0,0.728295 0.33039,1.097265 0.3328,0.368971 0.99357,0.368971 0.25804,0 0.46061,-0.04341 0.20257,-0.04582 0.36414,-0.139871 z"
             style="fill:#ff0000;stroke-width:0.264583"
             id="path1570" />
          <path
             d="m 176.37442,-18.539247 q -0.0748,-0.04341 -0.16399,-0.0627 -0.0868,-0.0217 -0.19293,-0.0217 -0.3762,0 -0.57877,0.24598 -0.20016,0.243569 -0.20016,0.701768 v 1.422827 h -0.44614 v -2.70096 h 0.44614 v 0.419613 q 0.13987,-0.24598 0.36414,-0.364147 0.22428,-0.120579 0.54502,-0.120579 0.0458,0 0.10129,0.0072 0.0555,0.0048 0.12299,0.01688 z"
             style="fill:#ff0000;stroke-width:0.264583"
             id="path1572" />
          <path
             d="m 177.77795,-18.642945 q -0.35691,0 -0.56431,0.279743 -0.20739,0.277331 -0.20739,0.762057 0,0.484726 0.20498,0.764468 0.2074,0.277331 0.56672,0.277331 0.3545,0 0.5619,-0.279743 0.20739,-0.279742 0.20739,-0.762056 0,-0.479903 -0.20739,-0.759646 -0.2074,-0.282154 -0.5619,-0.282154 z m 0,-0.376205 q 0.57878,0 0.90917,0.376205 0.33038,0.376206 0.33038,1.0418 0,0.663182 -0.33038,1.041799 -0.33039,0.376205 -0.90917,0.376205 -0.58119,0 -0.91157,-0.376205 -0.32798,-0.378617 -0.32798,-1.041799 0,-0.665594 0.32798,-1.0418 0.33038,-0.376205 0.91157,-0.376205 z"
             style="fill:#ff0000;stroke-width:0.264583"
             id="path1574" />
          <path
             d="m 179.49499,-18.954037 h 0.44373 l 0.55466,2.107714 0.55225,-2.107714 h 0.52331 l 0.55467,2.107714 0.55225,-2.107714 h 0.44373 l -0.7066,2.70096 h -0.52331 l -0.58119,-2.213823 -0.5836,2.213823 h -0.52331 z"
             style="fill:#ff0000;stroke-width:0.264583"
             id="path1576" />
          <path
             d="m 184.23132,-19.720917 v 0.76688 h 0.91399 v 0.344854 h -0.91399 v 1.466236 q 0,0.330386 0.0892,0.424437 0.0916,0.09405 0.36897,0.09405 h 0.45579 v 0.371382 h -0.45579 q -0.51367,0 -0.709,-0.190514 -0.19534,-0.192926 -0.19534,-0.699356 v -1.466236 h -0.32556 v -0.344854 h 0.32556 v -0.76688 z"
             style="fill:#ff0000;stroke-width:0.264583"
             id="path1578" />
          <path
             d="m 187.97408,-17.883299 v 1.630222 h -0.44373 v -1.615753 q 0,-0.38344 -0.14952,-0.573954 -0.14951,-0.190514 -0.44855,-0.190514 -0.35932,0 -0.56672,0.229099 -0.20739,0.229099 -0.20739,0.624597 v 1.526525 h -0.44615 v -3.752406 h 0.44615 v 1.471059 q 0.15916,-0.243569 0.37379,-0.364147 0.21704,-0.120579 0.4992,-0.120579 0.46543,0 0.70417,0.289389 0.23875,0.286977 0.23875,0.846462 z"
             style="fill:#ff0000;stroke-width:0.264583"
             id="path1580" />
        </g>
        <g
           aria-label="Blood Ca2+"
           id="text855-3-5-4-8"
           style="font-size:4.9389px;line-height:1.25;font-family:sans-serif;-inkscape-font-specification:'sans-serif, Normal';fill:#ff0000;stroke-width:0.264583">
          <path
             d="m 27.733613,-17.669633 v 1.31913 h 0.781349 q 0.393087,0 0.581189,-0.161575 0.190514,-0.163987 0.190514,-0.499196 0,-0.33762 -0.190514,-0.496784 -0.188102,-0.161575 -0.581189,-0.161575 z m 0,-1.480705 v 1.085207 h 0.72106 q 0.356913,0 0.530546,-0.132636 0.176045,-0.135048 0.176045,-0.409968 0,-0.272507 -0.176045,-0.407555 -0.173633,-0.135048 -0.530546,-0.135048 z m -0.487138,-0.400321 h 1.244372 q 0.557073,0 0.858519,0.231511 0.301447,0.231511 0.301447,0.658359 0,0.330385 -0.154341,0.525723 -0.15434,0.195337 -0.453375,0.243568 0.359324,0.07717 0.557073,0.323151 0.20016,0.243569 0.20016,0.610128 0,0.482314 -0.327974,0.745176 -0.327973,0.262861 -0.933278,0.262861 h -1.292603 z"
             style="fill:#ff0000;stroke-width:0.264583"
             id="path1583" />
          <path
             d="m 30.615442,-19.702588 h 0.443729 v 3.752406 h -0.443729 z"
             style="fill:#ff0000;stroke-width:0.264583"
             id="path1585" />
          <path
             d="m 33.034249,-18.34005 q -0.356913,0 -0.564308,0.279742 -0.207395,0.277331 -0.207395,0.762057 0,0.484726 0.204983,0.764469 0.207395,0.27733 0.56672,0.27733 0.354501,0 0.561896,-0.279742 0.207395,-0.279742 0.207395,-0.762057 0,-0.479903 -0.207395,-0.759645 -0.207395,-0.282154 -0.561896,-0.282154 z m 0,-0.376205 q 0.578777,0 0.909163,0.376205 0.330385,0.376205 0.330385,1.041799 0,0.663183 -0.330385,1.041799 -0.330386,0.376206 -0.909163,0.376206 -0.581189,0 -0.911575,-0.376206 -0.327973,-0.378616 -0.327973,-1.041799 0,-0.665594 0.327973,-1.041799 0.330386,-0.376205 0.911575,-0.376205 z"
             style="fill:#ff0000;stroke-width:0.264583"
             id="path1588" />
          <path
             d="m 36.055949,-18.34005 q -0.356913,0 -0.564308,0.279742 -0.207395,0.277331 -0.207395,0.762057 0,0.484726 0.204983,0.764469 0.207395,0.27733 0.56672,0.27733 0.354501,0 0.561896,-0.279742 0.207395,-0.279742 0.207395,-0.762057 0,-0.479903 -0.207395,-0.759645 -0.207395,-0.282154 -0.561896,-0.282154 z m 0,-0.376205 q 0.578777,0 0.909162,0.376205 0.330386,0.376205 0.330386,1.041799 0,0.663183 -0.330386,1.041799 -0.330385,0.376206 -0.909162,0.376206 -0.581189,0 -0.911575,-0.376206 -0.327973,-0.378616 -0.327973,-1.041799 0,-0.665594 0.327973,-1.041799 0.330386,-0.376205 0.911575,-0.376205 z"
             style="fill:#ff0000;stroke-width:0.264583"
             id="path1590" />
          <path
             d="m 39.808355,-18.241176 v -1.461412 h 0.443729 v 3.752406 h -0.443729 v -0.405144 q -0.139871,0.241157 -0.354501,0.359324 -0.212219,0.115756 -0.511253,0.115756 -0.48955,0 -0.798231,-0.390675 -0.30627,-0.390675 -0.30627,-1.02733 0,-0.636655 0.30627,-1.02733 0.308681,-0.390674 0.798231,-0.390674 0.299034,0 0.511253,0.118167 0.21463,0.115755 0.354501,0.356912 z m -1.512056,0.942925 q 0,0.489549 0.200161,0.769292 0.202572,0.277331 0.554661,0.277331 0.35209,0 0.554662,-0.277331 0.202572,-0.279743 0.202572,-0.769292 0,-0.489549 -0.202572,-0.76688 -0.202572,-0.279742 -0.554662,-0.279742 -0.352089,0 -0.554661,0.279742 -0.200161,0.277331 -0.200161,0.76688 z"
             style="fill:#ff0000;stroke-width:0.264583"
             id="path1592" />
          <path
             d="m 45.451435,-19.273329 v 0.513665 q -0.245981,-0.229099 -0.525723,-0.342443 -0.277331,-0.113344 -0.590835,-0.113344 -0.617363,0 -0.945337,0.378617 -0.327974,0.376205 -0.327974,1.090031 0,0.711414 0.327974,1.09003 0.327974,0.376206 0.945337,0.376206 0.313504,0 0.590835,-0.113344 0.279742,-0.113344 0.525723,-0.342444 v 0.508842 q -0.255627,0.173633 -0.542604,0.26045 -0.284566,0.08682 -0.602893,0.08682 -0.817523,0 -1.28778,-0.499196 -0.470256,-0.501607 -0.470256,-1.367361 0,-0.868166 0.470256,-1.367362 0.470257,-0.501607 1.28778,-0.501607 0.32315,0 0.607716,0.08682 0.286977,0.08441 0.537781,0.255626 z"
             style="fill:#ff0000;stroke-width:0.264583"
             id="path1594" />
          <path
             d="m 47.412042,-17.307897 q -0.537781,0 -0.745176,0.12299 -0.207395,0.12299 -0.207395,0.419614 0,0.236334 0.15434,0.376205 0.156753,0.13746 0.424437,0.13746 0.368971,0 0.590835,-0.26045 0.224277,-0.262862 0.224277,-0.696945 v -0.09887 z m 0.885047,-0.18328 v 1.540995 H 47.85336 v -0.409967 q -0.151929,0.24598 -0.378617,0.364147 -0.226688,0.115756 -0.554662,0.115756 -0.41479,0 -0.660771,-0.231511 -0.243568,-0.233923 -0.243568,-0.624598 0,-0.455787 0.303858,-0.687298 0.306269,-0.231511 0.911574,-0.231511 h 0.622186 v -0.04341 q 0,-0.30627 -0.202572,-0.472668 -0.200161,-0.16881 -0.564308,-0.16881 -0.231511,0 -0.450964,0.05547 -0.219453,0.05547 -0.422026,0.166399 v -0.409968 q 0.243569,-0.09405 0.472669,-0.139871 0.229099,-0.04823 0.44614,-0.04823 0.586013,0 0.875401,0.303858 0.289389,0.303858 0.289389,0.92122 z"
             style="fill:#ff0000;stroke-width:0.264583"
             id="path1596" />
          <path
             d="m 49.361678,-18.192221 h 1.105103 v 0.266479 H 48.98077 v -0.266479 q 0.180265,-0.186535 0.490634,-0.500039 0.311937,-0.315072 0.391881,-0.405988 0.152049,-0.17086 0.211615,-0.288424 0.06113,-0.119132 0.06113,-0.233561 0,-0.186535 -0.131672,-0.304099 -0.130104,-0.117565 -0.340152,-0.117565 -0.148915,0 -0.315072,0.05173 -0.16459,0.05173 -0.352693,0.156752 v -0.319775 q 0.191238,-0.07681 0.357395,-0.115996 0.166158,-0.03919 0.304099,-0.03919 0.363666,0 0.579984,0.181832 0.216318,0.181833 0.216318,0.485932 0,0.144212 -0.05486,0.274316 -0.05329,0.128537 -0.19594,0.3041 -0.03919,0.04546 -0.249236,0.263343 -0.210048,0.216318 -0.592523,0.606631 z"
             style="font-size:65%;baseline-shift:super;fill:#ff0000"
             id="path1598" />
          <path
             d="m 52.26473,-19.93844 v 0.87311 h 0.873109 v 0.266478 H 52.26473 v 0.87311 h -0.263344 v -0.87311 h -0.87311 v -0.266478 h 0.87311 v -0.87311 z"
             style="font-size:65%;baseline-shift:super;fill:#ff0000"
             id="path1600" />
        </g>
        <path
           style="fill:none;stroke:#000000;stroke-width:0.265;stroke-linecap:butt;stroke-linejoin:miter;stroke-opacity:1;stroke-miterlimit:4;stroke-dasharray:none;marker-end:url(#Arrow2Mend)"
           d="m 40.345432,-56.288379 c -0.168575,11.1088 -0.337147,22.217339 -0.505714,33.325618"
           id="path1556" />
        <path
           style="fill:none;stroke:#000000;stroke-width:0.265;stroke-linecap:butt;stroke-linejoin:miter;stroke-miterlimit:4;stroke-dasharray:none;stroke-opacity:1;marker-end:url(#Arrow2Mend-0)"
           d="m 76.575858,-55.664165 c -0.168574,11.1088 -0.337144,22.217339 -0.50571,33.325618"
           id="path1556-4" />
        <path
           style="fill:none;stroke:#000000;stroke-width:0.265;stroke-linecap:butt;stroke-linejoin:miter;stroke-miterlimit:4;stroke-dasharray:none;stroke-opacity:1;marker-end:url(#Arrow2Mend-4)"
           d="m 76.673958,-72.032752 c -0.02204,3.117228 -0.04407,6.234192 -0.0661,9.350894"
           id="path1556-6"
           sodipodi:nodetypes="cc" />
        <path
           style="fill:none;stroke:#000000;stroke-width:0.265;stroke-linecap:butt;stroke-linejoin:miter;stroke-miterlimit:4;stroke-dasharray:none;stroke-opacity:1;marker-end:url(#Arrow2Mend-4-3)"
           d="m 110.34198,-71.515254 c -0.0721,6.92398 -0.14425,13.847693 -0.21637,20.771146"
           id="path1556-6-7"
           sodipodi:nodetypes="cc" />
        <path
           style="fill:none;stroke:#000000;stroke-width:0.265;stroke-linecap:butt;stroke-linejoin:miter;stroke-miterlimit:4;stroke-dasharray:none;stroke-opacity:1;marker-end:url(#Arrow2Mend-4-5)"
           d="m 111.31789,-43.93943 c -0.022,3.117228 -0.0441,6.234192 -0.0661,9.350894"
           id="path1556-6-6"
           sodipodi:nodetypes="cc" />
        <path
           style="fill:none;stroke:#000000;stroke-width:0.265;stroke-linecap:butt;stroke-linejoin:miter;stroke-miterlimit:4;stroke-dasharray:none;stroke-opacity:1;marker-end:url(#Arrow2Mend-4-2)"
           d="m 110.99889,-29.493358 c -0.022,3.117228 -0.0441,6.234192 -0.0661,9.350894"
           id="path1556-6-8"
           sodipodi:nodetypes="cc" />
        <path
           style="fill:none;stroke:#000000;stroke-width:0.265;stroke-linecap:butt;stroke-linejoin:miter;stroke-miterlimit:4;stroke-dasharray:none;stroke-opacity:1;marker-end:url(#Arrow2Mend-4-57)"
           d="m 145.59544,-39.785853 c -0.0534,5.580505 -0.10685,11.160744 -0.16027,16.740724"
           id="path1556-6-1"
           sodipodi:nodetypes="cc" />
        <path
           style="fill:none;stroke:#000000;stroke-width:0.265;stroke-linecap:butt;stroke-linejoin:miter;stroke-miterlimit:4;stroke-dasharray:none;stroke-opacity:1;marker-end:url(#Arrow2Mend-4-8)"
           d="m 144.83735,-70.42942 c -1.86512,6.810339 -3.73018,13.620498 -5.5952,20.430479"
           id="path1556-6-9"
           sodipodi:nodetypes="cc" />
        <path
           style="fill:none;stroke:#000000;stroke-width:0.265;stroke-linecap:butt;stroke-linejoin:miter;stroke-miterlimit:4;stroke-dasharray:none;stroke-opacity:1;marker-end:url(#Arrow2Mend-4-7)"
           d="m 144.83735,-70.42942 c 2.12141,6.866213 4.24272,13.732103 6.36393,20.597678"
           id="path1556-6-88"
           sodipodi:nodetypes="cc" />
        <path
           style="fill:none;stroke:#000000;stroke-width:0.265;stroke-linecap:butt;stroke-linejoin:miter;stroke-miterlimit:4;stroke-dasharray:none;stroke-opacity:1;marker-end:url(#Arrow2Mend-4-31)"
           d="m 179.87914,-69.987692 c -0.15654,6.542557 -0.31308,13.084854 -0.46961,19.626893"
           id="path1556-6-96"
           sodipodi:nodetypes="cc" />
        <path
           style="fill:none;stroke:#000000;stroke-width:0.265;stroke-linecap:butt;stroke-linejoin:miter;stroke-miterlimit:4;stroke-dasharray:none;stroke-opacity:1;marker-end:url(#Arrow2Mend-4-4)"
           d="m 179.86225,-43.109487 c -0.0685,7.218959 -0.13708,14.437651 -0.20561,21.656083"
           id="path1556-6-3"
           sodipodi:nodetypes="cc" />
      </g>
    </g>
  </g>
</svg>
