<?xml version="1.0" encoding="UTF-8" standalone="no"?>
<!DOCTYPE svg PUBLIC "-//W3C//DTD SVG 1.0//EN"
  "http://www.w3.org/TR/SVG/DTD/svg10.dtd">
<svg xmlns="http://www.w3.org/2000/svg" version="1.2" baseProfile="tiny"
     width="830px" height="526px" viewport-fill="#ffffff" >
<desc>
Created with Chemtool 1.6.13 from file /home/kevin/Documents/MCAT Cheat Sheet/Biochem/Molecules/Amino Acids/Tryptophan/Tryptophan.svg 
</desc>
<g>
<line x1="597" y1="124" x2="572" y2="169"
style="stroke-width:2; stroke:#000000" />
<line x1="572" y1="169" x2="604" y2="224"
style="stroke-width:2; stroke:#000000" />
<line x1="604" y1="224" x2="655" y2="224"
style="stroke-width:2; stroke:#000000" />
<line x1="572" y1="172" x2="520" y2="172"
style="stroke-width:2; stroke:#000000" />
<line x1="572" y1="166" x2="520" y2="166"
style="stroke-width:2; stroke:#000000" />
<line x1="604" y1="224" x2="572" y2="279"
style="stroke-width:2; stroke:#000000" />
<line x1="572" y1="279" x2="604" y2="334"
style="stroke-width:2; stroke:#000000" />
<line x1="630" y1="430" x2="580" y2="427"
style="stroke-width:2; stroke:#000000" />
<line x1="565" y1="415" x2="550" y2="365"
style="stroke-width:2; stroke:#000000" />
<line x1="755" y1="411" x2="732" y2="469"
style="stroke-width:2; stroke:#000000" />
<line x1="670" y1="479" x2="630" y2="430"
style="stroke-width:2; stroke:#000000" />
<line x1="651" y1="370" x2="715" y2="362"
style="stroke-width:2; stroke:#000000" />
<line x1="630" y1="430" x2="651" y2="370"
style="stroke-width:2; stroke:#000000" />
<line x1="655" y1="379" x2="639" y2="426"
style="stroke-width:2; stroke:#000000" />
<line x1="715" y1="362" x2="755" y2="411"
style="stroke-width:2; stroke:#000000" />
<line x1="746" y1="411" x2="715" y2="371"
style="stroke-width:2; stroke:#000000" />
<line x1="732" y1="469" x2="670" y2="479"
style="stroke-width:2; stroke:#000000" />
<line x1="677" y1="472" x2="725" y2="462"
style="stroke-width:2; stroke:#000000" />
<line x1="550" y1="365" x2="605" y2="333"
style="stroke-width:2; stroke:#000000" />
<line x1="603" y1="342" x2="559" y2="367"
style="stroke-width:2; stroke:#000000" />
<line x1="604" y1="334" x2="651" y2="370"
style="stroke-width:2; stroke:#000000" />
<text x="514" y="177" style="font-family:Helvetica; font-size:18pt; fill:#000000;text-anchor:end;" > 
<tspan>
O</tspan>
</text>
<text x="596" y="122" style="font-family:Helvetica; font-size:18pt; fill:#000000;text-anchor:start;" > 
<tspan>
O</tspan>
<tspan dy="-10" style="font-size:14pt;">-</tspan>
<tspan dy="10">
</tspan>
</text>
<text x="660" y="232" style="font-family:Helvetica; font-size:18pt; fill:#000000;text-anchor:start;" > 
<tspan>
NH</tspan>
<tspan dy="8" style="font-size:14pt;">3</tspan>
<tspan dy="-8">
</tspan>
<tspan dy="-18" dx="-10" style="font-size:14pt;">+</tspan>
<tspan dy="10">
</tspan>
</text>
<text x="575" y="435" style="font-family:Helvetica; font-size:18pt; fill:#000000;text-anchor:end;" > 
<tspan>
HN</tspan>
</text>
</g>
</svg>
