<?xml version="1.0" encoding="UTF-8" standalone="no"?>
<!DOCTYPE svg PUBLIC "-//W3C//DTD SVG 1.0//EN"
  "http://www.w3.org/TR/SVG/DTD/svg10.dtd">
<svg xmlns="http://www.w3.org/2000/svg" version="1.2" baseProfile="tiny"
     width="811px" height="326px" viewport-fill="#ffffff" >
<desc>
Created with Chemtool 1.6.13 from file /home/kevin/Documents/MCAT Cheat Sheet/Biochem/Molecules/Metabolism/TCA/SVG/Citrate.svg 
</desc>
<g>
<line x1="397" y1="283" x2="442" y2="257"
style="stroke-width:2; stroke:#000000" />
<line x1="442" y1="257" x2="497" y2="289"
style="stroke-width:2; stroke:#000000" />
<line x1="497" y1="289" x2="552" y2="257"
style="stroke-width:2; stroke:#000000" />
<line x1="446" y1="257" x2="446" y2="206"
style="stroke-width:2; stroke:#000000" />
<line x1="438" y1="257" x2="438" y2="206"
style="stroke-width:2; stroke:#000000" />
<line x1="552" y1="257" x2="607" y2="289"
style="stroke-width:2; stroke:#000000" />
<line x1="607" y1="289" x2="661" y2="257"
style="stroke-width:2; stroke:#000000" />
<line x1="661" y1="257" x2="705" y2="283"
style="stroke-width:2; stroke:#000000" />
<line x1="665" y1="257" x2="665" y2="205"
style="stroke-width:2; stroke:#000000" />
<line x1="657" y1="257" x2="657" y2="205"
style="stroke-width:2; stroke:#000000" />
<line x1="552" y1="257" x2="577" y2="212"
style="stroke-width:2; stroke:#000000" />
<line x1="552" y1="257" x2="526" y2="212"
style="stroke-width:2; stroke:#000000" />
<text x="393" y="297" style="font-family:Helvetica; font-size:18pt; fill:#000000;text-anchor:end;" > 
<tspan>
O</tspan>
<tspan dy="-10" style="font-size:14pt;">-</tspan>
<tspan dy="10">
</tspan>
</text>
<text x="440" y="202" style="font-family:Helvetica; font-size:18pt; fill:#000000;text-anchor:middle;" > 
<tspan>
O</tspan>
</text>
<text x="708" y="297" style="font-family:Helvetica; font-size:18pt; fill:#000000;text-anchor:start;" > 
<tspan>
O</tspan>
<tspan dy="-10" style="font-size:14pt;">-</tspan>
<tspan dy="10">
</tspan>
</text>
<text x="659" y="201" style="font-family:Helvetica; font-size:18pt; fill:#000000;text-anchor:middle;" > 
<tspan>
O</tspan>
</text>
<text x="576" y="210" style="font-family:Helvetica; font-size:18pt; fill:#000000;text-anchor:start;" > 
<tspan>
COO</tspan>
<tspan dy="-10" style="font-size:14pt;">-</tspan>
<tspan dy="10">
</tspan>
</text>
<text x="526" y="210" style="font-family:Helvetica; font-size:18pt; fill:#000000;text-anchor:end;" > 
<tspan>
HO</tspan>
</text>
</g>
</svg>
